<svg id="Layer_1" data-name="Layer 1" xmlns="http://www.w3.org/2000/svg" xmlns:xlink="http://www.w3.org/1999/xlink" viewBox="0 0 445.6 118.66"><defs><style>.cls-1{fill:url(#linear-gradient);}.cls-2{fill:url(#linear-gradient-2);}.cls-3{fill:url(#linear-gradient-3);}.cls-4{fill:url(#linear-gradient-4);}.cls-5{fill:url(#linear-gradient-5);}.cls-6{fill:url(#linear-gradient-6);}.cls-7{fill:url(#radial-gradient);}.cls-8{fill:url(#radial-gradient-2);}.cls-9{fill:url(#radial-gradient-3);}.cls-10{fill:url(#radial-gradient-4);}.cls-11{fill:url(#radial-gradient-5);}.cls-12{fill:url(#radial-gradient-6);}.cls-13{fill:url(#radial-gradient-7);}.cls-14{fill:url(#radial-gradient-8);}.cls-15{fill:url(#radial-gradient-9);}.cls-16{fill:url(#radial-gradient-10);}.cls-17{fill:url(#radial-gradient-11);}.cls-18{fill:url(#radial-gradient-12);}.cls-19{fill:url(#radial-gradient-13);}.cls-20{fill:url(#radial-gradient-14);}.cls-21{fill:url(#radial-gradient-15);}.cls-22{fill:url(#radial-gradient-16);}.cls-23{fill:url(#radial-gradient-17);}.cls-24{fill:url(#radial-gradient-18);}.cls-25{fill:url(#radial-gradient-19);}.cls-26{fill:url(#radial-gradient-20);}.cls-27{fill:url(#radial-gradient-21);}.cls-28{fill:url(#radial-gradient-22);}.cls-29{fill:url(#radial-gradient-23);}.cls-30{fill:url(#radial-gradient-24);}.cls-31{fill:url(#radial-gradient-25);}.cls-32{fill:url(#radial-gradient-26);}.cls-33{fill:url(#radial-gradient-27);}.cls-34{fill:url(#radial-gradient-28);}.cls-35{fill:url(#radial-gradient-29);}.cls-36{fill:url(#radial-gradient-30);}.cls-37{fill:url(#radial-gradient-31);}.cls-38{fill:url(#radial-gradient-32);}.cls-39{fill:url(#radial-gradient-33);}.cls-40{fill:url(#radial-gradient-34);}.cls-41{fill:url(#radial-gradient-35);}.cls-42{fill:url(#radial-gradient-36);}.cls-43{fill:url(#radial-gradient-37);}.cls-44{fill:url(#radial-gradient-38);}.cls-45{fill:url(#radial-gradient-39);}.cls-46{fill:url(#radial-gradient-40);}.cls-47{fill:url(#radial-gradient-41);}.cls-48{fill:url(#radial-gradient-42);}.cls-49{fill:url(#radial-gradient-43);}.cls-50{fill:url(#radial-gradient-44);}.cls-51{fill:url(#radial-gradient-45);}.cls-52{fill:url(#radial-gradient-46);}.cls-53{fill:url(#radial-gradient-47);}.cls-54{fill:url(#radial-gradient-48);}.cls-55{fill:url(#radial-gradient-49);}.cls-56{fill:url(#radial-gradient-50);}.cls-57{fill:url(#radial-gradient-51);}.cls-58{fill:url(#radial-gradient-52);}.cls-59{fill:url(#radial-gradient-53);}.cls-60{fill:url(#radial-gradient-54);}.cls-61{fill:url(#radial-gradient-55);}.cls-62{fill:url(#radial-gradient-56);}.cls-63{fill:url(#radial-gradient-57);}.cls-64{fill:url(#radial-gradient-58);}.cls-65{fill:url(#radial-gradient-59);}.cls-66{fill:url(#radial-gradient-60);}.cls-67{fill:url(#radial-gradient-61);}.cls-68{fill:url(#radial-gradient-62);}.cls-69{fill:url(#radial-gradient-63);}.cls-70{fill:url(#radial-gradient-64);}.cls-71{fill:url(#radial-gradient-65);}.cls-72{fill:url(#radial-gradient-66);}.cls-73{fill:url(#radial-gradient-67);}.cls-74{fill:url(#radial-gradient-68);}.cls-75{fill:url(#radial-gradient-69);}.cls-76{fill:url(#radial-gradient-70);}.cls-77{fill:url(#radial-gradient-71);}.cls-78{fill:url(#radial-gradient-72);}.cls-79{fill:url(#radial-gradient-73);}.cls-80{fill:url(#radial-gradient-74);}.cls-81{fill:url(#radial-gradient-75);}.cls-82{fill:url(#radial-gradient-76);}.cls-83{fill:url(#linear-gradient-7);}.cls-84,.cls-86{fill:#fbab17;}.cls-85,.cls-86{stroke:#000;stroke-miterlimit:10;stroke-width:0.25px;}.cls-87{font-size:40.04px;font-family:Muli-Medium, Muli;}.cls-88{letter-spacing:-0.03em;}.cls-89{font-size:56.53px;font-family:Muli-Bold, Muli;font-weight:700;}.cls-90{letter-spacing:-0.01em;}.cls-91{letter-spacing:0em;}.cls-92{letter-spacing:-0.01em;}.cls-93{letter-spacing:0em;}.cls-94{letter-spacing:-0.06em;}</style><linearGradient id="linear-gradient" x1="2776.57" y1="-431.82" x2="2785.71" y2="-431.82" gradientTransform="translate(453.57 2842.15) rotate(-90)" gradientUnits="userSpaceOnUse"><stop offset="0" stop-color="#fff"/><stop offset="0.28" stop-color="#bababa"/><stop offset="0.94" stop-color="#101010"/><stop offset="1"/></linearGradient><linearGradient id="linear-gradient-2" x1="71.12" y1="777.67" x2="71.12" y2="786.81" gradientTransform="translate(12.34 -694)" xlink:href="#linear-gradient"/><linearGradient id="linear-gradient-3" x1="43.86" y1="715.83" x2="52.91" y2="715.83" gradientTransform="translate(9.71 -692.86)" xlink:href="#linear-gradient"/><linearGradient id="linear-gradient-4" x1="1225.06" y1="-573.4" x2="1293.49" y2="-573.4" gradientTransform="matrix(0.7, -0.72, 0.72, 0.7, -403.03, 1361.19)" gradientUnits="userSpaceOnUse"><stop offset="0" stop-color="#fff"/><stop offset="0.07" stop-color="#dfdfdf"/><stop offset="0.22" stop-color="#a5a5a5"/><stop offset="0.36" stop-color="#727272"/><stop offset="0.5" stop-color="#494949"/><stop offset="0.64" stop-color="#292929"/><stop offset="0.77" stop-color="#121212"/><stop offset="0.89" stop-color="#050505"/><stop offset="1"/></linearGradient><linearGradient id="linear-gradient-5" x1="1422.08" y1="3761.1" x2="1497.41" y2="3761.1" gradientTransform="translate(3790.6 -1462.93) rotate(88.85)" xlink:href="#linear-gradient-4"/><linearGradient id="linear-gradient-6" x1="3009.72" y1="-647.29" x2="3092.21" y2="-647.29" gradientTransform="translate(766.83 3101.87) rotate(-91.15)" xlink:href="#linear-gradient-4"/><radialGradient id="radial-gradient" cx="-9380.44" cy="-2036.56" r="36.05" gradientTransform="matrix(0.31, -0.04, 0.04, 0.32, 3126.58, 293.24)" gradientUnits="userSpaceOnUse"><stop offset="0.06" stop-color="#fff"/><stop offset="1"/></radialGradient><radialGradient id="radial-gradient-2" cx="-9260.96" cy="-2813.42" r="29.54" gradientTransform="matrix(0.31, -0.07, 0.07, 0.32, 3147.99, 286.78)" xlink:href="#radial-gradient"/><radialGradient id="radial-gradient-3" cx="-9092.53" cy="-3571.57" r="36.06" gradientTransform="matrix(0.3, -0.1, 0.1, 0.31, 3166.78, 280.75)" xlink:href="#radial-gradient"/><radialGradient id="radial-gradient-4" cx="-8820.16" cy="-4294.57" r="29.53" gradientTransform="matrix(0.29, -0.12, 0.12, 0.3, 3190.74, 273.39)" xlink:href="#radial-gradient"/><radialGradient id="radial-gradient-5" cx="-8529.24" cy="-5031.26" r="36.05" gradientTransform="matrix(0.28, -0.15, 0.15, 0.29, 3208.92, 262.39)" xlink:href="#radial-gradient"/><radialGradient id="radial-gradient-6" cx="-8135.94" cy="-5712.48" r="29.54" gradientTransform="matrix(0.27, -0.17, 0.17, 0.28, 3228.77, 250.39)" xlink:href="#radial-gradient"/><radialGradient id="radial-gradient-7" cx="-7724.53" cy="-6357.41" r="36.05" gradientTransform="matrix(0.25, -0.19, 0.19, 0.26, 3247.79, 240.2)" xlink:href="#radial-gradient"/><radialGradient id="radial-gradient-8" cx="-7232.48" cy="-6986.72" r="29.53" gradientTransform="matrix(0.25, -0.21, 0.22, 0.25, 3263.62, 223.02)" xlink:href="#radial-gradient"/><radialGradient id="radial-gradient-9" cx="-6691.57" cy="-7544.19" r="36.05" gradientTransform="translate(3282.35 207.75) rotate(-45) scale(0.33)" xlink:href="#radial-gradient"/><radialGradient id="radial-gradient-10" cx="-6112.54" cy="-8068.64" r="29.54" gradientTransform="translate(3295.76 189.79) rotate(-49.97) scale(0.33)" xlink:href="#radial-gradient"/><radialGradient id="radial-gradient-11" cx="-5481.79" cy="-8543.48" r="36.05" gradientTransform="matrix(0.19, -0.27, 0.26, 0.19, 3312.45, 170.38)" xlink:href="#radial-gradient"/><radialGradient id="radial-gradient-12" cx="-4849.74" cy="-8948.87" r="29.54" gradientTransform="matrix(0.16, -0.28, 0.27, 0.16, 3324.38, 153.7)" xlink:href="#radial-gradient"/><radialGradient id="radial-gradient-13" cx="-4150.9" cy="-9347.2" r="36.05" gradientTransform="matrix(0.14, -0.3, 0.29, 0.14, 3331.67, 131.27)" xlink:href="#radial-gradient"/><radialGradient id="radial-gradient-14" cx="-3444.51" cy="-9659.32" r="29.54" gradientTransform="matrix(0.11, -0.31, 0.3, 0.11, 3339.93, 112.64)" xlink:href="#radial-gradient"/><radialGradient id="radial-gradient-15" cx="-2693.36" cy="-9910.88" r="36.06" gradientTransform="matrix(0.09, -0.32, 0.31, 0.09, 3345.41, 88.93)" xlink:href="#radial-gradient"/><radialGradient id="radial-gradient-16" cx="-1953.97" cy="-10087.93" r="29.54" gradientTransform="matrix(0.06, -0.32, 0.31, 0.06, 3351.59, 68.76)" xlink:href="#radial-gradient"/><radialGradient id="radial-gradient-17" cx="-1160.96" cy="-10216.25" r="36.04" gradientTransform="matrix(0.04, -0.33, 0.32, 0.04, 3354.22, 43.1)" xlink:href="#radial-gradient"/><radialGradient id="radial-gradient-18" cx="-389.01" cy="-10275.07" r="29.53" gradientTransform="matrix(0.01, -0.33, 0.32, 0.01, 3355.15, 21.91)" xlink:href="#radial-gradient"/><radialGradient id="radial-gradient-19" cx="384.67" cy="-10291.43" r="36.05" gradientTransform="matrix(-0.02, -0.33, 0.32, -0.02, 3353.84, 0.86)" xlink:href="#radial-gradient"/><radialGradient id="radial-gradient-20" cx="1144.2" cy="-10225.96" r="29.54" gradientTransform="matrix(-0.05, -0.32, 0.31, -0.05, 3352.98, -20.26)" xlink:href="#radial-gradient"/><radialGradient id="radial-gradient-21" cx="1921.99" cy="-10080.89" r="36.05" gradientTransform="matrix(-0.07, -0.32, 0.31, -0.07, 3346.81, -44.93)" xlink:href="#radial-gradient"/><radialGradient id="radial-gradient-22" cx="2679.5" cy="-9896.77" r="29.54" gradientTransform="matrix(-0.1, -0.31, 0.3, -0.1, 3341.56, -64.4)" xlink:href="#radial-gradient"/><radialGradient id="radial-gradient-23" cx="3402.32" cy="-9633.04" r="36.05" gradientTransform="matrix(-0.12, -0.3, 0.29, -0.12, 3334.15, -87.44)" xlink:href="#radial-gradient"/><radialGradient id="radial-gradient-24" cx="4133.96" cy="-9330.35" r="29.54" gradientTransform="matrix(-0.15, -0.29, 0.28, -0.15, 3323.81, -106.32)" xlink:href="#radial-gradient"/><radialGradient id="radial-gradient-25" cx="4817.65" cy="-8944.85" r="36.05" gradientTransform="matrix(-0.17, -0.28, 0.27, -0.17, 3311.61, -126.84)" xlink:href="#radial-gradient"/><radialGradient id="radial-gradient-26" cx="5455.96" cy="-8516.2" r="29.54" gradientTransform="matrix(-0.19, -0.26, 0.25, -0.19, 3299.57, -145.71)" xlink:href="#radial-gradient"/><radialGradient id="radial-gradient-27" cx="6095.23" cy="-8025.99" r="36.05" gradientTransform="translate(3277.18 -160.31) rotate(-131.35) scale(0.33)" xlink:href="#radial-gradient"/><radialGradient id="radial-gradient-28" cx="6673.55" cy="-7489.87" r="29.54" gradientTransform="translate(3262.31 -176.21) rotate(-136.22) scale(0.33)" xlink:href="#radial-gradient"/><radialGradient id="radial-gradient-29" cx="7158.32" cy="-6947.87" r="36.05" gradientTransform="matrix(-0.25, -0.2, 0.2, -0.25, 3250.68, -202.4)" xlink:href="#radial-gradient"/><radialGradient id="radial-gradient-30" cx="7629.76" cy="-6268.07" r="29.53" gradientTransform="matrix(-0.26, -0.19, 0.19, -0.27, 3227.67, -206.2)" xlink:href="#radial-gradient"/><radialGradient id="radial-gradient-31" cx="8036.54" cy="-5645.5" r="36.05" gradientTransform="matrix(-0.27, -0.16, 0.16, -0.28, 3211.97, -217.76)" xlink:href="#radial-gradient"/><radialGradient id="radial-gradient-32" cx="8431.07" cy="-4929.84" r="29.54" gradientTransform="matrix(-0.29, -0.14, 0.14, -0.3, 3188.85, -224.59)" xlink:href="#radial-gradient"/><radialGradient id="radial-gradient-33" cx="8743.13" cy="-4241.1" r="36.05" gradientTransform="matrix(-0.3, -0.11, 0.11, -0.31, 3171.02, -233.15)" xlink:href="#radial-gradient"/><radialGradient id="radial-gradient-34" cx="8989.7" cy="-3474.02" r="29.54" gradientTransform="matrix(-0.31, -0.09, 0.09, -0.32, 3147.24, -239.62)" xlink:href="#radial-gradient"/><radialGradient id="radial-gradient-35" cx="9163.67" cy="-2747.72" r="36.05" gradientTransform="matrix(-0.31, -0.06, 0.06, -0.32, 3126.92, -245.9)" xlink:href="#radial-gradient"/><radialGradient id="radial-gradient-36" cx="9317.95" cy="-1957.75" r="29.54" gradientTransform="matrix(-0.32, -0.03, 0.03, -0.33, 3106.1, -245.87)" xlink:href="#radial-gradient"/><radialGradient id="radial-gradient-37" cx="9344.88" cy="-1181.45" r="36.05" gradientTransform="matrix(-0.32, -0.01, 0.01, -0.33, 3081.17, -247.75)" xlink:href="#radial-gradient"/><radialGradient id="radial-gradient-38" cx="9358.05" cy="-399.08" r="29.54" gradientTransform="matrix(-0.32, 0.02, -0.02, -0.33, 3060.53, -247.03)" xlink:href="#radial-gradient"/><radialGradient id="radial-gradient-39" cx="9289.62" cy="347.43" r="36.05" gradientTransform="matrix(-0.31, 0.05, -0.05, -0.32, 3039.78, -245.83)" xlink:href="#radial-gradient"/><radialGradient id="radial-gradient-40" cx="9139.27" cy="1140.69" r="29.54" gradientTransform="matrix(-0.31, 0.07, -0.07, -0.32, 3015.38, -240.01)" xlink:href="#radial-gradient"/><radialGradient id="radial-gradient-41" cx="8952.66" cy="1881.57" r="36.05" gradientTransform="matrix(-0.3, 0.1, -0.1, -0.31, 2995.33, -234.17)" xlink:href="#radial-gradient"/><radialGradient id="radial-gradient-42" cx="8718.75" cy="2630.67" r="29.54" gradientTransform="matrix(-0.29, 0.13, -0.13, -0.3, 2976.68, -225.8)" xlink:href="#radial-gradient"/><radialGradient id="radial-gradient-43" cx="8380.01" cy="3334.98" r="36.05" gradientTransform="matrix(-0.28, 0.15, -0.15, -0.29, 2955.27, -215.73)" xlink:href="#radial-gradient"/><radialGradient id="radial-gradient-44" cx="7994.15" cy="4026.39" r="29.54" gradientTransform="matrix(-0.27, 0.17, -0.17, -0.28, 2934.78, -203.38)" xlink:href="#radial-gradient"/><radialGradient id="radial-gradient-45" cx="7579.6" cy="4683.91" r="36.05" gradientTransform="matrix(-0.25, 0.2, -0.2, -0.26, 2919.35, -189.98)" xlink:href="#radial-gradient"/><radialGradient id="radial-gradient-46" cx="7068.77" cy="5300.36" r="29.53" gradientTransform="translate(2900.18 -173.71) rotate(138.65) scale(0.33)" xlink:href="#radial-gradient"/><radialGradient id="radial-gradient-47" cx="6528.61" cy="5862.99" r="36.05" gradientTransform="translate(2885.01 -157.54) rotate(133.78) scale(0.33)" xlink:href="#radial-gradient"/><radialGradient id="radial-gradient-48" cx="5955.83" cy="6366.18" r="29.54" gradientTransform="translate(2869.08 -141.99) rotate(130.03) scale(0.33)" xlink:href="#radial-gradient"/><radialGradient id="radial-gradient-49" cx="5340.33" cy="6821.74" r="36.05" gradientTransform="matrix(-0.18, 0.27, -0.26, -0.18, 2853.62, -125.52)" xlink:href="#radial-gradient"/><radialGradient id="radial-gradient-50" cx="4697.3" cy="7258.56" r="29.54" gradientTransform="translate(2844.26 -105.56) rotate(119.74) scale(0.32)" xlink:href="#radial-gradient"/><radialGradient id="radial-gradient-51" cx="3970.53" cy="7612.99" r="36.05" gradientTransform="matrix(-0.14, 0.3, -0.29, -0.14, 2833.02, -83.09)" xlink:href="#radial-gradient"/><radialGradient id="radial-gradient-52" cx="3272.57" cy="7930.86" r="29.54" gradientTransform="matrix(-0.11, 0.31, -0.3, -0.11, 2825.11, -63.45)" xlink:href="#radial-gradient"/><radialGradient id="radial-gradient-53" cx="2509.79" cy="8162.42" r="36.05" gradientTransform="matrix(-0.09, 0.32, -0.31, -0.09, 2819.27, -40.16)" xlink:href="#radial-gradient"/><radialGradient id="radial-gradient-54" cx="1778.26" cy="8346.45" r="29.53" gradientTransform="matrix(-0.06, 0.32, -0.31, -0.06, 2812.83, -19.44)" xlink:href="#radial-gradient"/><radialGradient id="radial-gradient-55" cx="989.91" cy="8482.11" r="36.05" gradientTransform="matrix(-0.03, 0.33, -0.32, -0.03, 2812.73, 2.64)" xlink:href="#radial-gradient"/><radialGradient id="radial-gradient-56" cx="214.16" cy="8519.94" r="29.53" gradientTransform="matrix(-0.01, 0.33, -0.32, -0.01, 2810.71, 27.29)" xlink:href="#radial-gradient"/><radialGradient id="radial-gradient-57" cx="-568" cy="8516.26" r="36.05" gradientTransform="matrix(0.02, 0.33, -0.32, 0.02, 2812.95, 48.48)" xlink:href="#radial-gradient"/><radialGradient id="radial-gradient-58" cx="-1319.13" cy="8462.35" r="29.54" gradientTransform="matrix(0.05, 0.32, -0.31, 0.05, 2814.09, 69.85)" xlink:href="#radial-gradient"/><radialGradient id="radial-gradient-59" cx="-2106.17" cy="8293.47" r="36.05" gradientTransform="matrix(0.07, 0.32, -0.31, 0.07, 2819.09, 94.11)" xlink:href="#radial-gradient"/><radialGradient id="radial-gradient-60" cx="-2846.52" cy="8120.43" r="29.54" gradientTransform="matrix(0.1, 0.31, -0.3, 0.1, 2825.74, 114.02)" xlink:href="#radial-gradient"/><radialGradient id="radial-gradient-61" cx="-3594.43" cy="7868.35" r="36.05" gradientTransform="matrix(0.13, 0.3, -0.29, 0.13, 2834.2, 133.37)" xlink:href="#radial-gradient"/><radialGradient id="radial-gradient-62" cx="-4299.33" cy="7538.46" r="29.54" gradientTransform="matrix(0.15, 0.29, -0.28, 0.15, 2844.42, 155.45)" xlink:href="#radial-gradient"/><radialGradient id="radial-gradient-63" cx="-4985.66" cy="7137.23" r="36.05" gradientTransform="matrix(0.17, 0.28, -0.27, 0.17, 2856.95, 175.8)" xlink:href="#radial-gradient"/><radialGradient id="radial-gradient-64" cx="-5639.47" cy="6737.32" r="29.54" gradientTransform="matrix(0.2, 0.26, -0.25, 0.2, 2869, 191.14)" xlink:href="#radial-gradient"/><radialGradient id="radial-gradient-65" cx="-6244.59" cy="6240.17" r="36.05" gradientTransform="matrix(0.22, 0.24, -0.24, 0.22, 2887.59, 207.97)" xlink:href="#radial-gradient"/><radialGradient id="radial-gradient-66" cx="-6815.76" cy="5680.22" r="29.54" gradientTransform="translate(2906 224.82) rotate(43.78) scale(0.33)" xlink:href="#radial-gradient"/><radialGradient id="radial-gradient-67" cx="-7312.08" cy="5120.42" r="36.05" gradientTransform="matrix(0.25, 0.2, -0.2, 0.25, 2918.78, 241.31)" xlink:href="#radial-gradient"/><radialGradient id="radial-gradient-68" cx="-7768.33" cy="4482.74" r="29.54" gradientTransform="matrix(0.26, 0.18, -0.18, 0.27, 2937.18, 252.62)" xlink:href="#radial-gradient"/><radialGradient id="radial-gradient-69" cx="-8211.58" cy="3806.79" r="36.05" gradientTransform="matrix(0.28, 0.16, -0.16, 0.29, 2958.04, 262.42)" xlink:href="#radial-gradient"/><radialGradient id="radial-gradient-70" cx="-8554.98" cy="3111.41" r="29.54" gradientTransform="matrix(0.29, 0.14, -0.14, 0.3, 2979.35, 273.22)" xlink:href="#radial-gradient"/><radialGradient id="radial-gradient-71" cx="-8867.66" cy="2402.68" r="36.05" gradientTransform="matrix(0.3, 0.11, -0.11, 0.31, 2998.17, 280.61)" xlink:href="#radial-gradient"/><radialGradient id="radial-gradient-72" cx="-9099.01" cy="1648.85" r="29.54" gradientTransform="matrix(0.31, 0.09, -0.09, 0.32, 3021.54, 286.64)" xlink:href="#radial-gradient"/><radialGradient id="radial-gradient-73" cx="-9279.64" cy="907.26" r="36.05" gradientTransform="matrix(0.31, 0.06, -0.06, 0.32, 3041.59, 292.37)" xlink:href="#radial-gradient"/><radialGradient id="radial-gradient-74" cx="-9412.6" cy="132.75" r="29.54" gradientTransform="matrix(0.32, 0.03, -0.03, 0.33, 3063.12, 293.27)" xlink:href="#radial-gradient"/><radialGradient id="radial-gradient-75" cx="-9479.38" cy="-644.97" r="36.05" gradientTransform="translate(3084.63 293.28) scale(0.32 0.33)" xlink:href="#radial-gradient"/><radialGradient id="radial-gradient-76" cx="-9475.94" cy="-635.65" r="29.54" gradientTransform="translate(3084.63 293.28) scale(0.32 0.33)" xlink:href="#radial-gradient"/><linearGradient id="linear-gradient-7" x1="232.2" y1="2482.91" x2="281.41" y2="2454.5" gradientTransform="matrix(0.77, 0.74, -0.77, 0.79, 1756.42, -2081.21)" gradientUnits="userSpaceOnUse"><stop offset="0" stop-color="#fff"/><stop offset="0.54"/><stop offset="1" stop-color="#f1f1f1"/></linearGradient></defs><title>font120px</title><g id="mask-166"><ellipse class="cls-1" cx="21.76" cy="61.18" rx="4.53" ry="4.58" transform="translate(-1 -0.63) rotate(-0.94)"/></g><g id="mask-165"><ellipse class="cls-2" cx="83.48" cy="88.38" rx="4.53" ry="4.58" transform="translate(-1.75 0.69) rotate(-1.15)"/></g><g id="mask-164"><ellipse class="cls-3" cx="58.07" cy="22.97" rx="4.53" ry="4.58" transform="translate(-0.37 -0.04) rotate(-0.94)"/></g><g id="mask-163"><path class="cls-4" d="M59.42,94.74A34.36,34.36,0,1,1,92.86,59.49q0,.17,0,.33A34.55,34.55,0,0,1,83.3,84.28,33.66,33.66,0,0,1,59.42,94.74ZM58.29,26.41A34,34,0,1,0,92.53,60.16q0-.17,0-.33A34.18,34.18,0,0,0,82.27,36,33.3,33.3,0,0,0,58.29,26.41Z" transform="translate(0 -1)"/></g><g id="mask-162"><path class="cls-5" d="M59.48,98.07A37.72,37.72,0,1,1,96.17,59.35q0,.17,0,.34a37.92,37.92,0,0,1-10.51,26.9A36.92,36.92,0,0,1,59.48,98.07Zm-1.28-75A37.34,37.34,0,1,0,95.79,60.15q0-.19,0-.38a37.52,37.52,0,0,0-11.24-26.2A36.55,36.55,0,0,0,58.23,23.08Z" transform="translate(0 -1)"/></g><g id="mask-161"><path class="cls-6" d="M59.48,101.64A41.17,41.17,0,1,1,99.61,59.46q0,.2,0,.39A41.2,41.2,0,0,1,75.36,98.13,40.3,40.3,0,0,1,59.48,101.64ZM58.17,19.51a40.92,40.92,0,1,0,41.2,40.63q0-.21,0-.41A41.12,41.12,0,0,0,87,31,40.07,40.07,0,0,0,58.17,19.51Z" transform="translate(0 -1)"/></g><g id="mask-160"><path class="cls-7" d="M58.82,60.6a.17.17,0,0,1-.11,0l-24-21.84a.15.15,0,0,1,.18-.24l24,21.81a.13.13,0,0,1-.11.24Z" transform="translate(0 -1)"/></g><g id="mask-159"><path class="cls-8" d="M58.82,60.6a.16.16,0,0,1-.1,0l-21-16.15a.17.17,0,1,1,.13-.31l.07,0,21,16.14a.18.18,0,0,1-.12.3Z" transform="translate(0 -1)"/></g><g id="mask-158"><path class="cls-9" d="M58.82,60.6h-.09L31.48,43a.17.17,0,0,1-.1-.22h0a.17.17,0,0,1,.22-.1h.06L58.9,60.33a.19.19,0,0,1-.13.3Z" transform="translate(0 -1)"/></g><g id="mask-157"><path class="cls-10" d="M58.82,60.6h-.08L35.38,48.19a.17.17,0,0,1,.06-.33h.08L58.89,60.33a.17.17,0,0,1,0,.23Z" transform="translate(0 -1)"/></g><g id="mask-156"><path class="cls-11" d="M58.82,60.6h-.07L29,47.86a.17.17,0,0,1,0-.33h.08l29.75,12.8a.14.14,0,0,1-.06.27Z" transform="translate(0 -1)"/></g><g id="mask-155"><path class="cls-12" d="M58.82,60.6h0L33.7,52.26a.17.17,0,0,1,0-.34h.09l25.07,8.41a.17.17,0,0,1,0,.32Z" transform="translate(0 -1)"/></g><g id="mask-154"><path class="cls-13" d="M58.82,60.6h0L27.37,53a.17.17,0,1,1,0-.34h.08l31.44,7.6a.17.17,0,0,1,0,.33Z" transform="translate(0 -1)"/></g><g id="mask-153"><path class="cls-14" d="M58.82,60.6h0l-26.11-4a.17.17,0,1,1,0-.34h.06l26.08,4a.17.17,0,0,1,0,.33Z" transform="translate(0 -1)"/></g><g id="mask-152"><path class="cls-15" d="M58.82,60.6h0L26.58,58.33A.16.16,0,1,1,26.5,58h.08L58.8,60.27a.17.17,0,0,1,0,.33Z" transform="translate(0 -1)"/></g><g id="mask-151"><path class="cls-16" d="M58.82,60.6h0L32.48,61a.17.17,0,0,1,0-.33h0l26.38-.36a.17.17,0,0,1,0,.33Z" transform="translate(0 -1)"/></g><g id="mask-150"><path class="cls-17" d="M26.67,63.73a.17.17,0,0,1,0-.33l32.15-3.14a.17.17,0,0,1,0,.33h0L26.68,63.72Z" transform="translate(0 -1)"/></g><g id="mask-149"><path class="cls-18" d="M32.85,65.33a.17.17,0,0,1,0-.33l26-4.74a.17.17,0,0,1,.11.32h-.05l-26,4.75Z" transform="translate(0 -1)"/></g><g id="mask-148"><path class="cls-19" d="M27.62,69a.17.17,0,0,1,0-.33l31.2-8.45a.17.17,0,0,1,.16.3h-.07L27.66,69Z" transform="translate(0 -1)"/></g><g id="mask-147"><path class="cls-20" d="M34,69.6a.17.17,0,0,1-.06-.32l24.83-9a.16.16,0,1,1,.23.23h-.08l-24.8,9Z" transform="translate(0 -1)"/></g><g id="mask-146"><path class="cls-21" d="M29.43,74.12a.17.17,0,0,1-.07-.32L58.74,60.33a.17.17,0,0,1,.23.24H58.9L29.48,74.11Z" transform="translate(0 -1)"/></g><g id="mask-145"><path class="cls-22" d="M35.8,73.61a.17.17,0,0,1-.08-.31l23-13a.17.17,0,0,1,.24.24h-.07l-23,13Z" transform="translate(0 -1)"/></g><g id="mask-144"><path class="cls-23" d="M32,78.83a.17.17,0,0,1-.1-.3l26.83-18.2a.17.17,0,0,1,.24.24h-.07L32.13,78.76Z" transform="translate(0 -1)"/></g><g id="mask-143"><path class="cls-24" d="M38.24,77.26a.17.17,0,0,1-.11-.29L58.71,60.33a.17.17,0,1,1,.24.24h0L38.34,77.23A.17.17,0,0,1,38.24,77.26Z" transform="translate(0 -1)"/></g><g id="mask-142"><path class="cls-25" d="M35.39,83a.17.17,0,0,1-.12-.29L58.7,60.33a.16.16,0,1,1,.23.23h0L35.48,83A.17.17,0,0,1,35.39,83Z" transform="translate(0 -1)"/></g><g id="mask-141"><path class="cls-26" d="M41.25,80.47a.2.2,0,0,1-.17-.25L58.69,60.33a.17.17,0,0,1,.29.17v0L41.37,80.41A.17.17,0,0,1,41.25,80.47Z" transform="translate(0 -1)"/></g><g id="mask-140"><path class="cls-27" d="M39.38,86.63a.17.17,0,0,1-.16-.18h0a.17.17,0,0,1,0-.09l19.46-26a.14.14,0,0,1,.23.17L39.48,86.56A.17.17,0,0,1,39.38,86.63Z" transform="translate(0 -1)"/></g><g id="mask-139"><path class="cls-28" d="M44.77,83.12h-.09a.17.17,0,0,1,0-.23l14-22.56a.15.15,0,1,1,.24.18L44.87,83A.17.17,0,0,1,44.77,83.12Z" transform="translate(0 -1)"/></g><g id="mask-138"><path class="cls-29" d="M43.9,89.51h-.08a.17.17,0,0,1-.07-.22l14.92-29a.14.14,0,1,1,.24.15L44,89.42A.17.17,0,0,1,43.9,89.51Z" transform="translate(0 -1)"/></g><g id="mask-137"><path class="cls-30" d="M48.61,85.15h-.07a.17.17,0,0,1-.06-.22l10.18-24.6a.17.17,0,0,1,.31.13L48.76,85.05A.17.17,0,0,1,48.61,85.15Z" transform="translate(0 -1)"/></g><g id="mask-136"><path class="cls-31" d="M48.84,91.59h0a.17.17,0,0,1-.11-.21l10-31a.17.17,0,0,1,.31.1l-10,31A.17.17,0,0,1,48.84,91.59Z" transform="translate(0 -1)"/></g><g id="mask-135"><path class="cls-32" d="M52.77,86.51h0a.17.17,0,0,1-.12-.2l6-25.91a.17.17,0,0,1,.23-.07h0a.17.17,0,0,1,.09.15L53,86.39A.17.17,0,0,1,52.77,86.51Z" transform="translate(0 -1)"/></g><g id="mask-134"><path class="cls-33" d="M54,92.83h0a.17.17,0,0,1-.14-.19L58.67,60.4a.17.17,0,0,1,.32,0l-4.8,32.25a.17.17,0,0,1-.16.18Z" transform="translate(0 -1)"/></g><g id="mask-133"><path class="cls-34" d="M57.09,87.17h0a.17.17,0,0,1-.15-.18l1.73-26.57a.17.17,0,0,1,.32,0L57.24,87A.17.17,0,0,1,57.09,87.17Z" transform="translate(0 -1)"/></g><g id="mask-132"><path class="cls-35" d="M59,60.12h0a.17.17,0,0,1,.17.17l.65,32.58a.17.17,0,0,1-.16.17h0a.17.17,0,0,1-.17-.17l-.65-32.54a.17.17,0,0,1,.13-.21Z" transform="translate(0 -1)"/></g><g id="mask-131"><path class="cls-36" d="M61.48,87.09a.17.17,0,0,1-.17-.15L58.65,60.45a.17.17,0,0,1,.32,0l2.64,26.49a.17.17,0,0,1-.15.18Z" transform="translate(0 -1)"/></g><g id="mask-130"><path class="cls-37" d="M64.7,92.66a.17.17,0,0,1-.17-.14l-5.9-32a.17.17,0,0,1,.32-.06l5.9,32a.17.17,0,0,1-.13.19Z" transform="translate(0 -1)"/></g><g id="mask-129"><path class="cls-38" d="M65.75,86.33a.17.17,0,0,1-.16-.12l-6.94-25.7a.17.17,0,0,1,.31-.09l6.94,25.7a.17.17,0,0,1-.12.2Z" transform="translate(0 -1)"/></g><g id="mask-128"><path class="cls-39" d="M69.85,91.23a.17.17,0,0,1-.16-.11l-11-30.63a.17.17,0,0,1,.3-.11L70,91a.17.17,0,0,1-.1.21Z" transform="translate(0 -1)"/></g><g id="mask-127"><path class="cls-40" d="M69.85,84.79a.17.17,0,0,1-.15-.1L58.7,60.5a.17.17,0,0,1,.3-.14L70,84.55a.17.17,0,0,1-.08.22Z" transform="translate(0 -1)"/></g><g id="mask-126"><path class="cls-41" d="M74.71,89a.17.17,0,0,1-.15-.08L58.67,60.52a.17.17,0,0,1,.12-.21h0a.17.17,0,0,1,.17,0L74.85,88.69a.17.17,0,0,1-.06.23Z" transform="translate(0 -1)"/></g><g id="mask-125"><path class="cls-42" d="M73.66,82.61a.17.17,0,0,1-.14-.07l-14.84-22a.19.19,0,0,1,.27-.2l14.83,22a.17.17,0,0,1-.05.23Z" transform="translate(0 -1)"/></g><g id="mask-124"><path class="cls-43" d="M79.16,85.94a.17.17,0,0,1-.13-.06L58.68,60.54a.18.18,0,0,1,.26-.23l20.32,25.4a.17.17,0,0,1,0,.24h-.1Z" transform="translate(0 -1)"/></g><g id="mask-123"><path class="cls-44" d="M77.06,79.84a.17.17,0,0,1-.12,0L58.69,60.55a.17.17,0,0,1,.23-.23L77.19,79.56a.13.13,0,0,1-.1.24Z" transform="translate(0 -1)"/></g><g id="mask-122"><path class="cls-45" d="M83,82.2a.16.16,0,0,1-.11,0L58.7,60.56a.17.17,0,0,1,.17-.29h0L83.09,81.92a.13.13,0,0,1-.11.24Z" transform="translate(0 -1)"/></g><g id="mask-121"><path class="cls-46" d="M79.94,76.54h-.1l-21.14-16a.17.17,0,1,1,.16-.3h0L80,76.24a.18.18,0,0,1-.1.3Z" transform="translate(0 -1)"/></g><g id="mask-120"><path class="cls-47" d="M86.19,77.88H86.1L58.73,60.58a.17.17,0,0,1-.1-.22h0a.17.17,0,0,1,.22-.1h.06L86.28,77.58a.19.19,0,0,1-.13.3Z" transform="translate(0 -1)"/></g><g id="mask-119"><path class="cls-48" d="M82.26,72.81h-.08L58.74,60.58a.17.17,0,0,1,.06-.33h.08l23.44,12.2a.19.19,0,0,1-.12.3Z" transform="translate(0 -1)"/></g><g id="mask-118"><path class="cls-49" d="M88.65,73.08h-.07L58.75,60.59a.16.16,0,1,1,.08-.32h0L88.71,72.81a.17.17,0,0,1,.07.23h0a.17.17,0,0,1-.13.09Z" transform="translate(0 -1)"/></g><g id="mask-117"><path class="cls-50" d="M83.93,68.73h0L58.76,60.59a.17.17,0,0,1,0-.33h0L84,68.4a.17.17,0,0,1,0,.32Z" transform="translate(0 -1)"/></g><g id="mask-116"><path class="cls-51" d="M90.28,67.94h0L58.84,60.6a.17.17,0,0,1,0-.34h.09L90.37,67.6a.17.17,0,0,1,0,.33Z" transform="translate(0 -1)"/></g><g id="mask-115"><path class="cls-52" d="M84.93,64.43h0L58.79,60.6a.16.16,0,0,1-.08-.32h.08L84.9,64.11a.17.17,0,0,1,0,.33Z" transform="translate(0 -1)"/></g><g id="mask-114"><path class="cls-53" d="M91,62.6h0l-32.23-2a.16.16,0,0,1-.08-.32h.08l32.23,2a.17.17,0,0,1,0,.33Z" transform="translate(0 -1)"/></g><g id="mask-113"><path class="cls-54" d="M58.82,60.6a.17.17,0,0,1,0-.33l26.37-.57h0a.17.17,0,0,1,0,.33Z" transform="translate(0 -1)"/></g><g id="mask-112"><path class="cls-55" d="M58.82,60.6a.17.17,0,0,1,0-.33L91,56.93a.16.16,0,1,1,.08.32h-.08L58.83,60.6Z" transform="translate(0 -1)"/></g><g id="mask-111"><path class="cls-56" d="M58.82,60.6a.17.17,0,0,1,0-.33l25.92-5a.17.17,0,0,1,.11.32H84.8l-25.92,5Z" transform="translate(0 -1)"/></g><g id="mask-110"><path class="cls-57" d="M58.82,60.6a.17.17,0,0,1,0-.33L90,51.58a.17.17,0,0,1,.23.07h0a.17.17,0,0,1-.07.23H90L58.86,60.59Z" transform="translate(0 -1)"/></g><g id="mask-109"><path class="cls-58" d="M58.82,60.6a.17.17,0,0,1-.06-.32l24.72-9.2a.16.16,0,1,1,.23.23h-.08l-24.76,9.2Z" transform="translate(0 -1)"/></g><g id="mask-108"><path class="cls-59" d="M58.82,60.6a.17.17,0,0,1-.07-.32L88,46.52a.17.17,0,0,1,.23.24h-.07L58.88,60.58Z" transform="translate(0 -1)"/></g><g id="mask-107"><path class="cls-60" d="M58.82,60.6a.17.17,0,0,1-.08-.31l22.91-13.2a.17.17,0,1,1,.24.24h-.07L58.89,60.58Z" transform="translate(0 -1)"/></g><g id="mask-106"><path class="cls-61" d="M58.82,60.6a.17.17,0,0,1-.1-.3L85.35,41.85a.17.17,0,1,1,.24.24h-.07L58.91,60.57Z" transform="translate(0 -1)"/></g><g id="mask-105"><path class="cls-62" d="M58.82,60.6a.17.17,0,0,1-.11-.29L79.15,43.44a.17.17,0,0,1,.24.24h0L58.92,60.57A.16.16,0,0,1,58.82,60.6Z" transform="translate(0 -1)"/></g><g id="mask-104"><path class="cls-63" d="M58.82,60.6a.17.17,0,0,1-.12-.28L82,37.69a.17.17,0,0,1,.23.24L58.93,60.55A.17.17,0,0,1,58.82,60.6Z" transform="translate(0 -1)"/></g><g id="mask-103"><path class="cls-64" d="M58.82,60.6a.17.17,0,0,1-.16-.18h0a.17.17,0,0,1,0-.09l17.44-20a.15.15,0,1,1,.23.19l-17.41,20A.17.17,0,0,1,58.82,60.6Z" transform="translate(0 -1)"/></g><g id="mask-102"><path class="cls-65" d="M58.82,60.6a.22.22,0,0,1-.16-.26L77.91,34.15a.16.16,0,1,1,.24.2L59,60.53A.17.17,0,0,1,58.82,60.6Z" transform="translate(0 -1)"/></g><g id="mask-101"><path class="cls-66" d="M58.82,60.6h-.09a.17.17,0,0,1,0-.23L72.58,37.71a.14.14,0,0,1,.24.16L59,60.52A.17.17,0,0,1,58.82,60.6Z" transform="translate(0 -1)"/></g><g id="mask-100"><path class="cls-67" d="M58.82,60.6h-.08a.17.17,0,0,1-.07-.22l14.68-29a.18.18,0,0,1,.29.19L59,60.52A.17.17,0,0,1,58.82,60.6Z" transform="translate(0 -1)"/></g><g id="mask-99"><path class="cls-68" d="M58.82,60.6h-.07a.17.17,0,0,1-.09-.22l10-24.64a.17.17,0,0,1,.31.13L59,60.5A.17.17,0,0,1,58.82,60.6Z" transform="translate(0 -1)"/></g><g id="mask-98"><path class="cls-69" d="M58.82,60.6h0a.17.17,0,0,1-.11-.21l9.64-31.06a.17.17,0,0,1,.31.1L59,60.51A.17.17,0,0,1,58.82,60.6Z" transform="translate(0 -1)"/></g><g id="mask-97"><path class="cls-70" d="M58.82,60.6h0a.17.17,0,0,1-.12-.2l5.85-26a.17.17,0,0,1,.23-.07h0a.17.17,0,0,1,.09.14l-5.9,26A.17.17,0,0,1,58.82,60.6Z" transform="translate(0 -1)"/></g><g id="mask-96"><path class="cls-71" d="M58.82,60.6h0a.17.17,0,0,1-.14-.19l4.49-32.27a.17.17,0,0,1,.32,0L59,60.42a.17.17,0,0,1-.16.18Z" transform="translate(0 -1)"/></g><g id="mask-95"><path class="cls-72" d="M58.82,60.6h0a.17.17,0,0,1-.16-.17l1.52-26.58a.17.17,0,0,1,.32,0L59,60.44A.17.17,0,0,1,58.82,60.6Z" transform="translate(0 -1)"/></g><g id="mask-94"><path class="cls-73" d="M58.24,27.67h0a.17.17,0,0,1,.17.17L59,60.42a.17.17,0,0,1-.16.17h0a.17.17,0,0,1-.17-.17l-.57-32.57a.17.17,0,0,1,.16-.18Z" transform="translate(0 -1)"/></g><g id="mask-93"><path class="cls-74" d="M58.82,60.6a.17.17,0,0,1-.17-.15L55.8,34a.17.17,0,0,1,.32,0L59,60.45a.17.17,0,0,1-.15.18Z" transform="translate(0 -1)"/></g><g id="mask-92"><path class="cls-75" d="M58.82,60.6a.17.17,0,0,1-.17-.13l-6.17-32a.17.17,0,0,1,.32-.06l6.13,32a.17.17,0,0,1-.13.19Z" transform="translate(0 -1)"/></g><g id="mask-91"><path class="cls-76" d="M58.82,60.6a.17.17,0,0,1-.16-.12L51.48,34.84a.17.17,0,0,1,.31-.09l7.13,25.64a.17.17,0,0,1-.11.2Z" transform="translate(0 -1)"/></g><g id="mask-90"><path class="cls-77" d="M58.82,60.6a.17.17,0,0,1-.16-.11L47.38,30a.18.18,0,0,1,.11-.23h0a.18.18,0,0,1,.23.11h0L59,60.33a.17.17,0,0,1-.1.21Z" transform="translate(0 -1)"/></g><g id="mask-89"><path class="cls-78" d="M58.82,60.6a.17.17,0,0,1-.15-.1L47.48,36.41a.17.17,0,0,1,.3-.14L59,60.33a.17.17,0,0,1-.08.22Z" transform="translate(0 -1)"/></g><g id="mask-88"><path class="cls-79" d="M58.82,60.6a.17.17,0,0,1-.15-.08L42.56,32.27a.17.17,0,0,1,.16-.18h.09L58.92,60.33a.17.17,0,0,1-.06.23Z" transform="translate(0 -1)"/></g><g id="mask-87"><path class="cls-80" d="M58.82,60.6a.17.17,0,0,1-.14-.07l-15-21.89a.18.18,0,0,1,.26-.22L59,60.33a.17.17,0,0,1,0,.23Z" transform="translate(0 -1)"/></g><g id="mask-86"><path class="cls-81" d="M58.82,60.6a.17.17,0,0,1-.13-.06L38.17,35.33a.18.18,0,0,1,.26-.23L58.94,60.33a.17.17,0,0,1,0,.24h-.09Z" transform="translate(0 -1)"/></g><g id="mask-85"><path class="cls-82" d="M58.82,60.6a.16.16,0,0,1-.12,0L40.31,41.45a.17.17,0,0,1,.23-.23L58.93,60.33a.13.13,0,0,1-.1.24Z" transform="translate(0 -1)"/></g><g id="mask-84"><path class="cls-83" d="M29.36,100.86a9.49,9.49,0,0,1-7-2.36c-3.72-3.63-3.4-11,.91-20.79S35.27,57,45,46.88s20.32-18.31,29.8-23,16.83-5.22,20.54-1.55,3.4,11-.91,20.79-12,20.64-21.76,30.8-20.32,18.32-29.8,23C37.62,99.47,33,100.8,29.36,100.86Zm59-80.53C78,20.5,60.9,30.81,45.22,47.13,25.22,68,15,90.94,22.54,98.26a9.14,9.14,0,0,0,6.78,2.26c10.29-.17,27.42-10.48,43.1-26.8,20-20.84,30.18-43.81,22.68-51.13a9.14,9.14,0,0,0-6.75-2.26Z" transform="translate(0 -1)"/></g><ellipse class="cls-84" cx="58.74" cy="59.33" rx="58.74" ry="59.33"/><path class="cls-85" d="M29.36,100.86a9.49,9.49,0,0,1-7-2.36c-3.72-3.63-3.4-11,.91-20.79S35.27,57,45,46.88s20.32-18.31,29.8-23,16.83-5.22,20.54-1.55,3.4,11-.91,20.79-12,20.64-21.76,30.8-20.32,18.32-29.8,23C37.62,99.47,33,100.8,29.36,100.86Zm59-80.53C78,20.5,60.9,30.81,45.22,47.13,25.22,68,15,90.94,22.54,98.26a9.14,9.14,0,0,0,6.78,2.26c10.29-.17,27.42-10.48,43.1-26.8,20-20.84,30.18-43.81,22.68-51.13a9.14,9.14,0,0,0-6.75-2.26Z" transform="translate(0 -1)"/><path class="cls-85" d="M58.82,60.6a.16.16,0,0,1-.12,0L40.31,41.45a.17.17,0,0,1,.23-.23L58.93,60.33a.13.13,0,0,1-.1.24Z" transform="translate(0 -1)"/><path class="cls-85" d="M58.82,60.6a.17.17,0,0,1-.13-.06L38.17,35.33a.18.18,0,0,1,.26-.23L58.94,60.33a.17.17,0,0,1,0,.24h-.09Z" transform="translate(0 -1)"/><path class="cls-85" d="M58.82,60.6a.17.17,0,0,1-.14-.07l-15-21.89a.18.18,0,0,1,.26-.22L59,60.33a.17.17,0,0,1,0,.23Z" transform="translate(0 -1)"/><path class="cls-85" d="M58.82,60.6a.17.17,0,0,1-.15-.08L42.56,32.27a.17.17,0,0,1,.16-.18h.09L58.92,60.33a.17.17,0,0,1-.06.23Z" transform="translate(0 -1)"/><path class="cls-85" d="M58.82,60.6a.17.17,0,0,1-.15-.1L47.48,36.41a.17.17,0,0,1,.3-.14L59,60.33a.17.17,0,0,1-.08.22Z" transform="translate(0 -1)"/><path class="cls-85" d="M58.82,60.6a.17.17,0,0,1-.16-.11L47.38,30a.18.18,0,0,1,.11-.23h0a.18.18,0,0,1,.23.11h0L59,60.33a.17.17,0,0,1-.1.21Z" transform="translate(0 -1)"/><path class="cls-85" d="M58.82,60.6a.17.17,0,0,1-.16-.12L51.48,34.84a.17.17,0,0,1,.31-.09l7.13,25.64a.17.17,0,0,1-.11.2Z" transform="translate(0 -1)"/><path class="cls-85" d="M58.82,60.6a.17.17,0,0,1-.17-.13l-6.17-32a.17.17,0,0,1,.32-.06l6.13,32a.17.17,0,0,1-.13.19Z" transform="translate(0 -1)"/><path class="cls-85" d="M58.82,60.6a.17.17,0,0,1-.17-.15L55.8,34a.17.17,0,0,1,.32,0L59,60.45a.17.17,0,0,1-.15.18Z" transform="translate(0 -1)"/><path class="cls-85" d="M58.25,27.67h0a.17.17,0,0,1,.17.17L59,60.42a.17.17,0,0,1-.16.17h0a.17.17,0,0,1-.17-.17l-.57-32.58A.17.17,0,0,1,58.25,27.67Z" transform="translate(0 -1)"/><path class="cls-85" d="M58.82,60.6h0a.17.17,0,0,1-.16-.17l1.52-26.58a.17.17,0,0,1,.32,0L59,60.44A.17.17,0,0,1,58.82,60.6Z" transform="translate(0 -1)"/><path class="cls-85" d="M58.82,60.6h0a.17.17,0,0,1-.14-.19l4.49-32.27a.17.17,0,0,1,.32,0L59,60.42a.17.17,0,0,1-.16.18Z" transform="translate(0 -1)"/><path class="cls-85" d="M58.82,60.6h0a.17.17,0,0,1-.12-.2l5.85-26a.17.17,0,0,1,.23-.07h0a.17.17,0,0,1,.09.14l-5.9,26A.17.17,0,0,1,58.82,60.6Z" transform="translate(0 -1)"/><path class="cls-85" d="M58.82,60.6h0a.17.17,0,0,1-.11-.21l9.64-31.06a.17.17,0,0,1,.31.1L59,60.51A.17.17,0,0,1,58.82,60.6Z" transform="translate(0 -1)"/><path class="cls-85" d="M58.82,60.6h-.07a.17.17,0,0,1-.09-.22l10-24.64a.17.17,0,0,1,.31.13L59,60.5A.17.17,0,0,1,58.82,60.6Z" transform="translate(0 -1)"/><path class="cls-85" d="M58.82,60.6h-.08a.17.17,0,0,1-.07-.22l14.68-29a.18.18,0,0,1,.29.19L59,60.52A.17.17,0,0,1,58.82,60.6Z" transform="translate(0 -1)"/><path class="cls-85" d="M58.82,60.6h-.09a.17.17,0,0,1,0-.23L72.58,37.71a.14.14,0,0,1,.24.16L59,60.52A.17.17,0,0,1,58.82,60.6Z" transform="translate(0 -1)"/><path class="cls-85" d="M58.82,60.6a.22.22,0,0,1-.16-.26L77.91,34.15a.16.16,0,1,1,.24.2L59,60.53A.17.17,0,0,1,58.82,60.6Z" transform="translate(0 -1)"/><path class="cls-85" d="M58.82,60.6a.17.17,0,0,1-.16-.18h0a.17.17,0,0,1,0-.09l17.44-20a.15.15,0,1,1,.23.19l-17.41,20A.17.17,0,0,1,58.82,60.6Z" transform="translate(0 -1)"/><path class="cls-85" d="M58.82,60.6a.17.17,0,0,1-.12-.28L82,37.69a.17.17,0,0,1,.23.24L58.93,60.55A.17.17,0,0,1,58.82,60.6Z" transform="translate(0 -1)"/><path class="cls-85" d="M58.82,60.6a.17.17,0,0,1-.11-.29L79.15,43.44a.17.17,0,0,1,.24.24h0L58.92,60.57A.16.16,0,0,1,58.82,60.6Z" transform="translate(0 -1)"/><path class="cls-85" d="M58.82,60.6a.17.17,0,0,1-.1-.3L85.35,41.85a.17.17,0,1,1,.24.24h-.07L58.91,60.57Z" transform="translate(0 -1)"/><path class="cls-85" d="M58.82,60.6a.17.17,0,0,1-.08-.31l22.91-13.2a.17.17,0,1,1,.24.24h-.07L58.89,60.58Z" transform="translate(0 -1)"/><path class="cls-85" d="M58.82,60.6a.17.17,0,0,1-.07-.32L88,46.52a.17.17,0,0,1,.23.24h-.07L58.88,60.58Z" transform="translate(0 -1)"/><path class="cls-85" d="M58.82,60.6a.17.17,0,0,1-.06-.32l24.72-9.2a.16.16,0,1,1,.23.23h-.08l-24.76,9.2Z" transform="translate(0 -1)"/><path class="cls-85" d="M58.82,60.6a.17.17,0,0,1,0-.33L90,51.58a.17.17,0,0,1,.23.07h0a.17.17,0,0,1-.07.23H90L58.86,60.59Z" transform="translate(0 -1)"/><path class="cls-85" d="M58.82,60.6a.17.17,0,0,1,0-.33l25.92-5a.17.17,0,0,1,.11.32H84.8l-25.92,5Z" transform="translate(0 -1)"/><path class="cls-85" d="M58.82,60.6a.17.17,0,0,1,0-.33L91,56.93a.16.16,0,1,1,.08.32h-.08L58.83,60.6Z" transform="translate(0 -1)"/><path class="cls-85" d="M58.82,60.6a.17.17,0,0,1,0-.33l26.37-.57h0a.17.17,0,0,1,0,.33Z" transform="translate(0 -1)"/><path class="cls-85" d="M91,62.6h0l-32.23-2a.16.16,0,0,1-.08-.32h.08l32.23,2a.17.17,0,0,1,0,.33Z" transform="translate(0 -1)"/><path class="cls-85" d="M84.93,64.43h0L58.79,60.6a.16.16,0,0,1-.08-.32h.08L84.9,64.11a.17.17,0,0,1,0,.33Z" transform="translate(0 -1)"/><path class="cls-85" d="M90.28,67.94h0L58.84,60.6a.17.17,0,0,1,0-.34h.09L90.37,67.6a.17.17,0,0,1,0,.33Z" transform="translate(0 -1)"/><path class="cls-85" d="M83.93,68.73h0L58.76,60.59a.17.17,0,0,1,0-.33h0L84,68.4a.17.17,0,0,1,0,.32Z" transform="translate(0 -1)"/><path class="cls-85" d="M88.65,73.08h-.07L58.75,60.59a.16.16,0,1,1,.08-.32h0L88.71,72.81a.17.17,0,0,1,.07.23h0a.17.17,0,0,1-.13.09Z" transform="translate(0 -1)"/><path class="cls-85" d="M82.26,72.81h-.08L58.74,60.58a.17.17,0,0,1,.06-.33h.08l23.44,12.2a.19.19,0,0,1-.12.3Z" transform="translate(0 -1)"/><path class="cls-85" d="M86.19,77.88H86.1L58.73,60.58a.17.17,0,0,1-.1-.22h0a.17.17,0,0,1,.22-.1h.06L86.28,77.58a.19.19,0,0,1-.13.3Z" transform="translate(0 -1)"/><path class="cls-85" d="M79.94,76.54h-.1l-21.14-16a.17.17,0,1,1,.16-.3h0L80,76.24a.18.18,0,0,1-.1.3Z" transform="translate(0 -1)"/><path class="cls-85" d="M83,82.2a.16.16,0,0,1-.11,0L58.7,60.56a.17.17,0,0,1,.17-.29h0L83.09,81.92a.13.13,0,0,1-.11.24Z" transform="translate(0 -1)"/><path class="cls-85" d="M77.06,79.84a.17.17,0,0,1-.12,0L58.69,60.55a.17.17,0,0,1,.23-.23L77.19,79.56a.13.13,0,0,1-.1.24Z" transform="translate(0 -1)"/><path class="cls-85" d="M79.16,85.94a.17.17,0,0,1-.13-.06L58.68,60.54a.18.18,0,0,1,.26-.23l20.32,25.4a.17.17,0,0,1,0,.24h-.1Z" transform="translate(0 -1)"/><path class="cls-85" d="M73.66,82.61a.17.17,0,0,1-.14-.07l-14.84-22a.19.19,0,0,1,.27-.2l14.83,22a.17.17,0,0,1-.05.23Z" transform="translate(0 -1)"/><path class="cls-85" d="M74.71,89a.17.17,0,0,1-.15-.08L58.67,60.52a.17.17,0,0,1,.12-.21h0a.17.17,0,0,1,.17,0L74.85,88.69a.17.17,0,0,1-.06.23Z" transform="translate(0 -1)"/><path class="cls-85" d="M69.85,84.79a.17.17,0,0,1-.15-.1L58.7,60.5a.17.17,0,0,1,.3-.14L70,84.55a.17.17,0,0,1-.08.22Z" transform="translate(0 -1)"/><path class="cls-85" d="M69.85,91.23a.17.17,0,0,1-.16-.11l-11-30.63a.17.17,0,0,1,.3-.11L70,91a.17.17,0,0,1-.1.21Z" transform="translate(0 -1)"/><path class="cls-85" d="M65.75,86.33a.17.17,0,0,1-.16-.12l-6.94-25.7a.17.17,0,0,1,.31-.09l6.94,25.7a.17.17,0,0,1-.12.2Z" transform="translate(0 -1)"/><path class="cls-85" d="M64.7,92.66a.17.17,0,0,1-.17-.14l-5.9-32a.17.17,0,0,1,.32-.06l5.9,32a.17.17,0,0,1-.13.19Z" transform="translate(0 -1)"/><path class="cls-85" d="M61.48,87.09a.17.17,0,0,1-.17-.15L58.65,60.45a.17.17,0,0,1,.32,0l2.64,26.49a.17.17,0,0,1-.15.18Z" transform="translate(0 -1)"/><path class="cls-85" d="M59,60.12h0a.17.17,0,0,1,.17.17l.65,32.58a.17.17,0,0,1-.16.17h0a.17.17,0,0,1-.17-.17l-.65-32.54a.17.17,0,0,1,.13-.21Z" transform="translate(0 -1)"/><path class="cls-85" d="M57.09,87.17h0a.17.17,0,0,1-.15-.18l1.73-26.57a.17.17,0,0,1,.32,0L57.24,87A.17.17,0,0,1,57.09,87.17Z" transform="translate(0 -1)"/><path class="cls-85" d="M54,92.83h0a.17.17,0,0,1-.14-.19L58.67,60.4a.17.17,0,0,1,.32,0l-4.8,32.25a.17.17,0,0,1-.16.18Z" transform="translate(0 -1)"/><path class="cls-85" d="M52.77,86.51h0a.17.17,0,0,1-.12-.2l6-25.91a.17.17,0,0,1,.23-.07h0a.17.17,0,0,1,.09.15L53,86.39A.17.17,0,0,1,52.77,86.51Z" transform="translate(0 -1)"/><path class="cls-85" d="M48.84,91.59h0a.17.17,0,0,1-.11-.21l10-31a.17.17,0,0,1,.31.1l-10,31A.17.17,0,0,1,48.84,91.59Z" transform="translate(0 -1)"/><path class="cls-85" d="M48.61,85.15h-.07a.17.17,0,0,1-.06-.22l10.18-24.6a.17.17,0,0,1,.31.13L48.76,85.05A.17.17,0,0,1,48.61,85.15Z" transform="translate(0 -1)"/><path class="cls-85" d="M43.9,89.51h-.08a.17.17,0,0,1-.07-.22l14.92-29a.14.14,0,1,1,.24.15L44,89.42A.17.17,0,0,1,43.9,89.51Z" transform="translate(0 -1)"/><path class="cls-85" d="M44.77,83.12h-.09a.17.17,0,0,1,0-.23l14-22.56a.15.15,0,1,1,.24.18L44.87,83A.17.17,0,0,1,44.77,83.12Z" transform="translate(0 -1)"/><path class="cls-85" d="M39.38,86.63a.17.17,0,0,1-.16-.18h0a.17.17,0,0,1,0-.09l19.46-26a.14.14,0,0,1,.23.17L39.48,86.56A.17.17,0,0,1,39.38,86.63Z" transform="translate(0 -1)"/><path class="cls-85" d="M41.25,80.47a.2.2,0,0,1-.17-.25L58.69,60.33a.17.17,0,0,1,.29.17v0L41.37,80.41A.17.17,0,0,1,41.25,80.47Z" transform="translate(0 -1)"/><path class="cls-85" d="M35.39,83a.17.17,0,0,1-.12-.29L58.7,60.33a.16.16,0,1,1,.23.23h0L35.48,83A.17.17,0,0,1,35.39,83Z" transform="translate(0 -1)"/><path class="cls-85" d="M38.24,77.26a.17.17,0,0,1-.11-.29L58.71,60.33a.17.17,0,1,1,.24.24h0L38.34,77.23A.17.17,0,0,1,38.24,77.26Z" transform="translate(0 -1)"/><path class="cls-85" d="M32,78.83a.17.17,0,0,1-.1-.3l26.83-18.2a.17.17,0,0,1,.24.24h-.07L32.13,78.76Z" transform="translate(0 -1)"/><path class="cls-85" d="M35.8,73.61a.17.17,0,0,1-.08-.31l23-13a.17.17,0,0,1,.24.24h-.07l-23,13Z" transform="translate(0 -1)"/><path class="cls-85" d="M29.43,74.12a.17.17,0,0,1-.07-.32L58.74,60.33a.17.17,0,0,1,.23.24H58.9L29.48,74.11Z" transform="translate(0 -1)"/><path class="cls-85" d="M34,69.6a.17.17,0,0,1-.06-.32l24.83-9a.16.16,0,1,1,.23.23h-.08l-24.8,9Z" transform="translate(0 -1)"/><path class="cls-85" d="M27.62,69a.17.17,0,0,1,0-.33l31.2-8.45a.17.17,0,0,1,.16.3h-.07L27.66,69Z" transform="translate(0 -1)"/><path class="cls-85" d="M32.85,65.33a.17.17,0,0,1,0-.33l26-4.74a.17.17,0,0,1,.11.32h-.05l-26,4.75Z" transform="translate(0 -1)"/><path class="cls-85" d="M26.67,63.73a.17.17,0,0,1,0-.33l32.15-3.14a.17.17,0,0,1,0,.33h0L26.68,63.72Z" transform="translate(0 -1)"/><path class="cls-85" d="M58.82,60.6h0L32.48,61a.17.17,0,0,1,0-.33h0l26.38-.36a.17.17,0,0,1,0,.33Z" transform="translate(0 -1)"/><path class="cls-85" d="M58.82,60.6h0L26.58,58.33A.16.16,0,1,1,26.5,58h.08L58.8,60.27a.17.17,0,0,1,0,.33Z" transform="translate(0 -1)"/><path class="cls-85" d="M58.82,60.6h0l-26.11-4a.17.17,0,1,1,0-.34h.06l26.08,4a.17.17,0,0,1,0,.33Z" transform="translate(0 -1)"/><path class="cls-85" d="M58.82,60.6h0L27.37,53a.17.17,0,1,1,0-.34h.08l31.44,7.6a.17.17,0,0,1,0,.33Z" transform="translate(0 -1)"/><path class="cls-85" d="M58.82,60.6h0L33.7,52.26a.17.17,0,0,1,0-.34h.09l25.07,8.41a.17.17,0,0,1,0,.32Z" transform="translate(0 -1)"/><path class="cls-85" d="M58.82,60.6h-.07L29,47.86a.17.17,0,0,1,0-.33h.08l29.75,12.8a.14.14,0,0,1-.06.27Z" transform="translate(0 -1)"/><path class="cls-85" d="M58.82,60.6h-.08L35.38,48.19a.17.17,0,0,1,.06-.33h.08L58.89,60.33a.17.17,0,0,1,0,.23Z" transform="translate(0 -1)"/><path class="cls-85" d="M58.82,60.6h-.09L31.48,43a.17.17,0,0,1-.1-.22h0a.17.17,0,0,1,.22-.1h.06L58.9,60.33a.19.19,0,0,1-.13.3Z" transform="translate(0 -1)"/><path class="cls-85" d="M58.82,60.6a.16.16,0,0,1-.1,0l-21-16.15a.17.17,0,1,1,.13-.31l.07,0,21,16.14a.18.18,0,0,1-.12.3Z" transform="translate(0 -1)"/><path class="cls-85" d="M58.82,60.6a.17.17,0,0,1-.11,0l-24-21.84a.15.15,0,0,1,.18-.24l24,21.81a.13.13,0,0,1-.11.24Z" transform="translate(0 -1)"/><path class="cls-85" d="M59.48,101.64A41.17,41.17,0,1,1,99.61,59.46q0,.2,0,.39A41.2,41.2,0,0,1,75.36,98.13,40.3,40.3,0,0,1,59.48,101.64ZM58.17,19.51a40.92,40.92,0,1,0,41.2,40.63q0-.21,0-.41A41.12,41.12,0,0,0,87,31,40.07,40.07,0,0,0,58.17,19.51Z" transform="translate(0 -1)"/><path class="cls-85" d="M59.48,98.07A37.72,37.72,0,1,1,96.17,59.35q0,.17,0,.34a37.92,37.92,0,0,1-10.51,26.9A36.92,36.92,0,0,1,59.48,98.07Zm-1.28-75A37.34,37.34,0,1,0,95.79,60.15q0-.19,0-.38a37.52,37.52,0,0,0-11.24-26.2A36.55,36.55,0,0,0,58.23,23.08Z" transform="translate(0 -1)"/><path class="cls-85" d="M59.42,94.74A34.36,34.36,0,1,1,92.86,59.49q0,.17,0,.33A34.55,34.55,0,0,1,83.3,84.28,33.66,33.66,0,0,1,59.42,94.74ZM58.29,26.41A34,34,0,1,0,92.53,60.16q0-.17,0-.33A34.18,34.18,0,0,0,82.27,36,33.3,33.3,0,0,0,58.29,26.41Z" transform="translate(0 -1)"/><ellipse cx="58.07" cy="22.97" rx="4.53" ry="4.58" transform="translate(-0.37 -0.04) rotate(-0.94)"/><path d="M86,33.33a1.85,1.85,0,1,1-1.88-1.84A1.85,1.85,0,0,1,86,33.33Z" transform="translate(0 -1)"/><path d="M95.33,66.08a2.11,2.11,0,1,1,2-2.17h0a2.13,2.13,0,0,1-.59,1.51A2.06,2.06,0,0,1,95.33,66.08Z" transform="translate(0 -1)"/><path d="M32,32.4a1.91,1.91,0,1,1-1.3.6A1.82,1.82,0,0,1,32,32.4Z" transform="translate(0 -1)"/><path d="M30.72,87.64a1.85,1.85,0,1,1,1.88,1.84,1.85,1.85,0,0,1-1.88-1.84Z" transform="translate(0 -1)"/><path d="M87.09,24.65a3.56,3.56,0,0,1,5-.15l0,0a3.65,3.65,0,0,1,.11,5.12,3.56,3.56,0,0,1-5,.15l0,0A3.65,3.65,0,0,1,87.09,24.65Z" transform="translate(0 -1)"/><path d="M23.85,91.28a3.57,3.57,0,0,1,5-.13l0,0A3.66,3.66,0,0,1,29,96.33a3.57,3.57,0,0,1-5,.13l0,0A3.66,3.66,0,0,1,23.85,91.28Z" transform="translate(0 -1)"/><path d="M26.48,97.62a3.8,3.8,0,1,1,3.71-3.89v0a3.82,3.82,0,0,1-1.06,2.71A3.74,3.74,0,0,1,26.48,97.62Z" transform="translate(0 -1)"/><ellipse cx="83.48" cy="88.38" rx="4.53" ry="4.58" transform="translate(-1.75 0.69) rotate(-1.15)"/><ellipse cx="21.77" cy="61.18" rx="4.53" ry="4.58" transform="translate(-1 -0.63) rotate(-0.94)"/><ellipse class="cls-86" cx="58.67" cy="60.45" rx="15.83" ry="15.99" transform="translate(-1.2 0.19) rotate(-1.15)"/><ellipse cx="58.62" cy="60.75" rx="12.01" ry="12.13" transform="translate(-0.99 -0.03) rotate(-0.94)"/><path class="cls-84" d="M53.3,67.78c-.1-.22-.21-.43-.29-.65A11.88,11.88,0,0,1,52.57,66a.9.9,0,0,1,0-.56c.21-.53.44-1,.68-1.56a.8.8,0,0,0,0-.67l-2-4.79c-.17-.42-.14-.47.3-.47H52.7a.41.41,0,0,1,.43.31l2.69,6.83.07.08a1.46,1.46,0,0,0,.18-.25l1.27-3,1.28-3.06c0-.06.1-.11.15-.16s.14.1.17.17l2.52,6a1.93,1.93,0,0,0,.19.28l.7-1.76L64,59.22c.13-.34.28-.66.39-1a.38.38,0,0,1,.41-.3H66c.32,0,.36.06.25.37-.32.82-.67,1.65-1,2.46l-1,2.46a.77.77,0,0,0,0,.65c.24.53.48,1,.69,1.58A.78.78,0,0,1,65,66c-.19.53-.41,1-.63,1.55a2.09,2.09,0,0,1-.2.29l-.87-2H63.2l-1.48,3.66h-.09l-.48-1.12-2.21-5.1c0-.06-.09-.09-.13-.14s-.13.09-.15.15l-2.18,5.15L56,69.56h-.11l-1.52-3.7c-.41.63-.58,1.32-.91,1.93Z" transform="translate(0 -1)"/><path class="cls-84" d="M55.88,62c-.15-.33-.27-.57-.36-.81s-.3-.71-.42-1.09a.73.73,0,0,1,0-.47c.81-2,1.63-3.88,2.45-5.82.36-.86.73-1.73,1.1-2.58,0-.06.1-.14.16-.14s.13.08.16.14l2.37,5.6c.39.93.8,1.87,1.18,2.8a.6.6,0,0,1,0,.39c-.21.57-.44,1.12-.68,1.68a2.34,2.34,0,0,1-.18.28l-.51-1.13-2.24-5.17a.73.73,0,0,0-.14-.16.73.73,0,0,0-.14.16l-2.55,5.9A1.37,1.37,0,0,1,55.88,62Z" transform="translate(0 -1)"/><text class="cls-87" transform="translate(149.52 47.67)">Sai<tspan class="cls-88" x="59.06" y="0">’</tspan><tspan x="67.3" y="0">s </tspan></text><text class="cls-89" transform="translate(133.86 100)"><tspan class="cls-90">A</tspan><tspan class="cls-91" x="41.89" y="0">s</tspan><tspan x="69.92" y="0">t</tspan><tspan class="cls-92" x="91.35" y="0">r</tspan><tspan class="cls-93" x="112.94" y="0">o</tspan><tspan class="cls-94" x="146.4" y="0">W</tspan><tspan x="206.43" y="0">orld</tspan></text></svg>