<?xml version="1.0" encoding="utf-8"?>
<!-- Generator: Adobe Illustrator 21.1.0, SVG Export Plug-In . SVG Version: 6.00 Build 0)  -->
<svg version="1.1" id="Layer_1" xmlns="http://www.w3.org/2000/svg" xmlns:xlink="http://www.w3.org/1999/xlink" x="0px" y="0px"
	 viewBox="0 0 1113.9 299.1" style="enable-background:new 0 0 1113.9 299.1;" xml:space="preserve">
<style type="text/css">
	.st0{fill:url(#SVGID_1_);}
	.st1{fill:url(#SVGID_2_);}
	.st2{fill:url(#SVGID_3_);}
	.st3{fill:url(#SVGID_4_);}
	.st4{fill:url(#SVGID_5_);}
	.st5{fill:url(#SVGID_6_);}
	.st6{fill:url(#SVGID_7_);}
	.st7{fill:url(#SVGID_8_);}
	.st8{fill:url(#SVGID_9_);}
	.st9{fill:url(#SVGID_10_);}
	.st10{fill:url(#SVGID_11_);}
	.st11{fill:url(#SVGID_12_);}
	.st12{fill:url(#SVGID_13_);}
	.st13{fill:url(#SVGID_14_);}
	.st14{fill:url(#SVGID_15_);}
	.st15{fill:url(#SVGID_16_);}
	.st16{fill:url(#SVGID_17_);}
	.st17{fill:url(#SVGID_18_);}
	.st18{fill:url(#SVGID_19_);}
	.st19{fill:url(#SVGID_20_);}
	.st20{fill:url(#SVGID_21_);}
	.st21{fill:url(#SVGID_22_);}
	.st22{fill:url(#SVGID_23_);}
	.st23{fill:url(#SVGID_24_);}
	.st24{fill:url(#SVGID_25_);}
	.st25{fill:url(#SVGID_26_);}
	.st26{fill:url(#SVGID_27_);}
	.st27{fill:url(#SVGID_28_);}
	.st28{fill:url(#SVGID_29_);}
	.st29{fill:url(#SVGID_30_);}
	.st30{fill:url(#SVGID_31_);}
	.st31{fill:url(#SVGID_32_);}
	.st32{fill:url(#SVGID_33_);}
	.st33{fill:url(#SVGID_34_);}
	.st34{fill:url(#SVGID_35_);}
	.st35{fill:url(#SVGID_36_);}
	.st36{fill:url(#SVGID_37_);}
	.st37{fill:url(#SVGID_38_);}
	.st38{fill:url(#SVGID_39_);}
	.st39{fill:url(#SVGID_40_);}
	.st40{fill:url(#SVGID_41_);}
	.st41{fill:url(#SVGID_42_);}
	.st42{fill:url(#SVGID_43_);}
	.st43{fill:url(#SVGID_44_);}
	.st44{fill:url(#SVGID_45_);}
	.st45{fill:url(#SVGID_46_);}
	.st46{fill:url(#SVGID_47_);}
	.st47{fill:url(#SVGID_48_);}
	.st48{fill:url(#SVGID_49_);}
	.st49{fill:url(#SVGID_50_);}
	.st50{fill:url(#SVGID_51_);}
	.st51{fill:url(#SVGID_52_);}
	.st52{fill:url(#SVGID_53_);}
	.st53{fill:url(#SVGID_54_);}
	.st54{fill:url(#SVGID_55_);}
	.st55{fill:url(#SVGID_56_);}
	.st56{fill:url(#SVGID_57_);}
	.st57{fill:url(#SVGID_58_);}
	.st58{fill:url(#SVGID_59_);}
	.st59{fill:url(#SVGID_60_);}
	.st60{fill:url(#SVGID_61_);}
	.st61{fill:url(#SVGID_62_);}
	.st62{fill:url(#SVGID_63_);}
	.st63{fill:url(#SVGID_64_);}
	.st64{fill:url(#SVGID_65_);}
	.st65{fill:url(#SVGID_66_);}
	.st66{fill:url(#SVGID_67_);}
	.st67{fill:url(#SVGID_68_);}
	.st68{fill:url(#SVGID_69_);}
	.st69{fill:url(#SVGID_70_);}
	.st70{fill:url(#SVGID_71_);}
	.st71{fill:url(#SVGID_72_);}
	.st72{fill:url(#SVGID_73_);}
	.st73{fill:url(#SVGID_74_);}
	.st74{fill:url(#SVGID_75_);}
	.st75{fill:url(#SVGID_76_);}
	.st76{fill:url(#SVGID_77_);}
	.st77{fill:url(#SVGID_78_);}
	.st78{fill:url(#SVGID_79_);}
	.st79{fill:url(#SVGID_80_);}
	.st80{fill:url(#SVGID_81_);}
	.st81{fill:url(#SVGID_82_);}
	.st82{fill:url(#SVGID_83_);}
	.st83{fill:#FBAB17;}
	.st84{stroke:#000000;stroke-width:0.25;stroke-miterlimit:10;}
	.st85{fill:#FBAB17;stroke:#000000;stroke-width:0.25;stroke-miterlimit:10;}
	.st86{font-family:'Muli-Medium';}
	.st87{font-size:102.59px;}
	.st88{letter-spacing:-3;}
	.st89{font-family:'Muli-Bold';}
	.st90{font-size:144.83px;}
	.st91{letter-spacing:-1;}
	.st92{letter-spacing:-8;}
</style>
<title>font</title>
<g id="mask-166">
	
		<linearGradient id="SVGID_1_" gradientUnits="userSpaceOnUse" x1="3718.7983" y1="1361.3716" x2="3741.8584" y2="1361.3716" gradientTransform="matrix(-1.657987e-02 -0.9999 -0.9999 1.657987e-02 1479.4264 3858.9353)">
		<stop  offset="0" style="stop-color:#FFFFFF"/>
		<stop  offset="0.28" style="stop-color:#BABABA"/>
		<stop  offset="0.94" style="stop-color:#101010"/>
		<stop  offset="1" style="stop-color:#000000"/>
	</linearGradient>
	<circle class="st0" cx="56.4" cy="151.7" r="11.5"/>
</g>
<g id="mask-165">
	
		<linearGradient id="SVGID_2_" gradientUnits="userSpaceOnUse" x1="204.4884" y1="-413.5615" x2="204.4884" y2="-436.6215" gradientTransform="matrix(0.9999 -1.657987e-02 -1.657987e-02 -0.9999 0.1926 -200.6763)">
		<stop  offset="0" style="stop-color:#FFFFFF"/>
		<stop  offset="0.28" style="stop-color:#BABABA"/>
		<stop  offset="0.94" style="stop-color:#101010"/>
		<stop  offset="1" style="stop-color:#000000"/>
	</linearGradient>
	<circle class="st1" cx="211.7" cy="221" r="11.5"/>
</g>
<g id="mask-164">
	
		<linearGradient id="SVGID_3_" gradientUnits="userSpaceOnUse" x1="131.8484" y1="-258.4716" x2="154.9084" y2="-258.4716" gradientTransform="matrix(0.9999 -1.657987e-02 -1.657987e-02 -0.9999 0.2003 -200.6709)">
		<stop  offset="0" style="stop-color:#FFFFFF"/>
		<stop  offset="0.28" style="stop-color:#BABABA"/>
		<stop  offset="0.94" style="stop-color:#101010"/>
		<stop  offset="1" style="stop-color:#000000"/>
	</linearGradient>
	<circle class="st2" cx="147.8" cy="55.4" r="11.5"/>
</g>
<g id="mask-163">
	
		<linearGradient id="SVGID_4_" gradientUnits="userSpaceOnUse" x1="1597.0695" y1="1383.6635" x2="1770.2794" y2="1383.6635" gradientTransform="matrix(0.7 -0.72 -0.72 -0.7 -25.09 2322.8899)">
		<stop  offset="0" style="stop-color:#FFFFFF"/>
		<stop  offset="7.000000e-02" style="stop-color:#DFDFDF"/>
		<stop  offset="0.22" style="stop-color:#A5A5A5"/>
		<stop  offset="0.36" style="stop-color:#727272"/>
		<stop  offset="0.5" style="stop-color:#494949"/>
		<stop  offset="0.64" style="stop-color:#292929"/>
		<stop  offset="0.77" style="stop-color:#121212"/>
		<stop  offset="0.89" style="stop-color:#050505"/>
		<stop  offset="1" style="stop-color:#000000"/>
	</linearGradient>
	<path class="st3" d="M151.3,236.3c-47.8,0.8-87.2-37.3-88-85.2s37.3-87.2,85.2-88c47.8-0.8,87.2,37.3,88,85.2
		c0.4,23-8.4,45.1-24.4,61.6C196.1,226.4,174.2,235.9,151.3,236.3z M148.4,64.1c-47.3,0.9-85,39.9-84.2,87.3
		c0.9,47.3,39.9,85,87.3,84.2c47.3-0.9,85-39.9,84.2-87.3c-0.4-22.7-9.8-44.4-26.2-60.2C193.1,72.3,171.1,63.7,148.4,64.1z"/>
</g>
<g id="mask-162">
	
		<linearGradient id="SVGID_5_" gradientUnits="userSpaceOnUse" x1="1930.7246" y1="-4214.9434" x2="2120.5945" y2="-4214.9434" gradientTransform="matrix(2.006997e-02 0.9998 0.9998 -2.006997e-02 4323.4888 -1949.1876)">
		<stop  offset="0" style="stop-color:#FFFFFF"/>
		<stop  offset="7.000000e-02" style="stop-color:#DFDFDF"/>
		<stop  offset="0.22" style="stop-color:#A5A5A5"/>
		<stop  offset="0.36" style="stop-color:#727272"/>
		<stop  offset="0.5" style="stop-color:#494949"/>
		<stop  offset="0.64" style="stop-color:#292929"/>
		<stop  offset="0.77" style="stop-color:#121212"/>
		<stop  offset="0.89" style="stop-color:#050505"/>
		<stop  offset="1" style="stop-color:#000000"/>
	</linearGradient>
	<path class="st4" d="M151.5,244.7c-52.5,0.9-95.8-40.9-96.7-93.4s40.9-95.8,93.4-96.7s95.8,40.9,96.7,93.4
		c0.4,25.3-9.2,49.7-26.8,67.8C200.6,233.8,176.7,244.2,151.5,244.7z M148.2,55.7c-52,0.9-93.4,43.7-92.5,95.7
		c0.9,52,43.7,93.4,95.7,92.5s93.4-43.7,92.5-95.7c-0.4-25-10.7-48.7-28.7-66.1C197.3,64.8,173.2,55.2,148.2,55.7z"/>
</g>
<g id="mask-161">
	
		<linearGradient id="SVGID_6_" gradientUnits="userSpaceOnUse" x1="3898.7454" y1="1519.3507" x2="4106.6753" y2="1519.3507" gradientTransform="matrix(-2.006997e-02 -0.9998 -0.9998 2.006997e-02 1749.4011 4125.6475)">
		<stop  offset="0" style="stop-color:#FFFFFF"/>
		<stop  offset="7.000000e-02" style="stop-color:#DFDFDF"/>
		<stop  offset="0.22" style="stop-color:#A5A5A5"/>
		<stop  offset="0.36" style="stop-color:#727272"/>
		<stop  offset="0.5" style="stop-color:#494949"/>
		<stop  offset="0.64" style="stop-color:#292929"/>
		<stop  offset="0.77" style="stop-color:#121212"/>
		<stop  offset="0.89" style="stop-color:#050505"/>
		<stop  offset="1" style="stop-color:#000000"/>
	</linearGradient>
	<path class="st5" d="M151.5,253.7C94.2,254.5,47,208.8,46.2,151.5S91.1,47,148.4,46.1c57.3-0.9,104.5,44.9,105.3,102.2
		c0.6,41.7-23.7,79.7-61.8,96.5C179.1,250.4,165.4,253.5,151.5,253.7z M148.1,46.7c-57,1-102.3,47.9-101.4,104.9
		s47.9,102.3,104.9,101.4S253.9,205,253,148.1c-0.5-27.3-11.8-53.4-31.4-72.4C201.9,56.6,175.5,46.2,148.1,46.7z"/>
</g>
<g id="mask-160">
	
		<radialGradient id="SVGID_7_" cx="-10380.3213" cy="3198.9324" r="89.98" gradientTransform="matrix(0.3175 -3.971874e-02 -3.971874e-02 -0.3175 3713.5823 665.4958)" gradientUnits="userSpaceOnUse">
		<stop  offset="6.000000e-02" style="stop-color:#FFFFFF"/>
		<stop  offset="1" style="stop-color:#000000"/>
	</radialGradient>
	<path class="st6" d="M149.8,150.2c-0.1,0-0.2,0-0.3,0l-61.1-55c-0.1-0.2-0.1-0.5,0.1-0.6c0.1-0.1,0.3-0.1,0.4,0l61.1,55
		c0.2,0.2,0.2,0.4,0,0.6C149.9,150.3,149.8,150.3,149.8,150.2L149.8,150.2z"/>
</g>
<g id="mask-159">
	
		<radialGradient id="SVGID_8_" cx="-10382.6826" cy="4079.0144" r="73.75" gradientTransform="matrix(0.3224 -7.052511e-02 -7.052511e-02 -0.3224 3740.532 683.0654)" gradientUnits="userSpaceOnUse">
		<stop  offset="6.000000e-02" style="stop-color:#FFFFFF"/>
		<stop  offset="1" style="stop-color:#000000"/>
	</radialGradient>
	<path class="st7" d="M149.8,150.2c-0.1,0-0.2,0-0.2,0L96,109.5c-0.2-0.1-0.3-0.3-0.3-0.6c0.1-0.2,0.3-0.3,0.6-0.3
		c0.1,0,0.2,0.1,0.2,0.2l53.5,40.6c0.2,0.2,0.2,0.4,0,0.6C150,150.2,149.9,150.2,149.8,150.2z"/>
</g>
<g id="mask-158">
	
		<radialGradient id="SVGID_9_" cx="-10150.5312" cy="4799.4116" r="90.01" gradientTransform="matrix(0.3141 -0.1013 -0.1013 -0.3141 3773.4822 698.2558)" gradientUnits="userSpaceOnUse">
		<stop  offset="6.000000e-02" style="stop-color:#FFFFFF"/>
		<stop  offset="1" style="stop-color:#000000"/>
	</radialGradient>
	<path class="st8" d="M149.8,150.2c-0.1,0-0.2,0-0.2,0l-69.4-44.3c-0.2-0.1-0.3-0.3-0.3-0.5c0.1-0.2,0.3-0.3,0.5-0.3
		c0.1,0,0.1,0.1,0.2,0.1l69.3,44.2c0.2,0.1,0.2,0.4,0.1,0.6C150,150.2,149.8,150.2,149.8,150.2L149.8,150.2z"/>
</g>
<g id="mask-157">
	
		<radialGradient id="SVGID_10_" cx="-9588.0391" cy="5762.1177" r="73.72" gradientTransform="matrix(0.3 -0.12 -0.12 -0.3 3811 702.59)" gradientUnits="userSpaceOnUse">
		<stop  offset="6.000000e-02" style="stop-color:#FFFFFF"/>
		<stop  offset="1" style="stop-color:#000000"/>
	</radialGradient>
	<path class="st9" d="M149.8,150.2h-0.2L90.1,119c-0.2,0-0.4-0.3-0.3-0.5c0-0.2,0.3-0.4,0.5-0.3c0.1,0,0.2,0.1,0.2,0.1l59.5,31.2
		c0.2,0.1,0.2,0.4,0.1,0.6C150,150.2,149.9,150.3,149.8,150.2L149.8,150.2z"/>
</g>
<g id="mask-156">
	
		<radialGradient id="SVGID_11_" cx="-9424.0996" cy="6563.8164" r="89.98" gradientTransform="matrix(0.29 -0.15 -0.15 -0.29 3843.73 712.14)" gradientUnits="userSpaceOnUse">
		<stop  offset="6.000000e-02" style="stop-color:#FFFFFF"/>
		<stop  offset="1" style="stop-color:#000000"/>
	</radialGradient>
	<path class="st10" d="M149.8,150.2h-0.2l-75.6-32.1c-0.2,0-0.4-0.2-0.4-0.5c0-0.2,0.2-0.4,0.5-0.4c0.1,0,0.2,0,0.2,0.1l75.6,32
		c0.2,0.1,0.3,0.4,0.2,0.6C150,150,149.9,150.1,149.8,150.2L149.8,150.2z"/>
</g>
<g id="mask-155">
	
		<radialGradient id="SVGID_12_" cx="-8813.1436" cy="7539.2749" r="73.75" gradientTransform="matrix(0.28 -0.17 -0.17 -0.28 3875.9702 713.08)" gradientUnits="userSpaceOnUse">
		<stop  offset="6.000000e-02" style="stop-color:#FFFFFF"/>
		<stop  offset="1" style="stop-color:#000000"/>
	</radialGradient>
	<path class="st11" d="M149.8,150.2h-0.1l-63.8-21c-0.2,0-0.4-0.2-0.4-0.4c0-0.2,0.2-0.4,0.4-0.4c0.1,0,0.2,0,0.2,0.1l63.8,21
		c0.2,0.1,0.3,0.3,0.2,0.6c0,0.1-0.1,0.2-0.2,0.2L149.8,150.2z"/>
</g>
<g id="mask-154">
	
		<radialGradient id="SVGID_13_" cx="-8138.8115" cy="8109.6475" r="89.98" gradientTransform="matrix(0.2584 -0.1888 -0.1888 -0.2584 3915.282 712.9568)" gradientUnits="userSpaceOnUse">
		<stop  offset="6.000000e-02" style="stop-color:#FFFFFF"/>
		<stop  offset="1" style="stop-color:#000000"/>
	</radialGradient>
	<path class="st12" d="M149.8,150.2L149.8,150.2L69.7,131c-0.2,0-0.4-0.2-0.4-0.4c0-0.2,0.2-0.4,0.4-0.4c0.1,0,0.2,0,0.2,0.1
		l80,19.2c0.2,0.1,0.4,0.3,0.3,0.5c0,0.1-0.2,0.3-0.3,0.3L149.8,150.2z"/>
</g>
<g id="mask-153">
	
		<radialGradient id="SVGID_14_" cx="-7715.0864" cy="9308.4883" r="73.72" gradientTransform="matrix(0.25 -0.21 -0.22 -0.25 3944.21 709.41)" gradientUnits="userSpaceOnUse">
		<stop  offset="6.000000e-02" style="stop-color:#FFFFFF"/>
		<stop  offset="1" style="stop-color:#000000"/>
	</radialGradient>
	<path class="st13" d="M149.8,150.2L149.8,150.2L83.3,140c-0.2,0-0.4-0.2-0.5-0.4c0-0.2,0.2-0.4,0.4-0.5c0.1,0,0.1,0,0.2,0
		l66.4,10.2c0.2,0.1,0.4,0.3,0.3,0.5C150.1,150,149.9,150.1,149.8,150.2L149.8,150.2z"/>
</g>
<g id="mask-152">
	
		<radialGradient id="SVGID_15_" cx="-6788.2559" cy="9660.2109" r="89.98" gradientTransform="matrix(0.2333 -0.2333 -0.2333 -0.2333 3980.3083 706.7265)" gradientUnits="userSpaceOnUse">
		<stop  offset="6.000000e-02" style="stop-color:#FFFFFF"/>
		<stop  offset="1" style="stop-color:#000000"/>
	</radialGradient>
	<path class="st14" d="M149.8,150.2L149.8,150.2l-82.1-5.7c-0.2,0.1-0.5-0.1-0.5-0.3c-0.1-0.2,0.1-0.5,0.3-0.5c0.1,0,0.2,0,0.2,0
		l82,5.7c0.2,0.1,0.4,0.3,0.3,0.5C149.9,150.1,149.8,150.2,149.8,150.2L149.8,150.2z"/>
</g>
<g id="mask-151">
	
		<radialGradient id="SVGID_16_" cx="-6118.1138" cy="10258.0049" r="73.75" gradientTransform="matrix(0.2123 -0.2527 -0.2527 -0.2123 4013.8169 699.0546)" gradientUnits="userSpaceOnUse">
		<stop  offset="6.000000e-02" style="stop-color:#FFFFFF"/>
		<stop  offset="1" style="stop-color:#000000"/>
	</radialGradient>
	<path class="st15" d="M149.8,150.2L149.8,150.2l-67.2,0.9c-0.2-0.1-0.4-0.3-0.3-0.5c0-0.1,0.2-0.3,0.3-0.3l0,0l67.2-0.9
		c0.2,0.1,0.4,0.3,0.3,0.5C150,150.1,149.9,150.2,149.8,150.2z"/>
</g>
<g id="mask-150">
	
		<radialGradient id="SVGID_17_" cx="-5455.3423" cy="10954.1543" r="89.98" gradientTransform="matrix(0.19 -0.27 -0.27 -0.19 4045.9302 688.99)" gradientUnits="userSpaceOnUse">
		<stop  offset="6.000000e-02" style="stop-color:#FFFFFF"/>
		<stop  offset="1" style="stop-color:#000000"/>
	</radialGradient>
	<path class="st16" d="M67.9,158.1c-0.2-0.1-0.4-0.3-0.3-0.5c0-0.1,0.2-0.3,0.3-0.3l81.8-7.9c0.2,0,0.5,0.1,0.5,0.3
		c0,0.2-0.1,0.5-0.3,0.5c0,0-0.1,0-0.1,0l0,0L67.9,158.1L67.9,158.1z"/>
</g>
<g id="mask-149">
	
		<radialGradient id="SVGID_18_" cx="-4655.043" cy="11038.8682" r="73.75" gradientTransform="matrix(0.1587 -0.2779 -0.2779 -0.1587 4083.092 672.3236)" gradientUnits="userSpaceOnUse">
		<stop  offset="6.000000e-02" style="stop-color:#FFFFFF"/>
		<stop  offset="1" style="stop-color:#000000"/>
	</radialGradient>
	<path class="st17" d="M83.6,162.2c-0.2-0.1-0.4-0.3-0.3-0.5c0-0.1,0.2-0.3,0.3-0.3l66.1-12c0.2-0.1,0.5,0,0.6,0.2
		c0.1,0.2,0,0.5-0.2,0.6H150h-0.1L83.6,162.2L83.6,162.2z"/>
</g>
<g id="mask-148">
	
		<radialGradient id="SVGID_19_" cx="-3918.9797" cy="11833.2715" r="89.98" gradientTransform="matrix(0.1396 -0.299 -0.299 -0.1396 4110.1021 661.1644)" gradientUnits="userSpaceOnUse">
		<stop  offset="6.000000e-02" style="stop-color:#FFFFFF"/>
		<stop  offset="1" style="stop-color:#000000"/>
	</radialGradient>
	<path class="st18" d="M70.3,171.5c-0.2-0.1-0.4-0.3-0.3-0.5c0-0.1,0.2-0.3,0.3-0.3l79.4-21.3c0.2-0.1,0.5-0.1,0.6,0.2
		s0.1,0.5-0.2,0.6c-0.1,0-0.1,0.1-0.2,0.1L70.3,171.5L70.3,171.5z"/>
</g>
<g id="mask-147">
	
		<radialGradient id="SVGID_20_" cx="-3174.1438" cy="12027.6289" r="73.75" gradientTransform="matrix(0.11 -0.31 -0.31 -0.11 4143.6099 643.93)" gradientUnits="userSpaceOnUse">
		<stop  offset="6.000000e-02" style="stop-color:#FFFFFF"/>
		<stop  offset="1" style="stop-color:#000000"/>
	</radialGradient>
	<path class="st19" d="M86.5,172.9c-0.2,0-0.4-0.3-0.4-0.5c0-0.1,0.1-0.2,0.2-0.3l63.2-22.7c0.2-0.1,0.5-0.1,0.6,0.1
		s0.1,0.5-0.1,0.6c-0.1,0-0.1,0.1-0.2,0.1l-63.1,22.7L86.5,172.9z"/>
</g>
<g id="mask-146">
	
		<radialGradient id="SVGID_21_" cx="-2058.1121" cy="12510.373" r="90.01" gradientTransform="matrix(8.935358e-02 -0.3177 -0.3177 -8.935358e-02 4166.3481 622.3823)" gradientUnits="userSpaceOnUse">
		<stop  offset="6.000000e-02" style="stop-color:#FFFFFF"/>
		<stop  offset="1" style="stop-color:#000000"/>
	</radialGradient>
	<path class="st20" d="M74.9,184.3c-0.2,0-0.4-0.2-0.4-0.5c0-0.1,0.1-0.3,0.2-0.3l74.8-34.1c0.2-0.2,0.5-0.1,0.6,0s0.1,0.5,0,0.6
		c-0.1,0.1-0.1,0.1-0.2,0.1l-74.8,34.1L74.9,184.3z"/>
</g>
<g id="mask-145">
	
		<radialGradient id="SVGID_22_" cx="-1175.3096" cy="12348.3242" r="73.75" gradientTransform="matrix(6.081719e-02 -0.3243 -0.3243 -6.081719e-02 4196.3984 598.1324)" gradientUnits="userSpaceOnUse">
		<stop  offset="6.000000e-02" style="stop-color:#FFFFFF"/>
		<stop  offset="1" style="stop-color:#000000"/>
	</radialGradient>
	<path class="st21" d="M91.1,183c-0.2,0-0.4-0.2-0.4-0.5c0-0.1,0.1-0.2,0.2-0.3l58.6-32.8c0.2-0.2,0.4-0.2,0.6,0
		c0.2,0.2,0.2,0.4,0,0.6c-0.1,0.1-0.1,0.1-0.2,0.1L91.3,183H91.1z"/>
</g>
<g id="mask-144">
	
		<radialGradient id="SVGID_23_" cx="32.7486" cy="12794.5977" r="89.96" gradientTransform="matrix(3.970236e-02 -0.3276 -0.3276 -3.970236e-02 4215.4468 573.0321)" gradientUnits="userSpaceOnUse">
		<stop  offset="6.000000e-02" style="stop-color:#FFFFFF"/>
		<stop  offset="1" style="stop-color:#000000"/>
	</radialGradient>
	<path class="st22" d="M81.4,196.2c-0.2,0-0.4-0.2-0.4-0.5c0-0.1,0.1-0.2,0.1-0.3l68.3-46c0.2-0.2,0.4-0.2,0.6-0.1
		c0.2,0.2,0.2,0.4,0.1,0.6c0,0.1-0.1,0.1-0.2,0.1L81.8,196L81.4,196.2z"/>
</g>
<g id="mask-143">
	
		<radialGradient id="SVGID_24_" cx="888.5954" cy="12693.123" r="73.72" gradientTransform="matrix(1.002013e-02 -0.3298 -0.3298 -1.002013e-02 4239.6011 546.0231)" gradientUnits="userSpaceOnUse">
		<stop  offset="6.000000e-02" style="stop-color:#FFFFFF"/>
		<stop  offset="1" style="stop-color:#000000"/>
	</radialGradient>
	<path class="st23" d="M97.4,192.2c-0.2,0-0.4-0.2-0.4-0.5c0-0.1,0-0.2,0.1-0.3l52.4-42c0.1-0.2,0.4-0.2,0.6-0.1
		c0.2,0.1,0.2,0.4,0.1,0.6c0,0.1-0.1,0.1-0.1,0.1l-52.4,42C97.5,192.2,97.4,192.2,97.4,192.2z"/>
</g>
<g id="mask-142">
	
		<radialGradient id="SVGID_25_" cx="1718.4037" cy="12700.4375" r="89.98" gradientTransform="matrix(-1.997356e-02 -0.3294 -0.3294 1.997356e-02 4260.9941 518.1823)" gradientUnits="userSpaceOnUse">
		<stop  offset="6.000000e-02" style="stop-color:#FFFFFF"/>
		<stop  offset="1" style="stop-color:#000000"/>
	</radialGradient>
	<path class="st24" d="M90.1,206.8c-0.2,0-0.4-0.2-0.4-0.4c0-0.1,0-0.2,0.1-0.3l59.6-56.6c0.1-0.2,0.4-0.3,0.6-0.1
		c0.2,0.1,0.3,0.4,0.1,0.6c0,0.1-0.1,0.1-0.1,0.1l-59.7,56.6C90.3,206.7,90.2,206.8,90.1,206.8z"/>
</g>
<g id="mask-141">
	
		<radialGradient id="SVGID_26_" cx="2440.1199" cy="12302.5879" r="73.75" gradientTransform="matrix(-5.000000e-02 -0.32 -0.32 5.000000e-02 4280.8999 483.02)" gradientUnits="userSpaceOnUse">
		<stop  offset="6.000000e-02" style="stop-color:#FFFFFF"/>
		<stop  offset="1" style="stop-color:#000000"/>
	</radialGradient>
	<path class="st25" d="M105,200.3c-0.2,0-0.4-0.2-0.4-0.4c0-0.1,0-0.2,0.1-0.3l44.7-50c0.1-0.2,0.4-0.3,0.6-0.2
		c0.2,0.1,0.3,0.4,0.2,0.6c0,0.1-0.1,0.1-0.1,0.2l-44.7,50C105.2,200.2,105.1,200.3,105,200.3z"/>
</g>
<g id="mask-140">
	
		<radialGradient id="SVGID_27_" cx="3708.6045" cy="12177.1533" r="89.98" gradientTransform="matrix(-7.052509e-02 -0.3224 -0.3224 7.052509e-02 4290.5054 454.518)" gradientUnits="userSpaceOnUse">
		<stop  offset="6.000000e-02" style="stop-color:#FFFFFF"/>
		<stop  offset="1" style="stop-color:#000000"/>
	</radialGradient>
	<path class="st26" d="M100.3,215.8c-0.2,0-0.4-0.2-0.4-0.4c0-0.1,0-0.2,0.1-0.2l49.5-65.6c0.2-0.1,0.5-0.1,0.6,0.1
		c0.1,0.1,0.1,0.3,0.1,0.4l-49.5,65.6C100.5,215.8,100.4,215.8,100.3,215.8z"/>
</g>
<g id="mask-139">
	
		<radialGradient id="SVGID_28_" cx="4405.0415" cy="11867.1816" r="73.75" gradientTransform="matrix(-0.1013 -0.3141 -0.3141 0.1013 4306.4155 421.2179)" gradientUnits="userSpaceOnUse">
		<stop  offset="6.000000e-02" style="stop-color:#FFFFFF"/>
		<stop  offset="1" style="stop-color:#000000"/>
	</radialGradient>
	<path class="st27" d="M114,207h-0.2c-0.2-0.1-0.2-0.4-0.1-0.6l35.8-56.8c0.2-0.2,0.4-0.1,0.6,0c0.1,0.1,0.1,0.3,0.1,0.4l-35.8,56.7
		C114.2,206.9,114.1,207,114,207z"/>
</g>
<g id="mask-138">
	
		<radialGradient id="SVGID_29_" cx="5411.6577" cy="11341.7998" r="89.98" gradientTransform="matrix(-0.12 -0.3 -0.3 0.12 4310.5898 384.98)" gradientUnits="userSpaceOnUse">
		<stop  offset="6.000000e-02" style="stop-color:#FFFFFF"/>
		<stop  offset="1" style="stop-color:#000000"/>
	</radialGradient>
	<path class="st28" d="M111.8,223.1h-0.2c-0.2-0.1-0.3-0.3-0.2-0.6l38-72.9c0.2-0.2,0.4-0.2,0.6,0c0.1,0.1,0.1,0.2,0.1,0.4l-38,72.9
		C112,223,111.9,223.1,111.8,223.1z"/>
</g>
<g id="mask-137">
	
		<radialGradient id="SVGID_30_" cx="6156.5864" cy="11142.7998" r="73.75" gradientTransform="matrix(-0.15 -0.29 -0.29 0.15 4320.6899 351.88)" gradientUnits="userSpaceOnUse">
		<stop  offset="6.000000e-02" style="stop-color:#FFFFFF"/>
		<stop  offset="1" style="stop-color:#000000"/>
	</radialGradient>
	<path class="st29" d="M123.8,212.1h-0.2c-0.2-0.1-0.3-0.3-0.2-0.6l26-61.9c0.1-0.2,0.4-0.3,0.6-0.1c0.2,0.1,0.2,0.3,0.2,0.5
		l-26,61.9C124.1,212,123.9,212.1,123.8,212.1z"/>
</g>
<g id="mask-136">
	
		<radialGradient id="SVGID_31_" cx="7157.9746" cy="10578.9834" r="89.98" gradientTransform="matrix(-0.17 -0.28 -0.28 0.17 4321.2803 319.27)" gradientUnits="userSpaceOnUse">
		<stop  offset="6.000000e-02" style="stop-color:#FFFFFF"/>
		<stop  offset="1" style="stop-color:#000000"/>
	</radialGradient>
	<path class="st30" d="M124.3,228.4h-0.1c-0.2-0.1-0.3-0.3-0.3-0.5l25.4-78.1c0.1-0.2,0.4-0.3,0.6-0.2c0.1,0.1,0.2,0.2,0.2,0.4
		l-25.4,78.2C124.6,228.2,124.5,228.3,124.3,228.4z"/>
</g>
<g id="mask-135">
	
		<radialGradient id="SVGID_32_" cx="7744.2075" cy="9828.082" r="73.75" gradientTransform="matrix(-0.1888 -0.2584 -0.2584 0.1888 4319.0967 280.4279)" gradientUnits="userSpaceOnUse">
		<stop  offset="6.000000e-02" style="stop-color:#FFFFFF"/>
		<stop  offset="1" style="stop-color:#000000"/>
	</radialGradient>
	<path class="st31" d="M134.3,215.5L134.3,215.5c-0.2-0.1-0.3-0.3-0.3-0.5l15.3-65.3c0.1-0.2,0.4-0.3,0.6-0.2
		c0.1,0.1,0.2,0.2,0.2,0.4l-15.4,65.3C134.7,215.4,134.5,215.5,134.3,215.5z"/>
</g>
<g id="mask-134">
	
		<radialGradient id="SVGID_33_" cx="8691.7119" cy="9654.1875" r="89.98" gradientTransform="matrix(-0.218 -0.2477 -0.2477 0.218 4321.2163 251.6027)" gradientUnits="userSpaceOnUse">
		<stop  offset="6.000000e-02" style="stop-color:#FFFFFF"/>
		<stop  offset="1" style="stop-color:#000000"/>
	</radialGradient>
	<path class="st32" d="M137.6,231.5L137.6,231.5c-0.2,0-0.4-0.3-0.4-0.5l12.2-81.2c0.1-0.2,0.3-0.4,0.5-0.3c0.1,0,0.3,0.2,0.3,0.3
		L138,231C138,231.2,137.8,231.4,137.6,231.5L137.6,231.5z"/>
</g>
<g id="mask-133">
	
		<radialGradient id="SVGID_34_" cx="9346.0566" cy="8948.8213" r="73.75" gradientTransform="matrix(-0.2383 -0.2283 -0.2283 0.2383 4317.0938 216.2022)" gradientUnits="userSpaceOnUse">
		<stop  offset="6.000000e-02" style="stop-color:#FFFFFF"/>
		<stop  offset="1" style="stop-color:#000000"/>
	</radialGradient>
	<path class="st33" d="M145.3,217.2L145.3,217.2c-0.2,0-0.4-0.2-0.4-0.4l4.4-67c0.1-0.2,0.3-0.4,0.5-0.3c0.1,0,0.3,0.2,0.3,0.3
		l-4.4,67C145.8,217,145.6,217.2,145.3,217.2z"/>
</g>
<g id="mask-132">
	
		<radialGradient id="SVGID_35_" cx="9760.292" cy="8091.4878" r="89.98" gradientTransform="matrix(-0.25 -0.2 -0.2 0.25 4308.0303 165.09)" gradientUnits="userSpaceOnUse">
		<stop  offset="6.000000e-02" style="stop-color:#FFFFFF"/>
		<stop  offset="1" style="stop-color:#000000"/>
	</radialGradient>
	<path class="st34" d="M150.1,149L150.1,149c0.2,0,0.4,0.2,0.4,0.4l1.6,82.1c0,0.2-0.2,0.4-0.4,0.4l0,0c-0.2,0-0.4-0.2-0.4-0.4
		l-1.6-82.1C149.7,149.2,149.9,149,150.1,149z"/>
</g>
<g id="mask-131">
	
		<radialGradient id="SVGID_36_" cx="10525.7637" cy="7185.3423" r="73.72" gradientTransform="matrix(-0.27 -0.19 -0.19 0.27 4295.6602 149.29)" gradientUnits="userSpaceOnUse">
		<stop  offset="6.000000e-02" style="stop-color:#FFFFFF"/>
		<stop  offset="1" style="stop-color:#000000"/>
	</radialGradient>
	<path class="st35" d="M156.5,217c-0.2,0-0.4-0.2-0.4-0.4l-6.8-66.8c0.1-0.2,0.3-0.4,0.5-0.3c0.1,0,0.3,0.2,0.3,0.3l6.7,66.8
		C156.9,216.8,156.7,217,156.5,217L156.5,217z"/>
</g>
<g id="mask-130">
	
		<radialGradient id="SVGID_37_" cx="10626.5674" cy="6347.063" r="89.98" gradientTransform="matrix(-0.2779 -0.1587 -0.1587 0.2779 4279.7036 112.6981)" gradientUnits="userSpaceOnUse">
		<stop  offset="6.000000e-02" style="stop-color:#FFFFFF"/>
		<stop  offset="1" style="stop-color:#000000"/>
	</radialGradient>
	<path class="st36" d="M164.7,231c-0.2,0-0.4-0.1-0.4-0.4l-15-80.8c0-0.2,0.2-0.4,0.4-0.4c0.2,0,0.3,0.1,0.4,0.3l15,80.8
		C165.1,230.7,165,230.9,164.7,231L164.7,231z"/>
</g>
<g id="mask-129">
	
		<radialGradient id="SVGID_38_" cx="11370.1416" cy="5624.4995" r="73.75" gradientTransform="matrix(-0.299 -0.1396 -0.1396 0.299 4267.5342 86.3381)" gradientUnits="userSpaceOnUse">
		<stop  offset="6.000000e-02" style="stop-color:#FFFFFF"/>
		<stop  offset="1" style="stop-color:#000000"/>
	</radialGradient>
	<path class="st37" d="M167.4,215c-0.2,0-0.3-0.1-0.4-0.3l-17.7-64.8c0-0.2,0.2-0.4,0.4-0.4c0.2,0,0.3,0.1,0.4,0.2l17.7,64.8
		c0,0.2-0.1,0.4-0.3,0.5L167.4,215z"/>
</g>
<g id="mask-128">
	
		<radialGradient id="SVGID_39_" cx="11550.8994" cy="4883.894" r="89.98" gradientTransform="matrix(-0.31 -0.11 -0.11 0.31 4250.7998 52.69)" gradientUnits="userSpaceOnUse">
		<stop  offset="6.000000e-02" style="stop-color:#FFFFFF"/>
		<stop  offset="1" style="stop-color:#000000"/>
	</radialGradient>
	<path class="st38" d="M177.8,227.4c-0.2,0-0.3-0.1-0.4-0.3l-28.1-77.2c0-0.2,0.2-0.4,0.4-0.5c0.2,0,0.3,0.1,0.4,0.2l28.1,77.2
		c0.1,0.2,0,0.4-0.2,0.5L177.8,227.4z"/>
</g>
<g id="mask-127">
	
		<radialGradient id="SVGID_40_" cx="12032.1729" cy="3772.7922" r="73.75" gradientTransform="matrix(-0.3177 -8.935364e-02 -8.935364e-02 0.3177 4228.8525 29.0816)" gradientUnits="userSpaceOnUse">
		<stop  offset="6.000000e-02" style="stop-color:#FFFFFF"/>
		<stop  offset="1" style="stop-color:#000000"/>
	</radialGradient>
	<path class="st39" d="M177.8,211.2c-0.2,0-0.3-0.1-0.4-0.2l-28.1-61c0-0.2,0.1-0.5,0.4-0.5c0.1,0,0.3,0,0.4,0.1l28.1,61
		c0.1,0.2,0,0.4-0.2,0.6L177.8,211.2z"/>
</g>
<g id="mask-126">
	
		<radialGradient id="SVGID_41_" cx="11886.7637" cy="2874.0393" r="89.98" gradientTransform="matrix(-0.3243 -6.081714e-02 -6.081714e-02 0.3243 4204.1025 -0.9684)" gradientUnits="userSpaceOnUse">
		<stop  offset="6.000000e-02" style="stop-color:#FFFFFF"/>
		<stop  offset="1" style="stop-color:#000000"/>
	</radialGradient>
	<path class="st40" d="M190.2,221.7c-0.2,0-0.3-0.1-0.4-0.2L149.4,150c-0.1-0.2,0.1-0.5,0.3-0.5c0.2,0,0.3,0,0.4,0.1l40.4,71.4
		c0.1,0.2,0,0.5-0.1,0.6L190.2,221.7z"/>
</g>
<g id="mask-125">
	
		<radialGradient id="SVGID_42_" cx="12241.5957" cy="2090.4915" r="73.75" gradientTransform="matrix(-0.33 -3.000000e-02 -3.000000e-02 0.33 4182.27 -25.25)" gradientUnits="userSpaceOnUse">
		<stop  offset="6.000000e-02" style="stop-color:#FFFFFF"/>
		<stop  offset="1" style="stop-color:#000000"/>
	</radialGradient>
	<path class="st41" d="M187.5,205.7c-0.1,0-0.3-0.1-0.4-0.2l-37.8-55.4c-0.1-0.2,0-0.5,0.3-0.6c0.1-0.1,0.3,0,0.4,0.1l37.8,55.5
		c0.1,0.2,0.1,0.5-0.1,0.6C187.6,205.7,187.6,205.7,187.5,205.7L187.5,205.7z"/>
</g>
<g id="mask-124">
	
		<radialGradient id="SVGID_43_" cx="12217.293" cy="854.8747" r="89.98" gradientTransform="matrix(-0.3298 -1.002017e-02 -1.002017e-02 0.3298 4152.4131 -42.3113)" gradientUnits="userSpaceOnUse">
		<stop  offset="6.000000e-02" style="stop-color:#FFFFFF"/>
		<stop  offset="1" style="stop-color:#000000"/>
	</radialGradient>
	<path class="st42" d="M201.5,214.1c-0.1,0-0.2-0.1-0.3-0.1l-51.8-63.9c-0.1-0.2,0-0.5,0.2-0.6c0.1-0.1,0.3-0.1,0.5,0l51.7,64
		c0.1,0.2,0.1,0.5-0.1,0.6c-0.1,0-0.1,0.1-0.2,0.1L201.5,214.1z"/>
</g>
<g id="mask-123">
	
		<radialGradient id="SVGID_44_" cx="12197.0576" cy="-13.2037" r="73.75" gradientTransform="matrix(-0.3294 1.997356e-02 1.997356e-02 0.3294 4124.6421 -64.2841)" gradientUnits="userSpaceOnUse">
		<stop  offset="6.000000e-02" style="stop-color:#FFFFFF"/>
		<stop  offset="1" style="stop-color:#000000"/>
	</radialGradient>
	<path class="st43" d="M196.2,198.7c-0.1,0-0.2,0-0.3-0.1l-46.5-48.5c-0.1-0.2,0-0.5,0.2-0.6c0.1-0.1,0.3-0.1,0.4,0l46.5,48.5
		c0.1,0.2,0.1,0.5-0.1,0.6C196.4,198.7,196.3,198.7,196.2,198.7L196.2,198.7z"/>
</g>
<g id="mask-122">
	
		<radialGradient id="SVGID_45_" cx="11805.0479" cy="-756.2497" r="89.98" gradientTransform="matrix(-0.32 5.000000e-02 5.000000e-02 0.32 4089.49 -83.86)" gradientUnits="userSpaceOnUse">
		<stop  offset="6.000000e-02" style="stop-color:#FFFFFF"/>
		<stop  offset="1" style="stop-color:#000000"/>
	</radialGradient>
	<path class="st44" d="M211.3,204.7c-0.1,0-0.2,0-0.3,0l-61.6-54.6c-0.2-0.1-0.3-0.4-0.2-0.6c0.1-0.2,0.4-0.3,0.6-0.2
		c0.1,0,0.1,0.1,0.2,0.1l61.5,54.5c0.2,0.2,0.2,0.4,0,0.6C211.5,204.6,211.4,204.6,211.3,204.7L211.3,204.7z"/>
</g>
<g id="mask-121">
	
		<radialGradient id="SVGID_46_" cx="11687.7031" cy="-2004.5044" r="73.75" gradientTransform="matrix(-0.3224 7.052509e-02 7.052509e-02 0.3224 4060.908 -93.8654)" gradientUnits="userSpaceOnUse">
		<stop  offset="6.000000e-02" style="stop-color:#FFFFFF"/>
		<stop  offset="1" style="stop-color:#000000"/>
	</radialGradient>
	<path class="st45" d="M203.5,190.4c-0.1,0-0.2,0-0.2,0l-53.8-40.2c-0.2-0.1-0.3-0.3-0.2-0.6c0.1-0.2,0.3-0.3,0.5-0.2l0.1,0.1
		l0.1,0.1l53.8,40.2c0.2,0.2,0.2,0.4,0,0.6C203.7,190.3,203.6,190.4,203.5,190.4L203.5,190.4z"/>
</g>
<g id="mask-120">
	
		<radialGradient id="SVGID_47_" cx="11358.2314" cy="-2697.1719" r="89.98" gradientTransform="matrix(-0.3141 0.1013 0.1013 0.3141 4026.6677 -109.2458)" gradientUnits="userSpaceOnUse">
		<stop  offset="6.000000e-02" style="stop-color:#FFFFFF"/>
		<stop  offset="1" style="stop-color:#000000"/>
	</radialGradient>
	<path class="st46" d="M219.4,193.8h-0.2l-69.7-43.6c-0.2-0.1-0.3-0.3-0.3-0.5c0.1-0.2,0.3-0.3,0.5-0.3c0.1,0,0.1,0.1,0.2,0.1
		l69.7,43.5c0.2,0.1,0.2,0.4,0.1,0.6C219.7,193.7,219.6,193.8,219.4,193.8L219.4,193.8z"/>
</g>
<g id="mask-119">
	
		<radialGradient id="SVGID_48_" cx="11137.6855" cy="-3448.8879" r="73.75" gradientTransform="matrix(-0.3028 0.1312 0.1312 0.3028 3993.052 -121.145)" gradientUnits="userSpaceOnUse">
		<stop  offset="6.000000e-02" style="stop-color:#FFFFFF"/>
		<stop  offset="1" style="stop-color:#000000"/>
	</radialGradient>
	<path class="st47" d="M209.4,181h-0.2l-59.7-30.8c-0.2,0-0.4-0.3-0.3-0.5s0.3-0.4,0.5-0.3c0.1,0,0.2,0.1,0.2,0.1l59.7,30.8
		c0.2,0.1,0.2,0.4,0.1,0.6C209.7,180.9,209.5,181,209.4,181L209.4,181z"/>
</g>
<g id="mask-118">
	
		<radialGradient id="SVGID_49_" cx="10615.1797" cy="-4438.896" r="89.98" gradientTransform="matrix(-0.29 0.15 0.15 0.29 3958.54 -123.04)" gradientUnits="userSpaceOnUse">
		<stop  offset="6.000000e-02" style="stop-color:#FFFFFF"/>
		<stop  offset="1" style="stop-color:#000000"/>
	</radialGradient>
	<path class="st48" d="M225.7,181.7h-0.2l-76-31.5c-0.2-0.1-0.3-0.4-0.2-0.6c0.1-0.2,0.2-0.3,0.4-0.3h0.1l75.9,31.6
		c0.2,0.1,0.3,0.4,0.2,0.6C225.9,181.7,225.8,181.7,225.7,181.7L225.7,181.7z"/>
</g>
<g id="mask-117">
	
		<radialGradient id="SVGID_50_" cx="10071.0635" cy="-5431.0747" r="73.75" gradientTransform="matrix(-0.28 0.17 0.17 0.28 3925.6499 -123.63)" gradientUnits="userSpaceOnUse">
		<stop  offset="6.000000e-02" style="stop-color:#FFFFFF"/>
		<stop  offset="1" style="stop-color:#000000"/>
	</radialGradient>
	<path class="st49" d="M213.7,170.7h-0.1l-64-20.5c-0.2,0-0.4-0.2-0.4-0.4c0-0.2,0.2-0.4,0.4-0.4h0.1h0.1l64,20.5
		c0.2,0.1,0.3,0.3,0.2,0.6c0,0.1-0.1,0.2-0.2,0.2L213.7,170.7z"/>
</g>
<g id="mask-116">
	
		<radialGradient id="SVGID_51_" cx="9687.7695" cy="-5928.1172" r="89.98" gradientTransform="matrix(-0.26 0.2 0.2 0.26 3888.1101 -128.61)" gradientUnits="userSpaceOnUse">
		<stop  offset="6.000000e-02" style="stop-color:#FFFFFF"/>
		<stop  offset="1" style="stop-color:#000000"/>
	</radialGradient>
	<path class="st50" d="M229.9,168.7L229.9,168.7l-80.1-18.5c-0.2,0-0.4-0.2-0.5-0.4c0-0.2,0.2-0.4,0.4-0.5c0.1,0,0.2,0,0.3,0.1
		l80,18.5c0.2,0.1,0.4,0.3,0.3,0.5c0,0.1-0.2,0.3-0.3,0.3L229.9,168.7z"/>
</g>
<g id="mask-115">
	
		<radialGradient id="SVGID_52_" cx="9082.9775" cy="-6940.2217" r="73.72" gradientTransform="matrix(-0.2477 0.218 0.218 0.2477 3857.3228 -124.0963)" gradientUnits="userSpaceOnUse">
		<stop  offset="6.000000e-02" style="stop-color:#FFFFFF"/>
		<stop  offset="1" style="stop-color:#000000"/>
	</radialGradient>
	<path class="st51" d="M216.2,159.9L216.2,159.9l-66.5-9.7c-0.2,0.1-0.5-0.1-0.5-0.3c-0.1-0.2,0.1-0.5,0.3-0.5c0.1,0,0.2,0,0.2,0
		l66.5,9.7c0.2,0.1,0.4,0.3,0.3,0.5C216.4,159.8,216.3,159.9,216.2,159.9L216.2,159.9z"/>
</g>
<g id="mask-114">
	
		<radialGradient id="SVGID_53_" cx="8370.0615" cy="-7561.0166" r="89.98" gradientTransform="matrix(-0.2283 0.2383 0.2383 0.2283 3822.3921 -118.8836)" gradientUnits="userSpaceOnUse">
		<stop  offset="6.000000e-02" style="stop-color:#FFFFFF"/>
		<stop  offset="1" style="stop-color:#000000"/>
	</radialGradient>
	<path class="st52" d="M231.8,155.3L231.8,155.3l-82.1-5c-0.2,0.1-0.5-0.1-0.5-0.3c-0.1-0.2,0.1-0.5,0.3-0.5c0.1,0,0.2,0,0.2,0
		l82.1,5c0.2,0.1,0.4,0.3,0.3,0.5C232.1,155.1,231.9,155.2,231.8,155.3z"/>
</g>
<g id="mask-113">
	
		<radialGradient id="SVGID_54_" cx="7354.5239" cy="-8122.7549" r="73.75" gradientTransform="matrix(-0.2123 0.2527 0.2527 0.2123 3789.1233 -108.8047)" gradientUnits="userSpaceOnUse">
		<stop  offset="6.000000e-02" style="stop-color:#FFFFFF"/>
		<stop  offset="1" style="stop-color:#000000"/>
	</radialGradient>
	<path class="st53" d="M149.8,150.2c-0.2-0.1-0.4-0.3-0.3-0.5c0-0.1,0.2-0.3,0.3-0.3l67.1-1.4l0,0c0.2,0.1,0.4,0.3,0.3,0.5
		c0,0.1-0.2,0.3-0.3,0.3L149.8,150.2z"/>
</g>
<g id="mask-112">
	
		<radialGradient id="SVGID_55_" cx="6797.3398" cy="-8423.0928" r="89.98" gradientTransform="matrix(-0.1775 0.2663 0.2663 0.1775 3750.5977 -97.7879)" gradientUnits="userSpaceOnUse">
		<stop  offset="6.000000e-02" style="stop-color:#FFFFFF"/>
		<stop  offset="1" style="stop-color:#000000"/>
	</radialGradient>
	<path class="st54" d="M149.8,150.2c-0.2-0.1-0.4-0.3-0.3-0.5c0-0.1,0.2-0.3,0.3-0.3l81.8-8.4c0.2-0.1,0.5,0.1,0.5,0.3
		c0.1,0.2-0.1,0.5-0.3,0.5c-0.1,0-0.2,0-0.2,0L149.8,150.2L149.8,150.2z"/>
</g>
<g id="mask-111">
	
		<radialGradient id="SVGID_56_" cx="5977.0986" cy="-9184.8301" r="73.75" gradientTransform="matrix(-0.16 0.28 0.29 0.16 3721.5 -82.73)" gradientUnits="userSpaceOnUse">
		<stop  offset="6.000000e-02" style="stop-color:#FFFFFF"/>
		<stop  offset="1" style="stop-color:#000000"/>
	</radialGradient>
	<path class="st55" d="M149.8,150.2c-0.2-0.1-0.4-0.3-0.3-0.5c0-0.1,0.2-0.3,0.3-0.3l66-12.5c0.2,0,0.5,0.1,0.5,0.3
		c0,0.2-0.1,0.4-0.2,0.5h-0.1l-66,12.5L149.8,150.2z"/>
</g>
<g id="mask-110">
	
		<radialGradient id="SVGID_57_" cx="5055.9497" cy="-9565.9512" r="89.98" gradientTransform="matrix(-0.1396 0.299 0.299 0.1396 3692.6782 -70.5344)" gradientUnits="userSpaceOnUse">
		<stop  offset="6.000000e-02" style="stop-color:#FFFFFF"/>
		<stop  offset="1" style="stop-color:#000000"/>
	</radialGradient>
	<path class="st56" d="M149.8,150.2c-0.2-0.1-0.4-0.3-0.3-0.5c0-0.1,0.2-0.3,0.3-0.3l79.2-21.9c0.2-0.1,0.5-0.1,0.6,0.2
		s0.1,0.5-0.2,0.6c-0.1,0-0.1,0.1-0.2,0.1l-79.4,21.9L149.8,150.2z"/>
</g>
<g id="mask-109">
	
		<radialGradient id="SVGID_58_" cx="4286.064" cy="-9798.7393" r="73.75" gradientTransform="matrix(-0.11 0.31 0.31 0.11 3659.53 -52.28)" gradientUnits="userSpaceOnUse">
		<stop  offset="6.000000e-02" style="stop-color:#FFFFFF"/>
		<stop  offset="1" style="stop-color:#000000"/>
	</radialGradient>
	<path class="st57" d="M149.8,150.2c-0.2,0-0.4-0.3-0.4-0.5c0-0.1,0.1-0.2,0.2-0.3l63-23.2c0.2-0.1,0.5-0.1,0.6,0.1s0.1,0.5-0.1,0.6
		c-0.1,0-0.1,0.1-0.2,0.1l-63,23.2L149.8,150.2z"/>
</g>
<g id="mask-108">
	
		<radialGradient id="SVGID_59_" cx="3195.8621" cy="-10194.583" r="89.98" gradientTransform="matrix(-8.935358e-02 0.3177 0.3177 8.935358e-02 3636.4216 -31.1623)" gradientUnits="userSpaceOnUse">
		<stop  offset="6.000000e-02" style="stop-color:#FFFFFF"/>
		<stop  offset="1" style="stop-color:#000000"/>
	</radialGradient>
	<path class="st58" d="M149.8,150.2c-0.2,0-0.4-0.2-0.4-0.5c0-0.1,0.1-0.3,0.2-0.3l74.4-34.7c0.2-0.2,0.5-0.1,0.6,0s0.1,0.5,0,0.6
		c-0.1,0.1-0.1,0.1-0.2,0.1l-74.5,34.7L149.8,150.2z"/>
</g>
<g id="mask-107">
	
		<radialGradient id="SVGID_60_" cx="2309.1597" cy="-10122.4844" r="73.72" gradientTransform="matrix(-6.081719e-02 0.3243 0.3243 6.081719e-02 3606.1116 -6.3524)" gradientUnits="userSpaceOnUse">
		<stop  offset="6.000000e-02" style="stop-color:#FFFFFF"/>
		<stop  offset="1" style="stop-color:#000000"/>
	</radialGradient>
	<path class="st59" d="M149.8,150.2c-0.2,0-0.4-0.2-0.4-0.5c0-0.1,0.1-0.2,0.2-0.3l58.3-33.3c0.2-0.2,0.4-0.2,0.6,0
		c0.2,0.2,0.2,0.4,0,0.6c-0.1,0.1-0.1,0.1-0.2,0.1l-58.4,33.3L149.8,150.2z"/>
</g>
<g id="mask-106">
	
		<radialGradient id="SVGID_61_" cx="1477.8416" cy="-10420.3262" r="89.98" gradientTransform="matrix(-3.000000e-02 0.33 0.33 3.000000e-02 3581.6201 16.41)" gradientUnits="userSpaceOnUse">
		<stop  offset="6.000000e-02" style="stop-color:#FFFFFF"/>
		<stop  offset="1" style="stop-color:#000000"/>
	</radialGradient>
	<path class="st60" d="M149.8,150.2c-0.2,0-0.4-0.2-0.4-0.5c0-0.1,0.1-0.2,0.1-0.3l67.8-46.5c0.2-0.2,0.4-0.2,0.6-0.1
		s0.2,0.4,0.1,0.6c0,0.1-0.1,0.1-0.2,0.1L150,150.1C149.9,150.2,149.8,150.2,149.8,150.2z"/>
</g>
<g id="mask-105">
	
		<radialGradient id="SVGID_62_" cx="289.7646" cy="-10391.2529" r="73.72" gradientTransform="matrix(-1.002013e-02 0.3298 0.3298 1.002013e-02 3564.3787 45.6269)" gradientUnits="userSpaceOnUse">
		<stop  offset="6.000000e-02" style="stop-color:#FFFFFF"/>
		<stop  offset="1" style="stop-color:#000000"/>
	</radialGradient>
	<path class="st61" d="M149.8,150.2c-0.2,0-0.4-0.2-0.4-0.5c0-0.1,0-0.2,0.1-0.3l52-42.5c0.1-0.2,0.4-0.2,0.6-0.1s0.2,0.4,0.1,0.6
		c0,0.1-0.1,0.1-0.1,0.1l-52,42.5C149.9,150.2,149.8,150.2,149.8,150.2z"/>
</g>
<g id="mask-104">
	
		<radialGradient id="SVGID_63_" cx="-593.2736" cy="-10339.5078" r="89.98" gradientTransform="matrix(1.997356e-02 0.3294 0.3294 -1.997356e-02 3543.926 73.6077)" gradientUnits="userSpaceOnUse">
		<stop  offset="6.000000e-02" style="stop-color:#FFFFFF"/>
		<stop  offset="1" style="stop-color:#000000"/>
	</radialGradient>
	<path class="st62" d="M149.8,150.2c-0.2,0-0.4-0.2-0.4-0.5c0-0.1,0-0.2,0.1-0.2l59.2-57c0.2-0.1,0.5,0,0.6,0.2
		c0.1,0.1,0.1,0.3,0,0.4l-59.2,57C150,150.2,149.9,150.2,149.8,150.2z"/>
</g>
<g id="mask-103">
	
		<radialGradient id="SVGID_64_" cx="-1334.0797" cy="-10038.3584" r="73.75" gradientTransform="matrix(5.000000e-02 0.32 0.32 -5.000000e-02 3524.3101 109.03)" gradientUnits="userSpaceOnUse">
		<stop  offset="6.000000e-02" style="stop-color:#FFFFFF"/>
		<stop  offset="1" style="stop-color:#000000"/>
	</radialGradient>
	<path class="st63" d="M149.8,150.2c-0.2,0-0.4-0.2-0.4-0.4c0-0.1,0-0.2,0.1-0.2l44.3-50.4c0.2-0.1,0.5-0.1,0.6,0.1
		c0.1,0.1,0.1,0.3,0,0.4L150,150.1C149.9,150.2,149.8,150.2,149.8,150.2z"/>
</g>
<g id="mask-102">
	
		<radialGradient id="SVGID_65_" cx="-2546.3445" cy="-9819.5332" r="89.98" gradientTransform="matrix(7.052509e-02 0.3224 0.3224 -7.052509e-02 3513.5146 137.122)" gradientUnits="userSpaceOnUse">
		<stop  offset="6.000000e-02" style="stop-color:#FFFFFF"/>
		<stop  offset="1" style="stop-color:#000000"/>
	</radialGradient>
	<path class="st64" d="M149.8,150.2c-0.2,0-0.4-0.2-0.4-0.4c0-0.1,0-0.1,0.1-0.2l49-66c0.2-0.2,0.4-0.1,0.6,0
		c0.1,0.1,0.1,0.3,0.1,0.5l-49,66C150,150.2,149.9,150.2,149.8,150.2z"/>
</g>
<g id="mask-101">
	
		<radialGradient id="SVGID_66_" cx="-3252.5715" cy="-9552.8818" r="73.75" gradientTransform="matrix(0.1013 0.3141 0.3141 -0.1013 3499.0342 170.8621)" gradientUnits="userSpaceOnUse">
		<stop  offset="6.000000e-02" style="stop-color:#FFFFFF"/>
		<stop  offset="1" style="stop-color:#000000"/>
	</radialGradient>
	<path class="st65" d="M149.8,150.2h-0.2c-0.2-0.1-0.2-0.4-0.1-0.6l35.4-57.1c0.2-0.2,0.5-0.1,0.6,0c0.1,0.1,0.1,0.3,0.1,0.4
		l-35.4,57C150,150.1,149.9,150.2,149.8,150.2z"/>
</g>
<g id="mask-100">
	
		<radialGradient id="SVGID_67_" cx="-4033.918" cy="-9305.1455" r="89.98" gradientTransform="matrix(0.1312 0.3028 0.3028 -0.1312 3487.3149 204.8381)" gradientUnits="userSpaceOnUse">
		<stop  offset="6.000000e-02" style="stop-color:#FFFFFF"/>
		<stop  offset="1" style="stop-color:#000000"/>
	</radialGradient>
	<path class="st66" d="M149.8,150.2h-0.2c-0.2-0.1-0.3-0.3-0.2-0.6l37.4-73.2c0.1-0.2,0.4-0.2,0.6-0.1c0.1,0.1,0.2,0.3,0.1,0.4
		L150.1,150C150,150.1,149.9,150.2,149.8,150.2z"/>
</g>
<g id="mask-99">
	
		<radialGradient id="SVGID_68_" cx="-4994.6763" cy="-8784.0195" r="73.75" gradientTransform="matrix(0.15 0.29 0.29 -0.15 3485.7 239.71)" gradientUnits="userSpaceOnUse">
		<stop  offset="6.000000e-02" style="stop-color:#FFFFFF"/>
		<stop  offset="1" style="stop-color:#000000"/>
	</radialGradient>
	<path class="st67" d="M149.8,150.2h-0.2c-0.2-0.1-0.3-0.3-0.2-0.6l25.5-62.1c0.1-0.2,0.4-0.3,0.6-0.1c0.2,0.1,0.2,0.3,0.2,0.5
		L150.1,150C150,150.1,149.9,150.2,149.8,150.2z"/>
</g>
<g id="mask-98">
	
		<radialGradient id="SVGID_69_" cx="-5953.4248" cy="-8170.063" r="89.98" gradientTransform="matrix(0.17 0.28 0.28 -0.17 3485.4502 272.15)" gradientUnits="userSpaceOnUse">
		<stop  offset="6.000000e-02" style="stop-color:#FFFFFF"/>
		<stop  offset="1" style="stop-color:#000000"/>
	</radialGradient>
	<path class="st68" d="M149.8,150.2h-0.1c-0.2-0.1-0.3-0.3-0.3-0.5L174,71.3c0.1-0.2,0.4-0.3,0.6-0.2c0.1,0.1,0.2,0.2,0.2,0.4
		l-24.7,78.3C150.1,150.1,149.9,150.2,149.8,150.2z"/>
</g>
<g id="mask-97">
	
		<radialGradient id="SVGID_70_" cx="-6496.8071" cy="-7862.25" r="73.75" gradientTransform="matrix(0.2 0.26 0.26 -0.2 3479.29 309.27)" gradientUnits="userSpaceOnUse">
		<stop  offset="6.000000e-02" style="stop-color:#FFFFFF"/>
		<stop  offset="1" style="stop-color:#000000"/>
	</radialGradient>
	<path class="st69" d="M149.8,150.2L149.8,150.2c-0.2-0.1-0.3-0.3-0.3-0.5l14.9-65.4c0.1-0.2,0.4-0.3,0.6-0.2
		c0.1,0.1,0.2,0.2,0.2,0.3l-15,65.4C150.1,150.1,149.9,150.2,149.8,150.2z"/>
</g>
<g id="mask-96">
	
		<radialGradient id="SVGID_71_" cx="-7139.8022" cy="-7206.3623" r="89.98" gradientTransform="matrix(0.22 0.24 0.24 -0.22 3482.7 345.75)" gradientUnits="userSpaceOnUse">
		<stop  offset="6.000000e-02" style="stop-color:#FFFFFF"/>
		<stop  offset="1" style="stop-color:#000000"/>
	</radialGradient>
	<path class="st70" d="M149.8,150.2L149.8,150.2c-0.2,0-0.4-0.3-0.4-0.5l11.4-81.3c0.1-0.2,0.3-0.4,0.5-0.3c0.1,0,0.3,0.2,0.3,0.3
		l-11.5,81.4C150.2,150,150,150.2,149.8,150.2L149.8,150.2z"/>
</g>
<g id="mask-95">
	
		<radialGradient id="SVGID_72_" cx="-8114.8267" cy="-6480.9814" r="73.75" gradientTransform="matrix(0.2383 0.2283 0.2283 -0.2383 3489.3862 374.8578)" gradientUnits="userSpaceOnUse">
		<stop  offset="6.000000e-02" style="stop-color:#FFFFFF"/>
		<stop  offset="1" style="stop-color:#000000"/>
	</radialGradient>
	<path class="st71" d="M149.8,150.2L149.8,150.2c-0.2,0-0.4-0.2-0.4-0.4l3.9-67c0.1-0.2,0.3-0.4,0.5-0.3c0.1,0,0.3,0.2,0.3,0.3
		l-3.9,67C150.2,150,150,150.2,149.8,150.2z"/>
</g>
<g id="mask-94">
	
		<radialGradient id="SVGID_73_" cx="-8491.2852" cy="-5635.9839" r="89.98" gradientTransform="matrix(0.2527 0.2123 0.2123 -0.2527 3501.6553 410.2768)" gradientUnits="userSpaceOnUse">
		<stop  offset="6.000000e-02" style="stop-color:#FFFFFF"/>
		<stop  offset="1" style="stop-color:#000000"/>
	</radialGradient>
	<path class="st72" d="M148.3,67.2L148.3,67.2c0.2,0,0.4,0.2,0.4,0.4l1.4,82.1c0,0.2-0.2,0.4-0.4,0.4c0,0,0,0,0,0l0,0
		c-0.2,0-0.4-0.2-0.4-0.4l-1.4-82.1C147.9,67.4,148,67.2,148.3,67.2C148.3,67.2,148.3,67.2,148.3,67.2L148.3,67.2z"/>
</g>
<g id="mask-93">
	
		<radialGradient id="SVGID_74_" cx="-8942.4932" cy="-4952.1499" r="73.75" gradientTransform="matrix(0.2663 0.1775 0.1775 -0.2663 3511.2522 447.2226)" gradientUnits="userSpaceOnUse">
		<stop  offset="6.000000e-02" style="stop-color:#FFFFFF"/>
		<stop  offset="1" style="stop-color:#000000"/>
	</radialGradient>
	<path class="st73" d="M149.8,150.2c-0.2,0-0.4-0.2-0.4-0.4l-7.2-66.8c0.1-0.2,0.3-0.4,0.5-0.3c0.1,0,0.3,0.2,0.3,0.3l7.2,66.7
		C150.2,150,150,150.2,149.8,150.2L149.8,150.2z"/>
</g>
<g id="mask-92">
	
		<radialGradient id="SVGID_75_" cx="-9661.7305" cy="-4190.0679" r="89.98" gradientTransform="matrix(0.2889 0.1594 0.1594 -0.2889 3520.3882 476.5161)" gradientUnits="userSpaceOnUse">
		<stop  offset="6.000000e-02" style="stop-color:#FFFFFF"/>
		<stop  offset="1" style="stop-color:#000000"/>
	</radialGradient>
	<path class="st74" d="M149.8,150.2c-0.2,0-0.4-0.1-0.4-0.3l-15.6-80.7c0-0.2,0.2-0.4,0.4-0.4c0.2,0,0.3,0.1,0.4,0.3l15.6,80.7
		C150.2,149.9,150,150.2,149.8,150.2L149.8,150.2z"/>
</g>
<g id="mask-91">
	
		<radialGradient id="SVGID_76_" cx="-10078.0713" cy="-3145.2598" r="73.75" gradientTransform="matrix(0.299 0.1396 0.1396 -0.299 3538.8357 504.7419)" gradientUnits="userSpaceOnUse">
		<stop  offset="6.000000e-02" style="stop-color:#FFFFFF"/>
		<stop  offset="1" style="stop-color:#000000"/>
	</radialGradient>
	<path class="st75" d="M149.8,150.2c-0.2,0-0.3-0.1-0.4-0.3l-18.1-64.6c0-0.2,0.2-0.4,0.4-0.4c0.2,0,0.3,0.1,0.4,0.2l18.2,64.6
		c0,0.2-0.1,0.4-0.3,0.5L149.8,150.2z"/>
</g>
<g id="mask-90">
	
		<radialGradient id="SVGID_77_" cx="-10311.4395" cy="-2379.4038" r="89.98" gradientTransform="matrix(0.31 0.11 0.11 -0.31 3556.5801 537.21)" gradientUnits="userSpaceOnUse">
		<stop  offset="6.000000e-02" style="stop-color:#FFFFFF"/>
		<stop  offset="1" style="stop-color:#000000"/>
	</radialGradient>
	<path class="st76" d="M149.8,150.2c-0.2,0-0.3-0.1-0.4-0.3l-28.7-77c-0.1-0.2,0-0.5,0.3-0.6c0.2-0.1,0.5,0,0.6,0.3l28.6,77
		c0.1,0.2,0,0.4-0.2,0.5L149.8,150.2z"/>
</g>
<g id="mask-89">
	
		<radialGradient id="SVGID_78_" cx="-10695.2734" cy="-1268.0221" r="73.75" gradientTransform="matrix(0.3177 8.935360e-02 8.935360e-02 -0.3177 3578.0979 560.3685)" gradientUnits="userSpaceOnUse">
		<stop  offset="6.000000e-02" style="stop-color:#FFFFFF"/>
		<stop  offset="1" style="stop-color:#000000"/>
	</radialGradient>
	<path class="st77" d="M149.8,150.2c-0.2,0-0.3-0.1-0.4-0.2l-28.6-60.7c0-0.2,0.1-0.5,0.4-0.5c0.1,0,0.3,0,0.4,0.1l28.6,60.7
		c0.1,0.2,0,0.4-0.2,0.6L149.8,150.2z"/>
</g>
<g id="mask-88">
	
		<radialGradient id="SVGID_79_" cx="-10589.9541" cy="-401.0795" r="89.98" gradientTransform="matrix(0.3243 6.081717e-02 6.081717e-02 -0.3243 3602.5776 589.8684)" gradientUnits="userSpaceOnUse">
		<stop  offset="6.000000e-02" style="stop-color:#FFFFFF"/>
		<stop  offset="1" style="stop-color:#000000"/>
	</radialGradient>
	<path class="st78" d="M149.8,150.2c-0.2,0-0.3-0.1-0.4-0.2l-41-71.2c0-0.2,0.2-0.4,0.4-0.4c0.1,0,0.2,0,0.2,0l41,71.2
		c0.1,0.2,0,0.5-0.1,0.6L149.8,150.2z"/>
</g>
<g id="mask-87">
	
		<radialGradient id="SVGID_80_" cx="-10932.1953" cy="406.2585" r="73.75" gradientTransform="matrix(0.33 3.000000e-02 3.000000e-02 -0.33 3625.1301 615.09)" gradientUnits="userSpaceOnUse">
		<stop  offset="6.000000e-02" style="stop-color:#FFFFFF"/>
		<stop  offset="1" style="stop-color:#000000"/>
	</radialGradient>
	<path class="st79" d="M149.8,150.2c-0.1,0-0.3-0.1-0.4-0.2l-38.2-55.2c-0.1-0.2,0-0.5,0.3-0.6c0.1-0.1,0.3,0,0.4,0.1l38.2,55.2
		c0.1,0.2,0.1,0.5-0.1,0.6C149.9,150.2,149.8,150.2,149.8,150.2L149.8,150.2z"/>
</g>
<g id="mask-86">
	
		<radialGradient id="SVGID_81_" cx="-10943.1416" cy="1274.2872" r="89.98" gradientTransform="matrix(0.33 0 0 -0.33 3653.6401 637.9)" gradientUnits="userSpaceOnUse">
		<stop  offset="6.000000e-02" style="stop-color:#FFFFFF"/>
		<stop  offset="1" style="stop-color:#000000"/>
	</radialGradient>
	<path class="st80" d="M149.8,150.2c-0.1,0-0.2-0.1-0.3-0.1L97.2,86.6c-0.1-0.2,0-0.5,0.2-0.6c0.1-0.1,0.3-0.1,0.5,0l52.2,63.4
		c0.1,0.2,0.1,0.5-0.1,0.6C149.9,150.2,149.8,150.2,149.8,150.2L149.8,150.2z"/>
</g>
<g id="mask-85">
	
		<radialGradient id="SVGID_82_" cx="-10934.5615" cy="1251.0172" r="73.75" gradientTransform="matrix(0.33 0 0 -0.33 3653.6401 637.9)" gradientUnits="userSpaceOnUse">
		<stop  offset="6.000000e-02" style="stop-color:#FFFFFF"/>
		<stop  offset="1" style="stop-color:#000000"/>
	</radialGradient>
	<path class="st81" d="M149.8,150.2c-0.1,0-0.2,0-0.3-0.1L102.6,102c-0.1-0.2,0-0.5,0.2-0.6c0.1-0.1,0.3-0.1,0.4,0l46.8,48.1
		c0.1,0.2,0.1,0.5-0.1,0.6C149.9,150.2,149.8,150.2,149.8,150.2L149.8,150.2z"/>
</g>
<g id="mask-84">
	
		<linearGradient id="SVGID_83_" gradientUnits="userSpaceOnUse" x1="381.5354" y1="-2600.5698" x2="507.0654" y2="-2528.0999" gradientTransform="matrix(0.77 0.74 0.77 -0.79 1768.0199 -2208.21)">
		<stop  offset="0" style="stop-color:#FFFFFF"/>
		<stop  offset="0.54" style="stop-color:#000000"/>
		<stop  offset="1" style="stop-color:#F1F1F1"/>
	</linearGradient>
	<path class="st82" d="M74.8,251.7c-7.5,0.1-13.7-1.9-17.9-6c-9.5-9.1-8.7-27.7,2.3-52.4s30.6-52.1,55.4-77.7s51.7-46.2,75.9-57.9
		s42.9-13.2,52.3-4.1s8.7,27.8-2.3,52.4s-30.6,52.1-55.4,77.7s-51.7,46.2-75.9,57.9C95.8,248.2,84.1,251.6,74.8,251.7z M224.8,48.6
		C198.6,49,155,75,115.1,116.2C64.2,168.7,38.3,226.6,57.4,245c4.8,4.1,11,6.2,17.3,5.7c26.2-0.4,69.8-26.4,109.7-67.5
		c50.9-52.5,76.8-110.4,57.7-128.9C237.4,50.2,231.2,48.1,224.8,48.6L224.8,48.6z"/>
</g>
<circle class="st83" cx="149.5" cy="149.5" r="149.5"/>
<path class="st84" d="M74.8,251.7c-7.5,0.1-13.7-1.9-17.9-6c-9.5-9.1-8.7-27.7,2.3-52.4s30.6-52.1,55.4-77.7s51.7-46.2,75.9-57.9
	s42.9-13.2,52.3-4.1s8.7,27.8-2.3,52.4s-30.6,52.1-55.4,77.7s-51.7,46.2-75.9,57.9C95.8,248.2,84.1,251.6,74.8,251.7z M224.8,48.6
	C198.6,49,155,75,115.1,116.2C64.2,168.7,38.3,226.6,57.4,245c4.8,4.1,11,6.2,17.3,5.7c26.2-0.4,69.8-26.4,109.7-67.5
	c50.9-52.5,76.8-110.4,57.7-128.9C237.4,50.2,231.2,48.1,224.8,48.6L224.8,48.6z"/>
<path class="st84" d="M149.8,150.2c-0.1,0-0.2,0-0.3-0.1L102.6,102c-0.1-0.2,0-0.5,0.2-0.6c0.1-0.1,0.3-0.1,0.4,0l46.8,48.1
	c0.1,0.2,0.1,0.5-0.1,0.6C149.9,150.2,149.8,150.2,149.8,150.2L149.8,150.2z"/>
<path class="st84" d="M149.8,150.2c-0.1,0-0.2-0.1-0.3-0.1L97.2,86.6c-0.1-0.2,0-0.5,0.2-0.6c0.1-0.1,0.3-0.1,0.5,0l52.2,63.4
	c0.1,0.2,0.1,0.5-0.1,0.6C149.9,150.2,149.8,150.2,149.8,150.2L149.8,150.2z"/>
<path class="st84" d="M149.8,150.2c-0.1,0-0.3-0.1-0.4-0.2l-38.2-55.2c-0.1-0.2,0-0.5,0.3-0.6c0.1-0.1,0.3,0,0.4,0.1l38.2,55.2
	c0.1,0.2,0.1,0.5-0.1,0.6C149.9,150.2,149.8,150.2,149.8,150.2L149.8,150.2z"/>
<path class="st84" d="M149.8,150.2c-0.2,0-0.3-0.1-0.4-0.2l-41-71.2c0-0.2,0.2-0.4,0.4-0.4c0.1,0,0.2,0,0.2,0l41,71.2
	c0.1,0.2,0,0.5-0.1,0.6L149.8,150.2z"/>
<path class="st84" d="M149.8,150.2c-0.2,0-0.3-0.1-0.4-0.2l-28.6-60.7c0-0.2,0.1-0.5,0.4-0.5c0.1,0,0.3,0,0.4,0.1l28.6,60.7
	c0.1,0.2,0,0.4-0.2,0.6L149.8,150.2z"/>
<path class="st84" d="M149.8,150.2c-0.2,0-0.3-0.1-0.4-0.3l-28.7-77c-0.1-0.2,0-0.5,0.3-0.6c0.2-0.1,0.5,0,0.6,0.3l28.6,77
	c0.1,0.2,0,0.4-0.2,0.5L149.8,150.2z"/>
<path class="st84" d="M149.8,150.2c-0.2,0-0.3-0.1-0.4-0.3l-18.1-64.6c0-0.2,0.2-0.4,0.4-0.4c0.2,0,0.3,0.1,0.4,0.2l18.2,64.6
	c0,0.2-0.1,0.4-0.3,0.5L149.8,150.2z"/>
<path class="st84" d="M149.8,150.2c-0.2,0-0.4-0.1-0.4-0.3l-15.6-80.7c0-0.2,0.2-0.4,0.4-0.4c0.2,0,0.3,0.1,0.4,0.3l15.6,80.7
	C150.2,149.9,150,150.2,149.8,150.2L149.8,150.2z"/>
<path class="st84" d="M149.8,150.2c-0.2,0-0.4-0.2-0.4-0.4l-7.2-66.8c0.1-0.2,0.3-0.4,0.5-0.3c0.1,0,0.3,0.2,0.3,0.3l7.2,66.7
	C150.2,150,150,150.2,149.8,150.2L149.8,150.2z"/>
<path class="st84" d="M148.3,67.2L148.3,67.2c0.2,0,0.4,0.2,0.4,0.4l1.5,82.1c0,0.2-0.2,0.4-0.4,0.4c0,0,0,0,0,0l0,0
	c-0.2,0-0.4-0.2-0.4-0.4l-1.4-82.1C147.9,67.5,148.1,67.3,148.3,67.2z"/>
<path class="st84" d="M149.8,150.2L149.8,150.2c-0.2,0-0.4-0.2-0.4-0.4l3.9-67c0.1-0.2,0.3-0.4,0.5-0.3c0.1,0,0.3,0.2,0.3,0.3
	l-3.9,67C150.2,150,150,150.2,149.8,150.2z"/>
<path class="st84" d="M149.8,150.2L149.8,150.2c-0.2,0-0.4-0.3-0.4-0.5l11.4-81.3c0.1-0.2,0.3-0.4,0.5-0.3c0.1,0,0.3,0.2,0.3,0.3
	l-11.5,81.4C150.2,150,150,150.2,149.8,150.2L149.8,150.2z"/>
<path class="st84" d="M149.8,150.2L149.8,150.2c-0.2-0.1-0.3-0.3-0.3-0.5l14.9-65.4c0.1-0.2,0.4-0.3,0.6-0.2
	c0.1,0.1,0.2,0.2,0.2,0.3l-15,65.4C150.1,150.1,149.9,150.2,149.8,150.2z"/>
<path class="st84" d="M149.8,150.2h-0.1c-0.2-0.1-0.3-0.3-0.3-0.5L174,71.3c0.1-0.2,0.4-0.3,0.6-0.2c0.1,0.1,0.2,0.2,0.2,0.4
	l-24.7,78.3C150.1,150.1,149.9,150.2,149.8,150.2z"/>
<path class="st84" d="M149.8,150.2h-0.2c-0.2-0.1-0.3-0.3-0.2-0.6l25.5-62.1c0.1-0.2,0.4-0.3,0.6-0.1c0.2,0.1,0.2,0.3,0.2,0.5
	L150.1,150C150,150.1,149.9,150.2,149.8,150.2z"/>
<path class="st84" d="M149.8,150.2h-0.2c-0.2-0.1-0.3-0.3-0.2-0.6l37.4-73.2c0.1-0.2,0.4-0.2,0.6-0.1c0.1,0.1,0.2,0.3,0.1,0.4
	L150.1,150C150,150.1,149.9,150.2,149.8,150.2z"/>
<path class="st84" d="M149.8,150.2h-0.2c-0.2-0.1-0.2-0.4-0.1-0.6l35.4-57.1c0.2-0.2,0.5-0.1,0.6,0c0.1,0.1,0.1,0.3,0.1,0.4
	l-35.4,57C150,150.1,149.9,150.2,149.8,150.2z"/>
<path class="st84" d="M149.8,150.2c-0.2,0-0.4-0.2-0.4-0.4c0-0.1,0-0.1,0.1-0.2l49-66c0.2-0.2,0.4-0.1,0.6,0
	c0.1,0.1,0.1,0.3,0.1,0.5l-49,66C150,150.2,149.9,150.2,149.8,150.2z"/>
<path class="st84" d="M149.8,150.2c-0.2,0-0.4-0.2-0.4-0.4c0-0.1,0-0.2,0.1-0.2l44.3-50.4c0.2-0.1,0.5-0.1,0.6,0.1
	c0.1,0.1,0.1,0.3,0,0.4L150,150.1C149.9,150.2,149.8,150.2,149.8,150.2z"/>
<path class="st84" d="M149.8,150.2c-0.2,0-0.4-0.2-0.4-0.5c0-0.1,0-0.2,0.1-0.2l59.2-57c0.2-0.1,0.5,0,0.6,0.2
	c0.1,0.1,0.1,0.3,0,0.4l-59.2,57C150,150.2,149.9,150.2,149.8,150.2z"/>
<path class="st84" d="M149.8,150.2c-0.2,0-0.4-0.2-0.4-0.5c0-0.1,0-0.2,0.1-0.3l52-42.5c0.1-0.2,0.4-0.2,0.6-0.1s0.2,0.4,0.1,0.6
	c0,0.1-0.1,0.1-0.1,0.1l-52,42.5C149.9,150.2,149.8,150.2,149.8,150.2z"/>
<path class="st84" d="M149.8,150.2c-0.2,0-0.4-0.2-0.4-0.5c0-0.1,0.1-0.2,0.1-0.3l67.8-46.5c0.2-0.2,0.4-0.2,0.6-0.1
	s0.2,0.4,0.1,0.6c0,0.1-0.1,0.1-0.2,0.1L150,150.1C149.9,150.2,149.8,150.2,149.8,150.2z"/>
<path class="st84" d="M149.8,150.2c-0.2,0-0.4-0.2-0.4-0.5c0-0.1,0.1-0.2,0.2-0.3l58.3-33.3c0.2-0.2,0.4-0.2,0.6,0
	c0.2,0.2,0.2,0.4,0,0.6c-0.1,0.1-0.1,0.1-0.2,0.1l-58.4,33.3L149.8,150.2z"/>
<path class="st84" d="M149.8,150.2c-0.2,0-0.4-0.2-0.4-0.5c0-0.1,0.1-0.3,0.2-0.3l74.4-34.7c0.2-0.2,0.5-0.1,0.6,0s0.1,0.5,0,0.6
	c-0.1,0.1-0.1,0.1-0.2,0.1l-74.5,34.7L149.8,150.2z"/>
<path class="st84" d="M149.8,150.2c-0.2,0-0.4-0.3-0.4-0.5c0-0.1,0.1-0.2,0.2-0.3l63-23.2c0.2-0.1,0.5-0.1,0.6,0.1s0.1,0.5-0.1,0.6
	c-0.1,0-0.1,0.1-0.2,0.1l-63,23.2L149.8,150.2z"/>
<path class="st84" d="M149.8,150.2c-0.2-0.1-0.4-0.3-0.3-0.5c0-0.1,0.2-0.3,0.3-0.3l79.2-21.9c0.2-0.1,0.5-0.1,0.6,0.2
	s0.1,0.5-0.2,0.6c-0.1,0-0.1,0.1-0.2,0.1l-79.4,21.9L149.8,150.2z"/>
<path class="st84" d="M149.8,150.2c-0.2-0.1-0.4-0.3-0.3-0.5c0-0.1,0.2-0.3,0.3-0.3l66-12.5c0.2,0,0.5,0.1,0.5,0.3
	c0,0.2-0.1,0.4-0.2,0.5h-0.1l-66,12.5L149.8,150.2z"/>
<path class="st84" d="M149.8,150.2c-0.2-0.1-0.4-0.3-0.3-0.5c0-0.1,0.2-0.3,0.3-0.3l81.8-8.4c0.2-0.1,0.5,0.1,0.5,0.3
	c0.1,0.2-0.1,0.5-0.3,0.5c-0.1,0-0.2,0-0.2,0L149.8,150.2L149.8,150.2z"/>
<path class="st84" d="M149.8,150.2c-0.2-0.1-0.4-0.3-0.3-0.5c0-0.1,0.2-0.3,0.3-0.3l67.1-1.4l0,0c0.2,0.1,0.4,0.3,0.3,0.5
	c0,0.1-0.2,0.3-0.3,0.3L149.8,150.2z"/>
<path class="st84" d="M231.8,155.3L231.8,155.3l-82.1-5c-0.2,0.1-0.5-0.1-0.5-0.3c-0.1-0.2,0.1-0.5,0.3-0.5c0.1,0,0.2,0,0.2,0
	l82.1,5c0.2,0.1,0.4,0.3,0.3,0.5C232.1,155.1,231.9,155.2,231.8,155.3z"/>
<path class="st84" d="M216.2,159.9L216.2,159.9l-66.5-9.7c-0.2,0.1-0.5-0.1-0.5-0.3c-0.1-0.2,0.1-0.5,0.3-0.5c0.1,0,0.2,0,0.2,0
	l66.5,9.7c0.2,0.1,0.4,0.3,0.3,0.5C216.4,159.8,216.3,159.9,216.2,159.9L216.2,159.9z"/>
<path class="st84" d="M229.9,168.7L229.9,168.7l-80.1-18.5c-0.2,0-0.4-0.2-0.5-0.4c0-0.2,0.2-0.4,0.4-0.5c0.1,0,0.2,0,0.3,0.1
	l80,18.5c0.2,0.1,0.4,0.3,0.3,0.5c0,0.1-0.2,0.3-0.3,0.3L229.9,168.7z"/>
<path class="st84" d="M213.7,170.7h-0.1l-64-20.5c-0.2,0-0.4-0.2-0.4-0.4c0-0.2,0.2-0.4,0.4-0.4h0.1h0.1l64,20.5
	c0.2,0.1,0.3,0.3,0.2,0.6c0,0.1-0.1,0.2-0.2,0.2L213.7,170.7z"/>
<path class="st84" d="M225.7,181.7h-0.2l-76-31.5c-0.2-0.1-0.3-0.4-0.2-0.6c0.1-0.2,0.2-0.3,0.4-0.3h0.1l75.9,31.6
	c0.2,0.1,0.3,0.4,0.2,0.6C225.9,181.7,225.8,181.7,225.7,181.7L225.7,181.7z"/>
<path class="st84" d="M209.4,181h-0.2l-59.7-30.8c-0.2,0-0.4-0.3-0.3-0.5s0.3-0.4,0.5-0.3c0.1,0,0.2,0.1,0.2,0.1l59.7,30.8
	c0.2,0.1,0.2,0.4,0.1,0.6C209.7,180.9,209.5,181,209.4,181L209.4,181z"/>
<path class="st84" d="M219.4,193.8h-0.2l-69.7-43.6c-0.2-0.1-0.3-0.3-0.3-0.5c0.1-0.2,0.3-0.3,0.5-0.3c0.1,0,0.1,0.1,0.2,0.1
	l69.7,43.5c0.2,0.1,0.2,0.4,0.1,0.6C219.7,193.7,219.6,193.8,219.4,193.8L219.4,193.8z"/>
<path class="st84" d="M203.5,190.4c-0.1,0-0.2,0-0.2,0l-53.8-40.2c-0.2-0.1-0.3-0.3-0.2-0.6c0.1-0.2,0.3-0.3,0.5-0.2l0.1,0.1
	l0.1,0.1l53.8,40.2c0.2,0.2,0.2,0.4,0,0.6C203.7,190.3,203.6,190.4,203.5,190.4L203.5,190.4z"/>
<path class="st84" d="M211.3,204.7c-0.1,0-0.2,0-0.3,0l-61.6-54.6c-0.2-0.1-0.3-0.4-0.2-0.6c0.1-0.2,0.4-0.3,0.6-0.2
	c0.1,0,0.1,0.1,0.2,0.1l61.5,54.5c0.2,0.2,0.2,0.4,0,0.6C211.5,204.6,211.4,204.6,211.3,204.7L211.3,204.7z"/>
<path class="st84" d="M196.2,198.7c-0.1,0-0.2,0-0.3-0.1l-46.5-48.5c-0.1-0.2,0-0.5,0.2-0.6c0.1-0.1,0.3-0.1,0.4,0l46.5,48.5
	c0.1,0.2,0.1,0.5-0.1,0.6C196.4,198.7,196.3,198.7,196.2,198.7L196.2,198.7z"/>
<path class="st84" d="M201.5,214.1c-0.1,0-0.2-0.1-0.3-0.1l-51.8-63.9c-0.1-0.2,0-0.5,0.2-0.6c0.1-0.1,0.3-0.1,0.5,0l51.7,64
	c0.1,0.2,0.1,0.5-0.1,0.6c-0.1,0-0.1,0.1-0.2,0.1L201.5,214.1z"/>
<path class="st84" d="M187.5,205.7c-0.1,0-0.3-0.1-0.4-0.2l-37.8-55.4c-0.1-0.2,0-0.5,0.3-0.6c0.1-0.1,0.3,0,0.4,0.1l37.8,55.5
	c0.1,0.2,0.1,0.5-0.1,0.6C187.6,205.7,187.6,205.7,187.5,205.7L187.5,205.7z"/>
<path class="st84" d="M190.2,221.7c-0.2,0-0.3-0.1-0.4-0.2L149.4,150c-0.1-0.2,0.1-0.5,0.3-0.5c0.2,0,0.3,0,0.4,0.1l40.4,71.4
	c0.1,0.2,0,0.5-0.1,0.6L190.2,221.7z"/>
<path class="st84" d="M177.8,211.2c-0.2,0-0.3-0.1-0.4-0.2l-28.1-61c0-0.2,0.1-0.5,0.4-0.5c0.1,0,0.3,0,0.4,0.1l28.1,61
	c0.1,0.2,0,0.4-0.2,0.6L177.8,211.2z"/>
<path class="st84" d="M177.8,227.4c-0.2,0-0.3-0.1-0.4-0.3l-28.1-77.2c0-0.2,0.2-0.4,0.4-0.5c0.2,0,0.3,0.1,0.4,0.2l28.1,77.2
	c0.1,0.2,0,0.4-0.2,0.5L177.8,227.4z"/>
<path class="st84" d="M167.4,215c-0.2,0-0.3-0.1-0.4-0.3l-17.7-64.8c0-0.2,0.2-0.4,0.4-0.4c0.2,0,0.3,0.1,0.4,0.2l17.7,64.8
	c0,0.2-0.1,0.4-0.3,0.5L167.4,215z"/>
<path class="st84" d="M164.7,231c-0.2,0-0.4-0.1-0.4-0.4l-15-80.8c0-0.2,0.2-0.4,0.4-0.4c0.2,0,0.3,0.1,0.4,0.3l15,80.8
	C165.1,230.7,165,230.9,164.7,231L164.7,231z"/>
<path class="st84" d="M156.5,217c-0.2,0-0.4-0.2-0.4-0.4l-6.8-66.8c0.1-0.2,0.3-0.4,0.5-0.3c0.1,0,0.3,0.2,0.3,0.3l6.7,66.8
	C156.9,216.8,156.7,217,156.5,217L156.5,217z"/>
<path class="st84" d="M150.1,149L150.1,149c0.2,0,0.4,0.2,0.4,0.4l1.6,82.1c0,0.2-0.2,0.4-0.4,0.4l0,0c-0.2,0-0.4-0.2-0.4-0.4
	l-1.6-82.1C149.7,149.2,149.9,149,150.1,149z"/>
<path class="st84" d="M145.3,217.2L145.3,217.2c-0.2,0-0.4-0.2-0.4-0.4l4.4-67c0.1-0.2,0.3-0.4,0.5-0.3c0.1,0,0.3,0.2,0.3,0.3
	l-4.4,67C145.8,217,145.6,217.2,145.3,217.2z"/>
<path class="st84" d="M137.6,231.5L137.6,231.5c-0.2,0-0.4-0.3-0.4-0.5l12.2-81.2c0.1-0.2,0.3-0.4,0.5-0.3c0.1,0,0.3,0.2,0.3,0.3
	L138,231C138,231.2,137.8,231.4,137.6,231.5L137.6,231.5z"/>
<path class="st84" d="M134.3,215.5L134.3,215.5c-0.2-0.1-0.3-0.3-0.3-0.5l15.3-65.3c0.1-0.2,0.4-0.3,0.6-0.2
	c0.1,0.1,0.2,0.2,0.2,0.4l-15.4,65.3C134.7,215.4,134.5,215.5,134.3,215.5z"/>
<path class="st84" d="M124.3,228.4h-0.1c-0.2-0.1-0.3-0.3-0.3-0.5l25.4-78.1c0.1-0.2,0.4-0.3,0.6-0.2c0.1,0.1,0.2,0.2,0.2,0.4
	l-25.4,78.2C124.6,228.2,124.5,228.3,124.3,228.4z"/>
<path class="st84" d="M123.8,212.1h-0.2c-0.2-0.1-0.3-0.3-0.2-0.6l26-61.9c0.1-0.2,0.4-0.3,0.6-0.1c0.2,0.1,0.2,0.3,0.2,0.5
	l-26,61.9C124.1,212,123.9,212.1,123.8,212.1z"/>
<path class="st84" d="M111.8,223.1h-0.2c-0.2-0.1-0.3-0.3-0.2-0.6l38-72.9c0.2-0.2,0.4-0.2,0.6,0c0.1,0.1,0.1,0.2,0.1,0.4l-38,72.9
	C112,223,111.9,223.1,111.8,223.1z"/>
<path class="st84" d="M114,207h-0.2c-0.2-0.1-0.2-0.4-0.1-0.6l35.8-56.8c0.2-0.2,0.4-0.1,0.6,0c0.1,0.1,0.1,0.3,0.1,0.4l-35.8,56.7
	C114.2,206.9,114.1,207,114,207z"/>
<path class="st84" d="M100.3,215.8c-0.2,0-0.4-0.2-0.4-0.4c0-0.1,0-0.2,0.1-0.2l49.5-65.6c0.2-0.1,0.5-0.1,0.6,0.1
	c0.1,0.1,0.1,0.3,0.1,0.4l-49.5,65.6C100.5,215.8,100.4,215.8,100.3,215.8z"/>
<path class="st84" d="M105,200.3c-0.2,0-0.4-0.2-0.4-0.4c0-0.1,0-0.2,0.1-0.3l44.7-50c0.1-0.2,0.4-0.3,0.6-0.2
	c0.2,0.1,0.3,0.4,0.2,0.6c0,0.1-0.1,0.1-0.1,0.2l-44.7,50C105.2,200.2,105.1,200.3,105,200.3z"/>
<path class="st84" d="M90.1,206.8c-0.2,0-0.4-0.2-0.4-0.4c0-0.1,0-0.2,0.1-0.3l59.6-56.6c0.1-0.2,0.4-0.3,0.6-0.1
	c0.2,0.1,0.3,0.4,0.1,0.6c0,0.1-0.1,0.1-0.1,0.1l-59.7,56.6C90.3,206.7,90.2,206.8,90.1,206.8z"/>
<path class="st84" d="M97.4,192.2c-0.2,0-0.4-0.2-0.4-0.5c0-0.1,0-0.2,0.1-0.3l52.4-42c0.1-0.2,0.4-0.2,0.6-0.1
	c0.2,0.1,0.2,0.4,0.1,0.6c0,0.1-0.1,0.1-0.1,0.1l-52.4,42C97.5,192.2,97.4,192.2,97.4,192.2z"/>
<path class="st84" d="M81.4,196.2c-0.2,0-0.4-0.2-0.4-0.5c0-0.1,0.1-0.2,0.1-0.3l68.3-46c0.2-0.2,0.4-0.2,0.6-0.1
	c0.2,0.2,0.2,0.4,0.1,0.6c0,0.1-0.1,0.1-0.2,0.1L81.8,196L81.4,196.2z"/>
<path class="st84" d="M91.1,183c-0.2,0-0.4-0.2-0.4-0.5c0-0.1,0.1-0.2,0.2-0.3l58.6-32.8c0.2-0.2,0.4-0.2,0.6,0
	c0.2,0.2,0.2,0.4,0,0.6c-0.1,0.1-0.1,0.1-0.2,0.1L91.3,183H91.1z"/>
<path class="st84" d="M74.9,184.3c-0.2,0-0.4-0.2-0.4-0.5c0-0.1,0.1-0.3,0.2-0.3l74.8-34.1c0.2-0.2,0.5-0.1,0.6,0s0.1,0.5,0,0.6
	c-0.1,0.1-0.1,0.1-0.2,0.1l-74.8,34.1L74.9,184.3z"/>
<path class="st84" d="M86.5,172.9c-0.2,0-0.4-0.3-0.4-0.5c0-0.1,0.1-0.2,0.2-0.3l63.2-22.7c0.2-0.1,0.5-0.1,0.6,0.1s0.1,0.5-0.1,0.6
	c-0.1,0-0.1,0.1-0.2,0.1l-63.1,22.7L86.5,172.9z"/>
<path class="st84" d="M70.3,171.5c-0.2-0.1-0.4-0.3-0.3-0.5c0-0.1,0.2-0.3,0.3-0.3l79.4-21.3c0.2-0.1,0.5-0.1,0.6,0.2
	s0.1,0.5-0.2,0.6c-0.1,0-0.1,0.1-0.2,0.1L70.3,171.5L70.3,171.5z"/>
<path class="st84" d="M83.6,162.2c-0.2-0.1-0.4-0.3-0.3-0.5c0-0.1,0.2-0.3,0.3-0.3l66.1-12c0.2-0.1,0.5,0,0.6,0.2
	c0.1,0.2,0,0.5-0.2,0.6H150h-0.1L83.6,162.2L83.6,162.2z"/>
<path class="st84" d="M67.9,158.1c-0.2-0.1-0.4-0.3-0.3-0.5c0-0.1,0.2-0.3,0.3-0.3l81.8-7.9c0.2,0,0.5,0.1,0.5,0.3
	c0,0.2-0.1,0.5-0.3,0.5c0,0-0.1,0-0.1,0l0,0L67.9,158.1L67.9,158.1z"/>
<path class="st84" d="M149.8,150.2L149.8,150.2l-67.2,0.9c-0.2-0.1-0.4-0.3-0.3-0.5c0-0.1,0.2-0.3,0.3-0.3l0,0l67.2-0.9
	c0.2,0.1,0.4,0.3,0.3,0.5C150,150.1,149.9,150.2,149.8,150.2z"/>
<path class="st84" d="M149.8,150.2L149.8,150.2l-82.1-5.7c-0.2,0.1-0.5-0.1-0.5-0.3c-0.1-0.2,0.1-0.5,0.3-0.5c0.1,0,0.2,0,0.2,0
	l82,5.7c0.2,0.1,0.4,0.3,0.3,0.5C149.9,150.1,149.8,150.2,149.8,150.2L149.8,150.2z"/>
<path class="st84" d="M149.8,150.2L149.8,150.2L83.3,140c-0.2,0-0.4-0.2-0.5-0.4c0-0.2,0.2-0.4,0.4-0.5c0.1,0,0.1,0,0.2,0l66.4,10.2
	c0.2,0.1,0.4,0.3,0.3,0.5C150.1,150,149.9,150.1,149.8,150.2L149.8,150.2z"/>
<path class="st84" d="M149.8,150.2L149.8,150.2L69.7,131c-0.2,0-0.4-0.2-0.4-0.4c0-0.2,0.2-0.4,0.4-0.4c0.1,0,0.2,0,0.2,0.1l80,19.2
	c0.2,0.1,0.4,0.3,0.3,0.5c0,0.1-0.2,0.3-0.3,0.3L149.8,150.2z"/>
<path class="st84" d="M149.8,150.2h-0.1l-63.8-21c-0.2,0-0.4-0.2-0.4-0.4c0-0.2,0.2-0.4,0.4-0.4c0.1,0,0.2,0,0.2,0.1l63.8,21
	c0.2,0.1,0.3,0.3,0.2,0.6c0,0.1-0.1,0.2-0.2,0.2L149.8,150.2z"/>
<path class="st84" d="M149.8,150.2h-0.2l-75.6-32.1c-0.2,0-0.4-0.2-0.4-0.5c0-0.2,0.2-0.4,0.5-0.4c0.1,0,0.2,0,0.2,0.1l75.6,32
	c0.2,0.1,0.3,0.4,0.2,0.6C150,150,149.9,150.1,149.8,150.2L149.8,150.2z"/>
<path class="st84" d="M149.8,150.2h-0.2L90.1,119c-0.2,0-0.4-0.3-0.3-0.5c0-0.2,0.3-0.4,0.5-0.3c0.1,0,0.2,0.1,0.2,0.1l59.5,31.2
	c0.2,0.1,0.2,0.4,0.1,0.6C150,150.2,149.9,150.3,149.8,150.2L149.8,150.2z"/>
<path class="st84" d="M149.8,150.2c-0.1,0-0.2,0-0.2,0l-69.4-44.3c-0.2-0.1-0.3-0.3-0.3-0.5c0.1-0.2,0.3-0.3,0.5-0.3
	c0.1,0,0.1,0.1,0.2,0.1l69.3,44.2c0.2,0.1,0.2,0.4,0.1,0.6C150,150.2,149.8,150.2,149.8,150.2L149.8,150.2z"/>
<path class="st84" d="M149.8,150.2c-0.1,0-0.2,0-0.2,0L96,109.5c-0.2-0.1-0.3-0.3-0.3-0.6c0.1-0.2,0.3-0.3,0.6-0.3
	c0.1,0,0.2,0.1,0.2,0.2l53.5,40.6c0.2,0.2,0.2,0.4,0,0.6C150,150.2,149.9,150.2,149.8,150.2z"/>
<path class="st84" d="M149.8,150.2c-0.1,0-0.2,0-0.3,0l-61.1-55c-0.1-0.2-0.1-0.5,0.1-0.6c0.1-0.1,0.3-0.1,0.4,0l61.1,55
	c0.2,0.2,0.2,0.4,0,0.6C149.9,150.3,149.8,150.3,149.8,150.2L149.8,150.2z"/>
<path class="st84" d="M151.5,253.7C94.2,254.5,47,208.8,46.2,151.5S91.1,47,148.4,46.1c57.3-0.9,104.5,44.9,105.3,102.2
	c0.6,41.7-23.7,79.7-61.8,96.5C179.1,250.4,165.4,253.5,151.5,253.7z M148.1,46.7c-57,1-102.3,47.9-101.4,104.9
	s47.9,102.3,104.9,101.4S253.9,205,253,148.1c-0.5-27.3-11.8-53.4-31.4-72.4C201.9,56.6,175.5,46.2,148.1,46.7z"/>
<path class="st84" d="M151.5,244.7c-52.5,0.9-95.8-40.9-96.7-93.4s40.9-95.8,93.4-96.7s95.8,40.9,96.7,93.4
	c0.4,25.3-9.2,49.7-26.8,67.8C200.6,233.8,176.7,244.2,151.5,244.7z M148.2,55.7c-52,0.9-93.4,43.7-92.5,95.7
	c0.9,52,43.7,93.4,95.7,92.5s93.4-43.7,92.5-95.7c-0.4-25-10.7-48.7-28.7-66.1C197.3,64.8,173.2,55.2,148.2,55.7z"/>
<path class="st84" d="M151.3,236.3c-47.8,0.8-87.2-37.3-88-85.2s37.3-87.2,85.2-88c47.8-0.8,87.2,37.3,88,85.2
	c0.4,23-8.4,45.1-24.4,61.6C196.1,226.4,174.2,235.9,151.3,236.3z M148.4,64.1c-47.3,0.9-85,39.9-84.2,87.3
	c0.9,47.3,39.9,85,87.3,84.2c47.3-0.9,85-39.9,84.2-87.3c-0.4-22.7-9.8-44.4-26.2-60.2C193.1,72.3,171.1,63.7,148.4,64.1z"/>
<ellipse transform="matrix(0.9999 -1.657987e-02 1.657987e-02 0.9999 -0.898 2.4589)" cx="147.8" cy="55.4" rx="11.5" ry="11.5"/>
<path d="M218.9,81.6c0,2.6-2,4.7-4.6,4.8c-2.6,0-4.7-2-4.8-4.6c0-2.6,2-4.7,4.6-4.8c1.2,0,2.5,0.5,3.3,1.3
	C218.4,79.1,218.9,80.3,218.9,81.6z"/>
<path d="M242.7,164c-2.9,0.1-5.4-2.3-5.4-5.2c-0.1-2.9,2.3-5.4,5.2-5.4c2.9-0.1,5.4,2.3,5.4,5.2c0,1.4-0.5,2.8-1.5,3.8
	C245.5,163.4,244.1,164,242.7,164z"/>
<path d="M81.6,79.2c2.6,0,4.7,2,4.8,4.6c0,2.6-2,4.7-4.6,4.8c-2.6,0-4.7-2-4.8-4.6c0-1.2,0.5-2.5,1.3-3.3
	C79.1,79.7,80.3,79.2,81.6,79.2z"/>
<path d="M78.2,218.4c0-2.6,2-4.7,4.6-4.8c2.6,0,4.7,2,4.8,4.6s-2,4.7-4.6,4.8c-1.2,0-2.5-0.5-3.3-1.3
	C78.7,220.8,78.2,219.6,78.2,218.4z"/>
<ellipse transform="matrix(0.6919 -0.722 0.722 0.6919 22.7481 185.16)" cx="228.3" cy="65.9" rx="9.1" ry="9.1"/>
<ellipse transform="matrix(0.6949 -0.7191 0.7191 0.6949 -147.3637 120.4873)" cx="68.3" cy="233.9" rx="9.2" ry="9.2"/>
<path d="M68.5,243.5c-5.3,0.1-9.6-4.2-9.7-9.4c-0.1-5.3,4.2-9.6,9.4-9.7c5.3-0.1,9.6,4.2,9.7,9.4c0,2.5-0.9,5-2.7,6.8
	C73.4,242.5,71,243.5,68.5,243.5z"/>
<ellipse transform="matrix(0.9999 -1.657987e-02 1.657987e-02 0.9999 -3.6345 3.5403)" cx="211.7" cy="221" rx="11.5" ry="11.5"/>
<ellipse transform="matrix(0.9999 -1.657987e-02 1.657987e-02 0.9999 -2.5073 0.9562)" cx="56.4" cy="151.7" rx="11.5" ry="11.5"/>
<ellipse transform="matrix(0.9999 -1.657987e-02 1.657987e-02 0.9999 -2.4726 2.4876)" class="st85" cx="148.8" cy="150.4" rx="40.3" ry="40.3"/>
<ellipse transform="matrix(0.9999 -1.657987e-02 1.657987e-02 0.9999 -2.4761 2.4953)" cx="149.3" cy="150.6" rx="30.6" ry="30.6"/>
<path class="st83" d="M135.7,168.3c-0.2-0.6-0.5-1.1-0.8-1.6c-0.4-0.9-0.8-1.8-1.1-2.8c-0.1-0.5-0.1-0.9,0-1.4
	c0.5-1.3,1.1-2.5,1.7-3.9c0.3-0.5,0.3-1.2,0-1.7l-5-12.1c-0.4-1.1-0.4-1.2,0.8-1.2h2.9c0.5,0,1,0.3,1.1,0.8
	c2.3,5.7,4.6,11.5,6.9,17.2l0.2,0.2c0.2-0.2,0.3-0.4,0.4-0.6l3.2-7.5l3.2-7.7c0-0.1,0.2-0.3,0.4-0.4s0.4,0.2,0.4,0.4l6.4,15.2
	c0.1,0.2,0.3,0.5,0.5,0.7l1.8-4.4l4.2-10.6c0.3-0.9,0.7-1.7,1-2.5c0.1-0.5,0.6-0.8,1.1-0.8h3.2c0.8,0,0.9,0.1,0.6,0.9
	c-0.8,2.1-1.7,4.1-2.5,6.2s-1.7,4.1-2.5,6.2c-0.2,0.5-0.2,1.1,0,1.6c0.6,1.3,1.2,2.6,1.8,4c0.1,0.4,0.1,0.9,0,1.3
	c-0.5,1.3-1.1,2.5-1.6,3.9c-0.1,0.3-0.3,0.5-0.5,0.7l-2.2-5H161l-3.8,9.2H157l-1.3-2.9L150,157c0-0.1-0.2-0.2-0.3-0.4
	s-0.3,0.2-0.4,0.4l-5.6,12.9l-1.3,3h-0.3l-3.9-9.3c-1.1,1.6-1.5,3.3-2.3,4.9L135.7,168.3z"/>
<path class="st83" d="M142.3,153.8c-0.4-0.8-0.7-1.4-0.9-2.1s-0.8-1.8-1.1-2.8c-0.1-0.4-0.1-0.8,0-1.2c2.1-5,4.1-9.8,6.2-14.7
	c0.9-2.2,1.9-4.4,2.8-6.5c0-0.2,0.2-0.3,0.4-0.3s0.3,0.2,0.4,0.3l6,14.1l3,7.1c0.1,0.3,0.1,0.7,0,1c-0.5,1.4-1.1,2.8-1.7,4.2
	c-0.1,0.2-0.3,0.5-0.4,0.7c-0.5-1.1-0.9-2-1.3-2.9l-5.7-13c-0.1-0.1-0.2-0.3-0.4-0.4c-0.1,0.1-0.3,0.3-0.4,0.4l-6.5,14.9
	C142.6,153.1,142.5,153.4,142.3,153.8z"/>
<text transform="matrix(1 0 0 1 355.26 121.18)" class="st86 st87">Sai</text>
<text transform="matrix(1 0 0 1 506.57 121.18)" class="st86 st87 st88"></text>
<text transform="matrix(1 0 0 1 527.71 121.18)" class="st86 st87">s</text>
<text transform="matrix(1 0 0 1 315.14 252.72)" class="st89 st90 st91">A</text>
<text transform="matrix(1 0 0 1 422.46 252.72)" class="st89 st90">s</text>
<text transform="matrix(1 0 0 1 494.29 252.72)" class="st89 st90">t</text>
<text transform="matrix(1 0 0 1 549.18 252.72)" class="st89 st90 st91">r</text>
<text transform="matrix(1 0 0 1 604.51 252.72)" class="st89 st90">o</text>
<text transform="matrix(1 0 0 1 690.25 252.72)" class="st89 st90 st92">W</text>
<text transform="matrix(1 0 0 1 844.06 252.72)" class="st89 st90">orld</text>
</svg>
