<?xml version="1.0" encoding="utf-8"?>
<!-- Generator: Adobe Illustrator 24.2.0, SVG Export Plug-In . SVG Version: 6.00 Build 0)  -->
<svg version="1.1" id="Layer_1" xmlns="http://www.w3.org/2000/svg" xmlns:xlink="http://www.w3.org/1999/xlink" x="0px" y="0px"
	 viewBox="0 0 445.6 118.7" style="enable-background:new 0 0 445.6 118.7;" xml:space="preserve">
<style type="text/css">
	.st0{font-family:'ArialMT';}
	.st1{font-size:40.04px;}
	.st2{font-family:'Arial-BoldMT';}
	.st3{font-size:56.53px;}
	.st4{fill:#F27421;}
	.st5{fill:#221F1F;}
	.st6{stroke:#000000;stroke-width:0.75;stroke-miterlimit:10;}
	.st7{stroke:#000000;stroke-width:0.5;stroke-miterlimit:10;}
	.st8{fill:url(#SVGID_1_);}
	.st9{fill:url(#SVGID_2_);}
	.st10{fill:url(#SVGID_3_);}
	.st11{fill:url(#SVGID_4_);}
	.st12{fill:url(#SVGID_5_);}
	.st13{fill:url(#SVGID_6_);}
	.st14{fill:url(#SVGID_7_);}
	.st15{fill:url(#SVGID_8_);}
	.st16{fill:url(#SVGID_9_);}
	.st17{fill:url(#SVGID_10_);}
	.st18{fill:url(#SVGID_11_);}
	.st19{fill:url(#SVGID_12_);}
	.st20{fill:url(#SVGID_13_);}
	.st21{fill:url(#SVGID_14_);}
	.st22{fill:url(#SVGID_15_);}
	.st23{fill:url(#SVGID_16_);}
	.st24{fill:url(#SVGID_17_);}
	.st25{fill:url(#SVGID_18_);}
	.st26{fill:url(#SVGID_19_);}
	.st27{fill:url(#SVGID_20_);}
	.st28{fill:url(#SVGID_21_);}
	.st29{fill:url(#SVGID_22_);}
	.st30{fill:url(#SVGID_23_);}
	.st31{fill:url(#SVGID_24_);}
	.st32{fill:url(#SVGID_25_);}
	.st33{fill:url(#SVGID_26_);}
	.st34{fill:url(#SVGID_27_);}
	.st35{fill:url(#SVGID_28_);}
	.st36{fill:url(#SVGID_29_);}
	.st37{fill:url(#SVGID_30_);}
	.st38{fill:url(#SVGID_31_);}
	.st39{fill:url(#SVGID_32_);}
	.st40{fill:url(#SVGID_33_);}
	.st41{fill:url(#SVGID_34_);}
	.st42{fill:url(#SVGID_35_);}
	.st43{fill:url(#SVGID_36_);}
	.st44{fill:url(#SVGID_37_);}
	.st45{fill:url(#SVGID_38_);}
	.st46{fill:url(#SVGID_39_);}
	.st47{fill:url(#SVGID_40_);}
	.st48{fill:url(#SVGID_41_);}
	.st49{fill:url(#SVGID_42_);}
	.st50{fill:url(#SVGID_43_);}
	.st51{fill:url(#SVGID_44_);}
	.st52{fill:url(#SVGID_45_);}
	.st53{fill:url(#SVGID_46_);}
	.st54{fill:url(#SVGID_47_);}
	.st55{fill:url(#SVGID_48_);}
	.st56{fill:url(#SVGID_49_);}
	.st57{fill:url(#SVGID_50_);}
	.st58{fill:url(#SVGID_51_);}
	.st59{fill:url(#SVGID_52_);}
	.st60{fill:url(#SVGID_53_);}
	.st61{fill:url(#SVGID_54_);}
	.st62{fill:url(#SVGID_55_);}
	.st63{fill:url(#SVGID_56_);}
	.st64{fill:url(#SVGID_57_);}
	.st65{fill:url(#SVGID_58_);}
	.st66{fill:url(#SVGID_59_);}
	.st67{fill:url(#SVGID_60_);}
	.st68{fill:url(#SVGID_61_);}
	.st69{fill:url(#SVGID_62_);}
	.st70{fill:url(#SVGID_63_);}
	.st71{fill:url(#SVGID_64_);}
	.st72{fill:url(#SVGID_65_);}
	.st73{fill:url(#SVGID_66_);}
	.st74{fill:url(#SVGID_67_);}
	.st75{fill:url(#SVGID_68_);}
	.st76{fill:url(#SVGID_69_);}
	.st77{fill:url(#SVGID_70_);}
	.st78{fill:url(#SVGID_71_);}
	.st79{fill:url(#SVGID_72_);}
	.st80{fill:url(#SVGID_73_);}
	.st81{fill:url(#SVGID_74_);}
	.st82{fill:url(#SVGID_75_);}
	.st83{fill:url(#SVGID_76_);}
	.st84{stroke:#000000;stroke-width:0.25;stroke-miterlimit:10;}
	.st85{fill:#F27421;stroke:#000000;stroke-width:0.75;stroke-miterlimit:10.002;}
</style>
<text transform="matrix(1 0 0 1 149.52 47.67)" class="st0 st1">Sai</text>
<text transform="matrix(1 0 0 1 133.86 100)" class="st2 st3">A</text>
<text transform="matrix(1 0 0 1 175.75 100)" class="st2 st3">s</text>
<text transform="matrix(1 0 0 1 203.78 100)" class="st2 st3">t</text>
<text transform="matrix(1 0 0 1 225.21 100)" class="st2 st3">r</text>
<text transform="matrix(1 0 0 1 246.8 100)" class="st2 st3">o</text>
<text transform="matrix(1 0 0 1 280.26 100)" class="st2 st3">W</text>
<text transform="matrix(1 0 0 1 331.094 100)" class="st2 st3">orld</text>
<path d="M58.4,104.7c0-1.1,0.9-2.1,2-2.1c1.1,0,2.1,0.9,2.1,2c0,1.1-0.9,2.1-2,2.1c-0.5,0-1.1-0.2-1.5-0.6
	C58.7,105.8,58.5,105.3,58.4,104.7z"/>
<ellipse class="st4" cx="60" cy="59.3" rx="60" ry="60"/>
<ellipse class="st5" cx="95.6" cy="22.6" rx="5.2" ry="5.2"/>
<path class="st5" d="M24.3,99.4c-1.6,0-3-1.3-3-2.9c0-1.6,1.3-2.9,2.9-2.9c1.6,0,3,1.3,3,2.9c0,0.8-0.3,1.5-0.8,2.1
	C25.8,99,25.1,99.4,24.3,99.4z"/>
<path class="st6" d="M59.8,14.8c-0.5,0-1,0-1.5,0.1c0,0,0,0.1,0,0.1v0.1c0.5,0,0.9,0,1.4,0c12-0.2,23.6,4.3,32.2,12.6
	c8.6,8.3,13.6,19.6,13.8,31.5c0.4,23.9-18.1,43.7-41.9,45.5c0,0,0,0.1,0,0.1c0,0.1,0,0.2,0,0.3c5.2-0.4,10.3-1.6,15-3.7
	c16.7-7.3,27.4-23.8,27.2-41.9C105.7,34.3,85,14.4,59.8,14.8z M15.2,60.6C14.8,39.2,29.8,21,50,16.2c0-0.1,0-0.1-0.1-0.2
	c-20.4,4.8-35.4,23-35,44.6c0.4,23.6,18.9,42.6,42.2,44.3c0,0,0-0.1,0-0.1c0-0.1,0-0.1,0-0.2C34,102.9,15.6,84,15.2,60.6z"/>
<path class="st7" d="M82.1,94.7c-6.1,3.7-13.3,5.9-21,6.1c-20.4,0.3-37.7-14.1-41.3-33.3c-0.1,0-0.3,0-0.4,0
	c3.7,19.4,21.1,34,41.7,33.6C68.7,101,76,98.8,82.3,95C82.3,94.9,82.2,94.8,82.1,94.7z M91,31.7c-0.1,0.1-0.2,0.3-0.3,0.4
	c6.9,7.4,10.8,17,11,27.1c0.2,10.2-3.4,19.5-9.5,26.8c0.1,0.1,0.2,0.2,0.3,0.3c6.4-7.6,9.8-17.2,9.6-27.2
	C102,48.5,97.8,38.9,91,31.7z M32.6,29c0.1,0.1,0.2,0.2,0.3,0.3C40,23.1,49.4,19.1,59.7,19c9.9-0.2,19.5,3.2,27,9.4
	c0.1-0.1,0.2-0.2,0.4-0.3c-7.4-6.1-17-9.7-27.4-9.5C49.3,18.7,39.8,22.6,32.6,29z M28.5,33.2c-4.9,5.8-8.3,12.9-9.4,20.7
	c0.1,0,0.3,0,0.4,0c1.1-7.7,4.5-14.8,9.3-20.5C28.8,33.4,28.6,33.3,28.5,33.2z"/>
<path class="st7" d="M61.1,97.5c-21,0.3-38.3-16.2-38.6-37c-0.3-20.8,16.4-37.9,37.4-38.3c21-0.3,38.3,16.2,38.6,37
	c0.2,10-3.7,19.6-10.7,26.8C80.8,93.2,71.2,97.3,61.1,97.5z M59.8,22.6C39,23,22.5,40,22.9,60.6c0.4,20.6,17.5,37,38.3,36.6
	c20.8-0.4,37.3-17.4,37-37.9c-0.2-9.9-4.3-19.3-11.5-26.2C79.4,26.2,69.8,22.4,59.8,22.6z"/>
<path class="st5" d="M90.8,30.2c0,1.1-0.9,2.1-2,2.1c-1.1,0-2.1-0.9-2.1-2c0-1.1,0.9-2.1,2-2.1c0.5,0,1.1,0.2,1.5,0.6
	C90.5,29.2,90.8,29.7,90.8,30.2z"/>
<path d="M16.9,60.7c0-1.1,0.9-2.1,2-2.1c1.1,0,2.1,0.9,2.1,2c0,1.1-0.9,2.1-2,2.1c-0.5,0-1.1-0.2-1.5-0.6
	C17.2,61.8,16.9,61.3,16.9,60.7z"/>
<path d="M85.4,91c0-1.1,0.9-2.1,2-2.1s2.1,0.9,2.1,2c0,1.1-0.9,2.1-2,2.1c-0.5,0-1.1-0.2-1.5-0.6C85.7,92,85.4,91.5,85.4,91z"/>
<path class="st5" d="M87.4,85.9c-2.8,0-5,2.3-5,5.1c0,2.8,2.4,5,5.1,4.9c2.8,0,5-2.3,5-5.1C92.5,88.1,90.2,85.9,87.4,85.9z
	 M87.6,94.2c-1.8,0-3.3-1.4-3.3-3.2c0-1.8,1.4-3.3,3.2-3.3c1.8,0,3.3,1.4,3.3,3.2C90.8,92.7,89.4,94.1,87.6,94.2z"/>
<path class="st5" d="M18.9,55.7c-2.8,0-5,2.3-5,5.1c0,2.8,2.4,5,5.1,4.9s5-2.3,5-5.1S21.7,55.6,18.9,55.7z M19.1,63.9
	c-1.8,0-3.3-1.4-3.3-3.2c0-1.8,1.4-3.3,3.2-3.3c1.8,0,3.3,1.4,3.3,3.2C22.3,62.4,20.9,63.9,19.1,63.9z"/>
<path class="st7" d="M27.5,104.2c-3.3,0.1-6-0.8-7.9-2.6c-4.2-4-3.8-12,1-22.8S34.1,56.2,45,45S67.7,25,78.3,19.9s18.8-5.8,23-1.8
	s3.8,12.1-1,22.8c-4.8,10.7-13.4,22.7-24.3,33.8S53.2,94.7,42.6,99.8C36.7,102.7,31.6,104.1,27.5,104.2z M93.4,15.9
	c-11.5,0.2-30.7,11.5-48.2,29.4c-22.4,22.8-33.7,48-25.3,56c2.1,1.8,4.8,2.7,7.6,2.5c11.5-0.2,30.7-11.5,48.2-29.4
	c22.4-22.8,33.7-48,25.4-56C98.9,16.6,96.2,15.7,93.4,15.9L93.4,15.9z"/>
<ellipse class="st5" cx="54.1" cy="15" rx="3.1" ry="3.1"/>
<path class="st5" d="M30.5,29c1.2,0,2.1,0.9,2.1,2c0,1.1-0.9,2.1-2.1,2.1c-1.2,0-2.1-0.9-2.1-2c0-0.6,0.2-1.1,0.6-1.5
	C29.4,29.2,29.9,29,30.5,29z"/>
<g>
	<path class="st5" d="M51.3,56.5c1.5,0,3,0,4.4,0c0.4,0,0.6-0.1,0.8-0.5c1.1-2.2,2.3-4.4,3.5-6.6c0.1,0.2,0.2,0.4,0.3,0.5
		c1.1,2.1,2.2,4.1,3.3,6.2c0.2,0.3,0.4,0.4,0.7,0.4c1.4,0,2.9,0,4.4,0c-0.1,0.2-0.2,0.4-0.3,0.6c-0.6,1.1-1.2,2.3-1.8,3.4
		c-0.3,0.4-0.3,0.8,0,1.2c0.7,1.3,1.4,2.6,2.1,4c-0.3,0-0.6,0-0.9,0c-1.1,0-2.2,0-3.3,0c-0.6,0-0.9,0.2-1.1,0.7
		c-0.4,0.8-0.8,1.5-1.3,2.4c-0.7-1.4-1.4-2.7-2.2-4c-0.7,1.4-1.4,2.6-2.2,4c-0.5-0.9-0.9-1.7-1.4-2.5c-0.2-0.4-0.4-0.6-0.9-0.5
		c-1.2,0-2.5,0-3.7,0c-0.2,0-0.3,0-0.6,0c0.6-1.2,1.2-2.3,1.8-3.4c0.6-0.9,0.6-1.6,0-2.5C52.4,58.9,51.9,57.7,51.3,56.5z M60,51.9
		c-0.9,1.8-1.8,3.4-2.7,5.1c0,0.1,0,0.2,0,0.3c0.4,0.9,0.9,1.7,1.4,2.6c0.4-0.8,0.9-1.6,1.3-2.4c0.1,0.2,0.2,0.4,0.4,0.6
		c1.1,2,2.1,4,3.2,6c0.1,0.2,0.2,0.4,0.4,0.4c0.9,0,1.8,0,2.8,0C64.5,60.3,62.2,56.1,60,51.9z M57.8,66.3c0.7-1.4,1.4-2.7,2.2-4
		c0.7,1.4,1.4,2.6,2.1,4c0.1-0.2,0.2-0.4,0.3-0.5c0.3-0.4,0.3-0.8,0-1.3c-0.5-0.8-1-1.8-1.4-2.6c-0.3-0.6-0.7-1.2-1-1.9
		c-0.5,0.8-0.9,1.6-1.3,2.4c-0.8-1.5-1.5-2.8-2.3-4.2c-0.1-0.2-0.3-0.4-0.4-0.4c-0.9,0-1.8,0-2.8,0C54.8,60.6,56.3,63.4,57.8,66.3z
		 M65.6,59.9c0.4-0.8,0.8-1.4,1.2-2.2c-0.8,0-1.5,0-2.3,0C64.8,58.5,65.2,59.1,65.6,59.9z M53.2,64.5c0.8,0,1.5,0,2.3,0
		c-0.4-0.7-0.7-1.4-1.1-2.1C54,63.1,53.6,63.8,53.2,64.5z"/>
</g>
<g id="mask-160_2_">
	
		<radialGradient id="SVGID_1_" cx="-10003.2432" cy="-3397.8252" r="94.5611" gradientTransform="matrix(0.1252 -1.600000e-02 1.616071e-02 0.128 1450.9023 288.5043)" gradientUnits="userSpaceOnUse">
		<stop  offset="6.000000e-02" style="stop-color:#FFFFFF"/>
		<stop  offset="1" style="stop-color:#000000"/>
	</radialGradient>
	<path class="st8" d="M60.1,59.6c0,0-0.1,0-0.1,0L34.5,36.7c-0.1-0.1-0.1-0.2,0-0.3c0.1,0,0.1,0,0.2,0l25.5,22.9
		c0.1,0.1,0.1,0.2,0,0.3C60.2,59.6,60.1,59.6,60.1,59.6L60.1,59.6z"/>
</g>
<g id="mask-159_2_">
	
		<radialGradient id="SVGID_2_" cx="-10069.3867" cy="-4199.4873" r="77.485" gradientTransform="matrix(0.1252 -2.800000e-02 2.828124e-02 0.128 1462.6034 288.1043)" gradientUnits="userSpaceOnUse">
		<stop  offset="6.000000e-02" style="stop-color:#FFFFFF"/>
		<stop  offset="1" style="stop-color:#000000"/>
	</radialGradient>
	<path class="st9" d="M60.1,59.6c0,0-0.1,0-0.1,0L37.7,42.7c-0.1,0-0.1-0.1-0.1-0.2c0-0.1,0.1-0.1,0.2-0.1l0.1,0.1l22.2,16.9
		C60.3,59.4,60.3,59.5,60.1,59.6C60.1,59.6,60.1,59.7,60.1,59.6L60.1,59.6z"/>
</g>
<g id="mask-158_2_">
	
		<radialGradient id="SVGID_3_" cx="-9855.8574" cy="-4823.8735" r="94.5874" gradientTransform="matrix(0.1212 -4.000000e-02 4.040177e-02 0.124 1473.9812 286.8694)" gradientUnits="userSpaceOnUse">
		<stop  offset="6.000000e-02" style="stop-color:#FFFFFF"/>
		<stop  offset="1" style="stop-color:#000000"/>
	</radialGradient>
	<path class="st10" d="M60.1,59.6L60.1,59.6l-29-18.4C31,41.2,31,41.1,31,41c0,0,0,0,0,0c0-0.1,0.1-0.1,0.2-0.1c0,0,0,0,0,0h0.1
		l28.9,18.5C60.2,59.4,60.2,59.5,60.1,59.6C60.1,59.6,60.1,59.7,60.1,59.6L60.1,59.6z"/>
</g>
<g id="mask-157_2_">
	
		<radialGradient id="SVGID_4_" cx="-9271.0508" cy="-5731.3296" r="77.4588" gradientTransform="matrix(0.1172 -4.800000e-02 4.848212e-02 0.12 1486.4308 284.3745)" gradientUnits="userSpaceOnUse">
		<stop  offset="6.000000e-02" style="stop-color:#FFFFFF"/>
		<stop  offset="1" style="stop-color:#000000"/>
	</radialGradient>
	<path class="st11" d="M60.1,59.6L60.1,59.6l-24.8-13c-0.1,0-0.1-0.1-0.1-0.2c0-0.1,0.1-0.1,0.2-0.1c0,0,0.1,0,0.1,0l24.8,13.1
		C60.2,59.4,60.2,59.5,60.1,59.6C60.1,59.6,60.1,59.6,60.1,59.6z"/>
</g>
<g id="mask-156_2_">
	
		<radialGradient id="SVGID_5_" cx="-9179.7783" cy="-6457.8018" r="94.5611" gradientTransform="matrix(0.1131 -6.000000e-02 6.060266e-02 0.116 1497.5623 281.1516)" gradientUnits="userSpaceOnUse">
		<stop  offset="6.000000e-02" style="stop-color:#FFFFFF"/>
		<stop  offset="1" style="stop-color:#000000"/>
	</radialGradient>
	<path class="st12" d="M60.1,59.6L60.1,59.6L28.5,46.3c-0.1,0-0.2-0.1-0.1-0.2c0-0.1,0.1-0.1,0.1-0.1h0.1l31.5,13.4
		c0.1,0,0.1,0.2,0.1,0.2C60.2,59.6,60.1,59.6,60.1,59.6z"/>
</g>
<g id="mask-155_2_">
	
		<radialGradient id="SVGID_6_" cx="-8593.1904" cy="-7405.4351" r="77.485" gradientTransform="matrix(0.1091 -6.800000e-02 6.868301e-02 0.112 1508.3512 276.8008)" gradientUnits="userSpaceOnUse">
		<stop  offset="6.000000e-02" style="stop-color:#FFFFFF"/>
		<stop  offset="1" style="stop-color:#000000"/>
	</radialGradient>
	<path class="st13" d="M60.1,59.6L60.1,59.6l-26.6-8.8c-0.1,0-0.2-0.1-0.2-0.2c0-0.1,0.1-0.2,0.2-0.2h0.1l26.6,8.8
		c0.1,0,0.1,0.1,0.1,0.2C60.2,59.6,60.2,59.7,60.1,59.6L60.1,59.6z"/>
</g>
<g id="mask-154_2_">
	
		<radialGradient id="SVGID_7_" cx="-7926.6543" cy="-7893.2866" r="94.5611" gradientTransform="matrix(0.101 -7.600000e-02 7.676336e-02 0.104 1519.5404 272.1669)" gradientUnits="userSpaceOnUse">
		<stop  offset="6.000000e-02" style="stop-color:#FFFFFF"/>
		<stop  offset="1" style="stop-color:#000000"/>
	</radialGradient>
	<path class="st14" d="M60.1,59.6L60.1,59.6l-33.3-8c-0.1,0-0.2-0.1-0.2-0.2c0-0.1,0.1-0.2,0.2-0.2l0,0h0.1l33.3,8
		c0.1,0,0.2,0.1,0.1,0.2C60.3,59.5,60.2,59.6,60.1,59.6L60.1,59.6z"/>
</g>
<g id="mask-153_2_">
	
		<radialGradient id="SVGID_8_" cx="-7818.5688" cy="-9315.3184" r="77.4588" gradientTransform="matrix(0.101 -8.400000e-02 8.888389e-02 0.1 1528.9869 265.744)" gradientUnits="userSpaceOnUse">
		<stop  offset="6.000000e-02" style="stop-color:#FFFFFF"/>
		<stop  offset="1" style="stop-color:#000000"/>
	</radialGradient>
	<path class="st15" d="M60.1,59.6L60.1,59.6l-27.7-4.2c-0.1,0-0.2-0.1-0.2-0.2s0.1-0.2,0.2-0.2h0.1l27.6,4.2c0.1,0,0.2,0.1,0.1,0.2
		C60.2,59.6,60.2,59.6,60.1,59.6L60.1,59.6z"/>
</g>
<g id="mask-152_2_">
	
		<radialGradient id="SVGID_9_" cx="-6883.8628" cy="-9610.0361" r="94.5611" gradientTransform="matrix(9.292407e-02 -9.200000e-02 9.292407e-02 9.200000e-02 1539.0419 259.0782)" gradientUnits="userSpaceOnUse">
		<stop  offset="6.000000e-02" style="stop-color:#FFFFFF"/>
		<stop  offset="1" style="stop-color:#000000"/>
	</radialGradient>
	<path class="st16" d="M60.1,59.6L60.1,59.6l-34.2-2.4c-0.1,0-0.2,0-0.2-0.1c0-0.1,0-0.2,0.1-0.2h0.1l34.1,2.4
		c0.1,0,0.2,0.1,0.1,0.2C60.2,59.6,60.1,59.6,60.1,59.6L60.1,59.6z"/>
</g>
<g id="mask-151_2_">
	
		<radialGradient id="SVGID_10_" cx="-6232.687" cy="-10165.3408" r="77.485" gradientTransform="matrix(8.484372e-02 -0.1 0.101 8.400000e-02 1547.9645 251.3364)" gradientUnits="userSpaceOnUse">
		<stop  offset="6.000000e-02" style="stop-color:#FFFFFF"/>
		<stop  offset="1" style="stop-color:#000000"/>
	</radialGradient>
	<path class="st17" d="M60.1,59.6L60.1,59.6L32.2,60c-0.1,0-0.2-0.1-0.1-0.2c0-0.1,0.1-0.1,0.1-0.1l0,0l28-0.4
		c0.1,0,0.2,0.1,0.1,0.2C60.2,59.6,60.2,59.6,60.1,59.6L60.1,59.6z"/>
</g>
<g id="mask-150_2_">
	
		<radialGradient id="SVGID_11_" cx="-5330.8906" cy="-10449.4648" r="94.5611" gradientTransform="matrix(7.676336e-02 -0.108 0.105 7.600000e-02 1557.1951 243.0146)" gradientUnits="userSpaceOnUse">
		<stop  offset="6.000000e-02" style="stop-color:#FFFFFF"/>
		<stop  offset="1" style="stop-color:#000000"/>
	</radialGradient>
	<path class="st18" d="M26,62.9c-0.1,0-0.2-0.1-0.1-0.2c0-0.1,0.1-0.1,0.1-0.1l34.1-3.3c0.1,0,0.2,0.1,0.2,0.2s-0.1,0.2-0.2,0.2l0,0
		L26,62.9L26,62.9z"/>
</g>
<g id="mask-149_2_">
	
		<radialGradient id="SVGID_12_" cx="-4556.7041" cy="-10384.6084" r="77.485" gradientTransform="matrix(6.464283e-02 -0.112 0.1091 6.400000e-02 1565.238 234.05)" gradientUnits="userSpaceOnUse">
		<stop  offset="6.000000e-02" style="stop-color:#FFFFFF"/>
		<stop  offset="1" style="stop-color:#000000"/>
	</radialGradient>
	<path class="st19" d="M32.6,64.6c-0.1,0-0.2-0.1-0.1-0.2c0-0.1,0.1-0.1,0.1-0.1l27.6-5c0.1,0,0.2,0,0.2,0.1c0,0.1,0,0.2-0.1,0.2
		c0,0,0,0,0,0h-0.1L32.6,64.6L32.6,64.6z"/>
</g>
<g id="mask-148_2_">
	
		<radialGradient id="SVGID_13_" cx="-3909.9165" cy="-11185.4639" r="94.5611" gradientTransform="matrix(5.656248e-02 -0.12 0.1172 5.600000e-02 1571.6879 224.5202)" gradientUnits="userSpaceOnUse">
		<stop  offset="6.000000e-02" style="stop-color:#FFFFFF"/>
		<stop  offset="1" style="stop-color:#000000"/>
	</radialGradient>
	<path class="st20" d="M27,68.5c-0.1,0-0.2-0.1-0.1-0.2c0-0.1,0.1-0.1,0.1-0.1l33.1-8.9c0.1,0,0.2,0,0.2,0.1c0,0.1,0,0.2-0.1,0.2
		h-0.1L27,68.5L27,68.5z"/>
</g>
<g id="mask-147_2_">
	
		<radialGradient id="SVGID_14_" cx="-3242.7378" cy="-11297.9219" r="77.485" gradientTransform="matrix(4.444195e-02 -0.124 0.1212 4.400000e-02 1578.248 214.7755)" gradientUnits="userSpaceOnUse">
		<stop  offset="6.000000e-02" style="stop-color:#FFFFFF"/>
		<stop  offset="1" style="stop-color:#000000"/>
	</radialGradient>
	<path class="st21" d="M33.7,69.1c-0.1,0-0.2-0.1-0.2-0.2c0-0.1,0-0.1,0.1-0.1L60,59.3c0.1-0.1,0.2-0.1,0.2,0c0.1,0.1,0.1,0.2,0,0.2
		h-0.1L33.9,69L33.7,69.1z"/>
</g>
<g id="mask-146_2_">
	
		<radialGradient id="SVGID_15_" cx="-2167.3899" cy="-11768.2979" r="94.5874" gradientTransform="matrix(3.636159e-02 -0.128 0.1252 3.600000e-02 1582.9497 204.0057)" gradientUnits="userSpaceOnUse">
		<stop  offset="6.000000e-02" style="stop-color:#FFFFFF"/>
		<stop  offset="1" style="stop-color:#000000"/>
	</radialGradient>
	<path class="st22" d="M28.9,73.8c-0.1,0-0.2-0.1-0.2-0.2c0-0.1,0-0.1,0.1-0.1L60,59.3c0.1-0.1,0.2-0.1,0.2,0c0.1,0.1,0.1,0.2,0,0.3
		h-0.1L28.9,73.8L28.9,73.8z"/>
</g>
<g id="mask-145_2_">
	
		<radialGradient id="SVGID_16_" cx="-1350.7539" cy="-11526.6934" r="77.485" gradientTransform="matrix(2.424106e-02 -0.128 0.1252 2.400000e-02 1587.6525 192.917)" gradientUnits="userSpaceOnUse">
		<stop  offset="6.000000e-02" style="stop-color:#FFFFFF"/>
		<stop  offset="1" style="stop-color:#000000"/>
	</radialGradient>
	<path class="st23" d="M35.7,73.3c-0.1,0-0.2-0.1-0.2-0.2c0-0.1,0-0.1,0.1-0.1L60,59.3c0.1-0.1,0.2-0.1,0.3,0c0.1,0.1,0.1,0.2,0,0.3
		h-0.1L35.7,73.3L35.7,73.3z"/>
</g>
<g id="mask-144_2_">
	
		<radialGradient id="SVGID_17_" cx="-188.4664" cy="-11985.2295" r="94.5349" gradientTransform="matrix(1.616071e-02 -0.132 0.1293 1.600000e-02 1591.2026 181.3672)" gradientUnits="userSpaceOnUse">
		<stop  offset="6.000000e-02" style="stop-color:#FFFFFF"/>
		<stop  offset="1" style="stop-color:#000000"/>
	</radialGradient>
	<path class="st24" d="M31.7,78.8c-0.1,0-0.2-0.1-0.2-0.2c0,0,0-0.1,0.1-0.1L60,59.3c0.1-0.1,0.2-0.1,0.3,0c0.1,0.1,0.1,0.2,0,0.3
		h-0.1L31.8,78.7L31.7,78.8z"/>
</g>
<g id="mask-143_2_">
	
		<radialGradient id="SVGID_18_" cx="580.0771" cy="-11844.8008" r="77.4588" gradientTransform="matrix(4.040177e-03 -0.132 0.1293 4.000000e-03 1593.7843 169.8705)" gradientUnits="userSpaceOnUse">
		<stop  offset="6.000000e-02" style="stop-color:#FFFFFF"/>
		<stop  offset="1" style="stop-color:#000000"/>
	</radialGradient>
	<path class="st25" d="M38.3,77.1c-0.1,0-0.2-0.1-0.2-0.2c0,0,0-0.1,0.1-0.1L60,59.3c0.1-0.1,0.2-0.1,0.3,0c0.1,0.1,0.1,0.2,0,0.3
		l0,0L38.4,77.1C38.3,77.1,38.3,77.1,38.3,77.1z"/>
</g>
<g id="mask-142_2_">
	
		<radialGradient id="SVGID_19_" cx="1313.9785" cy="-11842.3389" r="94.5611" gradientTransform="matrix(-8.080354e-03 -0.132 0.1293 -7.999999e-03 1595.4611 158.4298)" gradientUnits="userSpaceOnUse">
		<stop  offset="6.000000e-02" style="stop-color:#FFFFFF"/>
		<stop  offset="1" style="stop-color:#000000"/>
	</radialGradient>
	<path class="st26" d="M35.3,83.2c-0.1,0-0.2-0.1-0.2-0.2c0,0,0-0.1,0.1-0.1L60,59.3c0.1-0.1,0.2-0.1,0.2,0c0.1,0.1,0.1,0.2,0,0.2
		h-0.1L35.3,83.2C35.3,83.2,35.3,83.2,35.3,83.2z"/>
</g>
<g id="mask-141_2_">
	
		<radialGradient id="SVGID_20_" cx="1928.9955" cy="-11388.4287" r="77.485" gradientTransform="matrix(-2.020089e-02 -0.128 0.1252 -2.000000e-02 1596.3025 146.2331)" gradientUnits="userSpaceOnUse">
		<stop  offset="6.000000e-02" style="stop-color:#FFFFFF"/>
		<stop  offset="1" style="stop-color:#000000"/>
	</radialGradient>
	<path class="st27" d="M41.5,80.5c-0.1,0-0.2-0.1-0.2-0.1c0,0,0-0.1,0-0.1l18.7-20.9c0.1-0.1,0.2-0.1,0.2-0.1c0.1,0,0.1,0.2,0.1,0.2
		v0.1L41.6,80.4C41.6,80.5,41.5,80.5,41.5,80.5z"/>
</g>
<g id="mask-140_2_">
	
		<radialGradient id="SVGID_21_" cx="3177.7578" cy="-11299.8506" r="94.5611" gradientTransform="matrix(-2.828124e-02 -0.128 0.1252 -2.800000e-02 1595.2804 134.3513)" gradientUnits="userSpaceOnUse">
		<stop  offset="6.000000e-02" style="stop-color:#FFFFFF"/>
		<stop  offset="1" style="stop-color:#000000"/>
	</radialGradient>
	<path class="st28" d="M39.5,86.9c-0.1,0-0.2-0.1-0.2-0.2c0,0,0,0,0,0c0,0,0-0.1,0-0.1l20.6-27.3c0.1-0.1,0.2-0.1,0.2,0
		c0,0.1,0,0.1,0,0.2L39.6,86.9C39.6,86.9,39.5,86.9,39.5,86.9z"/>
</g>
<g id="mask-139_2_">
	
		<radialGradient id="SVGID_22_" cx="3770.4282" cy="-11001.4814" r="77.485" gradientTransform="matrix(-4.040177e-02 -0.124 0.1212 -4.000000e-02 1594.3481 122.8146)" gradientUnits="userSpaceOnUse">
		<stop  offset="6.000000e-02" style="stop-color:#FFFFFF"/>
		<stop  offset="1" style="stop-color:#000000"/>
	</radialGradient>
	<path class="st29" d="M45.2,83.3L45.2,83.3C45,83.2,45,83.1,45.1,83l14.8-23.7c0.1-0.1,0.2-0.1,0.3,0c0,0.1,0,0.1,0,0.2L45.3,83.2
		C45.3,83.2,45.2,83.2,45.2,83.3z"/>
</g>
<g id="mask-138_2_">
	
		<radialGradient id="SVGID_23_" cx="4720.6528" cy="-10455.2832" r="94.5611" gradientTransform="matrix(-4.848212e-02 -0.12 0.1172 -4.800000e-02 1591.808 110.8568)" gradientUnits="userSpaceOnUse">
		<stop  offset="6.000000e-02" style="stop-color:#FFFFFF"/>
		<stop  offset="1" style="stop-color:#000000"/>
	</radialGradient>
	<path class="st30" d="M44.3,90L44.3,90c-0.2,0-0.2-0.1-0.2-0.2l15.8-30.4c0.1-0.1,0.2-0.1,0.3,0c0,0,0,0.1,0,0.2L44.4,89.9
		C44.4,89.9,44.3,90,44.3,90z"/>
</g>
<g id="mask-137_2_">
	
		<radialGradient id="SVGID_24_" cx="5380.5171" cy="-10327.7539" r="77.485" gradientTransform="matrix(-6.060266e-02 -0.116 0.1131 -6.000000e-02 1588.8193 99.5561)" gradientUnits="userSpaceOnUse">
		<stop  offset="6.000000e-02" style="stop-color:#FFFFFF"/>
		<stop  offset="1" style="stop-color:#000000"/>
	</radialGradient>
	<path class="st31" d="M49.3,85.4L49.3,85.4c-0.2,0-0.2-0.1-0.1-0.2l10.8-25.8c0.1-0.1,0.2-0.1,0.2-0.1c0.1,0,0.1,0.1,0.1,0.2
		L49.4,85.3C49.4,85.3,49.3,85.4,49.3,85.4z"/>
</g>
<g id="mask-136_2_">
	
		<radialGradient id="SVGID_25_" cx="6351.7222" cy="-9792.4414" r="94.5611" gradientTransform="matrix(-6.868301e-02 -0.112 0.1091 -6.800000e-02 1584.344 88.6063)" gradientUnits="userSpaceOnUse">
		<stop  offset="6.000000e-02" style="stop-color:#FFFFFF"/>
		<stop  offset="1" style="stop-color:#000000"/>
	</radialGradient>
	<path class="st32" d="M49.5,92.1L49.5,92.1c-0.1,0-0.1-0.1-0.1-0.2L60,59.4c0-0.1,0.1-0.1,0.2-0.1c0.1,0,0.1,0.1,0.1,0.2L49.7,92
		C49.7,92.1,49.6,92.2,49.5,92.1z"/>
</g>
<g id="mask-135_2_">
	
		<radialGradient id="SVGID_26_" cx="6849.9136" cy="-9043.6934" r="77.485" gradientTransform="matrix(-7.676336e-02 -0.104 0.101 -7.600000e-02 1578.9163 77.5885)" gradientUnits="userSpaceOnUse">
		<stop  offset="6.000000e-02" style="stop-color:#FFFFFF"/>
		<stop  offset="1" style="stop-color:#000000"/>
	</radialGradient>
	<path class="st33" d="M53.7,86.8L53.7,86.8c-0.1,0-0.1-0.1-0.1-0.2l6.4-27.2c0-0.1,0.2-0.1,0.2-0.1l0,0c0.1,0,0.1,0.1,0.1,0.2
		l-6.4,27.2C53.9,86.8,53.8,86.8,53.7,86.8z"/>
</g>
<g id="mask-134_2_">
	
		<radialGradient id="SVGID_27_" cx="8018.7197" cy="-9267.4893" r="94.5611" gradientTransform="matrix(-8.888389e-02 -0.1 0.101 -8.800000e-02 1572.0762 67.9998)" gradientUnits="userSpaceOnUse">
		<stop  offset="6.000000e-02" style="stop-color:#FFFFFF"/>
		<stop  offset="1" style="stop-color:#000000"/>
	</radialGradient>
	<path class="st34" d="M55,93.4L55,93.4c-0.1,0-0.2-0.1-0.1-0.2l5.1-33.8c0-0.1,0.1-0.1,0.2-0.1c0.1,0,0.1,0.1,0.1,0.1l-5.1,33.8
		C55.2,93.4,55.1,93.4,55,93.4C55,93.4,55,93.4,55,93.4z"/>
</g>
<g id="mask-133_2_">
	
		<radialGradient id="SVGID_28_" cx="8632.6416" cy="-8570.6162" r="77.485" gradientTransform="matrix(-9.696425e-02 -9.200000e-02 9.292407e-02 -9.600000e-02 1565.505 58.17)" gradientUnits="userSpaceOnUse">
		<stop  offset="6.000000e-02" style="stop-color:#FFFFFF"/>
		<stop  offset="1" style="stop-color:#000000"/>
	</radialGradient>
	<path class="st35" d="M58.3,87.5L58.3,87.5c-0.1,0-0.2-0.1-0.2-0.2l1.8-27.9c0-0.1,0.1-0.1,0.2-0.1c0.1,0,0.1,0.1,0.1,0.1
		l-1.9,27.9C58.4,87.4,58.3,87.5,58.3,87.5z"/>
</g>
<g id="mask-132_2_">
	
		<radialGradient id="SVGID_29_" cx="8674.1465" cy="-7534.4922" r="94.5611" gradientTransform="matrix(-0.101 -8.000000e-02 8.080354e-02 -0.1 1558.4906 44.5032)" gradientUnits="userSpaceOnUse">
		<stop  offset="6.000000e-02" style="stop-color:#FFFFFF"/>
		<stop  offset="1" style="stop-color:#000000"/>
	</radialGradient>
	<path class="st36" d="M60.3,59.1L60.3,59.1c0.1,0,0.2,0.1,0.2,0.2l0.7,34.2c0,0.1-0.1,0.2-0.2,0.2l0,0c-0.1,0-0.2-0.1-0.2-0.2
		l-0.7-34.1C60.1,59.3,60.1,59.2,60.3,59.1C60.2,59.1,60.2,59.1,60.3,59.1z"/>
</g>
<g id="mask-131_2_">
	
		<radialGradient id="SVGID_30_" cx="9424.9854" cy="-6578.0571" r="77.4588" gradientTransform="matrix(-0.105 -7.600000e-02 7.676336e-02 -0.108 1548.9125 40.2414)" gradientUnits="userSpaceOnUse">
		<stop  offset="6.000000e-02" style="stop-color:#FFFFFF"/>
		<stop  offset="1" style="stop-color:#000000"/>
	</radialGradient>
	<path class="st37" d="M62.9,87.4c-0.1,0-0.2-0.1-0.2-0.2l-2.8-27.8c0-0.1,0.1-0.1,0.2-0.1c0.1,0,0.1,0.1,0.1,0.1L63,87.3
		C63,87.4,63,87.4,62.9,87.4L62.9,87.4z"/>
</g>
<g id="mask-130_2_">
	
		<radialGradient id="SVGID_31_" cx="9379.7891" cy="-5757.6768" r="94.5611" gradientTransform="matrix(-0.1091 -6.400000e-02 6.464283e-02 -0.112 1540.2537 32.4265)" gradientUnits="userSpaceOnUse">
		<stop  offset="6.000000e-02" style="stop-color:#FFFFFF"/>
		<stop  offset="1" style="stop-color:#000000"/>
	</radialGradient>
	<path class="st38" d="M66.3,93.3c-0.1,0-0.2-0.1-0.2-0.1l-6.3-33.6c0-0.1,0.1-0.2,0.2-0.2c0.1,0,0.1,0,0.1,0.1l6.3,33.6
		C66.5,93.2,66.4,93.2,66.3,93.3L66.3,93.3z"/>
</g>
<g id="mask-129_2_">
	
		<radialGradient id="SVGID_32_" cx="10123.5869" cy="-5119.9976" r="77.485" gradientTransform="matrix(-0.1172 -5.600000e-02 5.656248e-02 -0.12 1530.3494 26.2247)" gradientUnits="userSpaceOnUse">
		<stop  offset="6.000000e-02" style="stop-color:#FFFFFF"/>
		<stop  offset="1" style="stop-color:#000000"/>
	</radialGradient>
	<path class="st39" d="M67.4,86.6c-0.1,0-0.1-0.1-0.2-0.1l-7.4-27c0-0.1,0.1-0.2,0.2-0.2c0.1,0,0.1,0,0.1,0.1l7.4,27
		C67.6,86.5,67.6,86.6,67.4,86.6L67.4,86.6z"/>
</g>
<g id="mask-128_2_">
	
		<radialGradient id="SVGID_33_" cx="10221.0078" cy="-4450.8867" r="94.5611" gradientTransform="matrix(-0.1212 -4.400000e-02 4.444195e-02 -0.124 1520.83 19.6098)" gradientUnits="userSpaceOnUse">
		<stop  offset="6.000000e-02" style="stop-color:#FFFFFF"/>
		<stop  offset="1" style="stop-color:#000000"/>
	</radialGradient>
	<path class="st40" d="M71.8,91.8c-0.1,0-0.1,0-0.2-0.1L59.9,59.5c0-0.1,0.1-0.2,0.2-0.2c0.1,0,0.1,0,0.2,0.1l11.7,32.1
		C72,91.6,71.9,91.7,71.8,91.8L71.8,91.8z"/>
</g>
<g id="mask-127_2_">
	
		<radialGradient id="SVGID_34_" cx="10688.7725" cy="-3377.9868" r="77.485" gradientTransform="matrix(-0.1252 -3.600000e-02 3.636159e-02 -0.128 1509.9237 14.5589)" gradientUnits="userSpaceOnUse">
		<stop  offset="6.000000e-02" style="stop-color:#FFFFFF"/>
		<stop  offset="1" style="stop-color:#000000"/>
	</radialGradient>
	<path class="st41" d="M71.8,85c-0.1,0-0.1,0-0.2-0.1L60,59.5c0-0.1,0-0.2,0.1-0.2c0.1,0,0.1,0,0.2,0.1l11.7,25.4
		C72,84.8,71.9,85,71.8,85L71.8,85z"/>
</g>
<g id="mask-126_2_">
	
		<radialGradient id="SVGID_35_" cx="10465.7666" cy="-2539.2798" r="94.5611" gradientTransform="matrix(-0.1252 -2.400000e-02 2.424106e-02 -0.128 1498.663 9.8629)" gradientUnits="userSpaceOnUse">
		<stop  offset="6.000000e-02" style="stop-color:#FFFFFF"/>
		<stop  offset="1" style="stop-color:#000000"/>
	</radialGradient>
	<path class="st42" d="M76.9,89.4c-0.1,0-0.1,0-0.2-0.1L59.9,59.5c0-0.1,0-0.2,0.1-0.2c0,0,0,0,0,0c0.1,0,0.1,0,0.2,0l16.8,29.8
		C77.1,89.2,77.1,89.3,76.9,89.4L76.9,89.4z"/>
</g>
<g id="mask-125_2_">
	
		<radialGradient id="SVGID_36_" cx="10813.8799" cy="-1861.5267" r="77.485" gradientTransform="matrix(-0.1293 -1.200000e-02 1.212053e-02 -0.132 1487.9357 6.684)" gradientUnits="userSpaceOnUse">
		<stop  offset="6.000000e-02" style="stop-color:#FFFFFF"/>
		<stop  offset="1" style="stop-color:#000000"/>
	</radialGradient>
	<path class="st43" d="M75.8,82.7c-0.1,0-0.1,0-0.1-0.1L59.9,59.6c0-0.1,0-0.2,0.1-0.2c0.1,0,0.1,0,0.2,0l15.7,23.1
		C76,82.5,76,82.6,75.8,82.7L75.8,82.7z"/>
</g>
<g id="mask-124_2_">
	
		<radialGradient id="SVGID_37_" cx="10764.8662" cy="-649.3044" r="94.5611" gradientTransform="matrix(-0.1293 -4.000000e-03 4.040177e-03 -0.132 1475.8296 4.476)" gradientUnits="userSpaceOnUse">
		<stop  offset="6.000000e-02" style="stop-color:#FFFFFF"/>
		<stop  offset="1" style="stop-color:#000000"/>
	</radialGradient>
	<path class="st44" d="M81.6,86.2c-0.1,0-0.1,0-0.1-0.1L59.9,59.6c0-0.1,0-0.2,0.1-0.2c0.1,0,0.1,0,0.2,0L81.7,86
		c0.1,0.1,0.1,0.2,0,0.3C81.7,86.2,81.7,86.2,81.6,86.2L81.6,86.2z"/>
</g>
<g id="mask-123_2_">
	
		<radialGradient id="SVGID_38_" cx="10730.4629" cy="128.8656" r="77.485" gradientTransform="matrix(-0.1293 7.999999e-03 -8.080354e-03 -0.132 1464.4396 2.58)" gradientUnits="userSpaceOnUse">
		<stop  offset="6.000000e-02" style="stop-color:#FFFFFF"/>
		<stop  offset="1" style="stop-color:#000000"/>
	</radialGradient>
	<path class="st45" d="M79.4,79.8c0,0-0.1,0-0.1,0L59.9,59.6c-0.1-0.1,0-0.2,0.1-0.2c0.1,0,0.1,0,0.2,0l19.4,20.2
		c0.1,0.1,0.1,0.2,0,0.3C79.5,79.8,79.5,79.8,79.4,79.8L79.4,79.8z"/>
</g>
<g id="mask-122_2_">
	
		<radialGradient id="SVGID_39_" cx="10282.1377" cy="771.1986" r="94.5611" gradientTransform="matrix(-0.1252 2.000000e-02 -2.020089e-02 -0.128 1452.2698 1.8829)" gradientUnits="userSpaceOnUse">
		<stop  offset="6.000000e-02" style="stop-color:#FFFFFF"/>
		<stop  offset="1" style="stop-color:#000000"/>
	</radialGradient>
	<path class="st46" d="M85.7,82.3c0,0-0.1,0-0.1,0L60,59.6c-0.1,0-0.1-0.2-0.1-0.2c0.1-0.1,0.2-0.1,0.2-0.1h0.1L85.8,82
		c0.1,0.1,0.1,0.2,0,0.3C85.8,82.3,85.7,82.3,85.7,82.3L85.7,82.3z"/>
</g>
<g id="mask-121_2_">
	
		<radialGradient id="SVGID_40_" cx="10200.873" cy="1999.2415" r="77.485" gradientTransform="matrix(-0.1252 2.800000e-02 -2.828124e-02 -0.128 1440.3778 2.7549)" gradientUnits="userSpaceOnUse">
		<stop  offset="6.000000e-02" style="stop-color:#FFFFFF"/>
		<stop  offset="1" style="stop-color:#000000"/>
	</radialGradient>
	<path class="st47" d="M82.5,76.4h-0.1L60,59.6c-0.1,0-0.1-0.2-0.1-0.2s0.2-0.1,0.2-0.1l0,0L82.6,76c0.1,0.1,0.1,0.2,0,0.3
		C82.5,76.3,82.5,76.3,82.5,76.4z"/>
</g>
<g id="mask-120_2_">
	
		<radialGradient id="SVGID_41_" cx="9879.0898" cy="2591.8337" r="94.5611" gradientTransform="matrix(-0.1212 4.000000e-02 -4.040177e-02 -0.124 1428.4908 3.9138)" gradientUnits="userSpaceOnUse">
		<stop  offset="6.000000e-02" style="stop-color:#FFFFFF"/>
		<stop  offset="1" style="stop-color:#000000"/>
	</radialGradient>
	<path class="st48" d="M89.1,77.8L89.1,77.8L60,59.6c-0.1,0-0.1-0.1-0.1-0.2c0,0,0,0,0,0c0-0.1,0.1-0.1,0.2-0.1c0,0,0,0,0,0h0.1
		l29,18.2C89.2,77.5,89.2,77.6,89.1,77.8C89.2,77.7,89.1,77.8,89.1,77.8L89.1,77.8z"/>
</g>
<g id="mask-119_2_">
	
		<radialGradient id="SVGID_42_" cx="9696.7324" cy="3249.9778" r="77.485" gradientTransform="matrix(-0.1172 5.200000e-02 -5.252230e-02 -0.12 1417.1696 6.0847)" gradientUnits="userSpaceOnUse">
		<stop  offset="6.000000e-02" style="stop-color:#FFFFFF"/>
		<stop  offset="1" style="stop-color:#000000"/>
	</radialGradient>
	<path class="st49" d="M84.9,72.4L84.9,72.4L60,59.6c-0.1,0-0.1-0.1-0.1-0.2c0-0.1,0.1-0.1,0.2-0.1c0,0,0.1,0,0.1,0L85,72.1
		c0.1,0.1,0.1,0.2,0,0.2C85,72.3,84.9,72.4,84.9,72.4L84.9,72.4z"/>
</g>
<g id="mask-118_2_">
	
		<radialGradient id="SVGID_43_" cx="9181.1455" cy="4195.7305" r="94.5611" gradientTransform="matrix(-0.1131 6.000000e-02 -6.060266e-02 -0.116 1405.7502 9.6636)" gradientUnits="userSpaceOnUse">
		<stop  offset="6.000000e-02" style="stop-color:#FFFFFF"/>
		<stop  offset="1" style="stop-color:#000000"/>
	</radialGradient>
	<path class="st50" d="M91.7,72.7L91.7,72.7L60,59.6c-0.1,0-0.1-0.1-0.1-0.2c0-0.1,0.1-0.1,0.2-0.1l0,0l31.7,13.2
		c0.1,0,0.1,0.2,0.1,0.2v0C91.8,72.7,91.8,72.8,91.7,72.7L91.7,72.7z"/>
</g>
<g id="mask-117_2_">
	
		<radialGradient id="SVGID_44_" cx="8665.6631" cy="5158.4263" r="77.485" gradientTransform="matrix(-0.1091 6.800000e-02 -6.868301e-02 -0.112 1394.7025 14.1545)" gradientUnits="userSpaceOnUse">
		<stop  offset="6.000000e-02" style="stop-color:#FFFFFF"/>
		<stop  offset="1" style="stop-color:#000000"/>
	</radialGradient>
	<path class="st51" d="M86.7,68.2L86.7,68.2L60,59.6c-0.1,0-0.2-0.1-0.1-0.2c0-0.1,0.1-0.1,0.1-0.1h0.1l26.7,8.5
		c0.1,0,0.1,0.1,0.1,0.2C86.8,68.1,86.8,68.1,86.7,68.2L86.7,68.2z"/>
</g>
<g id="mask-116_2_">
	
		<radialGradient id="SVGID_45_" cx="8355.7607" cy="5560.6655" r="94.5611" gradientTransform="matrix(-0.101 8.000000e-02 -8.080354e-02 -0.104 1383.9469 19.3443)" gradientUnits="userSpaceOnUse">
		<stop  offset="6.000000e-02" style="stop-color:#FFFFFF"/>
		<stop  offset="1" style="stop-color:#000000"/>
	</radialGradient>
	<path class="st52" d="M93.4,67.3L93.4,67.3l-33.3-7.7c-0.1,0-0.2-0.1-0.2-0.2s0.1-0.2,0.2-0.2h0.1L93.5,67c0.1,0,0.2,0.1,0.1,0.2
		C93.6,67.3,93.6,67.3,93.4,67.3L93.4,67.3z"/>
</g>
<g id="mask-115_2_">
	
		<radialGradient id="SVGID_46_" cx="8023.1558" cy="6762.8872" r="77.4588" gradientTransform="matrix(-0.101 8.800000e-02 -8.888389e-02 -0.1 1374.168 25.4032)" gradientUnits="userSpaceOnUse">
		<stop  offset="6.000000e-02" style="stop-color:#FFFFFF"/>
		<stop  offset="1" style="stop-color:#000000"/>
	</radialGradient>
	<path class="st53" d="M87.8,63.7L87.8,63.7l-27.7-4c-0.1,0-0.2,0-0.2-0.1c0-0.1,0-0.2,0.1-0.2h0.1l27.7,4c0.1,0,0.2,0.1,0.1,0.2
		C87.8,63.6,87.8,63.6,87.8,63.7L87.8,63.7z"/>
</g>
<g id="mask-114_2_">
	
		<radialGradient id="SVGID_47_" cx="7319.9043" cy="7339.7544" r="94.5611" gradientTransform="matrix(-9.292407e-02 9.600000e-02 -9.696425e-02 -9.200000e-02 1364.5343 32.4289)" gradientUnits="userSpaceOnUse">
		<stop  offset="6.000000e-02" style="stop-color:#FFFFFF"/>
		<stop  offset="1" style="stop-color:#000000"/>
	</radialGradient>
	<path class="st54" d="M94.2,61.7L94.2,61.7l-34.2-2.1c-0.1,0-0.2,0-0.2-0.1c0-0.1,0-0.2,0.1-0.2h0.1l34.2,2.1
		c0.1,0,0.2,0.1,0.1,0.2C94.4,61.7,94.3,61.7,94.2,61.7L94.2,61.7z"/>
</g>
<g id="mask-113_2_">
	
		<radialGradient id="SVGID_48_" cx="6286.9976" cy="7881.1963" r="77.485" gradientTransform="matrix(-8.484372e-02 0.1 -0.101 -8.400000e-02 1355.6107 39.9347)" gradientUnits="userSpaceOnUse">
		<stop  offset="6.000000e-02" style="stop-color:#FFFFFF"/>
		<stop  offset="1" style="stop-color:#000000"/>
	</radialGradient>
	<path class="st55" d="M60.1,59.6c-0.1,0-0.2-0.1-0.1-0.2c0-0.1,0.1-0.1,0.1-0.1L88,58.7l0,0c0.1,0,0.2,0.1,0.1,0.2
		c0,0.1-0.1,0.1-0.1,0.1L60.1,59.6z"/>
</g>
<g id="mask-112_2_">
	
		<radialGradient id="SVGID_49_" cx="5567.2271" cy="7784.5376" r="94.5611" gradientTransform="matrix(-7.272319e-02 0.108 -0.105 -7.200000e-02 1346.1416 48.0874)" gradientUnits="userSpaceOnUse">
		<stop  offset="6.000000e-02" style="stop-color:#FFFFFF"/>
		<stop  offset="1" style="stop-color:#000000"/>
	</radialGradient>
	<path class="st56" d="M60.1,59.6c-0.1,0-0.2-0.1-0.1-0.2c0-0.1,0.1-0.1,0.1-0.1l34.1-3.5c0.1,0,0.2,0,0.2,0.1c0,0.1,0,0.2-0.1,0.2
		h-0.1L60.1,59.6L60.1,59.6z"/>
</g>
<g id="mask-111_2_">
	
		<radialGradient id="SVGID_50_" cx="4792.0312" cy="8551.915" r="77.485" gradientTransform="matrix(-6.464283e-02 0.112 -0.1131 -6.400000e-02 1338.8553 57.3572)" gradientUnits="userSpaceOnUse">
		<stop  offset="6.000000e-02" style="stop-color:#FFFFFF"/>
		<stop  offset="1" style="stop-color:#000000"/>
	</radialGradient>
	<path class="st57" d="M60.1,59.6c-0.1,0-0.2-0.1-0.1-0.2c0-0.1,0.1-0.1,0.1-0.1L87.6,54c0.1,0,0.2,0,0.2,0.1c0,0.1,0,0.2-0.1,0.2
		c0,0,0,0,0,0h-0.1L60.1,59.6L60.1,59.6z"/>
</g>
<g id="mask-110_2_">
	
		<radialGradient id="SVGID_51_" cx="3917.2205" cy="8867.6973" r="94.5611" gradientTransform="matrix(-5.656248e-02 0.12 -0.1172 -5.600000e-02 1331.8265 66.903)" gradientUnits="userSpaceOnUse">
		<stop  offset="6.000000e-02" style="stop-color:#FFFFFF"/>
		<stop  offset="1" style="stop-color:#000000"/>
	</radialGradient>
	<path class="st58" d="M60.1,59.6c-0.1,0-0.2-0.1-0.1-0.2c0-0.1,0.1-0.1,0.1-0.1l33-9.1c0.1,0,0.2,0,0.2,0.1v0c0,0.1,0,0.2-0.1,0.2
		h-0.1L60.1,59.6L60.1,59.6z"/>
</g>
<g id="mask-109_2_">
	
		<radialGradient id="SVGID_52_" cx="3214.4622" cy="9024.3623" r="77.485" gradientTransform="matrix(-4.444195e-02 0.124 -0.1212 -4.400000e-02 1325.4078 77.0517)" gradientUnits="userSpaceOnUse">
		<stop  offset="6.000000e-02" style="stop-color:#FFFFFF"/>
		<stop  offset="1" style="stop-color:#000000"/>
	</radialGradient>
	<path class="st59" d="M60.1,59.6c-0.1,0-0.2-0.1-0.2-0.2c0-0.1,0-0.1,0.1-0.1l26.2-9.7c0.1-0.1,0.2-0.1,0.2,0
		c0.1,0.1,0.1,0.2,0,0.2h-0.1L60.1,59.6L60.1,59.6z"/>
</g>
<g id="mask-108_2_">
	
		<radialGradient id="SVGID_53_" cx="2160.823" cy="9401.0215" r="94.5611" gradientTransform="matrix(-3.636159e-02 0.128 -0.1252 -3.600000e-02 1320.5608 87.6535)" gradientUnits="userSpaceOnUse">
		<stop  offset="6.000000e-02" style="stop-color:#FFFFFF"/>
		<stop  offset="1" style="stop-color:#000000"/>
	</radialGradient>
	<path class="st60" d="M60.1,59.6c-0.1,0-0.2-0.1-0.2-0.2c0-0.1,0-0.1,0.1-0.1l31-14.4c0.1-0.1,0.2-0.1,0.2,0c0.1,0.1,0.1,0.2,0,0.3
		h-0.1L60.1,59.6L60.1,59.6z"/>
</g>
<g id="mask-107_2_">
	
		<radialGradient id="SVGID_54_" cx="1332.5404" cy="9260.7812" r="77.4588" gradientTransform="matrix(-2.424106e-02 0.128 -0.1252 -2.400000e-02 1315.7529 98.9622)" gradientUnits="userSpaceOnUse">
		<stop  offset="6.000000e-02" style="stop-color:#FFFFFF"/>
		<stop  offset="1" style="stop-color:#000000"/>
	</radialGradient>
	<path class="st61" d="M60.1,59.6c-0.1,0-0.2-0.1-0.2-0.2c0-0.1,0-0.1,0.1-0.1l24.3-13.8c0.1-0.1,0.2-0.1,0.3,0
		c0.1,0.1,0.1,0.2,0,0.3h-0.1L60.1,59.6L60.1,59.6z"/>
</g>
<g id="mask-106_2_">
	
		<radialGradient id="SVGID_55_" cx="599.1631" cy="9549.4932" r="94.5611" gradientTransform="matrix(-1.212053e-02 0.132 -0.1293 -1.200000e-02 1312.4895 110.0869)" gradientUnits="userSpaceOnUse">
		<stop  offset="6.000000e-02" style="stop-color:#FFFFFF"/>
		<stop  offset="1" style="stop-color:#000000"/>
	</radialGradient>
	<path class="st62" d="M60.1,59.6c-0.1,0-0.2-0.1-0.2-0.2c0,0,0-0.1,0.1-0.1L88.2,40c0.1-0.1,0.2-0.1,0.3,0c0.1,0.1,0.1,0.2,0,0.3
		h-0.1L60.1,59.6L60.1,59.6z"/>
</g>
<g id="mask-105_2_">
	
		<radialGradient id="SVGID_56_" cx="-564.6822" cy="9495.5361" r="77.4588" gradientTransform="matrix(-4.040177e-03 0.132 -0.1293 -4.000000e-03 1310.2029 121.9607)" gradientUnits="userSpaceOnUse">
		<stop  offset="6.000000e-02" style="stop-color:#FFFFFF"/>
		<stop  offset="1" style="stop-color:#000000"/>
	</radialGradient>
	<path class="st63" d="M60.1,59.6c-0.1,0-0.2-0.1-0.2-0.2c0,0,0-0.1,0.1-0.1l21.7-17.7c0.1-0.1,0.2-0.1,0.3,0c0.1,0.1,0.1,0.2,0,0.3
		l0,0L60.2,59.6C60.2,59.6,60.1,59.6,60.1,59.6z"/>
</g>
<g id="mask-104_2_">
	
		<radialGradient id="SVGID_57_" cx="-1363.1755" cy="9430.1729" r="94.5611" gradientTransform="matrix(8.080354e-03 0.132 -0.1293 7.999999e-03 1308.9019 133.4574)" gradientUnits="userSpaceOnUse">
		<stop  offset="6.000000e-02" style="stop-color:#FFFFFF"/>
		<stop  offset="1" style="stop-color:#000000"/>
	</radialGradient>
	<path class="st64" d="M60.1,59.6c-0.1,0-0.2-0.1-0.2-0.2c0,0,0-0.1,0-0.1l24.6-23.7c0.1,0,0.2,0,0.2,0.1c0,0.1,0,0.1,0,0.2
		L60.2,59.6C60.2,59.6,60.1,59.6,60.1,59.6z"/>
</g>
<g id="mask-103_2_">
	
		<radialGradient id="SVGID_58_" cx="-2008.0531" cy="9082.9277" r="77.485" gradientTransform="matrix(2.020089e-02 0.128 -0.1252 2.000000e-02 1308.1736 145.7541)" gradientUnits="userSpaceOnUse">
		<stop  offset="6.000000e-02" style="stop-color:#FFFFFF"/>
		<stop  offset="1" style="stop-color:#000000"/>
	</radialGradient>
	<path class="st65" d="M60.1,59.6c-0.1,0-0.2-0.1-0.2-0.2c0,0,0,0,0,0c0,0,0-0.1,0-0.1l18.5-21c0.1-0.1,0.2-0.1,0.2,0
		c0,0.1,0,0.1,0,0.2l-18.5,21C60.2,59.6,60.1,59.6,60.1,59.6z"/>
</g>
<g id="mask-102_2_">
	
		<radialGradient id="SVGID_59_" cx="-3200.7983" cy="8892.5576" r="94.5611" gradientTransform="matrix(2.828124e-02 0.128 -0.1252 2.800000e-02 1308.723 157.4719)" gradientUnits="userSpaceOnUse">
		<stop  offset="6.000000e-02" style="stop-color:#FFFFFF"/>
		<stop  offset="1" style="stop-color:#000000"/>
	</radialGradient>
	<path class="st66" d="M60.1,59.6c-0.1,0-0.2-0.1-0.2-0.2c0,0,0-0.1,0-0.1l20.4-27.5c0.1-0.1,0.2-0.1,0.3,0c0,0.1,0,0.1,0,0.2
		L60.2,59.6C60.2,59.6,60.1,59.6,60.1,59.6z"/>
</g>
<g id="mask-101_2_">
	
		<radialGradient id="SVGID_60_" cx="-3813.8975" cy="8639.4854" r="77.485" gradientTransform="matrix(4.040177e-02 0.124 -0.1212 4.000000e-02 1310.2208 169.1846)" gradientUnits="userSpaceOnUse">
		<stop  offset="6.000000e-02" style="stop-color:#FFFFFF"/>
		<stop  offset="1" style="stop-color:#000000"/>
	</radialGradient>
	<path class="st67" d="M60.1,59.6L60.1,59.6c-0.2-0.1-0.2-0.2-0.1-0.2l14.7-23.8c0.1-0.1,0.2-0.1,0.3,0c0,0.1,0,0.1,0,0.2L60.2,59.5
		C60.2,59.6,60.1,59.6,60.1,59.6z"/>
</g>
<g id="mask-100_2_">
	
		<radialGradient id="SVGID_61_" cx="-4509.9355" cy="8429.4727" r="94.5611" gradientTransform="matrix(5.252230e-02 0.12 -0.1172 5.200000e-02 1312.4498 180.6733)" gradientUnits="userSpaceOnUse">
		<stop  offset="6.000000e-02" style="stop-color:#FFFFFF"/>
		<stop  offset="1" style="stop-color:#000000"/>
	</radialGradient>
	<path class="st68" d="M60.1,59.6L60.1,59.6c-0.2,0-0.2-0.1-0.2-0.2l15.6-30.5c0.1-0.1,0.2-0.1,0.2,0c0.1,0,0.1,0.1,0.1,0.2
		L60.2,59.5C60.2,59.6,60.1,59.6,60.1,59.6z"/>
</g>
<g id="mask-99_2_">
	
		<radialGradient id="SVGID_62_" cx="-5428.5815" cy="7914.5547" r="77.485" gradientTransform="matrix(6.060266e-02 0.116 -0.1131 6.000000e-02 1316.1252 192.247)" gradientUnits="userSpaceOnUse">
		<stop  offset="6.000000e-02" style="stop-color:#FFFFFF"/>
		<stop  offset="1" style="stop-color:#000000"/>
	</radialGradient>
	<path class="st69" d="M60.1,59.6L60.1,59.6c-0.2,0-0.2-0.1-0.2-0.2l10.6-25.9c0.1-0.1,0.2-0.1,0.2-0.1c0.1,0,0.1,0.1,0.1,0.2
		L60.2,59.5C60.2,59.6,60.2,59.6,60.1,59.6z"/>
</g>
<g id="mask-98_2_">
	
		<radialGradient id="SVGID_63_" cx="-6359.7627" cy="7323.8398" r="94.5611" gradientTransform="matrix(6.868301e-02 0.112 -0.1091 6.800000e-02 1320.7341 203.1289)" gradientUnits="userSpaceOnUse">
		<stop  offset="6.000000e-02" style="stop-color:#FFFFFF"/>
		<stop  offset="1" style="stop-color:#000000"/>
	</radialGradient>
	<path class="st70" d="M60.1,59.6L60.1,59.6c-0.1,0-0.1-0.1-0.1-0.2l10.2-32.6c0-0.1,0.1-0.1,0.2-0.1c0.1,0,0.1,0.1,0.1,0.2
		L60.2,59.5C60.2,59.6,60.1,59.6,60.1,59.6z"/>
</g>
<g id="mask-97_2_">
	
		<radialGradient id="SVGID_64_" cx="-6819.729" cy="7093.2905" r="77.485" gradientTransform="matrix(8.080354e-02 0.104 -0.101 8.000000e-02 1325.4305 213.7415)" gradientUnits="userSpaceOnUse">
		<stop  offset="6.000000e-02" style="stop-color:#FFFFFF"/>
		<stop  offset="1" style="stop-color:#000000"/>
	</radialGradient>
	<path class="st71" d="M60.1,59.6L60.1,59.6c-0.1,0-0.1-0.1-0.1-0.2l6.2-27.3c0-0.1,0.2-0.1,0.2-0.1l0,0c0.1,0,0.1,0.1,0.1,0.1
		l-6.3,27.3C60.2,59.6,60.2,59.6,60.1,59.6z"/>
</g>
<g id="mask-96_2_">
	
		<radialGradient id="SVGID_65_" cx="-7571.1255" cy="6648.6733" r="94.5611" gradientTransform="matrix(8.888389e-02 9.600000e-02 -9.696425e-02 8.800000e-02 1332.4877 223.9433)" gradientUnits="userSpaceOnUse">
		<stop  offset="6.000000e-02" style="stop-color:#FFFFFF"/>
		<stop  offset="1" style="stop-color:#000000"/>
	</radialGradient>
	<path class="st72" d="M60.1,59.6L60.1,59.6c-0.1,0-0.2-0.1-0.1-0.2l4.8-33.9c0-0.1,0.1-0.1,0.2-0.1c0.1,0,0.1,0.1,0.1,0.1
		l-4.8,33.9C60.3,59.5,60.2,59.6,60.1,59.6C60.1,59.6,60.1,59.6,60.1,59.6z"/>
</g>
<g id="mask-95_2_">
	
		<radialGradient id="SVGID_66_" cx="-8542.9238" cy="5937.7856" r="77.485" gradientTransform="matrix(9.696425e-02 9.200000e-02 -9.292407e-02 9.600000e-02 1339.472 233.4251)" gradientUnits="userSpaceOnUse">
		<stop  offset="6.000000e-02" style="stop-color:#FFFFFF"/>
		<stop  offset="1" style="stop-color:#000000"/>
	</radialGradient>
	<path class="st73" d="M60.1,59.6L60.1,59.6c-0.1,0-0.2-0.1-0.2-0.2l1.6-27.9c0-0.1,0.1-0.1,0.2-0.1c0.1,0,0.1,0.1,0.1,0.1
		l-1.6,27.9C60.2,59.6,60.2,59.6,60.1,59.6z"/>
</g>
<g id="mask-94_2_">
	
		<radialGradient id="SVGID_67_" cx="-8622.1504" cy="5045.1504" r="94.5611" gradientTransform="matrix(0.101 8.000000e-02 -8.080354e-02 0.1 1346.951 243.212)" gradientUnits="userSpaceOnUse">
		<stop  offset="6.000000e-02" style="stop-color:#FFFFFF"/>
		<stop  offset="1" style="stop-color:#000000"/>
	</radialGradient>
	<path class="st74" d="M59.5,25.1L59.5,25.1c0.1,0,0.2,0.1,0.2,0.2l0.6,34.2c0,0.1-0.1,0.2-0.2,0.2l0,0c-0.1,0-0.2-0.1-0.2-0.2
		l-0.6-34.2C59.3,25.2,59.4,25.1,59.5,25.1C59.5,25.1,59.5,25.1,59.5,25.1z"/>
</g>
<g id="mask-93_2_">
	
		<radialGradient id="SVGID_68_" cx="-8903.5771" cy="4201.3545" r="77.485" gradientTransform="matrix(0.105 7.200000e-02 -7.272319e-02 0.108 1355.6837 251.2058)" gradientUnits="userSpaceOnUse">
		<stop  offset="6.000000e-02" style="stop-color:#FFFFFF"/>
		<stop  offset="1" style="stop-color:#000000"/>
	</radialGradient>
	<path class="st75" d="M60.1,59.6c-0.1,0-0.2-0.1-0.2-0.2l-3-27.8c0-0.1,0.1-0.1,0.2-0.1c0.1,0,0.1,0.1,0.1,0.1l3,27.8
		C60.3,59.6,60.2,59.7,60.1,59.6L60.1,59.6z"/>
</g>
<g id="mask-92_2_">
	
		<radialGradient id="SVGID_69_" cx="-9609.7471" cy="3513.8008" r="94.5611" gradientTransform="matrix(0.1131 6.400000e-02 -6.464283e-02 0.116 1364.6748 258.5956)" gradientUnits="userSpaceOnUse">
		<stop  offset="6.000000e-02" style="stop-color:#FFFFFF"/>
		<stop  offset="1" style="stop-color:#000000"/>
	</radialGradient>
	<path class="st76" d="M60.1,59.6c-0.1,0-0.2-0.1-0.2-0.1l-6.5-33.6c0-0.1,0.1-0.2,0.2-0.2c0.1,0,0.1,0,0.1,0.1l6.5,33.6
		C60.2,59.5,60.2,59.6,60.1,59.6L60.1,59.6z"/>
</g>
<g id="mask-91_2_">
	
		<radialGradient id="SVGID_70_" cx="-9980.415" cy="2491.3264" r="77.485" gradientTransform="matrix(0.1172 5.600000e-02 -5.656248e-02 0.12 1374.5833 265.3785)" gradientUnits="userSpaceOnUse">
		<stop  offset="6.000000e-02" style="stop-color:#FFFFFF"/>
		<stop  offset="1" style="stop-color:#000000"/>
	</radialGradient>
	<path class="st77" d="M60.1,59.6c-0.1,0-0.1-0.1-0.2-0.1l-7.6-26.9c0-0.1,0.1-0.2,0.2-0.2c0.1,0,0.1,0,0.1,0.1l7.6,26.9
		C60.2,59.5,60.2,59.6,60.1,59.6L60.1,59.6z"/>
</g>
<g id="mask-90_2_">
	
		<radialGradient id="SVGID_71_" cx="-10138.4082" cy="1798.9785" r="94.5611" gradientTransform="matrix(0.1212 4.400000e-02 -4.444195e-02 0.124 1384.5026 271.5254)" gradientUnits="userSpaceOnUse">
		<stop  offset="6.000000e-02" style="stop-color:#FFFFFF"/>
		<stop  offset="1" style="stop-color:#000000"/>
	</radialGradient>
	<path class="st78" d="M60.1,59.6c-0.1,0-0.1,0-0.2-0.1l-12-32c0-0.1,0-0.2,0.1-0.2c0,0,0,0,0,0c0.1,0,0.2,0,0.2,0.1c0,0,0,0,0,0
		l11.9,32C60.3,59.4,60.2,59.5,60.1,59.6L60.1,59.6z"/>
</g>
<g id="mask-89_2_">
	
		<radialGradient id="SVGID_72_" cx="-10503.5049" cy="725.8593" r="77.485" gradientTransform="matrix(0.1252 3.600000e-02 -3.636159e-02 0.128 1395.2432 276.4003)" gradientUnits="userSpaceOnUse">
		<stop  offset="6.000000e-02" style="stop-color:#FFFFFF"/>
		<stop  offset="1" style="stop-color:#000000"/>
	</radialGradient>
	<path class="st79" d="M60.1,59.6c-0.1,0-0.1,0-0.2-0.1L48.1,34.3c0-0.1,0-0.2,0.1-0.2c0.1,0,0.1,0,0.2,0.1l11.8,25.2
		C60.3,59.4,60.2,59.5,60.1,59.6L60.1,59.6z"/>
</g>
<g id="mask-88_2_">
	
		<radialGradient id="SVGID_73_" cx="-10327.1699" cy="-76.4397" r="94.5611" gradientTransform="matrix(0.1252 2.400000e-02 -2.424106e-02 0.128 1406.3947 280.8763)" gradientUnits="userSpaceOnUse">
		<stop  offset="6.000000e-02" style="stop-color:#FFFFFF"/>
		<stop  offset="1" style="stop-color:#000000"/>
	</radialGradient>
	<path class="st80" d="M60.1,59.6c-0.1,0-0.1,0-0.2-0.1L42.9,29.9c0-0.1,0.1-0.2,0.2-0.2c0,0,0,0,0,0h0.1l17.1,29.6
		C60.2,59.4,60.2,59.5,60.1,59.6L60.1,59.6z"/>
</g>
<g id="mask-87_2_">
	
		<radialGradient id="SVGID_74_" cx="-10667.8115" cy="-780.0774" r="77.485" gradientTransform="matrix(0.1293 1.200000e-02 -1.212053e-02 0.132 1417.4089 284.4272)" gradientUnits="userSpaceOnUse">
		<stop  offset="6.000000e-02" style="stop-color:#FFFFFF"/>
		<stop  offset="1" style="stop-color:#000000"/>
	</radialGradient>
	<path class="st81" d="M60.1,59.6c-0.1,0-0.1,0-0.1-0.1L44,36.6c0-0.1,0-0.2,0.1-0.2c0.1,0,0.1,0,0.2,0l15.9,23
		C60.3,59.4,60.2,59.5,60.1,59.6L60.1,59.6z"/>
</g>
<g id="mask-86_2_">
	
		<radialGradient id="SVGID_75_" cx="-10651.6895" cy="-1561.8506" r="94.5611" gradientTransform="matrix(0.1293 0 0 0.132 1429.1505 286.6152)" gradientUnits="userSpaceOnUse">
		<stop  offset="6.000000e-02" style="stop-color:#FFFFFF"/>
		<stop  offset="1" style="stop-color:#000000"/>
	</radialGradient>
	<path class="st82" d="M60.1,59.6c-0.1,0-0.1,0-0.1-0.1L38.2,33.1c0-0.1,0-0.2,0.1-0.2c0.1,0,0.1,0,0.2,0l21.7,26.5
		c0.1,0.1,0.1,0.2,0,0.3C60.2,59.6,60.1,59.6,60.1,59.6L60.1,59.6z"/>
</g>
<g id="mask-85_2_">
	
		<radialGradient id="SVGID_76_" cx="-10642.668" cy="-1537.4036" r="77.485" gradientTransform="matrix(0.1293 0 0 0.132 1429.1505 286.6152)" gradientUnits="userSpaceOnUse">
		<stop  offset="6.000000e-02" style="stop-color:#FFFFFF"/>
		<stop  offset="1" style="stop-color:#000000"/>
	</radialGradient>
	<path class="st83" d="M60.1,59.6c0,0-0.1,0-0.1,0L40.5,39.5c-0.1-0.1,0-0.2,0.1-0.2c0.1,0,0.1,0,0.2,0l19.5,20.1
		c0.1,0.1,0.1,0.2,0,0.3C60.2,59.6,60.1,59.6,60.1,59.6L60.1,59.6z"/>
</g>
<path class="st84" d="M60.1,59.6c0,0-0.1,0-0.1,0L40.5,39.5c-0.1-0.1,0-0.2,0.1-0.2c0.1,0,0.1,0,0.2,0l19.5,20.1
	c0.1,0.1,0.1,0.2,0,0.3C60.2,59.6,60.1,59.6,60.1,59.6L60.1,59.6z"/>
<path class="st84" d="M60.1,59.6c-0.1,0-0.1,0-0.1-0.1L38.2,33.1c0-0.1,0-0.2,0.1-0.2c0.1,0,0.1,0,0.2,0l21.7,26.5
	c0.1,0.1,0.1,0.2,0,0.3C60.2,59.6,60.1,59.6,60.1,59.6L60.1,59.6z"/>
<path class="st84" d="M60.1,59.6c-0.1,0-0.1,0-0.1-0.1L44,36.6c0-0.1,0-0.2,0.1-0.2c0.1,0,0.1,0,0.2,0l15.9,23
	C60.3,59.4,60.2,59.5,60.1,59.6L60.1,59.6z"/>
<path class="st84" d="M60.1,59.6c-0.1,0-0.1,0-0.2-0.1L42.9,29.9c0-0.1,0.1-0.2,0.2-0.2c0,0,0,0,0,0h0.1l17.1,29.6
	C60.2,59.4,60.2,59.5,60.1,59.6L60.1,59.6z"/>
<path class="st84" d="M60.1,59.6c-0.1,0-0.1,0-0.2-0.1L48.1,34.3c0-0.1,0-0.2,0.1-0.2c0.1,0,0.1,0,0.2,0.1l11.8,25.2
	C60.3,59.4,60.2,59.5,60.1,59.6L60.1,59.6z"/>
<path class="st84" d="M60.1,59.6c-0.1,0-0.1,0-0.2-0.1l-12-32c0-0.1,0-0.2,0.1-0.2c0,0,0,0,0,0c0.1,0,0.2,0,0.2,0.1c0,0,0,0,0,0
	l11.9,32C60.3,59.4,60.2,59.5,60.1,59.6L60.1,59.6z"/>
<path class="st84" d="M60.1,59.6c-0.1,0-0.1-0.1-0.2-0.1l-7.6-26.9c0-0.1,0.1-0.2,0.2-0.2c0.1,0,0.1,0,0.1,0.1l7.6,26.9
	C60.2,59.5,60.2,59.6,60.1,59.6L60.1,59.6z"/>
<path class="st84" d="M60.1,59.6c-0.1,0-0.2-0.1-0.2-0.1l-6.5-33.6c0-0.1,0.1-0.2,0.2-0.2c0.1,0,0.1,0,0.1,0.1l6.5,33.6
	C60.2,59.5,60.2,59.6,60.1,59.6L60.1,59.6z"/>
<path class="st84" d="M60.1,59.6c-0.1,0-0.2-0.1-0.2-0.2l-3-27.8c0-0.1,0.1-0.1,0.2-0.1c0.1,0,0.1,0.1,0.1,0.1l3,27.8
	C60.3,59.6,60.2,59.7,60.1,59.6L60.1,59.6z"/>
<path class="st84" d="M59.5,25.1L59.5,25.1c0.1,0,0.2,0.1,0.2,0.2l0.6,34.2c0,0.1-0.1,0.2-0.2,0.2l0,0c-0.1,0-0.2-0.1-0.2-0.2
	l-0.6-34.2C59.3,25.2,59.4,25.1,59.5,25.1z"/>
<path class="st84" d="M60.1,59.6L60.1,59.6c-0.1,0-0.2-0.1-0.2-0.2l1.6-27.9c0-0.1,0.1-0.1,0.2-0.1c0.1,0,0.1,0.1,0.1,0.1l-1.6,27.9
	C60.2,59.6,60.2,59.6,60.1,59.6z"/>
<path class="st84" d="M60.1,59.6L60.1,59.6c-0.1,0-0.2-0.1-0.1-0.2l4.8-33.9c0-0.1,0.1-0.1,0.2-0.1c0.1,0,0.1,0.1,0.1,0.1l-4.8,33.9
	C60.3,59.5,60.2,59.6,60.1,59.6C60.1,59.6,60.1,59.6,60.1,59.6z"/>
<path class="st84" d="M60.1,59.6L60.1,59.6c-0.1,0-0.1-0.1-0.1-0.2l6.2-27.3c0-0.1,0.2-0.1,0.2-0.1l0,0c0.1,0,0.1,0.1,0.1,0.1
	l-6.3,27.3C60.2,59.6,60.2,59.6,60.1,59.6z"/>
<path class="st84" d="M60.1,59.6L60.1,59.6c-0.1,0-0.1-0.1-0.1-0.2l10.2-32.6c0-0.1,0.1-0.1,0.2-0.1c0.1,0,0.1,0.1,0.1,0.2
	L60.2,59.5C60.2,59.6,60.1,59.6,60.1,59.6z"/>
<path class="st84" d="M60.1,59.6L60.1,59.6c-0.2,0-0.2-0.1-0.2-0.2l10.6-25.9c0.1-0.1,0.2-0.1,0.2-0.1c0.1,0,0.1,0.1,0.1,0.2
	L60.2,59.5C60.2,59.6,60.2,59.6,60.1,59.6z"/>
<path class="st84" d="M60.1,59.6L60.1,59.6c-0.2,0-0.2-0.1-0.2-0.2l15.6-30.5c0.1-0.1,0.2-0.1,0.2,0c0.1,0,0.1,0.1,0.1,0.2
	L60.2,59.5C60.2,59.6,60.1,59.6,60.1,59.6z"/>
<path class="st84" d="M60.1,59.6L60.1,59.6c-0.2-0.1-0.2-0.2-0.1-0.2l14.7-23.8c0.1-0.1,0.2-0.1,0.3,0c0,0.1,0,0.1,0,0.2L60.2,59.5
	C60.2,59.6,60.1,59.6,60.1,59.6z"/>
<path class="st84" d="M60.1,59.6c-0.1,0-0.2-0.1-0.2-0.2c0,0,0-0.1,0-0.1l20.4-27.5c0.1-0.1,0.2-0.1,0.3,0c0,0.1,0,0.1,0,0.2
	L60.2,59.6C60.2,59.6,60.1,59.6,60.1,59.6z"/>
<path class="st84" d="M60.1,59.6c-0.1,0-0.2-0.1-0.2-0.2c0,0,0,0,0,0c0,0,0-0.1,0-0.1l18.5-21c0.1-0.1,0.2-0.1,0.2,0
	c0,0.1,0,0.1,0,0.2l-18.5,21C60.2,59.6,60.1,59.6,60.1,59.6z"/>
<path class="st84" d="M60.1,59.6c-0.1,0-0.2-0.1-0.2-0.2c0,0,0-0.1,0-0.1l24.6-23.7c0.1,0,0.2,0,0.2,0.1c0,0.1,0,0.1,0,0.2
	L60.2,59.6C60.2,59.6,60.1,59.6,60.1,59.6z"/>
<path class="st84" d="M60.1,59.6c-0.1,0-0.2-0.1-0.2-0.2c0,0,0-0.1,0.1-0.1l21.7-17.7c0.1-0.1,0.2-0.1,0.3,0c0.1,0.1,0.1,0.2,0,0.3
	l0,0L60.2,59.6C60.2,59.6,60.1,59.6,60.1,59.6z"/>
<path class="st84" d="M60.1,59.6c-0.1,0-0.2-0.1-0.2-0.2c0,0,0-0.1,0.1-0.1L88.2,40c0.1-0.1,0.2-0.1,0.3,0c0.1,0.1,0.1,0.2,0,0.3
	h-0.1L60.1,59.6L60.1,59.6z"/>
<path class="st84" d="M60.1,59.6c-0.1,0-0.2-0.1-0.2-0.2c0-0.1,0-0.1,0.1-0.1l24.3-13.8c0.1-0.1,0.2-0.1,0.3,0
	c0.1,0.1,0.1,0.2,0,0.3h-0.1L60.1,59.6L60.1,59.6z"/>
<path class="st84" d="M60.1,59.6c-0.1,0-0.2-0.1-0.2-0.2c0-0.1,0-0.1,0.1-0.1l31-14.4c0.1-0.1,0.2-0.1,0.2,0c0.1,0.1,0.1,0.2,0,0.3
	h-0.1L60.1,59.6L60.1,59.6z"/>
<path class="st84" d="M60.1,59.6c-0.1,0-0.2-0.1-0.2-0.2c0-0.1,0-0.1,0.1-0.1l26.2-9.7c0.1-0.1,0.2-0.1,0.2,0c0.1,0.1,0.1,0.2,0,0.2
	h-0.1L60.1,59.6L60.1,59.6z"/>
<path class="st84" d="M60.1,59.6c-0.1,0-0.2-0.1-0.1-0.2c0-0.1,0.1-0.1,0.1-0.1l33-9.1c0.1,0,0.2,0,0.2,0.1v0c0,0.1,0,0.2-0.1,0.2
	h-0.1L60.1,59.6L60.1,59.6z"/>
<path class="st84" d="M60.1,59.6c-0.1,0-0.2-0.1-0.1-0.2c0-0.1,0.1-0.1,0.1-0.1L87.6,54c0.1,0,0.2,0,0.2,0.1c0,0.1,0,0.2-0.1,0.2
	c0,0,0,0,0,0h-0.1L60.1,59.6L60.1,59.6z"/>
<path class="st84" d="M60.1,59.6c-0.1,0-0.2-0.1-0.1-0.2c0-0.1,0.1-0.1,0.1-0.1l34.1-3.5c0.1,0,0.2,0,0.2,0.1c0,0.1,0,0.2-0.1,0.2
	h-0.1L60.1,59.6L60.1,59.6z"/>
<path class="st84" d="M60.1,59.6c-0.1,0-0.2-0.1-0.1-0.2c0-0.1,0.1-0.1,0.1-0.1L88,58.7l0,0c0.1,0,0.2,0.1,0.1,0.2
	c0,0.1-0.1,0.1-0.1,0.1L60.1,59.6z"/>
<path class="st84" d="M94.2,61.7L94.2,61.7l-34.2-2.1c-0.1,0-0.2,0-0.2-0.1c0-0.1,0-0.2,0.1-0.2h0.1l34.2,2.1c0.1,0,0.2,0.1,0.1,0.2
	C94.4,61.7,94.3,61.7,94.2,61.7L94.2,61.7z"/>
<path class="st84" d="M87.8,63.7L87.8,63.7l-27.7-4c-0.1,0-0.2,0-0.2-0.1c0-0.1,0-0.2,0.1-0.2h0.1l27.7,4c0.1,0,0.2,0.1,0.1,0.2
	C87.8,63.6,87.8,63.6,87.8,63.7L87.8,63.7z"/>
<path class="st84" d="M93.4,67.3L93.4,67.3l-33.3-7.7c-0.1,0-0.2-0.1-0.2-0.2s0.1-0.2,0.2-0.2h0.1L93.5,67c0.1,0,0.2,0.1,0.1,0.2
	C93.6,67.3,93.6,67.3,93.4,67.3L93.4,67.3z"/>
<path class="st84" d="M86.7,68.2L86.7,68.2L60,59.6c-0.1,0-0.2-0.1-0.1-0.2c0-0.1,0.1-0.1,0.1-0.1h0.1l26.7,8.5
	c0.1,0,0.1,0.1,0.1,0.2C86.8,68.1,86.8,68.1,86.7,68.2L86.7,68.2z"/>
<path class="st84" d="M91.7,72.7L91.7,72.7L60,59.6c-0.1,0-0.1-0.1-0.1-0.2c0-0.1,0.1-0.1,0.2-0.1l0,0l31.7,13.2
	c0.1,0,0.1,0.2,0.1,0.2v0C91.8,72.7,91.8,72.8,91.7,72.7L91.7,72.7z"/>
<path class="st84" d="M84.9,72.4L84.9,72.4L60,59.6c-0.1,0-0.1-0.1-0.1-0.2c0-0.1,0.1-0.1,0.2-0.1c0,0,0.1,0,0.1,0L85,72.1
	c0.1,0.1,0.1,0.2,0,0.2C85,72.3,84.9,72.4,84.9,72.4L84.9,72.4z"/>
<path class="st84" d="M89.1,77.8L89.1,77.8L60,59.6c-0.1,0-0.1-0.1-0.1-0.2c0,0,0,0,0,0c0-0.1,0.1-0.1,0.2-0.1c0,0,0,0,0,0h0.1
	l29,18.2C89.2,77.5,89.2,77.6,89.1,77.8C89.2,77.7,89.1,77.8,89.1,77.8L89.1,77.8z"/>
<path class="st84" d="M82.5,76.4h-0.1L60,59.6c-0.1,0-0.1-0.2-0.1-0.2s0.2-0.1,0.2-0.1l0,0L82.6,76c0.1,0.1,0.1,0.2,0,0.3
	C82.5,76.3,82.5,76.3,82.5,76.4z"/>
<path class="st84" d="M85.7,82.3c0,0-0.1,0-0.1,0L60,59.6c-0.1,0-0.1-0.2-0.1-0.2c0.1-0.1,0.2-0.1,0.2-0.1h0.1L85.8,82
	c0.1,0.1,0.1,0.2,0,0.3C85.8,82.3,85.7,82.3,85.7,82.3L85.7,82.3z"/>
<path class="st84" d="M79.4,79.8c0,0-0.1,0-0.1,0L59.9,59.6c-0.1-0.1,0-0.2,0.1-0.2c0.1,0,0.1,0,0.2,0l19.4,20.2
	c0.1,0.1,0.1,0.2,0,0.3C79.5,79.8,79.5,79.8,79.4,79.8L79.4,79.8z"/>
<path class="st84" d="M81.6,86.2c-0.1,0-0.1,0-0.1-0.1L59.9,59.6c0-0.1,0-0.2,0.1-0.2c0.1,0,0.1,0,0.2,0L81.7,86
	c0.1,0.1,0.1,0.2,0,0.3C81.7,86.2,81.7,86.2,81.6,86.2L81.6,86.2z"/>
<path class="st84" d="M75.8,82.7c-0.1,0-0.1,0-0.1-0.1L59.9,59.6c0-0.1,0-0.2,0.1-0.2c0.1,0,0.1,0,0.2,0l15.7,23.1
	C76,82.5,76,82.6,75.8,82.7L75.8,82.7z"/>
<path class="st84" d="M76.9,89.4c-0.1,0-0.1,0-0.2-0.1L59.9,59.5c0-0.1,0-0.2,0.1-0.2c0,0,0,0,0,0c0.1,0,0.1,0,0.2,0l16.8,29.8
	C77.1,89.2,77.1,89.3,76.9,89.4L76.9,89.4z"/>
<path class="st84" d="M71.8,85c-0.1,0-0.1,0-0.2-0.1L60,59.5c0-0.1,0-0.2,0.1-0.2c0.1,0,0.1,0,0.2,0.1l11.7,25.4
	C72,84.8,71.9,85,71.8,85L71.8,85z"/>
<path class="st84" d="M71.8,91.8c-0.1,0-0.1,0-0.2-0.1L59.9,59.5c0-0.1,0.1-0.2,0.2-0.2c0.1,0,0.1,0,0.2,0.1l11.7,32.1
	C72,91.6,71.9,91.7,71.8,91.8L71.8,91.8z"/>
<path class="st84" d="M67.4,86.6c-0.1,0-0.1-0.1-0.2-0.1l-7.4-27c0-0.1,0.1-0.2,0.2-0.2c0.1,0,0.1,0,0.1,0.1l7.4,27
	C67.6,86.5,67.6,86.6,67.4,86.6L67.4,86.6z"/>
<path class="st84" d="M66.3,93.3c-0.1,0-0.2-0.1-0.2-0.1l-6.3-33.6c0-0.1,0.1-0.2,0.2-0.2c0.1,0,0.1,0,0.1,0.1l6.3,33.6
	C66.5,93.2,66.4,93.2,66.3,93.3L66.3,93.3z"/>
<path class="st84" d="M62.9,87.4c-0.1,0-0.2-0.1-0.2-0.2l-2.8-27.8c0-0.1,0.1-0.1,0.2-0.1c0.1,0,0.1,0.1,0.1,0.1L63,87.3
	C63,87.4,63,87.4,62.9,87.4L62.9,87.4z"/>
<path class="st84" d="M60.3,59.1L60.3,59.1c0.1,0,0.2,0.1,0.2,0.2l0.7,34.2c0,0.1-0.1,0.2-0.2,0.2l0,0c-0.1,0-0.2-0.1-0.2-0.2
	l-0.7-34.1C60.1,59.3,60.1,59.2,60.3,59.1C60.2,59.1,60.2,59.1,60.3,59.1z"/>
<path class="st84" d="M58.3,87.5L58.3,87.5c-0.1,0-0.2-0.1-0.2-0.2l1.8-27.9c0-0.1,0.1-0.1,0.2-0.1c0.1,0,0.1,0.1,0.1,0.1l-1.9,27.9
	C58.4,87.4,58.3,87.5,58.3,87.5z"/>
<path class="st84" d="M55,93.4L55,93.4c-0.1,0-0.2-0.1-0.1-0.2l5.1-33.8c0-0.1,0.1-0.1,0.2-0.1c0.1,0,0.1,0.1,0.1,0.1l-5.1,33.8
	C55.2,93.4,55.1,93.4,55,93.4C55,93.4,55,93.4,55,93.4z"/>
<path class="st84" d="M53.7,86.8L53.7,86.8c-0.1,0-0.1-0.1-0.1-0.2l6.4-27.2c0-0.1,0.2-0.1,0.2-0.1l0,0c0.1,0,0.1,0.1,0.1,0.2
	l-6.4,27.2C53.9,86.8,53.8,86.8,53.7,86.8z"/>
<path class="st84" d="M49.5,92.1L49.5,92.1c-0.1,0-0.1-0.1-0.1-0.2L60,59.4c0-0.1,0.1-0.1,0.2-0.1c0.1,0,0.1,0.1,0.1,0.2L49.7,92
	C49.7,92.1,49.6,92.2,49.5,92.1z"/>
<path class="st84" d="M49.3,85.4L49.3,85.4c-0.2,0-0.2-0.1-0.1-0.2l10.8-25.8c0.1-0.1,0.2-0.1,0.2-0.1c0.1,0,0.1,0.1,0.1,0.2
	L49.4,85.3C49.4,85.3,49.3,85.4,49.3,85.4z"/>
<path class="st84" d="M44.3,90L44.3,90c-0.2,0-0.2-0.1-0.2-0.2l15.8-30.4c0.1-0.1,0.2-0.1,0.3,0c0,0,0,0.1,0,0.2L44.4,89.9
	C44.4,89.9,44.3,90,44.3,90z"/>
<path class="st84" d="M45.2,83.3L45.2,83.3C45,83.2,45,83.1,45.1,83l14.8-23.7c0.1-0.1,0.2-0.1,0.3,0c0,0.1,0,0.1,0,0.2L45.3,83.2
	C45.3,83.2,45.2,83.2,45.2,83.3z"/>
<path class="st84" d="M39.5,86.9c-0.1,0-0.2-0.1-0.2-0.2c0,0,0,0,0,0c0,0,0-0.1,0-0.1l20.6-27.3c0.1-0.1,0.2-0.1,0.2,0
	c0,0.1,0,0.1,0,0.2L39.6,86.9C39.6,86.9,39.5,86.9,39.5,86.9z"/>
<path class="st84" d="M41.5,80.5c-0.1,0-0.2-0.1-0.2-0.1c0,0,0-0.1,0-0.1l18.7-20.9c0.1-0.1,0.2-0.1,0.2-0.1c0.1,0,0.1,0.2,0.1,0.2
	v0.1L41.6,80.4C41.6,80.5,41.5,80.5,41.5,80.5z"/>
<path class="st84" d="M35.3,83.2c-0.1,0-0.2-0.1-0.2-0.2c0,0,0-0.1,0.1-0.1L60,59.3c0.1-0.1,0.2-0.1,0.2,0c0.1,0.1,0.1,0.2,0,0.2
	h-0.1L35.3,83.2C35.3,83.2,35.3,83.2,35.3,83.2z"/>
<path class="st84" d="M38.3,77.1c-0.1,0-0.2-0.1-0.2-0.2c0,0,0-0.1,0.1-0.1L60,59.3c0.1-0.1,0.2-0.1,0.3,0c0.1,0.1,0.1,0.2,0,0.3
	l0,0L38.4,77.1C38.3,77.1,38.3,77.1,38.3,77.1z"/>
<path class="st84" d="M31.7,78.8c-0.1,0-0.2-0.1-0.2-0.2c0,0,0-0.1,0.1-0.1L60,59.3c0.1-0.1,0.2-0.1,0.3,0c0.1,0.1,0.1,0.2,0,0.3
	h-0.1L31.8,78.7L31.7,78.8z"/>
<path class="st84" d="M35.7,73.3c-0.1,0-0.2-0.1-0.2-0.2c0-0.1,0-0.1,0.1-0.1L60,59.3c0.1-0.1,0.2-0.1,0.3,0c0.1,0.1,0.1,0.2,0,0.3
	h-0.1L35.7,73.3L35.7,73.3z"/>
<path class="st84" d="M28.9,73.8c-0.1,0-0.2-0.1-0.2-0.2c0-0.1,0-0.1,0.1-0.1L60,59.3c0.1-0.1,0.2-0.1,0.2,0c0.1,0.1,0.1,0.2,0,0.3
	h-0.1L28.9,73.8L28.9,73.8z"/>
<path class="st84" d="M33.7,69.1c-0.1,0-0.2-0.1-0.2-0.2c0-0.1,0-0.1,0.1-0.1L60,59.3c0.1-0.1,0.2-0.1,0.2,0c0.1,0.1,0.1,0.2,0,0.2
	h-0.1L33.9,69L33.7,69.1z"/>
<path class="st84" d="M27,68.5c-0.1,0-0.2-0.1-0.1-0.2c0-0.1,0.1-0.1,0.1-0.1l33.1-8.9c0.1,0,0.2,0,0.2,0.1c0,0.1,0,0.2-0.1,0.2
	h-0.1L27,68.5L27,68.5z"/>
<path class="st84" d="M32.6,64.6c-0.1,0-0.2-0.1-0.1-0.2c0-0.1,0.1-0.1,0.1-0.1l27.6-5c0.1,0,0.2,0,0.2,0.1c0,0.1,0,0.2-0.1,0.2
	c0,0,0,0,0,0h-0.1L32.6,64.6L32.6,64.6z"/>
<path class="st84" d="M26,62.9c-0.1,0-0.2-0.1-0.1-0.2c0-0.1,0.1-0.1,0.1-0.1l34.1-3.3c0.1,0,0.2,0.1,0.2,0.2s-0.1,0.2-0.2,0.2l0,0
	L26,62.9L26,62.9z"/>
<path class="st84" d="M60.1,59.6L60.1,59.6L32.2,60c-0.1,0-0.2-0.1-0.1-0.2c0-0.1,0.1-0.1,0.1-0.1l0,0l28-0.4c0.1,0,0.2,0.1,0.1,0.2
	C60.2,59.6,60.2,59.6,60.1,59.6L60.1,59.6z"/>
<path class="st84" d="M60.1,59.6L60.1,59.6l-34.2-2.4c-0.1,0-0.2,0-0.2-0.1c0-0.1,0-0.2,0.1-0.2h0.1l34.1,2.4c0.1,0,0.2,0.1,0.1,0.2
	C60.2,59.6,60.1,59.6,60.1,59.6L60.1,59.6z"/>
<path class="st84" d="M60.1,59.6L60.1,59.6l-27.7-4.2c-0.1,0-0.2-0.1-0.2-0.2s0.1-0.2,0.2-0.2h0.1l27.6,4.2c0.1,0,0.2,0.1,0.1,0.2
	C60.2,59.6,60.2,59.6,60.1,59.6L60.1,59.6z"/>
<path class="st84" d="M60.1,59.6L60.1,59.6l-33.3-8c-0.1,0-0.2-0.1-0.2-0.2c0-0.1,0.1-0.2,0.2-0.2l0,0h0.1l33.3,8
	c0.1,0,0.2,0.1,0.1,0.2C60.3,59.5,60.2,59.6,60.1,59.6L60.1,59.6z"/>
<path class="st84" d="M60.1,59.6L60.1,59.6l-26.6-8.8c-0.1,0-0.2-0.1-0.2-0.2c0-0.1,0.1-0.2,0.2-0.2h0.1l26.6,8.8
	c0.1,0,0.1,0.1,0.1,0.2C60.2,59.6,60.2,59.7,60.1,59.6L60.1,59.6z"/>
<path class="st84" d="M60.1,59.6L60.1,59.6L28.5,46.3c-0.1,0-0.2-0.1-0.1-0.2c0-0.1,0.1-0.1,0.1-0.1h0.1l31.5,13.4
	c0.1,0,0.1,0.2,0.1,0.2C60.2,59.6,60.1,59.6,60.1,59.6z"/>
<path class="st84" d="M60.1,59.6L60.1,59.6l-24.8-13c-0.1,0-0.1-0.1-0.1-0.2c0-0.1,0.1-0.1,0.2-0.1c0,0,0.1,0,0.1,0l24.8,13.1
	C60.2,59.4,60.2,59.5,60.1,59.6C60.1,59.6,60.1,59.6,60.1,59.6z"/>
<path class="st84" d="M60.1,59.6L60.1,59.6l-29-18.4C31,41.2,31,41.1,31,41c0,0,0,0,0,0c0-0.1,0.1-0.1,0.2-0.1c0,0,0,0,0,0h0.1
	l28.9,18.5C60.2,59.4,60.2,59.5,60.1,59.6C60.1,59.6,60.1,59.7,60.1,59.6L60.1,59.6z"/>
<path class="st84" d="M60.1,59.6c0,0-0.1,0-0.1,0L37.7,42.7c-0.1,0-0.1-0.1-0.1-0.2c0-0.1,0.1-0.1,0.2-0.1l0.1,0.1l22.2,16.9
	C60.3,59.4,60.3,59.5,60.1,59.6C60.1,59.6,60.1,59.7,60.1,59.6L60.1,59.6z"/>
<path class="st84" d="M60.1,59.6c0,0-0.1,0-0.1,0L34.5,36.7c-0.1-0.1-0.1-0.2,0-0.3c0.1,0,0.1,0,0.2,0l25.5,22.9
	c0.1,0.1,0.1,0.2,0,0.3C60.2,59.6,60.1,59.6,60.1,59.6L60.1,59.6z"/>
<ellipse transform="matrix(0.7529 -0.6582 0.6582 0.7529 -24.3373 54.1388)" class="st85" cx="59.9" cy="59.5" rx="16.8" ry="16.8"/>
<ellipse transform="matrix(0.6428 -0.766 0.766 0.6428 -24.4101 67.2238)" cx="59.9" cy="59.8" rx="12.7" ry="12.7"/>
<g>
	<path class="st4" d="M50.8,56.6c1.6,0,3.1,0,4.7,0c0.4,0,0.6-0.1,0.8-0.5c1.2-2.3,2.5-4.6,3.7-7c0.1,0.2,0.2,0.4,0.3,0.5
		c1.2,2.2,2.3,4.3,3.5,6.5c0.2,0.3,0.4,0.5,0.7,0.5c1.5,0,3,0,4.7,0c-0.1,0.2-0.2,0.4-0.3,0.6c-0.6,1.2-1.3,2.4-1.9,3.6
		c-0.3,0.5-0.3,0.8,0,1.3c0.8,1.3,1.5,2.7,2.3,4.2c-0.4,0-0.6,0-0.9,0c-1.2,0-2.3,0-3.5,0c-0.6,0-1,0.2-1.2,0.8
		c-0.4,0.8-0.9,1.6-1.3,2.5c-0.8-1.4-1.5-2.8-2.3-4.2c-0.8,1.4-1.5,2.8-2.3,4.2c-0.5-0.9-1-1.8-1.4-2.7c-0.2-0.4-0.4-0.6-0.9-0.6
		c-1.3,0-2.6,0-3.9,0c-0.2,0-0.4,0-0.6,0c0.7-1.3,1.2-2.5,1.9-3.6c0.6-0.9,0.6-1.7,0-2.6C52,59.1,51.5,57.9,50.8,56.6z M60,51.7
		c-1,1.9-1.9,3.6-2.9,5.4c0,0.1,0,0.2,0,0.3c0.5,0.9,0.9,1.8,1.5,2.8c0.5-0.9,0.9-1.7,1.4-2.5c0.1,0.3,0.3,0.5,0.4,0.7
		c1.1,2.1,2.3,4.2,3.4,6.3c0.1,0.2,0.3,0.4,0.4,0.4c1,0,1.9,0,3,0C64.7,60.6,62.4,56.2,60,51.7z M57.7,67c0.8-1.5,1.5-2.8,2.3-4.2
		c0.8,1.4,1.5,2.8,2.3,4.2c0.1-0.2,0.2-0.4,0.3-0.5c0.3-0.4,0.3-0.8,0-1.4c-0.6-0.9-1-1.9-1.5-2.8c-0.4-0.7-0.7-1.3-1.1-2
		c-0.5,0.9-0.9,1.7-1.4,2.5c-0.8-1.5-1.6-3-2.4-4.5c-0.1-0.2-0.3-0.4-0.4-0.4c-0.9,0-1.9,0-2.9,0C54.5,60.9,56.1,63.9,57.7,67z
		 M65.9,60.2c0.4-0.8,0.8-1.5,1.2-2.3c-0.9,0-1.6,0-2.4,0C65.1,58.7,65.5,59.4,65.9,60.2z M52.9,65c0.8,0,1.6,0,2.4,0
		c-0.4-0.8-0.8-1.5-1.2-2.3C53.7,63.6,53.3,64.3,52.9,65z"/>
</g>
<path d="M58.4,104.9c0-1.1,0.9-2.1,2-2.1s2.1,0.9,2.1,2c0,1.1-0.9,2.1-2,2.1c-0.5,0-1.1-0.2-1.5-0.6C58.6,106,58.4,105.5,58.4,104.9
	z"/>
</svg>
