<?xml version="1.0" encoding="utf-8"?>
<!-- Generator: Adobe Illustrator 24.2.0, SVG Export Plug-In . SVG Version: 6.00 Build 0)  -->
<svg version="1.1" id="Layer_1" xmlns="http://www.w3.org/2000/svg" xmlns:xlink="http://www.w3.org/1999/xlink" x="0px" y="0px"
	 viewBox="0 0 1113.9 299.1" style="enable-background:new 0 0 1113.9 299.1;" xml:space="preserve">
<style type="text/css">
	.st0{fill:#FAAA1A;}
	.st1{fill:#221F1F;}
	.st2{stroke:#000000;stroke-width:0.75;stroke-miterlimit:10;}
	.st3{stroke:#000000;stroke-width:0.5;stroke-miterlimit:10;}
	.st4{fill:url(#SVGID_1_);}
	.st5{fill:url(#SVGID_2_);}
	.st6{fill:url(#SVGID_3_);}
	.st7{fill:url(#SVGID_4_);}
	.st8{fill:url(#SVGID_5_);}
	.st9{fill:url(#SVGID_6_);}
	.st10{fill:url(#SVGID_7_);}
	.st11{fill:url(#SVGID_8_);}
	.st12{fill:url(#SVGID_9_);}
	.st13{fill:url(#SVGID_10_);}
	.st14{fill:url(#SVGID_11_);}
	.st15{fill:url(#SVGID_12_);}
	.st16{fill:url(#SVGID_13_);}
	.st17{fill:url(#SVGID_14_);}
	.st18{fill:url(#SVGID_15_);}
	.st19{fill:url(#SVGID_16_);}
	.st20{fill:url(#SVGID_17_);}
	.st21{fill:url(#SVGID_18_);}
	.st22{fill:url(#SVGID_19_);}
	.st23{fill:url(#SVGID_20_);}
	.st24{fill:url(#SVGID_21_);}
	.st25{fill:url(#SVGID_22_);}
	.st26{fill:url(#SVGID_23_);}
	.st27{fill:url(#SVGID_24_);}
	.st28{fill:url(#SVGID_25_);}
	.st29{fill:url(#SVGID_26_);}
	.st30{fill:url(#SVGID_27_);}
	.st31{fill:url(#SVGID_28_);}
	.st32{fill:url(#SVGID_29_);}
	.st33{fill:url(#SVGID_30_);}
	.st34{fill:url(#SVGID_31_);}
	.st35{fill:url(#SVGID_32_);}
	.st36{fill:url(#SVGID_33_);}
	.st37{fill:url(#SVGID_34_);}
	.st38{fill:url(#SVGID_35_);}
	.st39{fill:url(#SVGID_36_);}
	.st40{fill:url(#SVGID_37_);}
	.st41{fill:url(#SVGID_38_);}
	.st42{fill:url(#SVGID_39_);}
	.st43{fill:url(#SVGID_40_);}
	.st44{fill:url(#SVGID_41_);}
	.st45{fill:url(#SVGID_42_);}
	.st46{fill:url(#SVGID_43_);}
	.st47{fill:url(#SVGID_44_);}
	.st48{fill:url(#SVGID_45_);}
	.st49{fill:url(#SVGID_46_);}
	.st50{fill:url(#SVGID_47_);}
	.st51{fill:url(#SVGID_48_);}
	.st52{fill:url(#SVGID_49_);}
	.st53{fill:url(#SVGID_50_);}
	.st54{fill:url(#SVGID_51_);}
	.st55{fill:url(#SVGID_52_);}
	.st56{fill:url(#SVGID_53_);}
	.st57{fill:url(#SVGID_54_);}
	.st58{fill:url(#SVGID_55_);}
	.st59{fill:url(#SVGID_56_);}
	.st60{fill:url(#SVGID_57_);}
	.st61{fill:url(#SVGID_58_);}
	.st62{fill:url(#SVGID_59_);}
	.st63{fill:url(#SVGID_60_);}
	.st64{fill:url(#SVGID_61_);}
	.st65{fill:url(#SVGID_62_);}
	.st66{fill:url(#SVGID_63_);}
	.st67{fill:url(#SVGID_64_);}
	.st68{fill:url(#SVGID_65_);}
	.st69{fill:url(#SVGID_66_);}
	.st70{fill:url(#SVGID_67_);}
	.st71{fill:url(#SVGID_68_);}
	.st72{fill:url(#SVGID_69_);}
	.st73{fill:url(#SVGID_70_);}
	.st74{fill:url(#SVGID_71_);}
	.st75{fill:url(#SVGID_72_);}
	.st76{fill:url(#SVGID_73_);}
	.st77{fill:url(#SVGID_74_);}
	.st78{fill:url(#SVGID_75_);}
	.st79{fill:url(#SVGID_76_);}
	.st80{stroke:#000000;stroke-width:0.25;stroke-miterlimit:10;}
	.st81{fill:#FAAA1A;stroke:#000000;stroke-width:1;stroke-miterlimit:10.002;}
	.st82{font-family:'ArialMT';}
	.st83{font-size:100.9043px;}
	.st84{font-family:'Arial-BoldMT';}
	.st85{font-size:142.4605px;}
	.st86{letter-spacing:-6;}
</style>
<g>
	<ellipse class="st0" cx="148.1" cy="149.6" rx="148.1" ry="149.6"/>
	<ellipse class="st1" cx="235.9" cy="58" rx="12.9" ry="12.9"/>
	<path class="st1" d="M59.9,249.3c-4,0.1-7.3-3.1-7.3-7.1c-0.1-4,3.1-7.3,7.1-7.3c4-0.1,7.3,3.1,7.3,7.1c0,1.9-0.7,3.8-2,5.1
		C63.7,248.5,61.8,249.3,59.9,249.3z"/>
	<path class="st2" d="M147.6,38.6c-1.3,0-2.5,0.1-3.7,0.1c0,0.1,0,0.2,0,0.2v0.3c1.1,0,2.3-0.1,3.4-0.1
		c29.6-0.5,58.3,10.8,79.6,31.4s33.5,48.8,34,78.4c1,59.5-44.7,108.9-103.3,113.3c0,0.1,0,0.1,0,0.2c0,0.2,0,0.4,0,0.6
		c12.8-0.9,25.3-4.1,37.1-9.3c41.3-18.2,67.7-59.4,67-104.5C260.8,87.2,209.7,37.6,147.6,38.6z M37.5,152.7
		c-0.9-53.5,36-98.9,86.1-110.6c0-0.2-0.1-0.3-0.1-0.5C73.1,53.4,36.1,98.9,36.9,152.7C37.8,211.4,83.5,259,141,263.1
		c0-0.1,0-0.2,0-0.4c0-0.1,0-0.3,0-0.4C83.9,258.2,38.4,211.1,37.5,152.7z"/>
	<path class="st3" d="M202.6,237.7c-15.1,9.3-32.8,14.8-51.8,15.1c-50.4,0.8-92.9-35.1-101.9-83c-0.3,0-0.6,0.1-1,0.1
		c9.1,48.4,52.1,84.7,103,83.8c18.6-0.3,36.6-5.7,52.2-15.3C203,238.1,202.8,237.9,202.6,237.7z M224.7,80.6
		c-0.2,0.3-0.4,0.7-0.7,0.9c17,18.4,26.7,42.4,27.1,67.6c0.4,25.3-8.4,48.7-23.4,66.7c0.2,0.2,0.5,0.4,0.7,0.7
		c15.7-18.9,24.2-42.9,23.8-67.7C251.7,122.5,241.3,98.6,224.7,80.6z M80.4,74c0.3,0.3,0.5,0.6,0.7,0.9c17.6-15.8,40.8-25.6,66.3-26
		c24.4-0.4,48,7.9,66.7,23.4c0.3-0.3,0.6-0.5,0.9-0.8c-18.3-15.2-42-24.2-67.6-23.8C121.6,48.2,98.2,58,80.4,74z M70.4,84.3
		C58.3,98.7,50,116.5,47.2,136c0.3,0,0.7,0,1,0c2.8-19.3,11-36.8,23-51C71,84.8,70.7,84.6,70.4,84.3z"/>
	<path class="st3" d="M150.7,244.6c-51.8,0.9-94.5-40.5-95.4-92.3s40.5-94.5,92.3-95.4s94.5,40.5,95.4,92.3
		c0.4,24.9-9.1,48.9-26.4,66.8C199.3,233.9,175.6,244.2,150.7,244.6z M147.6,58c-51.3,0.9-92.1,43.3-91.2,94.6s43.3,92.1,94.6,91.2
		c51.3-0.9,92.1-43.3,91.2-94.6c-0.4-24.6-10.7-48.1-28.4-65.2S172.3,57.6,147.6,58z"/>
	<path class="st1" d="M224,76.9c0,2.8-2.2,5.1-5,5.2c-2.8,0-5.1-2.2-5.2-5c0-2.8,2.2-5.1,5-5.2c1.4,0,2.7,0.5,3.6,1.4
		C223.4,74.3,224,75.6,224,76.9z"/>
	<path d="M144.2,262.7c0-2.8,2.2-5.1,5-5.2s5.1,2.2,5.2,5c0,2.8-2.2,5.1-5,5.2c-1.4,0-2.7-0.5-3.6-1.4
		C144.8,265.3,144.2,264,144.2,262.7z"/>
	<path d="M41.8,153c0-2.8,2.2-5.1,5-5.2c2.8,0,5.1,2.2,5.2,5s-2.2,5.1-5,5.2c-1.4,0-2.7-0.5-3.6-1.4C42.4,155.6,41.8,154.4,41.8,153
		z"/>
	<path d="M210.8,228.3c0-2.8,2.2-5.1,5-5.2c2.8,0,5.1,2.2,5.2,5c0,2.8-2.2,5.1-5,5.2c-1.4,0-2.7-0.5-3.6-1.4
		C211.4,231,210.8,229.7,210.8,228.3z"/>
	<path class="st1" d="M215.7,215.7c-6.9,0.1-12.4,5.8-12.3,12.7c0.1,6.9,5.8,12.4,12.7,12.3c6.9-0.1,12.4-5.8,12.3-12.7
		S222.6,215.6,215.7,215.7z M216.1,236.3c-4.5,0.1-8.1-3.5-8.2-7.9c-0.1-4.5,3.5-8.1,7.9-8.2c4.5-0.1,8.1,3.5,8.2,7.9
		C224.1,232.6,220.5,236.2,216.1,236.3z"/>
	<path class="st1" d="M46.7,140.4c-6.9,0.1-12.4,5.8-12.3,12.7s5.8,12.4,12.7,12.3c6.9-0.1,12.4-5.8,12.3-12.7
		C59.3,145.8,53.6,140.3,46.7,140.4z M47,161c-4.5,0.1-8.1-3.5-8.2-7.9c-0.1-4.5,3.5-8.1,7.9-8.2c4.5-0.1,8.1,3.5,8.2,7.9
		S51.5,160.9,47,161z"/>
	<path class="st3" d="M67.8,261.3c-8.1,0.1-14.8-2-19.4-6.5c-10.3-9.9-9.4-30,2.5-56.7s33.1-56.4,60-84.2s56-50,82.2-62.7
		s46.5-14.3,56.7-4.4s9.4,30.1-2.5,56.8s-33.1,56.5-60,84.2s-56.1,50-82.2,62.7C90.6,257.5,78,261.1,67.8,261.3z M230.5,41.2
		c-28.4,0.5-75.6,28.6-118.9,73.2C56.4,171.3,28.3,234.1,49,254.1c5.1,4.5,11.9,6.7,18.7,6.2c28.4-0.5,75.6-28.6,118.9-73.2
		c55.2-56.9,83.3-119.6,62.6-139.6C244,42.9,237.3,40.7,230.5,41.2L230.5,41.2z"/>
	<circle class="st1" cx="133.5" cy="39.1" r="7.7"/>
	<path class="st1" d="M75.1,73.8c2.9,0,5.2,2.2,5.3,5.1c0,2.9-2.2,5.2-5.1,5.3S70.1,82,70,79.1c0-1.4,0.5-2.7,1.5-3.7
		S73.8,73.8,75.1,73.8z"/>
	<g>
		<path class="st1" d="M126.5,142.5c3.8,0,7.3,0,10.9,0c0.9,0,1.4-0.3,1.9-1.1c2.8-5.5,5.7-10.9,8.7-16.6c0.3,0.5,0.5,0.9,0.7,1.2
			c2.7,5.1,5.4,10.2,8.1,15.4c0.4,0.8,0.9,1.1,1.7,1.1c3.6-0.1,7.1,0,10.9,0c-0.3,0.6-0.5,1-0.7,1.4c-1.5,2.8-3,5.7-4.5,8.5
			c-0.6,1.1-0.7,2,0,3.1c1.8,3.2,3.5,6.5,5.3,9.9c-0.8,0-1.5,0-2.1,0c-2.7,0-5.4,0.1-8.1,0c-1.5-0.1-2.2,0.5-2.8,1.8
			c-0.9,2-2,3.8-3.1,5.9c-1.8-3.4-3.5-6.6-5.3-10c-1.8,3.4-3.5,6.6-5.3,10c-1.2-2.2-2.3-4.3-3.3-6.4c-0.5-1-1-1.4-2.1-1.3
			c-3.1,0.1-6.1,0-9.2,0c-0.4,0-0.9,0-1.5,0c1.6-3,2.8-5.8,4.5-8.4c1.4-2.2,1.4-4,0-6.1C129.4,148.3,128.1,145.5,126.5,142.5z
			 M148,130.9c-2.3,4.4-4.5,8.5-6.7,12.7c-0.1,0.2-0.1,0.5,0,0.7c1.1,2.1,2.2,4.2,3.4,6.6c1.1-2.1,2.1-4,3.2-6
			c0.3,0.6,0.6,1.1,0.9,1.5c2.6,5,5.3,10,7.9,15c0.2,0.4,0.6,1,0.9,1c2.2,0.1,4.5,0,7,0C159.1,151.9,153.6,141.5,148,130.9z
			 M142.7,167c1.8-3.4,3.5-6.6,5.3-10c1.8,3.4,3.5,6.6,5.3,9.9c0.3-0.6,0.5-0.9,0.7-1.3c0.7-1.1,0.8-2,0.1-3.2
			c-1.3-2.1-2.4-4.4-3.5-6.6c-0.8-1.6-1.6-3.1-2.6-4.8c-1.1,2.1-2.1,3.9-3.2,6c-1.9-3.6-3.7-7.1-5.6-10.5c-0.2-0.4-0.7-1-1.1-1
			c-2.2-0.1-4.4,0-6.9,0C135.1,152.7,138.8,159.7,142.7,167z M161.8,150.9c1-1.9,1.9-3.6,2.9-5.4c-2,0-3.7,0-5.7,0
			C159.9,147.3,160.8,149,161.8,150.9z M131.4,162.4c1.9,0,3.7,0,5.6,0c-1-1.8-1.8-3.5-2.8-5.3C133.2,159,132.3,160.6,131.4,162.4z"
			/>
	</g>
	<g id="mask-160_2_">
		
			<radialGradient id="SVGID_1_" cx="-11438.2744" cy="-2503.6311" r="94.2774" gradientTransform="matrix(0.31 -4.000000e-02 4.000000e-02 0.32 3999.2146 379.2353)" gradientUnits="userSpaceOnUse">
			<stop  offset="6.000000e-02" style="stop-color:#FFFFFF"/>
			<stop  offset="1" style="stop-color:#000000"/>
		</radialGradient>
		<path class="st4" d="M148.3,150.3c-0.1,0-0.2,0-0.3,0L85.2,93.1c-0.2-0.2-0.2-0.5,0-0.6c0.1-0.1,0.3-0.1,0.5,0l62.9,57
			c0.2,0.2,0.2,0.5,0,0.6C148.5,150.2,148.4,150.2,148.3,150.3L148.3,150.3z"/>
	</g>
	<g id="mask-159_2_">
		
			<radialGradient id="SVGID_2_" cx="-11501.2217" cy="-3541.6667" r="77.257" gradientTransform="matrix(0.31 -7.000000e-02 7.000000e-02 0.32 4017.3579 410.9053)" gradientUnits="userSpaceOnUse">
			<stop  offset="6.000000e-02" style="stop-color:#FFFFFF"/>
			<stop  offset="1" style="stop-color:#000000"/>
		</radialGradient>
		<path class="st5" d="M148.3,150.3c-0.1,0-0.2,0-0.3,0L93.1,108c-0.2-0.1-0.3-0.4-0.2-0.6c0.1-0.2,0.4-0.3,0.6-0.2l0.2,0.1
			l54.9,42.2c0.2,0.2,0.2,0.5,0,0.6C148.4,150.3,148.3,150.3,148.3,150.3L148.3,150.3z"/>
	</g>
	<g id="mask-158_2_">
		
			<radialGradient id="SVGID_3_" cx="-11319.5449" cy="-4411.9102" r="94.3036" gradientTransform="matrix(0.3 -0.1 0.1 0.31 4045.5908 444.0941)" gradientUnits="userSpaceOnUse">
			<stop  offset="6.000000e-02" style="stop-color:#FFFFFF"/>
			<stop  offset="1" style="stop-color:#000000"/>
		</radialGradient>
		<path class="st6" d="M148.3,150.3H148l-71.3-45.9c-0.2-0.1-0.3-0.3-0.3-0.6l0,0c0.1-0.2,0.3-0.3,0.6-0.3l0,0h0.2l71.2,46.1
			C148.6,149.8,148.6,150,148.3,150.3c0,0-0.1,0.1-0.2,0.1L148.3,150.3z"/>
	</g>
	<g id="mask-157_2_">
		
			<radialGradient id="SVGID_4_" cx="-10754.6875" cy="-5494.7803" r="77.2264" gradientTransform="matrix(0.29 -0.12 0.12 0.3 4080.0833 463.243)" gradientUnits="userSpaceOnUse">
			<stop  offset="6.000000e-02" style="stop-color:#FFFFFF"/>
			<stop  offset="1" style="stop-color:#000000"/>
		</radialGradient>
		<path class="st7" d="M148.3,150.3h-0.2L87,117.8c-0.2-0.1-0.4-0.3-0.3-0.6c0.1-0.2,0.2-0.3,0.4-0.3c0.1,0,0.1,0,0.2,0l61.1,32.6
			c0.2,0.2,0.2,0.4,0,0.6C148.4,150.2,148.3,150.2,148.3,150.3z"/>
	</g>
	<g id="mask-156_2_">
		
			<radialGradient id="SVGID_5_" cx="-10609.9375" cy="-6465.0703" r="94.2774" gradientTransform="matrix(0.28 -0.15 0.15 0.29 4107.7065 491.4619)" gradientUnits="userSpaceOnUse">
			<stop  offset="6.000000e-02" style="stop-color:#FFFFFF"/>
			<stop  offset="1" style="stop-color:#000000"/>
		</radialGradient>
		<path class="st8" d="M148.3,150.3h-0.2L70.4,117c-0.2-0.1-0.4-0.3-0.3-0.5c0-0.2,0.2-0.3,0.3-0.3h0.2l77.8,33.5
			c0.2,0.1,0.3,0.4,0.2,0.6C148.5,150.2,148.4,150.3,148.3,150.3z"/>
	</g>
	<g id="mask-155_2_">
		
			<radialGradient id="SVGID_6_" cx="-9983.7021" cy="-7580.3418" r="77.2526" gradientTransform="matrix(0.27 -0.17 0.17 0.28 4138.0889 505.9708)" gradientUnits="userSpaceOnUse">
			<stop  offset="6.000000e-02" style="stop-color:#FFFFFF"/>
			<stop  offset="1" style="stop-color:#000000"/>
		</radialGradient>
		<path class="st9" d="M148.3,150.3L148.3,150.3l-65.7-21.8c-0.2,0-0.4-0.2-0.4-0.4c0-0.2,0.2-0.4,0.4-0.4h0.2l65.6,22
			c0.2,0.1,0.4,0.3,0.3,0.6c0,0.1-0.1,0.2-0.3,0.3L148.3,150.3z"/>
	</g>
	<g id="mask-154_2_">
		
			<radialGradient id="SVGID_7_" cx="-9304.4873" cy="-8291.4873" r="94.2774" gradientTransform="matrix(0.25 -0.19 0.19 0.26 4180.3511 523.3787)" gradientUnits="userSpaceOnUse">
			<stop  offset="6.000000e-02" style="stop-color:#FFFFFF"/>
			<stop  offset="1" style="stop-color:#000000"/>
		</radialGradient>
		<path class="st10" d="M148.3,150.3L148.3,150.3l-82.2-20c-0.2,0-0.4-0.2-0.4-0.4s0.2-0.4,0.4-0.4l0,0h0.2l82.2,19.9
			c0.2,0.1,0.4,0.3,0.3,0.5c0,0.2-0.2,0.3-0.3,0.3L148.3,150.3z"/>
	</g>
	<g id="mask-153_2_">
		
			<radialGradient id="SVGID_8_" cx="-9026.3418" cy="-9796.4873" r="77.2264" gradientTransform="matrix(0.25 -0.21 0.22 0.25 4192.9141 532.7075)" gradientUnits="userSpaceOnUse">
			<stop  offset="6.000000e-02" style="stop-color:#FFFFFF"/>
			<stop  offset="1" style="stop-color:#000000"/>
		</radialGradient>
		<path class="st11" d="M148.3,150.3L148.3,150.3L80,139.8c-0.2,0-0.4-0.2-0.4-0.4s0.2-0.4,0.4-0.4h0.2l68.2,10.5
			c0.2,0.1,0.4,0.3,0.3,0.5C148.6,150.1,148.5,150.2,148.3,150.3L148.3,150.3z"/>
	</g>
	<g id="mask-152_2_">
		
			<radialGradient id="SVGID_9_" cx="-8037.9893" cy="-10311.04" r="94.2774" gradientTransform="matrix(0.23 -0.23 0.23 0.23 4235.9756 545.0353)" gradientUnits="userSpaceOnUse">
			<stop  offset="6.000000e-02" style="stop-color:#FFFFFF"/>
			<stop  offset="1" style="stop-color:#000000"/>
		</radialGradient>
		<path class="st12" d="M148.3,150.3L148.3,150.3l-84.3-6c-0.2,0.1-0.5-0.1-0.5-0.3c-0.1-0.2,0.1-0.5,0.3-0.5H64l84.3,5.9
			c0.2,0.1,0.4,0.3,0.3,0.5C148.5,150.1,148.4,150.2,148.3,150.3L148.3,150.3z"/>
	</g>
	<g id="mask-151_2_">
		
			<radialGradient id="SVGID_10_" cx="-7277.9351" cy="-11051.9092" r="77.2526" gradientTransform="matrix(0.21 -0.25 0.25 0.21 4272.6279 554.6732)" gradientUnits="userSpaceOnUse">
			<stop  offset="6.000000e-02" style="stop-color:#FFFFFF"/>
			<stop  offset="1" style="stop-color:#000000"/>
		</radialGradient>
		<path class="st13" d="M148.3,150.3L148.3,150.3l-68.9,0.9c-0.2-0.1-0.4-0.3-0.3-0.5c0-0.2,0.2-0.3,0.3-0.3l0,0l69-0.9
			c0.2,0.1,0.4,0.3,0.3,0.5C148.7,150.2,148.5,150.3,148.3,150.3L148.3,150.3z"/>
	</g>
	<g id="mask-150_2_">
		
			<radialGradient id="SVGID_11_" cx="-6265.4253" cy="-11534.7979" r="94.2774" gradientTransform="matrix(0.19 -0.27 0.26 0.19 4313.6489 562.861)" gradientUnits="userSpaceOnUse">
			<stop  offset="6.000000e-02" style="stop-color:#FFFFFF"/>
			<stop  offset="1" style="stop-color:#000000"/>
		</radialGradient>
		<path class="st14" d="M64.2,158.4c-0.2-0.1-0.4-0.3-0.3-0.5c0-0.2,0.2-0.3,0.3-0.3l84.1-8.2c0.2,0,0.4,0.2,0.4,0.4
			s-0.2,0.4-0.4,0.4l0,0L64.2,158.4L64.2,158.4z"/>
	</g>
	<g id="mask-149_2_">
		
			<radialGradient id="SVGID_12_" cx="-5394.5586" cy="-11700.9238" r="77.2526" gradientTransform="matrix(0.16 -0.28 0.27 0.16 4362.6201 562.1576)" gradientUnits="userSpaceOnUse">
			<stop  offset="6.000000e-02" style="stop-color:#FFFFFF"/>
			<stop  offset="1" style="stop-color:#000000"/>
		</radialGradient>
		<path class="st15" d="M80.4,162.6c-0.2-0.1-0.4-0.3-0.3-0.5c0-0.2,0.2-0.3,0.3-0.3l68-12.4c0.2-0.1,0.5,0,0.5,0.3
			c0.1,0.2,0,0.5-0.3,0.6l0,0h-0.1L80.4,162.6L80.4,162.6z"/>
	</g>
	<g id="mask-148_2_">
		
			<radialGradient id="SVGID_13_" cx="-4557.5576" cy="-12608.3369" r="94.2774" gradientTransform="matrix(0.14 -0.3 0.29 0.14 4393.1523 567.3254)" gradientUnits="userSpaceOnUse">
			<stop  offset="6.000000e-02" style="stop-color:#FFFFFF"/>
			<stop  offset="1" style="stop-color:#000000"/>
		</radialGradient>
		<path class="st16" d="M66.7,172.3c-0.2-0.1-0.4-0.3-0.3-0.5c0-0.2,0.2-0.3,0.3-0.3l81.6-22.1c0.2-0.1,0.5,0,0.6,0.2s0,0.5-0.2,0.6
			h-0.2l-81.7,22.2L66.7,172.3z"/>
	</g>
	<g id="mask-147_2_">
		
			<radialGradient id="SVGID_14_" cx="-3723.0146" cy="-12896.9902" r="77.2526" gradientTransform="matrix(0.11 -0.31 0.3 0.11 4438.4531 564.6721)" gradientUnits="userSpaceOnUse">
			<stop  offset="6.000000e-02" style="stop-color:#FFFFFF"/>
			<stop  offset="1" style="stop-color:#000000"/>
		</radialGradient>
		<path class="st17" d="M83.3,173.8c-0.2,0-0.4-0.2-0.4-0.5c0-0.1,0.1-0.3,0.2-0.3l64.9-23.5c0.2-0.2,0.4-0.2,0.6,0
			c0.2,0.2,0.2,0.4,0,0.6h-0.2l-64.9,23.5L83.3,173.8z"/>
	</g>
	<g id="mask-146_2_">
		
			<radialGradient id="SVGID_15_" cx="-2500.1111" cy="-13447.4043" r="94.3036" gradientTransform="matrix(9.000000e-02 -0.32 0.31 9.000000e-02 4468.2642 555.8499)" gradientUnits="userSpaceOnUse">
			<stop  offset="6.000000e-02" style="stop-color:#FFFFFF"/>
			<stop  offset="1" style="stop-color:#000000"/>
		</radialGradient>
		<path class="st18" d="M71.4,185.6c-0.2,0-0.4-0.2-0.4-0.5c0-0.2,0.1-0.3,0.2-0.4l76.8-35.2c0.2-0.2,0.4-0.2,0.6,0
			c0.2,0.2,0.2,0.5,0,0.6h-0.2l-76.9,35.4L71.4,185.6z"/>
	</g>
	<g id="mask-145_2_">
		
			<radialGradient id="SVGID_16_" cx="-1523.4825" cy="-13376.2939" r="77.2526" gradientTransform="matrix(6.000000e-02 -0.32 0.31 6.000000e-02 4512.5747 538.9466)" gradientUnits="userSpaceOnUse">
			<stop  offset="6.000000e-02" style="stop-color:#FFFFFF"/>
			<stop  offset="1" style="stop-color:#000000"/>
		</radialGradient>
		<path class="st19" d="M88.1,184.3c-0.2,0-0.4-0.2-0.4-0.5c0-0.1,0.1-0.3,0.2-0.3l60.1-34c0.2-0.2,0.5-0.2,0.6,0
			c0.2,0.2,0.2,0.5,0,0.6h-0.2l-60.1,34L88.1,184.3z"/>
	</g>
	<g id="mask-144_2_">
		
			<radialGradient id="SVGID_17_" cx="-194.2182" cy="-13863.8047" r="94.2513" gradientTransform="matrix(4.000000e-02 -0.33 0.32 4.000000e-02 4539.5352 528.1744)" gradientUnits="userSpaceOnUse">
			<stop  offset="6.000000e-02" style="stop-color:#FFFFFF"/>
			<stop  offset="1" style="stop-color:#000000"/>
		</radialGradient>
		<path class="st20" d="M78.1,197.9c-0.2,0-0.4-0.2-0.4-0.5c0-0.1,0.1-0.2,0.2-0.3l70.2-47.6c0.2-0.2,0.5-0.2,0.6,0
			c0.2,0.2,0.2,0.5,0,0.6h-0.2l-70,47.6L78.1,197.9z"/>
	</g>
	<g id="mask-143_2_">
		
			<radialGradient id="SVGID_18_" cx="775.2838" cy="-13832.8955" r="77.2264" gradientTransform="matrix(1.000000e-02 -0.33 0.32 1.000000e-02 4578.5947 510.2511)" gradientUnits="userSpaceOnUse">
			<stop  offset="6.000000e-02" style="stop-color:#FFFFFF"/>
			<stop  offset="1" style="stop-color:#000000"/>
		</radialGradient>
		<path class="st21" d="M94.5,193.8c-0.2,0-0.4-0.2-0.4-0.5c0-0.1,0.1-0.2,0.1-0.3l53.8-43.5c0.2-0.2,0.5-0.2,0.6,0
			c0.2,0.2,0.2,0.5,0,0.6l0,0l-53.9,43.6C94.6,193.8,94.5,193.8,94.5,193.8z"/>
	</g>
	<g id="mask-142_2_">
		
			<radialGradient id="SVGID_19_" cx="1727.7079" cy="-13900.3164" r="94.2774" gradientTransform="matrix(-2.000000e-02 -0.33 0.32 -2.000000e-02 4615.4155 492.4678)" gradientUnits="userSpaceOnUse">
			<stop  offset="6.000000e-02" style="stop-color:#FFFFFF"/>
			<stop  offset="1" style="stop-color:#000000"/>
		</radialGradient>
		<path class="st22" d="M87,208.9c-0.2,0-0.4-0.2-0.4-0.4c0-0.1,0-0.2,0.1-0.3l61.3-58.6c0.2-0.2,0.4-0.2,0.6,0
			c0.2,0.2,0.2,0.4,0,0.6h-0.1l-61.2,58.7C87.2,208.9,87.1,208.9,87,208.9z"/>
	</g>
	<g id="mask-141_2_">
		
			<radialGradient id="SVGID_20_" cx="2566.5254" cy="-13555.5254" r="77.2526" gradientTransform="matrix(-5.000000e-02 -0.32 0.31 -5.000000e-02 4653.7744 461.9044)" gradientUnits="userSpaceOnUse">
			<stop  offset="6.000000e-02" style="stop-color:#FFFFFF"/>
			<stop  offset="1" style="stop-color:#000000"/>
		</radialGradient>
		<path class="st23" d="M102.3,202.2c-0.2,0-0.4-0.2-0.4-0.4c0-0.1,0-0.2,0-0.3l46.1-52c0.1-0.2,0.4-0.3,0.6-0.2
			c0.2,0.1,0.3,0.4,0.2,0.6v0.1l-46.1,51.9C102.6,202.2,102.4,202.2,102.3,202.2z"/>
	</g>
	<g id="mask-140_2_">
		
			<radialGradient id="SVGID_21_" cx="3969.8452" cy="-13460.1943" r="94.2774" gradientTransform="matrix(-7.000000e-02 -0.32 0.31 -7.000000e-02 4673.0244 439.4123)" gradientUnits="userSpaceOnUse">
			<stop  offset="6.000000e-02" style="stop-color:#FFFFFF"/>
			<stop  offset="1" style="stop-color:#000000"/>
		</radialGradient>
		<path class="st24" d="M97.4,218.3c-0.2,0-0.4-0.2-0.4-0.5l0,0c0-0.1,0-0.2,0-0.2l50.9-68.1c0.2-0.2,0.4-0.2,0.6,0
			c0.1,0.1,0.1,0.3,0,0.4l-50.8,68.2C97.6,218.2,97.5,218.3,97.4,218.3z"/>
	</g>
	<g id="mask-139_2_">
		
			<radialGradient id="SVGID_22_" cx="4808.5234" cy="-13194.0029" r="77.2526" gradientTransform="matrix(-0.1 -0.31 0.3 -0.1 4706.9932 410.499)" gradientUnits="userSpaceOnUse">
			<stop  offset="6.000000e-02" style="stop-color:#FFFFFF"/>
			<stop  offset="1" style="stop-color:#000000"/>
		</radialGradient>
		<path class="st25" d="M111.5,209.2h-0.2c-0.2-0.2-0.2-0.4,0-0.6l36.6-59c0.2-0.2,0.5-0.2,0.6,0c0.1,0.1,0.1,0.3,0,0.5L111.8,209
			C111.7,209,111.6,209.1,111.5,209.2z"/>
	</g>
	<g id="mask-138_2_">
		
			<radialGradient id="SVGID_23_" cx="5933.9536" cy="-12667.6084" r="94.2774" gradientTransform="matrix(-0.12 -0.3 0.29 -0.12 4726.0923 376.9268)" gradientUnits="userSpaceOnUse">
			<stop  offset="6.000000e-02" style="stop-color:#FFFFFF"/>
			<stop  offset="1" style="stop-color:#000000"/>
		</radialGradient>
		<path class="st26" d="M109.3,225.9H109c-0.2-0.1-0.3-0.4-0.2-0.6l39-75.7c0.2-0.2,0.5-0.2,0.6,0c0.1,0.1,0.1,0.3,0,0.4l-38.9,75.7
			C109.5,225.8,109.4,225.9,109.3,225.9z"/>
	</g>
	<g id="mask-137_2_">
		
			<radialGradient id="SVGID_24_" cx="6837.9346" cy="-12486.7207" r="77.2526" gradientTransform="matrix(-0.15 -0.29 0.28 -0.15 4754.9707 348.6035)" gradientUnits="userSpaceOnUse">
			<stop  offset="6.000000e-02" style="stop-color:#FFFFFF"/>
			<stop  offset="1" style="stop-color:#000000"/>
		</radialGradient>
		<path class="st27" d="M121.6,214.5h-0.2c-0.2-0.1-0.3-0.4-0.2-0.6l26.6-64.3c0.1-0.2,0.4-0.3,0.6-0.2c0.2,0.1,0.3,0.3,0.2,0.5
			L122,214.2C121.9,214.4,121.7,214.5,121.6,214.5z"/>
	</g>
	<g id="mask-136_2_">
		
			<radialGradient id="SVGID_25_" cx="7976.6753" cy="-11911.5498" r="94.2774" gradientTransform="matrix(-0.17 -0.28 0.27 -0.17 4769.2798 317.5513)" gradientUnits="userSpaceOnUse">
			<stop  offset="6.000000e-02" style="stop-color:#FFFFFF"/>
			<stop  offset="1" style="stop-color:#000000"/>
		</radialGradient>
		<path class="st28" d="M122.2,231.3L122.2,231.3c-0.2-0.1-0.4-0.3-0.3-0.5l26.2-81.1c0.1-0.2,0.4-0.3,0.6-0.2
			c0.2,0.1,0.3,0.3,0.2,0.4L122.7,231C122.6,231.2,122.4,231.4,122.2,231.3z"/>
	</g>
	<g id="mask-135_2_">
		
			<radialGradient id="SVGID_26_" cx="8698.0781" cy="-11150.4375" r="77.2526" gradientTransform="matrix(-0.19 -0.26 0.25 -0.19 4784.8379 275.4391)" gradientUnits="userSpaceOnUse">
			<stop  offset="6.000000e-02" style="stop-color:#FFFFFF"/>
			<stop  offset="1" style="stop-color:#000000"/>
		</radialGradient>
		<path class="st29" d="M132.5,218L132.5,218c-0.2-0.1-0.4-0.3-0.3-0.5l15.7-67.8c0.1-0.2,0.4-0.3,0.6-0.2l0,0
			c0.1,0.1,0.2,0.2,0.2,0.4L133,217.7C132.9,217.9,132.7,218.1,132.5,218z"/>
	</g>
	<g id="mask-134_2_">
		
			<radialGradient id="SVGID_27_" cx="10002.9883" cy="-11156.9375" r="94.2774" gradientTransform="matrix(-0.22 -0.25 0.25 -0.22 4800.5771 251.3957)" gradientUnits="userSpaceOnUse">
			<stop  offset="6.000000e-02" style="stop-color:#FFFFFF"/>
			<stop  offset="1" style="stop-color:#000000"/>
		</radialGradient>
		<path class="st30" d="M135.7,234.5L135.7,234.5c-0.2,0-0.4-0.3-0.4-0.5l12.5-84.3c0.1-0.2,0.3-0.4,0.6-0.3c0.1,0,0.2,0.1,0.3,0.3
			L136.1,234C136.2,234.3,136,234.5,135.7,234.5L135.7,234.5z"/>
	</g>
	<g id="mask-133_2_">
		
			<radialGradient id="SVGID_28_" cx="10806.918" cy="-10379.8857" r="77.2526" gradientTransform="matrix(-0.24 -0.23 0.23 -0.24 4813.3052 212.2536)" gradientUnits="userSpaceOnUse">
			<stop  offset="6.000000e-02" style="stop-color:#FFFFFF"/>
			<stop  offset="1" style="stop-color:#000000"/>
		</radialGradient>
		<path class="st31" d="M143.7,219.7L143.7,219.7c-0.2,0-0.4-0.2-0.4-0.5l4.5-69.5c0.1-0.2,0.3-0.4,0.6-0.3c0.1,0,0.2,0.1,0.3,0.3
			l-4.6,69.6C144.1,219.6,144,219.7,143.7,219.7z"/>
	</g>
	<g id="mask-132_2_">
		
			<radialGradient id="SVGID_29_" cx="11089.4082" cy="-9319.0029" r="94.2774" gradientTransform="matrix(-0.25 -0.2 0.2 -0.25 4817.6523 149.0224)" gradientUnits="userSpaceOnUse">
			<stop  offset="6.000000e-02" style="stop-color:#FFFFFF"/>
			<stop  offset="1" style="stop-color:#000000"/>
		</radialGradient>
		<path class="st32" d="M148.7,149L148.7,149c0.2,0,0.4,0.2,0.4,0.4l1.7,85.2c0,0.2-0.2,0.4-0.4,0.4l0,0c-0.2,0-0.4-0.2-0.4-0.4
			l-1.7-85.1C148.2,149.3,148.4,149.1,148.7,149C148.6,149,148.7,149,148.7,149z"/>
	</g>
	<g id="mask-131_2_">
		
			<radialGradient id="SVGID_30_" cx="11960.1309" cy="-8240.8457" r="77.2264" gradientTransform="matrix(-0.26 -0.19 0.19 -0.27 4808.4414 134.6902)" gradientUnits="userSpaceOnUse">
			<stop  offset="6.000000e-02" style="stop-color:#FFFFFF"/>
			<stop  offset="1" style="stop-color:#000000"/>
		</radialGradient>
		<path class="st33" d="M155.2,219.5c-0.2,0-0.4-0.2-0.4-0.4l-7-69.3c0.1-0.2,0.3-0.4,0.6-0.3c0.1,0,0.2,0.1,0.3,0.3l6.9,69.3
			C155.6,219.4,155.4,219.6,155.2,219.5L155.2,219.5z"/>
	</g>
	<g id="mask-130_2_">
		
			<radialGradient id="SVGID_31_" cx="12145.8291" cy="-7324.0562" r="94.2774" gradientTransform="matrix(-0.27 -0.16 0.16 -0.28 4808.7178 86.0891)" gradientUnits="userSpaceOnUse">
			<stop  offset="6.000000e-02" style="stop-color:#FFFFFF"/>
			<stop  offset="1" style="stop-color:#000000"/>
		</radialGradient>
		<path class="st34" d="M163.6,234.1c-0.2,0-0.4-0.2-0.4-0.4L147.8,150c0-0.2,0.2-0.4,0.5-0.4c0.1,0,0.3,0.1,0.3,0.2l15.4,83.7
			C164.1,233.8,163.9,234,163.6,234.1L163.6,234.1z"/>
	</g>
	<g id="mask-129_2_">
		
			<radialGradient id="SVGID_32_" cx="12996.4424" cy="-6496.0371" r="77.2526" gradientTransform="matrix(-0.29 -0.14 0.14 -0.3 4813.1958 56.0169)" gradientUnits="userSpaceOnUse">
			<stop  offset="6.000000e-02" style="stop-color:#FFFFFF"/>
			<stop  offset="1" style="stop-color:#000000"/>
		</radialGradient>
		<path class="st35" d="M166.4,217.5c-0.2,0-0.4-0.1-0.4-0.3L147.8,150c0-0.2,0.2-0.4,0.5-0.4c0.1,0,0.3,0.1,0.4,0.2l18.1,67.2
			C166.8,217.2,166.7,217.5,166.4,217.5L166.4,217.5z"/>
	</g>
	<g id="mask-128_2_">
		
			<radialGradient id="SVGID_33_" cx="13270.1309" cy="-5659.6567" r="94.2774" gradientTransform="matrix(-0.3 -0.11 0.11 -0.31 4811.3423 10.4158)" gradientUnits="userSpaceOnUse">
			<stop  offset="6.000000e-02" style="stop-color:#FFFFFF"/>
			<stop  offset="1" style="stop-color:#000000"/>
		</radialGradient>
		<path class="st36" d="M177.1,230.4c-0.2,0-0.4-0.1-0.4-0.3L147.9,150c0-0.2,0.2-0.4,0.4-0.5c0.2,0,0.3,0.1,0.4,0.2l28.8,80.1
			c0.1,0.2,0,0.5-0.3,0.5L177.1,230.4z"/>
	</g>
	<g id="mask-127_2_">
		
			<radialGradient id="SVGID_34_" cx="13817.9229" cy="-4439.1123" r="77.2526" gradientTransform="matrix(-0.31 -9.000000e-02 9.000000e-02 -0.32 4802.4502 -20.3853)" gradientUnits="userSpaceOnUse">
			<stop  offset="6.000000e-02" style="stop-color:#FFFFFF"/>
			<stop  offset="1" style="stop-color:#000000"/>
		</radialGradient>
		<path class="st37" d="M177.1,213.5c-0.2,0-0.3-0.1-0.4-0.3L148,150c0-0.2,0.1-0.5,0.3-0.5s0.3,0,0.4,0.2l28.8,63.3
			c0.1,0.2,0,0.5-0.2,0.6L177.1,213.5z"/>
	</g>
	<g id="mask-126_2_">
		
			<radialGradient id="SVGID_35_" cx="13765.3047" cy="-3440.583" r="94.2774" gradientTransform="matrix(-0.31 -6.000000e-02 6.000000e-02 -0.32 4785.3965 -64.7953)" gradientUnits="userSpaceOnUse">
			<stop  offset="6.000000e-02" style="stop-color:#FFFFFF"/>
			<stop  offset="1" style="stop-color:#000000"/>
		</radialGradient>
		<path class="st38" d="M189.8,224.4c-0.2,0-0.3-0.1-0.4-0.2L147.9,150c-0.1-0.2,0.1-0.5,0.3-0.5l0,0c0.1-0.1,0.3-0.1,0.4,0
			l41.6,74.2c0.1,0.2,0.1,0.5-0.2,0.6L189.8,224.4z"/>
	</g>
	<g id="mask-125_2_">
		
			<radialGradient id="SVGID_36_" cx="14183.1875" cy="-2529.0898" r="77.2526" gradientTransform="matrix(-0.32 -3.000000e-02 3.000000e-02 -0.33 4780.5532 -101.8064)" gradientUnits="userSpaceOnUse">
			<stop  offset="6.000000e-02" style="stop-color:#FFFFFF"/>
			<stop  offset="1" style="stop-color:#000000"/>
		</radialGradient>
		<path class="st39" d="M187.1,207.8c-0.1,0-0.3-0.1-0.4-0.2L147.9,150c-0.1-0.2,0.1-0.4,0.3-0.5c0.1-0.1,0.3-0.1,0.4,0l38.8,57.5
			c0.1,0.2,0.1,0.5-0.1,0.6L187.1,207.8z"/>
	</g>
	<g id="mask-124_2_">
		
			<radialGradient id="SVGID_37_" cx="14202.9639" cy="-1182.468" r="94.2774" gradientTransform="matrix(-0.32 -1.000000e-02 1.000000e-02 -0.33 4757.8008 -129.1064)" gradientUnits="userSpaceOnUse">
			<stop  offset="6.000000e-02" style="stop-color:#FFFFFF"/>
			<stop  offset="1" style="stop-color:#000000"/>
		</radialGradient>
		<path class="st40" d="M201.5,216.5c-0.1,0-0.3-0.1-0.3-0.2L148,150c-0.1-0.2,0-0.5,0.2-0.6s0.3-0.1,0.5,0l53.1,66.4
			c0.2,0.2,0.2,0.5,0,0.6C201.6,216.6,201.6,216.6,201.5,216.5L201.5,216.5z"/>
	</g>
	<g id="mask-123_2_">
		
			<radialGradient id="SVGID_38_" cx="14238.582" cy="-185.948" r="77.2526" gradientTransform="matrix(-0.32 2.000000e-02 -2.000000e-02 -0.33 4740.4277 -166.5164)" gradientUnits="userSpaceOnUse">
			<stop  offset="6.000000e-02" style="stop-color:#FFFFFF"/>
			<stop  offset="1" style="stop-color:#000000"/>
		</radialGradient>
		<path class="st41" d="M196,200.6c-0.1,0-0.2,0-0.3,0L148,150.2c-0.1-0.2-0.1-0.5,0.1-0.6c0.1-0.1,0.3-0.1,0.5,0l47.8,50.3
			c0.2,0.2,0.2,0.5,0,0.6c-0.1,0-0.2,0-0.3,0L196,200.6z"/>
	</g>
	<g id="mask-122_2_">
		
			<radialGradient id="SVGID_39_" cx="13899.334" cy="679.9901" r="94.2774" gradientTransform="matrix(-0.31 5.000000e-02 -5.000000e-02 -0.32 4710.2344 -204.5353)" gradientUnits="userSpaceOnUse">
			<stop  offset="6.000000e-02" style="stop-color:#FFFFFF"/>
			<stop  offset="1" style="stop-color:#000000"/>
		</radialGradient>
		<path class="st42" d="M211.5,206.7c-0.1,0-0.2,0-0.3,0L148,150.2c-0.2-0.1-0.3-0.4-0.2-0.6c0.1-0.2,0.4-0.3,0.6-0.2h0.1l63.2,56.6
			c0.2,0.2,0.2,0.5,0,0.6C211.6,206.6,211.5,206.6,211.5,206.7L211.5,206.7z"/>
	</g>
	<g id="mask-121_2_">
		
			<radialGradient id="SVGID_40_" cx="13811.2559" cy="2062.7661" r="77.2526" gradientTransform="matrix(-0.31 7.000000e-02 -7.000000e-02 -0.32 4688.0122 -224.1353)" gradientUnits="userSpaceOnUse">
			<stop  offset="6.000000e-02" style="stop-color:#FFFFFF"/>
			<stop  offset="1" style="stop-color:#000000"/>
		</radialGradient>
		<path class="st43" d="M203.5,191.9h-0.3L148,150.1c-0.2-0.1-0.3-0.4-0.2-0.6c0.1-0.2,0.4-0.3,0.6-0.2l0,0l55.4,41.8
			c0.2,0.2,0.2,0.5,0,0.6C203.7,191.9,203.6,191.9,203.5,191.9z"/>
	</g>
	<g id="mask-120_2_">
		
			<radialGradient id="SVGID_41_" cx="13521.751" cy="2901.2856" r="94.2774" gradientTransform="matrix(-0.3 0.1 -0.1 -0.31 4658.519 -257.5142)" gradientUnits="userSpaceOnUse">
			<stop  offset="6.000000e-02" style="stop-color:#FFFFFF"/>
			<stop  offset="1" style="stop-color:#000000"/>
		</radialGradient>
		<path class="st44" d="M219.8,195.4h-0.2L148,150.2c-0.2-0.1-0.3-0.3-0.3-0.6l0,0c0.1-0.2,0.3-0.3,0.6-0.3l0,0h0.2l71.6,45.3
			c0.2,0.2,0.2,0.4,0,0.6C220,195.3,219.9,195.4,219.8,195.4L219.8,195.4z"/>
	</g>
	<g id="mask-119_2_">
		
			<radialGradient id="SVGID_42_" cx="13321.6025" cy="3806.4465" r="77.2526" gradientTransform="matrix(-0.29 0.13 -0.13 -0.3 4630.4258 -288.3631)" gradientUnits="userSpaceOnUse">
			<stop  offset="6.000000e-02" style="stop-color:#FFFFFF"/>
			<stop  offset="1" style="stop-color:#000000"/>
		</radialGradient>
		<path class="st45" d="M209.6,182.2h-0.2l-61.3-32c-0.2-0.1-0.4-0.3-0.3-0.6c0.1-0.2,0.2-0.3,0.4-0.3c0.1,0,0.1,0,0.2,0l61.3,31.9
			c0.2,0.2,0.2,0.4,0,0.6c-0.1,0.1-0.2,0.2-0.3,0.2L209.6,182.2z"/>
	</g>
	<g id="mask-118_2_">
		
			<radialGradient id="SVGID_43_" cx="12790.3389" cy="4924.5303" r="94.2774" gradientTransform="matrix(-0.28 0.15 -0.15 -0.29 4598.4834 -304.802)" gradientUnits="userSpaceOnUse">
			<stop  offset="6.000000e-02" style="stop-color:#FFFFFF"/>
			<stop  offset="1" style="stop-color:#000000"/>
		</radialGradient>
		<path class="st46" d="M226.3,182.9h-0.2l-78-32.7c-0.2-0.1-0.4-0.3-0.3-0.5c0.1-0.2,0.3-0.4,0.5-0.3l0,0l78.1,32.8
			c0.2,0.1,0.3,0.4,0.2,0.6l0,0c-0.1,0.1-0.2,0.2-0.3,0.2L226.3,182.9z"/>
	</g>
	<g id="mask-117_2_">
		
			<radialGradient id="SVGID_44_" cx="12234.9014" cy="6054.8403" r="77.2526" gradientTransform="matrix(-0.27 0.17 -0.17 -0.28 4567.4614 -318.9609)" gradientUnits="userSpaceOnUse">
			<stop  offset="6.000000e-02" style="stop-color:#FFFFFF"/>
			<stop  offset="1" style="stop-color:#000000"/>
		</radialGradient>
		<path class="st47" d="M213.9,171.5L213.9,171.5l-65.8-21.3c-0.2-0.1-0.4-0.3-0.3-0.5c0-0.2,0.2-0.3,0.3-0.3h0.1l65.8,21.3
			c0.2,0.1,0.4,0.3,0.3,0.6c0,0.1-0.1,0.2-0.3,0.3L213.9,171.5z"/>
	</g>
	<g id="mask-116_2_">
		
			<radialGradient id="SVGID_45_" cx="11844.6084" cy="6725.0552" r="94.2774" gradientTransform="matrix(-0.25 0.2 -0.2 -0.26 4529.8779 -345.8687)" gradientUnits="userSpaceOnUse">
			<stop  offset="6.000000e-02" style="stop-color:#FFFFFF"/>
			<stop  offset="1" style="stop-color:#000000"/>
		</radialGradient>
		<path class="st48" d="M230.5,169.5L230.5,169.5l-82.2-19.2c-0.2,0-0.4-0.2-0.4-0.4s0.2-0.4,0.4-0.4h0.2l82.2,19.2
			c0.2,0.1,0.4,0.3,0.3,0.5c0,0.2-0.2,0.3-0.3,0.3L230.5,169.5z"/>
	</g>
	<g id="mask-115_2_">
		
			<radialGradient id="SVGID_46_" cx="11363.2715" cy="8018.9009" r="77.2264" gradientTransform="matrix(-0.25 0.22 -0.22 -0.25 4512.8857 -356.1076)" gradientUnits="userSpaceOnUse">
			<stop  offset="6.000000e-02" style="stop-color:#FFFFFF"/>
			<stop  offset="1" style="stop-color:#000000"/>
		</radialGradient>
		<path class="st49" d="M216.6,160.3L216.6,160.3l-68.4-10c-0.2,0.1-0.5-0.1-0.5-0.3c-0.1-0.2,0.1-0.5,0.3-0.5h0.2l68.3,10
			c0.2,0.1,0.4,0.3,0.3,0.5C216.8,160.1,216.6,160.3,216.6,160.3L216.6,160.3z"/>
	</g>
	<g id="mask-114_2_">
		
			<radialGradient id="SVGID_47_" cx="10579.8535" cy="8785.8799" r="94.2774" gradientTransform="matrix(-0.23 0.24 -0.24 -0.23 4474.4736 -367.5353)" gradientUnits="userSpaceOnUse">
			<stop  offset="6.000000e-02" style="stop-color:#FFFFFF"/>
			<stop  offset="1" style="stop-color:#000000"/>
		</radialGradient>
		<path class="st50" d="M232.6,155.5L232.6,155.5l-84.3-5.2c-0.2,0.1-0.5-0.1-0.5-0.3c-0.1-0.2,0.1-0.5,0.3-0.5h0.2l84.3,5.2
			c0.2,0.1,0.4,0.3,0.3,0.5C232.8,155.3,232.7,155.5,232.6,155.5L232.6,155.5z"/>
	</g>
	<g id="mask-113_2_">
		
			<radialGradient id="SVGID_48_" cx="9510.9873" cy="9489.3721" r="77.2526" gradientTransform="matrix(-0.21 0.25 -0.25 -0.21 4434.2124 -366.8732)" gradientUnits="userSpaceOnUse">
			<stop  offset="6.000000e-02" style="stop-color:#FFFFFF"/>
			<stop  offset="1" style="stop-color:#000000"/>
		</radialGradient>
		<path class="st51" d="M148.3,150.3c-0.2-0.1-0.4-0.3-0.3-0.5c0-0.2,0.2-0.3,0.3-0.3l69-1.5l0,0c0.2,0.1,0.4,0.3,0.3,0.5
			c0,0.2-0.2,0.3-0.3,0.3L148.3,150.3z"/>
	</g>
	<g id="mask-112_2_">
		
			<radialGradient id="SVGID_49_" cx="8678.3535" cy="9671.9932" r="94.2774" gradientTransform="matrix(-0.18 0.27 -0.26 -0.18 4381.7114 -379.0898)" gradientUnits="userSpaceOnUse">
			<stop  offset="6.000000e-02" style="stop-color:#FFFFFF"/>
			<stop  offset="1" style="stop-color:#000000"/>
		</radialGradient>
		<path class="st52" d="M148.3,150.3c-0.2-0.1-0.4-0.3-0.3-0.5c0-0.2,0.2-0.3,0.3-0.3l84-8.7c0.2-0.1,0.5,0.1,0.5,0.3
			c0.1,0.2-0.1,0.5-0.3,0.5h-0.2L148.3,150.3L148.3,150.3z"/>
	</g>
	<g id="mask-111_2_">
		
			<radialGradient id="SVGID_50_" cx="7781.8838" cy="10542.4062" r="77.2526" gradientTransform="matrix(-0.16 0.28 -0.28 -0.16 4349.1094 -374.0176)" gradientUnits="userSpaceOnUse">
			<stop  offset="6.000000e-02" style="stop-color:#FFFFFF"/>
			<stop  offset="1" style="stop-color:#000000"/>
		</radialGradient>
		<path class="st53" d="M148.3,150.3c-0.2-0.1-0.4-0.3-0.3-0.5c0-0.2,0.2-0.3,0.3-0.3l67.8-13.1c0.2-0.1,0.5,0,0.5,0.3
			c0.1,0.2,0,0.5-0.3,0.6l0,0h-0.1l-67.8,13.1L148.3,150.3z"/>
	</g>
	<g id="mask-110_2_">
		
			<radialGradient id="SVGID_51_" cx="6743.7163" cy="11012.1865" r="94.2774" gradientTransform="matrix(-0.14 0.3 -0.29 -0.14 4313.5381 -379.1454)" gradientUnits="userSpaceOnUse">
			<stop  offset="6.000000e-02" style="stop-color:#FFFFFF"/>
			<stop  offset="1" style="stop-color:#000000"/>
		</radialGradient>
		<path class="st54" d="M148.3,150.3c-0.2-0.1-0.4-0.3-0.3-0.5c0-0.2,0.2-0.3,0.3-0.3l81.4-22.7c0.2-0.1,0.5,0,0.6,0.2l0,0
			c0.1,0.2,0,0.5-0.2,0.6h-0.2l-81.5,22.8L148.3,150.3z"/>
	</g>
	<g id="mask-109_2_">
		
			<radialGradient id="SVGID_52_" cx="5873.8071" cy="11344.8604" r="77.2526" gradientTransform="matrix(-0.11 0.31 -0.3 -0.11 4268.5869 -375.4821)" gradientUnits="userSpaceOnUse">
			<stop  offset="6.000000e-02" style="stop-color:#FFFFFF"/>
			<stop  offset="1" style="stop-color:#000000"/>
		</radialGradient>
		<path class="st55" d="M148.3,150.3c-0.2,0-0.4-0.2-0.4-0.5c0-0.1,0.1-0.3,0.2-0.3l64.6-24.1c0.2-0.2,0.4-0.2,0.6,0
			c0.2,0.2,0.2,0.4,0,0.6h-0.2l-64.7,24L148.3,150.3z"/>
	</g>
	<g id="mask-108_2_">
		
			<radialGradient id="SVGID_53_" cx="4672.4507" cy="11801.916" r="94.2774" gradientTransform="matrix(-9.000000e-02 0.32 -0.31 -9.000000e-02 4238.416 -367.0799)" gradientUnits="userSpaceOnUse">
			<stop  offset="6.000000e-02" style="stop-color:#FFFFFF"/>
			<stop  offset="1" style="stop-color:#000000"/>
		</radialGradient>
		<path class="st56" d="M148.3,150.3c-0.2,0-0.4-0.2-0.4-0.5c0-0.2,0.1-0.3,0.2-0.4l76.5-36c0.2-0.2,0.4-0.2,0.6,0
			c0.2,0.2,0.2,0.5,0,0.6H225l-76.6,36.1L148.3,150.3z"/>
	</g>
	<g id="mask-107_2_">
		
			<radialGradient id="SVGID_54_" cx="3684.2703" cy="11831.7119" r="77.2264" gradientTransform="matrix(-6.000000e-02 0.32 -0.31 -6.000000e-02 4193.8457 -349.6266)" gradientUnits="userSpaceOnUse">
			<stop  offset="6.000000e-02" style="stop-color:#FFFFFF"/>
			<stop  offset="1" style="stop-color:#000000"/>
		</radialGradient>
		<path class="st57" d="M148.3,150.3c-0.2,0-0.4-0.2-0.4-0.5c0-0.1,0.1-0.3,0.2-0.3L208,115c0.2-0.2,0.5-0.2,0.6,0
			c0.2,0.2,0.2,0.5,0,0.6h-0.2l-60,34.7H148.3z"/>
	</g>
	<g id="mask-106_2_">
		
			<radialGradient id="SVGID_55_" cx="2717.4304" cy="12190.3896" r="94.2774" gradientTransform="matrix(-3.000000e-02 0.33 -0.32 -3.000000e-02 4156.7046 -343.5233)" gradientUnits="userSpaceOnUse">
			<stop  offset="6.000000e-02" style="stop-color:#FFFFFF"/>
			<stop  offset="1" style="stop-color:#000000"/>
		</radialGradient>
		<path class="st58" d="M148.3,150.3c-0.2,0-0.4-0.2-0.4-0.5c0-0.1,0.1-0.2,0.2-0.3l69.6-48.3c0.2-0.2,0.5-0.2,0.6,0
			c0.2,0.2,0.2,0.5,0,0.6h-0.2l-69.6,48.3L148.3,150.3z"/>
	</g>
	<g id="mask-105_2_">
		
			<radialGradient id="SVGID_56_" cx="1418.9535" cy="12205.2988" r="77.2264" gradientTransform="matrix(-1.000000e-02 0.33 -0.32 -1.000000e-02 4129.2646 -321.0511)" gradientUnits="userSpaceOnUse">
			<stop  offset="6.000000e-02" style="stop-color:#FFFFFF"/>
			<stop  offset="1" style="stop-color:#000000"/>
		</radialGradient>
		<path class="st59" d="M148.3,150.3c-0.2,0-0.4-0.2-0.4-0.5c0-0.1,0.1-0.2,0.1-0.3l53.5-44.1c0.2-0.2,0.5-0.2,0.6,0
			c0.2,0.2,0.2,0.5,0,0.6l0,0l-53.5,44.2C148.5,150.2,148.4,150.3,148.3,150.3z"/>
	</g>
	<g id="mask-104_2_">
		
			<radialGradient id="SVGID_57_" cx="402.2097" cy="12210.0254" r="94.2774" gradientTransform="matrix(2.000000e-02 0.33 -0.32 2.000000e-02 4093.3748 -303.1278)" gradientUnits="userSpaceOnUse">
			<stop  offset="6.000000e-02" style="stop-color:#FFFFFF"/>
			<stop  offset="1" style="stop-color:#000000"/>
		</radialGradient>
		<path class="st60" d="M148.3,150.3c-0.2,0-0.4-0.2-0.4-0.5c0-0.1,0-0.2,0.1-0.3l60.8-59.2c0.2-0.1,0.5-0.1,0.6,0.2
			c0.1,0.1,0.1,0.3,0,0.5l-60.8,59.2C148.5,150.2,148.4,150.2,148.3,150.3z"/>
	</g>
	<g id="mask-103_2_">
		
			<radialGradient id="SVGID_58_" cx="-466.2829" cy="11971.4385" r="77.2526" gradientTransform="matrix(5.000000e-02 0.32 -0.31 5.000000e-02 4055.2957 -272.3145)" gradientUnits="userSpaceOnUse">
			<stop  offset="6.000000e-02" style="stop-color:#FFFFFF"/>
			<stop  offset="1" style="stop-color:#000000"/>
		</radialGradient>
		<path class="st61" d="M148.3,150.3c-0.2,0-0.4-0.2-0.4-0.5l0,0c0-0.1,0-0.2,0-0.2l45.6-52.3c0.2-0.2,0.4-0.2,0.6,0
			c0.1,0.2,0.1,0.3,0,0.5L148.5,150C148.5,150.1,148.4,150.2,148.3,150.3z"/>
	</g>
	<g id="mask-102_2_">
		
			<radialGradient id="SVGID_59_" cx="-1813.9023" cy="11774.6963" r="94.2774" gradientTransform="matrix(7.000000e-02 0.32 -0.31 7.000000e-02 4034.876 -250.2323)" gradientUnits="userSpaceOnUse">
			<stop  offset="6.000000e-02" style="stop-color:#FFFFFF"/>
			<stop  offset="1" style="stop-color:#000000"/>
		</radialGradient>
		<path class="st62" d="M148.3,150.3c-0.2,0-0.4-0.2-0.4-0.4c0-0.1,0-0.2,0-0.2l50.3-68.5c0.2-0.2,0.5-0.2,0.6,0s0.1,0.4,0,0.5
			l-50.2,68.5C148.5,150.2,148.4,150.3,148.3,150.3z"/>
	</g>
	<g id="mask-101_2_">
		
			<radialGradient id="SVGID_60_" cx="-2672.8269" cy="11553.6328" r="77.2526" gradientTransform="matrix(0.1 0.31 -0.3 0.1 4002.3071 -220.879)" gradientUnits="userSpaceOnUse">
			<stop  offset="6.000000e-02" style="stop-color:#FFFFFF"/>
			<stop  offset="1" style="stop-color:#000000"/>
		</radialGradient>
		<path class="st63" d="M148.3,150.3H148c-0.2-0.2-0.2-0.4,0-0.6l36.2-59.3c0.2-0.2,0.5-0.2,0.6,0c0.1,0.1,0.1,0.3,0,0.4L148.6,150
			C148.5,150.2,148.4,150.2,148.3,150.3z"/>
	</g>
	<g id="mask-100_2_">
		
			<radialGradient id="SVGID_61_" cx="-3615.6924" cy="11325.875" r="94.2774" gradientTransform="matrix(0.13 0.3 -0.29 0.13 3971.5479 -192.0857)" gradientUnits="userSpaceOnUse">
			<stop  offset="6.000000e-02" style="stop-color:#FFFFFF"/>
			<stop  offset="1" style="stop-color:#000000"/>
		</radialGradient>
		<path class="st64" d="M148.3,150.3h-0.2c-0.2-0.1-0.3-0.4-0.2-0.6l38.4-76c0.2-0.2,0.4-0.2,0.6,0c0.2,0.1,0.2,0.3,0.2,0.5
			L148.6,150C148.5,150.2,148.4,150.2,148.3,150.3z"/>
	</g>
	<g id="mask-99_2_">
		
			<radialGradient id="SVGID_62_" cx="-4706.8032" cy="10795.3203" r="77.2526" gradientTransform="matrix(0.15 0.29 -0.28 0.15 3955.2588 -159.4735)" gradientUnits="userSpaceOnUse">
			<stop  offset="6.000000e-02" style="stop-color:#FFFFFF"/>
			<stop  offset="1" style="stop-color:#000000"/>
		</radialGradient>
		<path class="st65" d="M148.3,150.3h-0.2c-0.2-0.1-0.3-0.4-0.2-0.6L174,85.2c0.1-0.2,0.4-0.3,0.6-0.2c0.2,0.1,0.3,0.3,0.2,0.5
			L148.7,150C148.6,150.1,148.4,150.3,148.3,150.3z"/>
	</g>
	<g id="mask-98_2_">
		
			<radialGradient id="SVGID_63_" cx="-5805.7266" cy="10164.9404" r="94.2774" gradientTransform="matrix(0.17 0.28 -0.27 0.17 3941.2805 -128.5913)" gradientUnits="userSpaceOnUse">
			<stop  offset="6.000000e-02" style="stop-color:#FFFFFF"/>
			<stop  offset="1" style="stop-color:#000000"/>
		</radialGradient>
		<path class="st66" d="M148.3,150.3L148.3,150.3c-0.2-0.1-0.4-0.3-0.3-0.5l25.2-81.2c0.1-0.2,0.4-0.3,0.6-0.2
			c0.2,0.1,0.3,0.3,0.2,0.4L148.6,150C148.6,150.2,148.4,150.2,148.3,150.3z"/>
	</g>
	<g id="mask-97_2_">
		
			<radialGradient id="SVGID_64_" cx="-6533.3711" cy="9853.6865" r="77.2526" gradientTransform="matrix(0.2 0.26 -0.25 0.2 3913.0225 -91.0979)" gradientUnits="userSpaceOnUse">
			<stop  offset="6.000000e-02" style="stop-color:#FFFFFF"/>
			<stop  offset="1" style="stop-color:#000000"/>
		</radialGradient>
		<path class="st67" d="M148.3,150.3L148.3,150.3c-0.2-0.1-0.4-0.3-0.3-0.5l15.3-68c0.1-0.2,0.4-0.3,0.6-0.2l0,0
			c0.1,0.1,0.2,0.2,0.2,0.4l-15.4,68C148.6,150.1,148.5,150.2,148.3,150.3z"/>
	</g>
	<g id="mask-96_2_">
		
			<radialGradient id="SVGID_65_" cx="-7445.7832" cy="9293.2441" r="94.2774" gradientTransform="matrix(0.22 0.24 -0.24 0.22 3905.1033 -51.0257)" gradientUnits="userSpaceOnUse">
			<stop  offset="6.000000e-02" style="stop-color:#FFFFFF"/>
			<stop  offset="1" style="stop-color:#000000"/>
		</radialGradient>
		<path class="st68" d="M148.3,150.3L148.3,150.3c-0.2,0-0.4-0.3-0.4-0.5l11.7-84.4c0.1-0.2,0.3-0.4,0.6-0.3c0.1,0,0.2,0.1,0.3,0.3
			l-11.8,84.4C148.7,150,148.5,150.2,148.3,150.3L148.3,150.3z"/>
	</g>
	<g id="mask-95_2_">
		
			<radialGradient id="SVGID_66_" cx="-8538.5596" cy="8469.833" r="77.2526" gradientTransform="matrix(0.24 0.23 -0.23 0.24 3897.0046 -23.6435)" gradientUnits="userSpaceOnUse">
			<stop  offset="6.000000e-02" style="stop-color:#FFFFFF"/>
			<stop  offset="1" style="stop-color:#000000"/>
		</radialGradient>
		<path class="st69" d="M148.3,150.3L148.3,150.3c-0.2,0-0.4-0.2-0.4-0.4l4-69.5c0.1-0.2,0.3-0.4,0.6-0.3c0.1,0,0.2,0.1,0.3,0.3
			l-4,69.5C148.7,150.1,148.5,150.2,148.3,150.3z"/>
	</g>
	<g id="mask-94_2_">
		
			<radialGradient id="SVGID_67_" cx="-8858.6445" cy="7551.6572" r="94.2774" gradientTransform="matrix(0.25 0.2 -0.2 0.25 3893.8079 29.8876)" gradientUnits="userSpaceOnUse">
			<stop  offset="6.000000e-02" style="stop-color:#FFFFFF"/>
			<stop  offset="1" style="stop-color:#000000"/>
		</radialGradient>
		<path class="st70" d="M146.8,64.1L146.8,64.1c0.2,0,0.4,0.2,0.4,0.4l1.5,85.2c0,0.2-0.2,0.4-0.4,0.4l0,0c-0.2,0-0.4-0.2-0.4-0.4
			l-1.5-85.2C146.3,64.4,146.5,64.2,146.8,64.1L146.8,64.1z"/>
	</g>
	<g id="mask-93_2_">
		
			<radialGradient id="SVGID_68_" cx="-9340.9209" cy="6584.4561" r="77.2526" gradientTransform="matrix(0.26 0.18 -0.18 0.27 3897.3201 64.4398)" gradientUnits="userSpaceOnUse">
			<stop  offset="6.000000e-02" style="stop-color:#FFFFFF"/>
			<stop  offset="1" style="stop-color:#000000"/>
		</radialGradient>
		<path class="st71" d="M148.3,150.3c-0.2,0-0.4-0.2-0.4-0.4l-7.5-69.2c0.1-0.2,0.3-0.4,0.6-0.3c0.1,0,0.2,0.1,0.3,0.3l7.5,69.2
			C148.7,150.1,148.5,150.3,148.3,150.3L148.3,150.3z"/>
	</g>
	<g id="mask-92_2_">
		
			<radialGradient id="SVGID_69_" cx="-10178.9238" cy="5725.2207" r="94.2774" gradientTransform="matrix(0.28 0.16 -0.16 0.29 3890.5823 97.4819)" gradientUnits="userSpaceOnUse">
			<stop  offset="6.000000e-02" style="stop-color:#FFFFFF"/>
			<stop  offset="1" style="stop-color:#000000"/>
		</radialGradient>
		<path class="st72" d="M148.3,150.3c-0.2,0-0.4-0.1-0.4-0.3l-16.1-83.7c0-0.2,0.2-0.4,0.5-0.4c0.1,0,0.3,0.1,0.3,0.2l16,83.7
			C148.6,150,148.4,150.2,148.3,150.3L148.3,150.3z"/>
	</g>
	<g id="mask-91_2_">
		
			<radialGradient id="SVGID_70_" cx="-10674.7998" cy="4590.0815" r="77.2526" gradientTransform="matrix(0.29 0.14 -0.14 0.3 3897.0046 132.6131)" gradientUnits="userSpaceOnUse">
			<stop  offset="6.000000e-02" style="stop-color:#FFFFFF"/>
			<stop  offset="1" style="stop-color:#000000"/>
		</radialGradient>
		<path class="st73" d="M148.3,150.3c-0.2,0-0.4-0.1-0.4-0.3l-18.8-67.1c0-0.2,0.2-0.4,0.5-0.4c0.1,0,0.3,0.1,0.4,0.2l18.6,67.1
			C148.6,149.9,148.5,150.2,148.3,150.3L148.3,150.3z"/>
	</g>
	<g id="mask-90_2_">
		
			<radialGradient id="SVGID_71_" cx="-11008.7705" cy="3730.48" r="94.2774" gradientTransform="matrix(0.3 0.11 -0.11 0.31 3899.8477 177.0442)" gradientUnits="userSpaceOnUse">
			<stop  offset="6.000000e-02" style="stop-color:#FFFFFF"/>
			<stop  offset="1" style="stop-color:#000000"/>
		</radialGradient>
		<path class="st74" d="M148.3,150.3c-0.2,0-0.4-0.1-0.4-0.3l-29.5-79.9c-0.1-0.2,0-0.5,0.3-0.6l0,0c0.2-0.1,0.5,0,0.6,0.3l0,0
			l29.4,79.8c0.1,0.2,0,0.5-0.3,0.5L148.3,150.3z"/>
	</g>
	<g id="mask-89_2_">
		
			<radialGradient id="SVGID_72_" cx="-11454.3184" cy="2509.7812" r="77.2526" gradientTransform="matrix(0.31 9.000000e-02 -9.000000e-02 0.32 3908.3301 207.4053)" gradientUnits="userSpaceOnUse">
			<stop  offset="6.000000e-02" style="stop-color:#FFFFFF"/>
			<stop  offset="1" style="stop-color:#000000"/>
		</radialGradient>
		<path class="st75" d="M148.3,150.3c-0.2,0-0.3-0.1-0.4-0.3l-29.3-63c0-0.2,0.1-0.5,0.3-0.5c0.2,0,0.3,0,0.4,0.2l29.2,62.9
			C148.6,149.8,148.5,150.1,148.3,150.3L148.3,150.3z"/>
	</g>
	<g id="mask-88_2_">
		
			<radialGradient id="SVGID_73_" cx="-11448.1777" cy="1547.4097" r="94.2774" gradientTransform="matrix(0.31 6.000000e-02 -6.000000e-02 0.32 3925.1133 251.2653)" gradientUnits="userSpaceOnUse">
			<stop  offset="6.000000e-02" style="stop-color:#FFFFFF"/>
			<stop  offset="1" style="stop-color:#000000"/>
		</radialGradient>
		<path class="st76" d="M148.3,150.3c-0.2,0-0.3-0.1-0.4-0.2l-42.1-73.9c0-0.2,0.2-0.5,0.4-0.5l0,0h0.2l42.1,73.9
			C148.6,149.8,148.6,150.1,148.3,150.3L148.3,150.3z"/>
	</g>
	<g id="mask-87_2_">
		
			<radialGradient id="SVGID_74_" cx="-11858.5215" cy="610.2324" r="77.2526" gradientTransform="matrix(0.32 3.000000e-02 -3.000000e-02 0.33 3930.6665 289.2065)" gradientUnits="userSpaceOnUse">
			<stop  offset="6.000000e-02" style="stop-color:#FFFFFF"/>
			<stop  offset="1" style="stop-color:#000000"/>
		</radialGradient>
		<path class="st77" d="M148.3,150.3c-0.1,0-0.3-0.1-0.4-0.2l-39.2-57.2c-0.1-0.2,0-0.5,0.2-0.6c0.1-0.1,0.3-0.1,0.4,0l39.3,57.3
			c0.1,0.2,0.1,0.5-0.1,0.6L148.3,150.3z"/>
	</g>
	<g id="mask-86_2_">
		
			<radialGradient id="SVGID_75_" cx="-11939.0342" cy="-379.4008" r="94.2774" gradientTransform="matrix(0.32 0 0 0.33 3948.9102 327.3463)" gradientUnits="userSpaceOnUse">
			<stop  offset="6.000000e-02" style="stop-color:#FFFFFF"/>
			<stop  offset="1" style="stop-color:#000000"/>
		</radialGradient>
		<path class="st78" d="M148.3,150.3c-0.1,0-0.3-0.1-0.3-0.2L94.3,84.2c-0.1-0.2,0-0.5,0.2-0.6s0.3-0.1,0.5,0l53.6,66
			c0.2,0.2,0.2,0.5,0,0.6C148.5,150.2,148.4,150.2,148.3,150.3L148.3,150.3z"/>
	</g>
	<g id="mask-85_2_">
		
			<radialGradient id="SVGID_76_" cx="-11930.04" cy="-355.0272" r="77.2526" gradientTransform="matrix(0.32 0 0 0.33 3948.9102 327.3463)" gradientUnits="userSpaceOnUse">
			<stop  offset="6.000000e-02" style="stop-color:#FFFFFF"/>
			<stop  offset="1" style="stop-color:#000000"/>
		</radialGradient>
		<path class="st79" d="M148.3,150.3c-0.1,0-0.2,0-0.3,0l-48.1-50.1c-0.1-0.2-0.1-0.5,0.1-0.6c0.1-0.1,0.3-0.1,0.5,0l48.1,50
			c0.2,0.2,0.2,0.5,0,0.6C148.5,150.2,148.4,150.2,148.3,150.3L148.3,150.3z"/>
	</g>
	<path class="st80" d="M148.3,150.3c-0.1,0-0.2,0-0.3,0l-48.1-50.1c-0.1-0.2-0.1-0.5,0.1-0.6c0.1-0.1,0.3-0.1,0.5,0l48.1,50
		c0.2,0.2,0.2,0.5,0,0.6C148.5,150.2,148.4,150.2,148.3,150.3L148.3,150.3z"/>
	<path class="st80" d="M148.3,150.3c-0.1,0-0.3-0.1-0.3-0.2L94.3,84.2c-0.1-0.2,0-0.5,0.2-0.6s0.3-0.1,0.5,0l53.6,66
		c0.2,0.2,0.2,0.5,0,0.6C148.5,150.2,148.4,150.2,148.3,150.3L148.3,150.3z"/>
	<path class="st80" d="M148.3,150.3c-0.1,0-0.3-0.1-0.4-0.2l-39.2-57.2c-0.1-0.2,0-0.5,0.2-0.6c0.1-0.1,0.3-0.1,0.4,0l39.3,57.3
		c0.1,0.2,0.1,0.5-0.1,0.6L148.3,150.3z"/>
	<path class="st80" d="M148.3,150.3c-0.2,0-0.3-0.1-0.4-0.2l-42.1-73.9c0-0.2,0.2-0.5,0.4-0.5l0,0h0.2l42.1,73.9
		C148.6,149.8,148.6,150.1,148.3,150.3L148.3,150.3z"/>
	<path class="st80" d="M148.3,150.3c-0.2,0-0.3-0.1-0.4-0.3l-29.3-63c0-0.2,0.1-0.5,0.3-0.5c0.2,0,0.3,0,0.4,0.2l29.2,62.9
		C148.6,149.8,148.5,150.1,148.3,150.3L148.3,150.3z"/>
	<path class="st80" d="M148.3,150.3c-0.2,0-0.4-0.1-0.4-0.3l-29.5-79.9c-0.1-0.2,0-0.5,0.3-0.6l0,0c0.2-0.1,0.5,0,0.6,0.3l0,0
		l29.4,79.8c0.1,0.2,0,0.5-0.3,0.5L148.3,150.3z"/>
	<path class="st80" d="M148.3,150.3c-0.2,0-0.4-0.1-0.4-0.3l-18.8-67.1c0-0.2,0.2-0.4,0.5-0.4c0.1,0,0.3,0.1,0.4,0.2l18.6,67.1
		C148.6,149.9,148.5,150.2,148.3,150.3L148.3,150.3z"/>
	<path class="st80" d="M148.3,150.3c-0.2,0-0.4-0.1-0.4-0.3l-16.1-83.7c0-0.2,0.2-0.4,0.5-0.4c0.1,0,0.3,0.1,0.3,0.2l16,83.7
		C148.6,150,148.4,150.2,148.3,150.3L148.3,150.3z"/>
	<path class="st80" d="M148.3,150.3c-0.2,0-0.4-0.2-0.4-0.4l-7.5-69.2c0.1-0.2,0.3-0.4,0.6-0.3c0.1,0,0.2,0.1,0.3,0.3l7.5,69.2
		C148.7,150.1,148.5,150.3,148.3,150.3L148.3,150.3z"/>
	<path class="st80" d="M146.8,64.1L146.8,64.1c0.2,0,0.4,0.2,0.4,0.4l1.5,85.2c0,0.2-0.2,0.4-0.4,0.4l0,0c-0.2,0-0.4-0.2-0.4-0.4
		l-1.5-85.2C146.4,64.3,146.5,64.2,146.8,64.1z"/>
	<path class="st80" d="M148.3,150.3L148.3,150.3c-0.2,0-0.4-0.2-0.4-0.4l4-69.5c0.1-0.2,0.3-0.4,0.6-0.3c0.1,0,0.2,0.1,0.3,0.3
		l-4,69.5C148.7,150.1,148.5,150.2,148.3,150.3z"/>
	<path class="st80" d="M148.3,150.3L148.3,150.3c-0.2,0-0.4-0.3-0.4-0.5l11.7-84.4c0.1-0.2,0.3-0.4,0.6-0.3c0.1,0,0.2,0.1,0.3,0.3
		l-11.8,84.4C148.7,150,148.5,150.2,148.3,150.3L148.3,150.3z"/>
	<path class="st80" d="M148.3,150.3L148.3,150.3c-0.2-0.1-0.4-0.3-0.3-0.5l15.3-68c0.1-0.2,0.4-0.3,0.6-0.2l0,0
		c0.1,0.1,0.2,0.2,0.2,0.4l-15.4,68C148.6,150.1,148.5,150.2,148.3,150.3z"/>
	<path class="st80" d="M148.3,150.3L148.3,150.3c-0.2-0.1-0.4-0.3-0.3-0.5l25.2-81.2c0.1-0.2,0.4-0.3,0.6-0.2
		c0.2,0.1,0.3,0.3,0.2,0.4L148.6,150C148.6,150.2,148.4,150.2,148.3,150.3z"/>
	<path class="st80" d="M148.3,150.3h-0.2c-0.2-0.1-0.3-0.4-0.2-0.6L174,85.2c0.1-0.2,0.4-0.3,0.6-0.2c0.2,0.1,0.3,0.3,0.2,0.5
		L148.7,150C148.6,150.1,148.4,150.3,148.3,150.3z"/>
	<path class="st80" d="M148.3,150.3h-0.2c-0.2-0.1-0.3-0.4-0.2-0.6l38.4-76c0.2-0.2,0.4-0.2,0.6,0c0.2,0.1,0.2,0.3,0.2,0.5
		L148.6,150C148.5,150.2,148.4,150.2,148.3,150.3z"/>
	<path class="st80" d="M148.3,150.3H148c-0.2-0.2-0.2-0.4,0-0.6l36.2-59.3c0.2-0.2,0.5-0.2,0.6,0c0.1,0.1,0.1,0.3,0,0.4L148.6,150
		C148.5,150.2,148.4,150.2,148.3,150.3z"/>
	<path class="st80" d="M148.3,150.3c-0.2,0-0.4-0.2-0.4-0.4c0-0.1,0-0.2,0-0.2l50.3-68.5c0.2-0.2,0.5-0.2,0.6,0s0.1,0.4,0,0.5
		l-50.2,68.5C148.5,150.2,148.4,150.3,148.3,150.3z"/>
	<path class="st80" d="M148.3,150.3c-0.2,0-0.4-0.2-0.4-0.5l0,0c0-0.1,0-0.2,0-0.2l45.6-52.3c0.2-0.2,0.4-0.2,0.6,0
		c0.1,0.2,0.1,0.3,0,0.5L148.5,150C148.5,150.1,148.4,150.2,148.3,150.3z"/>
	<path class="st80" d="M148.3,150.3c-0.2,0-0.4-0.2-0.4-0.5c0-0.1,0-0.2,0.1-0.3l60.8-59.2c0.2-0.1,0.5-0.1,0.6,0.2
		c0.1,0.1,0.1,0.3,0,0.5l-60.8,59.2C148.5,150.2,148.4,150.2,148.3,150.3z"/>
	<path class="st80" d="M148.3,150.3c-0.2,0-0.4-0.2-0.4-0.5c0-0.1,0.1-0.2,0.1-0.3l53.5-44.1c0.2-0.2,0.5-0.2,0.6,0
		c0.2,0.2,0.2,0.5,0,0.6l0,0l-53.5,44.2C148.5,150.2,148.4,150.3,148.3,150.3z"/>
	<path class="st80" d="M148.3,150.3c-0.2,0-0.4-0.2-0.4-0.5c0-0.1,0.1-0.2,0.2-0.3l69.6-48.3c0.2-0.2,0.5-0.2,0.6,0
		c0.2,0.2,0.2,0.5,0,0.6h-0.2l-69.6,48.3L148.3,150.3z"/>
	<path class="st80" d="M148.3,150.3c-0.2,0-0.4-0.2-0.4-0.5c0-0.1,0.1-0.3,0.2-0.3L208,115c0.2-0.2,0.5-0.2,0.6,0
		c0.2,0.2,0.2,0.5,0,0.6h-0.2l-60,34.7H148.3z"/>
	<path class="st80" d="M148.3,150.3c-0.2,0-0.4-0.2-0.4-0.5c0-0.2,0.1-0.3,0.2-0.4l76.5-36c0.2-0.2,0.4-0.2,0.6,0
		c0.2,0.2,0.2,0.5,0,0.6H225l-76.6,36.1L148.3,150.3z"/>
	<path class="st80" d="M148.3,150.3c-0.2,0-0.4-0.2-0.4-0.5c0-0.1,0.1-0.3,0.2-0.3l64.6-24.1c0.2-0.2,0.4-0.2,0.6,0
		c0.2,0.2,0.2,0.4,0,0.6h-0.2l-64.7,24L148.3,150.3z"/>
	<path class="st80" d="M148.3,150.3c-0.2-0.1-0.4-0.3-0.3-0.5c0-0.2,0.2-0.3,0.3-0.3l81.4-22.7c0.2-0.1,0.5,0,0.6,0.2l0,0
		c0.1,0.2,0,0.5-0.2,0.6h-0.2l-81.5,22.8L148.3,150.3z"/>
	<path class="st80" d="M148.3,150.3c-0.2-0.1-0.4-0.3-0.3-0.5c0-0.2,0.2-0.3,0.3-0.3l67.8-13.1c0.2-0.1,0.5,0,0.5,0.3
		c0.1,0.2,0,0.5-0.3,0.6l0,0h-0.1l-67.8,13.1L148.3,150.3z"/>
	<path class="st80" d="M148.3,150.3c-0.2-0.1-0.4-0.3-0.3-0.5c0-0.2,0.2-0.3,0.3-0.3l84-8.7c0.2-0.1,0.5,0.1,0.5,0.3
		c0.1,0.2-0.1,0.5-0.3,0.5h-0.2L148.3,150.3L148.3,150.3z"/>
	<path class="st80" d="M148.3,150.3c-0.2-0.1-0.4-0.3-0.3-0.5c0-0.2,0.2-0.3,0.3-0.3l69-1.5l0,0c0.2,0.1,0.4,0.3,0.3,0.5
		c0,0.2-0.2,0.3-0.3,0.3L148.3,150.3z"/>
	<path class="st80" d="M232.6,155.5L232.6,155.5l-84.3-5.2c-0.2,0.1-0.5-0.1-0.5-0.3c-0.1-0.2,0.1-0.5,0.3-0.5h0.2l84.3,5.2
		c0.2,0.1,0.4,0.3,0.3,0.5C232.8,155.3,232.7,155.5,232.6,155.5L232.6,155.5z"/>
	<path class="st80" d="M216.6,160.3L216.6,160.3l-68.4-10c-0.2,0.1-0.5-0.1-0.5-0.3c-0.1-0.2,0.1-0.5,0.3-0.5h0.2l68.3,10
		c0.2,0.1,0.4,0.3,0.3,0.5C216.8,160.1,216.6,160.3,216.6,160.3L216.6,160.3z"/>
	<path class="st80" d="M230.5,169.5L230.5,169.5l-82.2-19.2c-0.2,0-0.4-0.2-0.4-0.4s0.2-0.4,0.4-0.4h0.2l82.2,19.2
		c0.2,0.1,0.4,0.3,0.3,0.5c0,0.2-0.2,0.3-0.3,0.3L230.5,169.5z"/>
	<path class="st80" d="M213.9,171.5L213.9,171.5l-65.8-21.3c-0.2-0.1-0.4-0.3-0.3-0.5c0-0.2,0.2-0.3,0.3-0.3h0.1l65.8,21.3
		c0.2,0.1,0.4,0.3,0.3,0.6c0,0.1-0.1,0.2-0.3,0.3L213.9,171.5z"/>
	<path class="st80" d="M226.3,182.9h-0.2l-78-32.7c-0.2-0.1-0.4-0.3-0.3-0.5c0.1-0.2,0.3-0.4,0.5-0.3l0,0l78.1,32.8
		c0.2,0.1,0.3,0.4,0.2,0.6l0,0c-0.1,0.1-0.2,0.2-0.3,0.2L226.3,182.9z"/>
	<path class="st80" d="M209.6,182.2h-0.2l-61.3-32c-0.2-0.1-0.4-0.3-0.3-0.6c0.1-0.2,0.2-0.3,0.4-0.3c0.1,0,0.1,0,0.2,0l61.3,31.9
		c0.2,0.2,0.2,0.4,0,0.6c-0.1,0.1-0.2,0.2-0.3,0.2L209.6,182.2z"/>
	<path class="st80" d="M219.8,195.4h-0.2L148,150.2c-0.2-0.1-0.3-0.3-0.3-0.6l0,0c0.1-0.2,0.3-0.3,0.6-0.3l0,0h0.2l71.6,45.3
		c0.2,0.2,0.2,0.4,0,0.6C220,195.3,219.9,195.4,219.8,195.4L219.8,195.4z"/>
	<path class="st80" d="M203.5,191.9h-0.3L148,150.1c-0.2-0.1-0.3-0.4-0.2-0.6c0.1-0.2,0.4-0.3,0.6-0.2l0,0l55.4,41.8
		c0.2,0.2,0.2,0.5,0,0.6C203.7,191.9,203.6,191.9,203.5,191.9z"/>
	<path class="st80" d="M211.5,206.7c-0.1,0-0.2,0-0.3,0L148,150.2c-0.2-0.1-0.3-0.4-0.2-0.6c0.1-0.2,0.4-0.3,0.6-0.2h0.1l63.2,56.6
		c0.2,0.2,0.2,0.5,0,0.6C211.6,206.6,211.5,206.6,211.5,206.7L211.5,206.7z"/>
	<path class="st80" d="M196,200.6c-0.1,0-0.2,0-0.3,0L148,150.2c-0.1-0.2-0.1-0.5,0.1-0.6c0.1-0.1,0.3-0.1,0.5,0l47.8,50.3
		c0.2,0.2,0.2,0.5,0,0.6c-0.1,0-0.2,0-0.3,0L196,200.6z"/>
	<path class="st80" d="M201.5,216.5c-0.1,0-0.3-0.1-0.3-0.2L148,150c-0.1-0.2,0-0.5,0.2-0.6s0.3-0.1,0.5,0l53.1,66.4
		c0.2,0.2,0.2,0.5,0,0.6C201.6,216.6,201.6,216.6,201.5,216.5L201.5,216.5z"/>
	<path class="st80" d="M187.1,207.8c-0.1,0-0.3-0.1-0.4-0.2L147.9,150c-0.1-0.2,0.1-0.4,0.3-0.5c0.1-0.1,0.3-0.1,0.4,0l38.8,57.5
		c0.1,0.2,0.1,0.5-0.1,0.6L187.1,207.8z"/>
	<path class="st80" d="M189.8,224.4c-0.2,0-0.3-0.1-0.4-0.2L147.9,150c-0.1-0.2,0.1-0.5,0.3-0.5l0,0c0.1-0.1,0.3-0.1,0.4,0
		l41.6,74.2c0.1,0.2,0.1,0.5-0.2,0.6L189.8,224.4z"/>
	<path class="st80" d="M177.1,213.5c-0.2,0-0.3-0.1-0.4-0.3L148,150c0-0.2,0.1-0.5,0.3-0.5s0.3,0,0.4,0.2l28.8,63.3
		c0.1,0.2,0,0.5-0.2,0.6L177.1,213.5z"/>
	<path class="st80" d="M177.1,230.4c-0.2,0-0.4-0.1-0.4-0.3L147.9,150c0-0.2,0.2-0.4,0.4-0.5c0.2,0,0.3,0.1,0.4,0.2l28.8,80.1
		c0.1,0.2,0,0.5-0.3,0.5L177.1,230.4z"/>
	<path class="st80" d="M166.4,217.5c-0.2,0-0.4-0.1-0.4-0.3L147.8,150c0-0.2,0.2-0.4,0.5-0.4c0.1,0,0.3,0.1,0.4,0.2l18.1,67.2
		C166.8,217.2,166.7,217.5,166.4,217.5L166.4,217.5z"/>
	<path class="st80" d="M163.6,234.1c-0.2,0-0.4-0.2-0.4-0.4L147.8,150c0-0.2,0.2-0.4,0.5-0.4c0.1,0,0.3,0.1,0.3,0.2l15.4,83.7
		C164.1,233.8,163.9,234,163.6,234.1L163.6,234.1z"/>
	<path class="st80" d="M155.2,219.5c-0.2,0-0.4-0.2-0.4-0.4l-7-69.3c0.1-0.2,0.3-0.4,0.6-0.3c0.1,0,0.2,0.1,0.3,0.3l6.9,69.3
		C155.6,219.4,155.4,219.6,155.2,219.5L155.2,219.5z"/>
	<path class="st80" d="M148.7,149L148.7,149c0.2,0,0.4,0.2,0.4,0.4l1.7,85.2c0,0.2-0.2,0.4-0.4,0.4l0,0c-0.2,0-0.4-0.2-0.4-0.4
		l-1.7-85.1C148.2,149.3,148.4,149.1,148.7,149C148.6,149,148.7,149,148.7,149z"/>
	<path class="st80" d="M143.7,219.7L143.7,219.7c-0.2,0-0.4-0.2-0.4-0.5l4.5-69.5c0.1-0.2,0.3-0.4,0.6-0.3c0.1,0,0.2,0.1,0.3,0.3
		l-4.6,69.6C144.1,219.6,144,219.7,143.7,219.7z"/>
	<path class="st80" d="M135.7,234.5L135.7,234.5c-0.2,0-0.4-0.3-0.4-0.5l12.5-84.3c0.1-0.2,0.3-0.4,0.6-0.3c0.1,0,0.2,0.1,0.3,0.3
		L136.1,234C136.2,234.3,136,234.5,135.7,234.5L135.7,234.5z"/>
	<path class="st80" d="M132.5,218L132.5,218c-0.2-0.1-0.4-0.3-0.3-0.5l15.7-67.8c0.1-0.2,0.4-0.3,0.6-0.2l0,0
		c0.1,0.1,0.2,0.2,0.2,0.4L133,217.7C132.9,217.9,132.7,218.1,132.5,218z"/>
	<path class="st80" d="M122.2,231.3L122.2,231.3c-0.2-0.1-0.4-0.3-0.3-0.5l26.2-81.1c0.1-0.2,0.4-0.3,0.6-0.2
		c0.2,0.1,0.3,0.3,0.2,0.4L122.7,231C122.6,231.2,122.4,231.4,122.2,231.3z"/>
	<path class="st80" d="M121.6,214.5h-0.2c-0.2-0.1-0.3-0.4-0.2-0.6l26.6-64.3c0.1-0.2,0.4-0.3,0.6-0.2c0.2,0.1,0.3,0.3,0.2,0.5
		L122,214.2C121.9,214.4,121.7,214.5,121.6,214.5z"/>
	<path class="st80" d="M109.3,225.9H109c-0.2-0.1-0.3-0.4-0.2-0.6l39-75.7c0.2-0.2,0.5-0.2,0.6,0c0.1,0.1,0.1,0.3,0,0.4l-38.9,75.7
		C109.5,225.8,109.4,225.9,109.3,225.9z"/>
	<path class="st80" d="M111.5,209.2h-0.2c-0.2-0.2-0.2-0.4,0-0.6l36.6-59c0.2-0.2,0.5-0.2,0.6,0c0.1,0.1,0.1,0.3,0,0.5L111.8,209
		C111.7,209,111.6,209.1,111.5,209.2z"/>
	<path class="st80" d="M97.4,218.3c-0.2,0-0.4-0.2-0.4-0.5l0,0c0-0.1,0-0.2,0-0.2l50.9-68.1c0.2-0.2,0.4-0.2,0.6,0
		c0.1,0.1,0.1,0.3,0,0.4l-50.8,68.2C97.6,218.2,97.5,218.3,97.4,218.3z"/>
	<path class="st80" d="M102.3,202.2c-0.2,0-0.4-0.2-0.4-0.4c0-0.1,0-0.2,0-0.3l46.1-52c0.1-0.2,0.4-0.3,0.6-0.2
		c0.2,0.1,0.3,0.4,0.2,0.6v0.1l-46.1,51.9C102.6,202.2,102.4,202.2,102.3,202.2z"/>
	<path class="st80" d="M87,208.9c-0.2,0-0.4-0.2-0.4-0.4c0-0.1,0-0.2,0.1-0.3l61.3-58.6c0.2-0.2,0.4-0.2,0.6,0
		c0.2,0.2,0.2,0.4,0,0.6h-0.1l-61.2,58.7C87.2,208.9,87.1,208.9,87,208.9z"/>
	<path class="st80" d="M94.5,193.8c-0.2,0-0.4-0.2-0.4-0.5c0-0.1,0.1-0.2,0.1-0.3l53.8-43.5c0.2-0.2,0.5-0.2,0.6,0
		c0.2,0.2,0.2,0.5,0,0.6l0,0l-53.9,43.6C94.6,193.8,94.5,193.8,94.5,193.8z"/>
	<path class="st80" d="M78.1,197.9c-0.2,0-0.4-0.2-0.4-0.5c0-0.1,0.1-0.2,0.2-0.3l70.2-47.6c0.2-0.2,0.5-0.2,0.6,0
		c0.2,0.2,0.2,0.5,0,0.6h-0.2l-70,47.6L78.1,197.9z"/>
	<path class="st80" d="M88.1,184.3c-0.2,0-0.4-0.2-0.4-0.5c0-0.1,0.1-0.3,0.2-0.3l60.1-34c0.2-0.2,0.5-0.2,0.6,0
		c0.2,0.2,0.2,0.5,0,0.6h-0.2l-60.1,34L88.1,184.3z"/>
	<path class="st80" d="M71.4,185.6c-0.2,0-0.4-0.2-0.4-0.5c0-0.2,0.1-0.3,0.2-0.4l76.8-35.2c0.2-0.2,0.4-0.2,0.6,0
		c0.2,0.2,0.2,0.5,0,0.6h-0.2l-76.9,35.4L71.4,185.6z"/>
	<path class="st80" d="M83.3,173.8c-0.2,0-0.4-0.2-0.4-0.5c0-0.1,0.1-0.3,0.2-0.3l64.9-23.5c0.2-0.2,0.4-0.2,0.6,0
		c0.2,0.2,0.2,0.4,0,0.6h-0.2l-64.9,23.5L83.3,173.8z"/>
	<path class="st80" d="M66.7,172.3c-0.2-0.1-0.4-0.3-0.3-0.5c0-0.2,0.2-0.3,0.3-0.3l81.6-22.1c0.2-0.1,0.5,0,0.6,0.2s0,0.5-0.2,0.6
		h-0.2l-81.7,22.2L66.7,172.3z"/>
	<path class="st80" d="M80.4,162.6c-0.2-0.1-0.4-0.3-0.3-0.5c0-0.2,0.2-0.3,0.3-0.3l68-12.4c0.2-0.1,0.5,0,0.5,0.3
		c0.1,0.2,0,0.5-0.3,0.6l0,0h-0.1L80.4,162.6L80.4,162.6z"/>
	<path class="st80" d="M64.2,158.4c-0.2-0.1-0.4-0.3-0.3-0.5c0-0.2,0.2-0.3,0.3-0.3l84.1-8.2c0.2,0,0.4,0.2,0.4,0.4
		s-0.2,0.4-0.4,0.4l0,0L64.2,158.4L64.2,158.4z"/>
	<path class="st80" d="M148.3,150.3L148.3,150.3l-68.9,0.9c-0.2-0.1-0.4-0.3-0.3-0.5c0-0.2,0.2-0.3,0.3-0.3l0,0l69-0.9
		c0.2,0.1,0.4,0.3,0.3,0.5C148.7,150.2,148.5,150.3,148.3,150.3L148.3,150.3z"/>
	<path class="st80" d="M148.3,150.3L148.3,150.3l-84.3-6c-0.2,0.1-0.5-0.1-0.5-0.3c-0.1-0.2,0.1-0.5,0.3-0.5H64l84.3,5.9
		c0.2,0.1,0.4,0.3,0.3,0.5C148.5,150.1,148.4,150.2,148.3,150.3L148.3,150.3z"/>
	<path class="st80" d="M148.3,150.3L148.3,150.3L80,139.8c-0.2,0-0.4-0.2-0.4-0.4s0.2-0.4,0.4-0.4h0.2l68.2,10.5
		c0.2,0.1,0.4,0.3,0.3,0.5C148.6,150.1,148.5,150.2,148.3,150.3L148.3,150.3z"/>
	<path class="st80" d="M148.3,150.3L148.3,150.3l-82.2-20c-0.2,0-0.4-0.2-0.4-0.4s0.2-0.4,0.4-0.4l0,0h0.2l82.2,19.9
		c0.2,0.1,0.4,0.3,0.3,0.5c0,0.2-0.2,0.3-0.3,0.3L148.3,150.3z"/>
	<path class="st80" d="M148.3,150.3L148.3,150.3l-65.7-21.8c-0.2,0-0.4-0.2-0.4-0.4c0-0.2,0.2-0.4,0.4-0.4h0.2l65.6,22
		c0.2,0.1,0.4,0.3,0.3,0.6c0,0.1-0.1,0.2-0.3,0.3L148.3,150.3z"/>
	<path class="st80" d="M148.3,150.3h-0.2L70.4,117c-0.2-0.1-0.4-0.3-0.3-0.5c0-0.2,0.2-0.3,0.3-0.3h0.2l77.8,33.5
		c0.2,0.1,0.3,0.4,0.2,0.6C148.5,150.2,148.4,150.3,148.3,150.3z"/>
	<path class="st80" d="M148.3,150.3h-0.2L87,117.8c-0.2-0.1-0.4-0.3-0.3-0.6c0.1-0.2,0.2-0.3,0.4-0.3c0.1,0,0.1,0,0.2,0l61.1,32.6
		c0.2,0.2,0.2,0.4,0,0.6C148.4,150.2,148.3,150.2,148.3,150.3z"/>
	<path class="st80" d="M148.3,150.3H148l-71.3-45.9c-0.2-0.1-0.3-0.3-0.3-0.6l0,0c0.1-0.2,0.3-0.3,0.6-0.3l0,0h0.2l71.2,46.1
		C148.6,149.8,148.6,150,148.3,150.3c0,0-0.1,0.1-0.2,0.1L148.3,150.3z"/>
	<path class="st80" d="M148.3,150.3c-0.1,0-0.2,0-0.3,0L93.1,108c-0.2-0.1-0.3-0.4-0.2-0.6c0.1-0.2,0.4-0.3,0.6-0.2l0.2,0.1
		l54.9,42.2c0.2,0.2,0.2,0.5,0,0.6C148.4,150.3,148.3,150.3,148.3,150.3L148.3,150.3z"/>
	<path class="st80" d="M148.3,150.3c-0.1,0-0.2,0-0.3,0L85.2,93.1c-0.2-0.2-0.2-0.5,0-0.6c0.1-0.1,0.3-0.1,0.5,0l62.9,57
		c0.2,0.2,0.2,0.5,0,0.6C148.5,150.2,148.4,150.2,148.3,150.3L148.3,150.3z"/>
	
		<ellipse transform="matrix(0.9998 -1.999122e-02 1.999122e-02 0.9998 -2.9671 2.9867)" class="st81" cx="147.9" cy="149.9" rx="41.4" ry="41.8"/>
	
		<ellipse transform="matrix(0.9999 -1.639784e-02 1.639784e-02 0.9999 -2.4497 2.4439)" cx="147.8" cy="150.6" rx="31.4" ry="31.7"/>
	<g>
		<path class="st0" d="M125.4,142.7c4,0,7.7,0,11.5,0c1,0,1.5-0.3,2-1.2c3-5.8,6-11.5,9.2-17.5c0.3,0.6,0.5,0.9,0.7,1.3
			c2.9,5.4,5.7,10.8,8.6,16.2c0.4,0.8,0.9,1.1,1.8,1.1c3.8-0.1,7.5,0,11.5,0c-0.3,0.6-0.5,1-0.7,1.5c-1.6,3-3.1,6-4.8,9
			c-0.7,1.2-0.7,2.1,0,3.3c1.9,3.4,3.6,6.8,5.6,10.5c-0.9,0-1.6,0-2.2,0c-2.9,0-5.7,0.1-8.6,0c-1.6-0.1-2.4,0.5-3,1.9
			c-1,2.1-2.1,4.1-3.3,6.3c-1.9-3.6-3.7-7-5.6-10.6c-1.9,3.6-3.7,6.9-5.6,10.6c-1.3-2.4-2.5-4.5-3.5-6.7c-0.5-1-1.1-1.5-2.3-1.4
			c-3.2,0.1-6.5,0-9.7,0c-0.5,0-0.9,0-1.6,0c1.6-3.1,3-6.1,4.8-8.9c1.5-2.3,1.4-4.2,0-6.5C128.4,148.9,127,145.9,125.4,142.7z
			 M148.1,130.5c-2.4,4.6-4.8,9-7,13.4c-0.1,0.2-0.1,0.6,0,0.8c1.2,2.2,2.3,4.5,3.6,6.9c1.2-2.2,2.2-4.2,3.4-6.3
			c0.4,0.6,0.6,1.1,0.9,1.6c2.8,5.3,5.6,10.6,8.4,15.8c0.2,0.4,0.6,1,1,1c2.4,0.1,4.7,0,7.4,0C159.8,152.6,154,141.7,148.1,130.5z
			 M142.4,168.6c1.9-3.6,3.7-7,5.6-10.5c1.9,3.6,3.7,7,5.6,10.5c0.3-0.6,0.5-1,0.8-1.3c0.8-1.1,0.9-2.1,0.1-3.4
			c-1.4-2.2-2.5-4.6-3.7-6.9c-0.9-1.6-1.7-3.3-2.7-5.1c-1.2,2.2-2.2,4.2-3.4,6.3c-2-3.8-3.9-7.5-5.9-11.1c-0.2-0.4-0.7-1.1-1.1-1.1
			c-2.3-0.1-4.7,0-7.3,0C134.5,153.5,138.4,160.9,142.4,168.6z M162.6,151.6c1.1-2,2-3.8,3-5.7c-2.1,0-4,0-6,0
			C160.6,147.8,161.6,149.6,162.6,151.6z M130.5,163.7c2.1,0,3.9,0,6,0c-1-1.9-1.9-3.7-3-5.6C132.4,160.1,131.5,161.9,130.5,163.7z"
			/>
	</g>
</g>
<text transform="matrix(1 0 0 1 356.9821 124.0125)" class="st82 st83">Sai</text>
<text transform="matrix(1 0 0 1 317.5173 255.8875)" class="st84 st85">A</text>
<text transform="matrix(1 0 0 1 423.0847 255.8875)" class="st84 st85">s</text>
<text transform="matrix(1 0 0 1 493.7224 255.8875)" class="st84 st85">t</text>
<text transform="matrix(1 0 0 1 547.7282 255.8875)" class="st84 st85">r</text>
<text transform="matrix(1 0 0 1 602.1379 255.8875)" class="st84 st85">o</text>
<text transform="matrix(1 0 0 1 686.4582 255.8875)" class="st84 st85 st86">W</text>
<text transform="matrix(1 0 0 1 820.9585 255.8875)" class="st84 st85">orld</text>
</svg>
