<svg xmlns="http://www.w3.org/2000/svg" viewBox="0 0 21.39 23.81"><defs><style>.cls-1{fill:#333;}</style></defs><g id="Layer_2" data-name="Layer 2"><g id="Layer_1-2" data-name="Layer 1"><path class="cls-1" d="M13,16.7a.73.73,0,0,0,.73.74.74.74,0,0,0,0-1.48h0A.74.74,0,0,0,13,16.7Zm.73-.11a.11.11,0,0,1,.11.11.1.1,0,0,1-.11.1.1.1,0,0,1-.11-.1.11.11,0,0,1,.11-.11Z"/><path class="cls-1" d="M11.82,19.59a.32.32,0,0,0,.32.31h1.18a.32.32,0,0,0,0-.63H12.14A.32.32,0,0,0,11.82,19.59Z"/><path class="cls-1" d="M14.5,19.9h1.18a.32.32,0,0,0,0-.63H14.5a.32.32,0,1,0,0,.63Z"/><path class="cls-1" d="M11,19.27H9.78a.32.32,0,0,0,0,.63H11a.32.32,0,0,0,0-.63Z"/><path class="cls-1" d="M6.24,19.27H5.07a.32.32,0,1,0,0,.63H6.24a.32.32,0,1,0,0-.63Z"/><path class="cls-1" d="M8.92,19.59a.31.31,0,0,1-.32.31H7.66a4.62,4.62,0,0,0-.11-.63h1A.32.32,0,0,1,8.92,19.59Z"/><path class="cls-1" d="M16.85,19.9H18a.32.32,0,1,0,0-.63H16.85a.32.32,0,0,0,0,.63Z"/><path class="cls-1" d="M13.82,7.6A2.54,2.54,0,1,0,11.3,5.06h0A2.53,2.53,0,0,0,13.82,7.6Zm0-4.44a1.91,1.91,0,1,1-1.89,1.91h0A1.91,1.91,0,0,1,13.82,3.16Z"/><path class="cls-1" d="M18.87,5.06a2.53,2.53,0,1,0-2.52-2.53h0A2.52,2.52,0,0,0,18.87,5.06Zm0-4.43A1.9,1.9,0,1,1,17,2.53h0A1.91,1.91,0,0,1,18.87.63Z"/><path class="cls-1" d="M4,21.21v.45a.35.35,0,0,1,0,.18H4v-.63Zm0-1.89v.54a.31.31,0,0,0,0-.54ZM20.82,8.5a2.52,2.52,0,0,0-5-.05H12.85L11.43,7.17h0a1.55,1.55,0,0,0-1.24-.37,1.54,1.54,0,0,0-1,.68.43.43,0,0,0,0,.07L8.46,8.63,7.25,8.19h0A1.65,1.65,0,0,0,6,8.43l-1.78,0h0a1.83,1.83,0,0,0-1.83,1.84v6.32A4,4,0,0,1,3,16.4H3V11.6a1.82,1.82,0,0,0,1.2.45H6.09l10,0h1.82a.48.48,0,0,1,.48.48V15.1H13.54A1.51,1.51,0,0,0,12,16.61v.14a1.51,1.51,0,0,0,1.5,1.51H18.4v2.47a.48.48,0,0,1-.48.48H7.55l0,.1c0,.1-.06.21-.1.31a1.47,1.47,0,0,1-.1.22h10.6A1.11,1.11,0,0,0,19,20.73V18.26h.11a.87.87,0,0,0,.87-.88V16a.87.87,0,0,0-.87-.88H19V12.57a1.12,1.12,0,0,0-.8-1.07V11h.08A2.52,2.52,0,0,0,20.82,8.5Zm-1.68,7.23a.25.25,0,0,1,.24.25v1.4a.25.25,0,0,1-.24.25h-5.6a.88.88,0,0,1-.87-.88v-.14a.88.88,0,0,1,.87-.88ZM5.36,9.43l-.4,2H4.22a1.2,1.2,0,0,1,0-2.4h0l1.28,0A1.71,1.71,0,0,0,5.36,9.43Zm1.11,2,.14-.67a1.2,1.2,0,0,0,.77,0A1.23,1.23,0,0,0,8,10.14l3.48,1.3Zm6.87,0h0L8,9.43a.32.32,0,0,0-.4.19.19.19,0,0,0,0,.08.64.64,0,0,1-.37.44.62.62,0,0,1-.5-.05.44.44,0,0,0-.59.18.56.56,0,0,0,0,.12l-.21,1H5.6L6,9.55a.94.94,0,0,1,1.1-.75l6.56,2.4h0l.67.25ZM9.92,9.17,10,8.94A.87.87,0,0,0,11,8.81l1.37,1.24Zm4,1.46L11.15,8.12a.33.33,0,0,0-.45,0,.19.19,0,0,0,0,.09.31.31,0,0,1-.22.15.25.25,0,0,1-.22-.09.41.41,0,0,0-.56,0,.47.47,0,0,0-.06.09L9.33,9l-.26-.1.57-1,0,0a.89.89,0,0,1,.62-.39.92.92,0,0,1,.73.21l3.65,3.26Zm2.3.82L13.56,9.07h2.29a2.54,2.54,0,0,0,1.74,1.85v.52Zm.19-2.95a1.89,1.89,0,1,1,1.89,1.9A1.89,1.89,0,0,1,16.41,8.5ZM4,19.32v.54a.31.31,0,0,0,0-.54Zm0,2.34a.35.35,0,0,1,0,.18H4v-.63H4Zm-.73-1.8H2.39v0h.92v-.63h0ZM4,19.32l0,0v.58l0,0a.31.31,0,0,0,0-.54Zm-.73,2.34v-.48l0,0A.49.49,0,0,1,3,20.73v-.14H2.39v.14a1.12,1.12,0,0,0,.89,1.09h.08A.34.34,0,0,1,3.31,21.66ZM4,19.32l0,0v.58l0,0a.31.31,0,0,0,0-.54Z"/><path class="cls-1" d="M18.58,9.67V9.54a.69.69,0,0,0,.36-.89.67.67,0,0,0-.62-.41.16.16,0,0,1,0-.32.16.16,0,0,1,.16.12.25.25,0,0,0,.3.2.25.25,0,0,0,.2-.3h0a.69.69,0,0,0-.4-.48V7.33a.26.26,0,1,0-.51,0v.12a.69.69,0,0,0-.36.89.66.66,0,0,0,.61.41.17.17,0,0,1,.17.16.16.16,0,0,1-.16.16.15.15,0,0,1-.16-.13.26.26,0,0,0-.3-.2.25.25,0,0,0-.21.29v0a.66.66,0,0,0,.4.49v.13a.26.26,0,1,0,.51,0Z"/><path class="cls-1" d="M3.66,16.68a3.39,3.39,0,0,0-.64.06,3.23,3.23,0,0,0-.63.16A3.58,3.58,0,0,0,0,20.25a3.62,3.62,0,0,0,3.66,3.56,3.68,3.68,0,0,0,3.27-2,3.54,3.54,0,0,0,.16-.34c0-.09.07-.19.1-.29a3.42,3.42,0,0,0,.13-1A3.62,3.62,0,0,0,3.66,16.68Zm.35,5a.35.35,0,0,1-.35.35.37.37,0,0,1-.35-.35V20.59H2.25a.35.35,0,1,1,0-.69H3.31V18.83a.35.35,0,0,1,.7,0V19.9H5.07a.35.35,0,1,1,0,.69H4Z"/><path class="cls-1" d="M14.31,4.73V5.89a.16.16,0,0,0,.16.16h.2v.33h-.2a.49.49,0,0,1-.49-.5V4.73H13.7v.56a1.26,1.26,0,0,1-.56,1.06L13,6.08a.92.92,0,0,0,.41-.78V4.73h-.32V4.4h1.61v.33Z"/><rect class="cls-1" x="13.38" y="3.75" width="0.98" height="0.33"/><path class="cls-1" d="M18.8,2.84l.9.8-.19.22-1.12-1H18V2.58h.57A.43.43,0,0,0,19,2.29H18V2h1a.43.43,0,0,0-.41-.29H18V1.42h1.74v.29h-.58a.72.72,0,0,1,.13.28h.45v.3h-.45A.72.72,0,0,1,18.8,2.84Z"/></g></g></svg>